<?xml version="1.0" encoding="iso-8859-1"?>
<!-- Generator: Adobe Illustrator 24.3.0, SVG Export Plug-In . SVG Version: 6.00 Build 0)  -->
<svg version="1.1" xmlns="http://www.w3.org/2000/svg" xmlns:xlink="http://www.w3.org/1999/xlink" x="0px" y="0px"
	 viewBox="0 0 430 252.937" style="enable-background:new 0 0 430 252.937;" xml:space="preserve">
<g id="chain-link-fence-pattern-3">
	<path d="M430,244.707c0-4.508-2.952-8.324-7.028-9.628v-12.018v-26.33c2.142-0.027,4.284-0.069,6.425-0.141v-2.21v-18.495v-2.21
		c-2.142-0.072-4.283-0.114-6.425-0.141V73.381c2.142-0.027,4.284-0.069,6.425-0.141v-2.21V52.534v-2.21
		c-2.142-0.072-4.283-0.114-6.425-0.141V25.475V1.864c-3.945-2.485-7.891-2.485-11.836,0v13.808h-26.088H41.967H18.864V1.864
		c-3.945-2.485-7.891-2.485-11.836,0v23.611v24.708c-2.142,0.028-4.284,0.069-6.426,0.141v2.21v18.495v2.21
		c2.142,0.072,4.284,0.114,6.426,0.141v100.152c-2.142,0.027-4.284,0.069-6.426,0.141v2.21v18.495v2.21
		c2.142,0.072,4.284,0.114,6.426,0.141v26.33v12.018C2.952,236.383,0,240.199,0,244.707v6.904c8.631,1.768,17.261,1.768,25.892,0
		v-6.904c0-0.408-0.031-0.808-0.078-1.204h20.586H383.64h20.547c-0.047,0.395-0.078,0.796-0.078,1.204v6.904
		c8.631,1.768,17.261,1.768,25.892,0V244.707z M400.502,234.966l-8.135-8.136c0.204-0.384,0.324-0.81,0.324-1.258
		c0-0.448-0.12-0.874-0.324-1.258l7.796-7.796c0.393,0.208,0.822,0.324,1.256,0.324c0.434,0,0.864-0.116,1.257-0.324l8.46,8.46
		v1.189l-8.799,8.799H400.502z M379.789,234.966l-8.135-8.136c0.204-0.384,0.324-0.81,0.324-1.258c0-0.448-0.12-0.874-0.324-1.258
		l7.796-7.796c0.393,0.208,0.822,0.324,1.256,0.324c0.434,0,0.864-0.116,1.257-0.324l7.797,7.797c-0.417,0.786-0.417,1.728,0,2.514
		l-8.137,8.136H379.789z M359.076,234.966l-8.135-8.136c0.204-0.384,0.324-0.81,0.324-1.258c0-0.448-0.12-0.874-0.324-1.258
		l7.796-7.796c0.393,0.208,0.822,0.324,1.256,0.324c0.435,0,0.864-0.116,1.257-0.324l7.797,7.797c-0.417,0.786-0.417,1.728,0,2.514
		l-8.136,8.136H359.076z M338.362,234.966l-8.135-8.136c0.204-0.384,0.324-0.81,0.324-1.258c0-0.448-0.12-0.874-0.324-1.258
		l7.796-7.796c0.393,0.208,0.822,0.324,1.256,0.324c0.434,0,0.864-0.116,1.257-0.324l7.797,7.797c-0.417,0.786-0.417,1.728,0,2.514
		l-8.136,8.136H338.362z M317.649,234.966l-8.135-8.136c0.204-0.384,0.324-0.81,0.324-1.258c0-0.448-0.12-0.874-0.324-1.258
		l7.796-7.796c0.393,0.208,0.822,0.324,1.256,0.324c0.434,0,0.864-0.116,1.257-0.324l7.797,7.797c-0.417,0.786-0.417,1.728,0,2.514
		l-8.136,8.136H317.649z M296.935,234.966l-8.135-8.136c0.204-0.384,0.324-0.81,0.324-1.258c0-0.448-0.12-0.874-0.324-1.258
		l7.796-7.796c0.393,0.208,0.822,0.324,1.256,0.324c0.434,0,0.864-0.116,1.257-0.324l7.797,7.797c-0.417,0.786-0.417,1.728,0,2.514
		l-8.136,8.136H296.935z M276.222,234.966l-8.135-8.136c0.204-0.384,0.324-0.81,0.324-1.258c0-0.448-0.12-0.874-0.324-1.258
		l7.796-7.796c0.393,0.208,0.822,0.324,1.256,0.324c0.434,0,0.864-0.116,1.257-0.324l7.797,7.797c-0.417,0.786-0.417,1.728,0,2.514
		l-8.137,8.136H276.222z M255.509,234.966l-8.135-8.136c0.204-0.384,0.324-0.81,0.324-1.258c0-0.448-0.12-0.874-0.324-1.258
		l7.796-7.796c0.393,0.208,0.822,0.324,1.256,0.324c0.435,0,0.864-0.116,1.257-0.324l7.797,7.797c-0.417,0.786-0.417,1.728,0,2.514
		l-8.136,8.136H255.509z M234.795,234.966l-8.135-8.136c0.204-0.384,0.324-0.81,0.324-1.258c0-0.448-0.12-0.874-0.324-1.258
		l7.796-7.796c0.393,0.208,0.822,0.324,1.256,0.324c0.434,0,0.864-0.116,1.257-0.324l7.797,7.797c-0.417,0.786-0.417,1.728,0,2.514
		l-8.136,8.136H234.795z M214.082,234.966l-8.136-8.136c0.204-0.384,0.324-0.81,0.324-1.258c0-0.448-0.12-0.874-0.324-1.258
		l7.796-7.796c0.393,0.208,0.822,0.324,1.256,0.324c0.434,0,0.864-0.116,1.257-0.324l7.797,7.797c-0.417,0.786-0.417,1.728,0,2.514
		l-8.136,8.136H214.082z M193.369,234.966l-8.135-8.136c0.204-0.384,0.324-0.81,0.324-1.258c0-0.448-0.12-0.874-0.324-1.258
		l7.796-7.796c0.393,0.208,0.822,0.324,1.256,0.324c0.434,0,0.864-0.116,1.257-0.324l7.797,7.797c-0.417,0.786-0.417,1.728,0,2.514
		l-8.136,8.136H193.369z M172.655,234.966l-8.135-8.136c0.204-0.384,0.324-0.81,0.324-1.258c0-0.448-0.12-0.874-0.324-1.258
		l7.796-7.796c0.393,0.208,0.822,0.324,1.256,0.324c0.434,0,0.864-0.116,1.257-0.324l7.797,7.797c-0.417,0.786-0.417,1.728,0,2.514
		l-8.137,8.136H172.655z M151.942,234.966l-8.135-8.136c0.204-0.384,0.324-0.81,0.324-1.258c0-0.448-0.12-0.874-0.324-1.258
		l7.796-7.796c0.393,0.208,0.822,0.324,1.256,0.324c0.434,0,0.864-0.116,1.257-0.324l7.797,7.797c-0.417,0.786-0.417,1.728,0,2.514
		l-8.136,8.136H151.942z M131.229,234.966l-8.135-8.136c0.204-0.384,0.324-0.81,0.324-1.258c0-0.448-0.12-0.874-0.324-1.258
		l7.796-7.796c0.393,0.208,0.822,0.324,1.256,0.324c0.434,0,0.864-0.116,1.257-0.324l7.797,7.797c-0.417,0.786-0.417,1.728,0,2.514
		l-8.136,8.136H131.229z M110.515,234.966l-8.135-8.136c0.204-0.384,0.324-0.81,0.324-1.258c0-0.448-0.12-0.874-0.324-1.258
		l7.796-7.796c0.393,0.208,0.822,0.324,1.256,0.324c0.434,0,0.864-0.116,1.257-0.324l7.797,7.797c-0.417,0.786-0.417,1.728,0,2.514
		l-8.136,8.136H110.515z M89.802,234.966l-8.135-8.136c0.204-0.384,0.324-0.81,0.324-1.258c0-0.448-0.12-0.874-0.324-1.258
		l7.796-7.796c0.393,0.208,0.822,0.324,1.256,0.324c0.434,0,0.864-0.116,1.257-0.324l7.797,7.797c-0.417,0.786-0.417,1.728,0,2.514
		l-8.136,8.136H89.802z M69.089,234.966l-8.136-8.136c0.204-0.384,0.324-0.81,0.324-1.258c0-0.448-0.12-0.874-0.324-1.258
		l7.796-7.796c0.393,0.208,0.822,0.324,1.256,0.324c0.434,0,0.864-0.116,1.257-0.324l7.797,7.797c-0.417,0.786-0.417,1.728,0,2.514
		l-8.136,8.136H69.089z M48.375,234.966l-8.135-8.136c0.204-0.384,0.324-0.81,0.324-1.258c0-0.448-0.12-0.874-0.324-1.258
		l7.796-7.796c0.393,0.208,0.822,0.324,1.256,0.324c0.435,0,0.864-0.116,1.257-0.324l7.797,7.797c-0.417,0.786-0.417,1.728,0,2.514
		l-8.136,8.136H48.375z M27.662,234.966l-8.798-8.798v-1.19l8.459-8.459c0.393,0.208,0.822,0.324,1.256,0.324
		c0.434,0,0.864-0.116,1.257-0.324l7.797,7.797c-0.417,0.786-0.417,1.728,0,2.514l-8.136,8.136H27.662z M21.25,24.21l4.586,4.586
		l-6.972,6.972V25.475V24.21H21.25z M380.706,30.422c0.434,0,0.864-0.116,1.257-0.324l7.797,7.797c-0.417,0.786-0.417,1.728,0,2.514
		l-7.797,7.797c-0.786-0.417-1.727-0.417-2.514,0l-7.796-7.796c0.204-0.384,0.324-0.809,0.324-1.258c0-0.448-0.12-0.874-0.324-1.258
		l7.796-7.796C379.843,30.306,380.272,30.422,380.706,30.422z M400.163,213.913l-7.796-7.796c0.204-0.384,0.324-0.81,0.324-1.258
		s-0.12-0.874-0.324-1.258l7.796-7.796c0.393,0.208,0.822,0.324,1.256,0.324c0.434,0,0.864-0.116,1.257-0.324l8.46,8.46v1.189
		l-8.459,8.459C401.891,213.496,400.95,213.496,400.163,213.913z M391.063,222.828l-7.613-7.613l7.613-7.612l7.612,7.612
		L391.063,222.828z M379.45,213.913l-7.796-7.796c0.204-0.384,0.324-0.81,0.324-1.258s-0.12-0.874-0.324-1.258l7.796-7.796
		c0.393,0.208,0.822,0.324,1.256,0.324c0.434,0,0.864-0.116,1.257-0.324l7.797,7.797c-0.417,0.786-0.417,1.728,0,2.514l-7.797,7.797
		C381.177,213.496,380.236,213.496,379.45,213.913z M370.35,222.828l-7.613-7.613l7.613-7.612l7.612,7.612L370.35,222.828z
		 M358.736,213.913l-7.796-7.796c0.204-0.384,0.324-0.81,0.324-1.258s-0.12-0.874-0.324-1.258l7.796-7.796
		c0.393,0.208,0.822,0.324,1.256,0.324c0.435,0,0.864-0.116,1.257-0.324l7.797,7.797c-0.417,0.786-0.417,1.728,0,2.514l-7.797,7.797
		C360.464,213.496,359.523,213.496,358.736,213.913z M349.636,222.828l-7.613-7.613l7.613-7.612l7.613,7.612L349.636,222.828z
		 M338.023,213.913l-7.796-7.796c0.204-0.384,0.324-0.81,0.324-1.258s-0.12-0.874-0.324-1.258l7.796-7.796
		c0.393,0.208,0.822,0.324,1.256,0.324c0.434,0,0.864-0.116,1.257-0.324l7.797,7.797c-0.417,0.786-0.417,1.728,0,2.514l-7.797,7.797
		C339.751,213.496,338.81,213.496,338.023,213.913z M328.923,222.828l-7.613-7.613l7.613-7.612l7.612,7.612L328.923,222.828z
		 M317.31,213.913l-7.796-7.796c0.204-0.384,0.324-0.81,0.324-1.258s-0.12-0.874-0.324-1.258l7.796-7.796
		c0.393,0.208,0.822,0.324,1.256,0.324c0.434,0,0.864-0.116,1.257-0.324l7.797,7.797c-0.417,0.786-0.417,1.728,0,2.514l-7.797,7.797
		C319.037,213.496,318.096,213.496,317.31,213.913z M308.21,222.828l-7.613-7.613l7.613-7.612l7.612,7.612L308.21,222.828z
		 M296.596,213.913l-7.796-7.796c0.204-0.384,0.324-0.81,0.324-1.258s-0.12-0.874-0.324-1.258l7.796-7.796
		c0.393,0.208,0.822,0.324,1.256,0.324c0.434,0,0.864-0.116,1.257-0.324l7.797,7.797c-0.417,0.786-0.417,1.728,0,2.514l-7.797,7.797
		C298.324,213.496,297.383,213.496,296.596,213.913z M287.496,222.828l-7.613-7.613l7.613-7.612l7.612,7.612L287.496,222.828z
		 M275.883,213.913l-7.796-7.796c0.204-0.384,0.324-0.81,0.324-1.258s-0.12-0.874-0.324-1.258l7.796-7.796
		c0.393,0.208,0.822,0.324,1.256,0.324c0.434,0,0.864-0.116,1.257-0.324l7.797,7.797c-0.417,0.786-0.417,1.728,0,2.514l-7.797,7.797
		C277.611,213.496,276.67,213.496,275.883,213.913z M266.783,222.828l-7.613-7.613l7.613-7.612l7.612,7.612L266.783,222.828z
		 M255.169,213.913l-7.796-7.796c0.204-0.384,0.324-0.81,0.324-1.258s-0.12-0.874-0.324-1.258l7.796-7.796
		c0.393,0.208,0.822,0.324,1.256,0.324c0.435,0,0.864-0.116,1.257-0.324l7.797,7.797c-0.417,0.786-0.417,1.728,0,2.514l-7.797,7.797
		C256.897,213.496,255.956,213.496,255.169,213.913z M246.07,222.828l-7.613-7.613l7.613-7.612l7.612,7.612L246.07,222.828z
		 M234.456,213.913l-7.796-7.796c0.204-0.384,0.324-0.81,0.324-1.258s-0.12-0.874-0.324-1.258l7.796-7.796
		c0.393,0.208,0.822,0.324,1.256,0.324c0.434,0,0.864-0.116,1.257-0.324l7.797,7.797c-0.417,0.786-0.417,1.728,0,2.514l-7.797,7.797
		C236.184,213.496,235.243,213.496,234.456,213.913z M225.356,222.828l-7.613-7.613l7.613-7.612l7.612,7.612L225.356,222.828z
		 M213.743,213.913l-7.796-7.796c0.204-0.384,0.324-0.81,0.324-1.258s-0.12-0.874-0.324-1.258l7.796-7.796
		c0.393,0.208,0.822,0.324,1.256,0.324c0.434,0,0.864-0.116,1.257-0.324l7.797,7.797c-0.417,0.786-0.417,1.728,0,2.514l-7.797,7.797
		C215.471,213.496,214.53,213.496,213.743,213.913z M204.643,222.828l-7.613-7.613l7.613-7.612l7.612,7.612L204.643,222.828z
		 M193.029,213.913l-7.796-7.796c0.204-0.384,0.324-0.81,0.324-1.258s-0.12-0.874-0.324-1.258l7.796-7.796
		c0.393,0.208,0.822,0.324,1.256,0.324c0.434,0,0.864-0.116,1.257-0.324l7.797,7.797c-0.417,0.786-0.417,1.728,0,2.514l-7.797,7.797
		C194.757,213.496,193.816,213.496,193.029,213.913z M183.93,222.828l-7.613-7.613l7.613-7.612l7.612,7.612L183.93,222.828z
		 M172.316,213.913l-7.796-7.796c0.204-0.384,0.324-0.81,0.324-1.258s-0.12-0.874-0.324-1.258l7.796-7.796
		c0.393,0.208,0.822,0.324,1.256,0.324c0.434,0,0.864-0.116,1.257-0.324l7.797,7.797c-0.417,0.786-0.417,1.728,0,2.514l-7.797,7.797
		C174.044,213.496,173.103,213.496,172.316,213.913z M163.216,222.828l-7.613-7.613l7.613-7.612l7.612,7.612L163.216,222.828z
		 M151.603,213.913l-7.796-7.796c0.204-0.384,0.324-0.81,0.324-1.258s-0.12-0.874-0.324-1.258l7.796-7.796
		c0.393,0.208,0.822,0.324,1.256,0.324c0.434,0,0.864-0.116,1.257-0.324l7.797,7.797c-0.417,0.786-0.417,1.728,0,2.514l-7.797,7.797
		C153.331,213.496,152.39,213.496,151.603,213.913z M142.503,222.828l-7.613-7.613l7.613-7.612l7.613,7.612L142.503,222.828z
		 M130.889,213.913l-7.796-7.796c0.204-0.384,0.324-0.81,0.324-1.258s-0.12-0.874-0.324-1.258l7.796-7.796
		c0.393,0.208,0.822,0.324,1.256,0.324c0.434,0,0.864-0.116,1.257-0.324l7.797,7.797c-0.417,0.786-0.417,1.728,0,2.514l-7.797,7.797
		C132.617,213.496,131.676,213.496,130.889,213.913z M121.79,222.828l-7.613-7.613l7.613-7.612l7.612,7.612L121.79,222.828z
		 M110.176,213.913l-7.796-7.796c0.204-0.384,0.324-0.81,0.324-1.258s-0.12-0.874-0.324-1.258l7.796-7.796
		c0.393,0.208,0.822,0.324,1.256,0.324c0.434,0,0.864-0.116,1.257-0.324l7.797,7.797c-0.417,0.786-0.417,1.728,0,2.514l-7.797,7.797
		C111.904,213.496,110.963,213.496,110.176,213.913z M101.076,222.828l-7.613-7.613l7.613-7.612l7.612,7.612L101.076,222.828z
		 M89.463,213.913l-7.796-7.796c0.204-0.384,0.324-0.81,0.324-1.258s-0.12-0.874-0.324-1.258l7.796-7.796
		c0.393,0.208,0.822,0.324,1.256,0.324c0.434,0,0.864-0.116,1.257-0.324l7.797,7.797c-0.417,0.786-0.417,1.728,0,2.514l-7.797,7.797
		C91.191,213.496,90.249,213.496,89.463,213.913z M80.363,222.828l-7.613-7.613l7.613-7.612l7.612,7.612L80.363,222.828z
		 M68.749,213.913l-7.796-7.796c0.204-0.384,0.324-0.81,0.324-1.258s-0.12-0.874-0.324-1.258l7.796-7.796
		c0.393,0.208,0.822,0.324,1.256,0.324c0.434,0,0.864-0.116,1.257-0.324l7.797,7.797c-0.417,0.786-0.417,1.728,0,2.514l-7.797,7.797
		C70.477,213.496,69.536,213.496,68.749,213.913z M59.65,222.828l-7.613-7.613l7.613-7.612l7.612,7.612L59.65,222.828z
		 M48.036,213.913l-7.796-7.796c0.204-0.384,0.324-0.81,0.324-1.258s-0.12-0.874-0.324-1.258l7.796-7.796
		c0.393,0.208,0.822,0.324,1.256,0.324c0.435,0,0.864-0.116,1.257-0.324l7.797,7.797c-0.417,0.786-0.417,1.728,0,2.514l-7.797,7.797
		C49.764,213.496,48.823,213.496,48.036,213.913z M38.936,222.828l-7.613-7.613l7.613-7.612l7.612,7.612L38.936,222.828z
		 M27.323,213.913l-8.459-8.459v-1.19l8.459-8.459c0.393,0.208,0.822,0.324,1.256,0.324c0.434,0,0.864-0.116,1.257-0.324
		l7.797,7.797c-0.417,0.786-0.417,1.728,0,2.514l-7.797,7.797C29.051,213.496,28.109,213.496,27.323,213.913z M27.323,30.098
		c0.393,0.208,0.822,0.324,1.256,0.324c0.434,0,0.864-0.116,1.257-0.324l7.797,7.797c-0.417,0.786-0.417,1.728,0,2.514l-7.797,7.797
		c-0.786-0.417-1.727-0.417-2.514,0l-8.459-8.459v-1.19L27.323,30.098z M41.963,24.21l4.586,4.586l-7.613,7.613l-7.613-7.613
		l4.587-4.586H41.963z M49.292,30.422c0.435,0,0.864-0.116,1.257-0.324l7.797,7.797c-0.417,0.786-0.417,1.728,0,2.514l-7.797,7.797
		c-0.786-0.417-1.727-0.417-2.514,0L40.24,40.41c0.204-0.384,0.324-0.809,0.324-1.258c0-0.448-0.12-0.874-0.324-1.258l7.796-7.796
		C48.429,30.306,48.858,30.422,49.292,30.422z M62.677,24.21l4.586,4.586l-7.613,7.613l-7.613-7.613l4.586-4.586H62.677z
		 M70.006,30.422c0.434,0,0.864-0.116,1.257-0.324l7.797,7.797c-0.417,0.786-0.417,1.728,0,2.514l-7.797,7.797
		c-0.786-0.417-1.727-0.417-2.514,0l-7.796-7.796c0.204-0.384,0.324-0.809,0.324-1.258c0-0.448-0.12-0.874-0.324-1.258l7.796-7.796
		C69.143,30.306,69.572,30.422,70.006,30.422z M83.39,24.21l4.586,4.586l-7.613,7.613l-7.613-7.613l4.586-4.586H83.39z
		 M90.719,30.422c0.434,0,0.864-0.116,1.257-0.324l7.797,7.797c-0.417,0.786-0.417,1.728,0,2.514l-7.797,7.797
		c-0.786-0.417-1.727-0.417-2.514,0l-7.796-7.796c0.204-0.384,0.324-0.809,0.324-1.258c0-0.448-0.12-0.874-0.324-1.258l7.796-7.796
		C89.856,30.306,90.285,30.422,90.719,30.422z M104.103,24.21l4.586,4.586l-7.613,7.613l-7.613-7.613l4.586-4.586H104.103z
		 M111.432,30.422c0.434,0,0.864-0.116,1.257-0.324l7.797,7.797c-0.417,0.786-0.417,1.728,0,2.514l-7.797,7.797
		c-0.786-0.417-1.727-0.417-2.514,0l-7.796-7.796c0.204-0.384,0.324-0.809,0.324-1.258c0-0.448-0.12-0.874-0.324-1.258l7.796-7.796
		C110.569,30.306,110.998,30.422,111.432,30.422z M124.817,24.21l4.586,4.586l-7.613,7.613l-7.613-7.613l4.586-4.586H124.817z
		 M132.146,30.422c0.434,0,0.864-0.116,1.257-0.324l7.797,7.797c-0.417,0.786-0.417,1.728,0,2.514l-7.797,7.797
		c-0.786-0.417-1.727-0.417-2.514,0l-7.796-7.796c0.204-0.384,0.324-0.809,0.324-1.258c0-0.448-0.12-0.874-0.324-1.258l7.796-7.796
		C131.283,30.306,131.712,30.422,132.146,30.422z M145.53,24.21l4.586,4.586l-7.613,7.613l-7.613-7.613l4.587-4.586H145.53z
		 M152.859,30.422c0.434,0,0.864-0.116,1.257-0.324l7.797,7.797c-0.417,0.786-0.417,1.728,0,2.514l-7.797,7.797
		c-0.786-0.417-1.727-0.417-2.514,0l-7.796-7.796c0.204-0.384,0.324-0.809,0.324-1.258c0-0.448-0.12-0.874-0.324-1.258l7.796-7.796
		C151.996,30.306,152.425,30.422,152.859,30.422z M166.243,24.21l4.586,4.586l-7.613,7.613l-7.613-7.613l4.586-4.586H166.243z
		 M173.572,30.422c0.434,0,0.864-0.116,1.257-0.324l7.797,7.797c-0.417,0.786-0.417,1.728,0,2.514l-7.797,7.797
		c-0.786-0.417-1.727-0.417-2.514,0l-7.796-7.796c0.204-0.384,0.324-0.809,0.324-1.258c0-0.448-0.12-0.874-0.324-1.258l7.796-7.796
		C172.709,30.306,173.138,30.422,173.572,30.422z M186.957,24.21l4.586,4.586l-7.613,7.613l-7.613-7.613l4.587-4.586H186.957z
		 M194.286,30.422c0.434,0,0.864-0.116,1.257-0.324l7.797,7.797c-0.417,0.786-0.417,1.728,0,2.514l-7.797,7.797
		c-0.786-0.417-1.727-0.417-2.514,0l-7.796-7.796c0.204-0.384,0.324-0.809,0.324-1.258c0-0.448-0.12-0.874-0.324-1.258l7.796-7.796
		C193.423,30.306,193.852,30.422,194.286,30.422z M207.67,24.21l4.586,4.586l-7.613,7.613l-7.613-7.613l4.586-4.586H207.67z
		 M214.999,30.422c0.434,0,0.864-0.116,1.257-0.324l7.797,7.797c-0.417,0.786-0.417,1.728,0,2.514l-7.797,7.797
		c-0.786-0.417-1.727-0.417-2.514,0l-7.796-7.796c0.204-0.384,0.324-0.809,0.324-1.258c0-0.448-0.12-0.874-0.324-1.258l7.796-7.796
		C214.136,30.306,214.565,30.422,214.999,30.422z M228.383,24.21l4.586,4.586l-7.613,7.613l-7.613-7.613l4.586-4.586H228.383z
		 M235.712,30.422c0.434,0,0.864-0.116,1.257-0.324l7.797,7.797c-0.417,0.786-0.417,1.728,0,2.514l-7.797,7.797
		c-0.786-0.417-1.727-0.417-2.514,0l-7.796-7.796c0.204-0.384,0.324-0.809,0.324-1.258c0-0.448-0.12-0.874-0.324-1.258l7.796-7.796
		C234.849,30.306,235.279,30.422,235.712,30.422z M249.097,24.21l4.586,4.586l-7.613,7.613l-7.613-7.613l4.587-4.586H249.097z
		 M256.426,30.422c0.435,0,0.864-0.116,1.257-0.324l7.797,7.797c-0.417,0.786-0.417,1.728,0,2.514l-7.797,7.797
		c-0.786-0.417-1.727-0.417-2.514,0l-7.796-7.796c0.204-0.384,0.324-0.809,0.324-1.258c0-0.448-0.12-0.874-0.324-1.258l7.796-7.796
		C255.563,30.306,255.992,30.422,256.426,30.422z M269.81,24.21l4.586,4.586l-7.613,7.613l-7.613-7.613l4.586-4.586H269.81z
		 M277.139,30.422c0.434,0,0.864-0.116,1.257-0.324l7.797,7.797c-0.417,0.786-0.417,1.728,0,2.514l-7.797,7.797
		c-0.786-0.417-1.727-0.417-2.514,0l-7.796-7.796c0.204-0.384,0.324-0.809,0.324-1.258c0-0.448-0.12-0.874-0.324-1.258l7.796-7.796
		C276.276,30.306,276.705,30.422,277.139,30.422z M290.523,24.21l4.586,4.586l-7.613,7.613l-7.613-7.613l4.586-4.586H290.523z
		 M297.852,30.422c0.434,0,0.864-0.116,1.257-0.324l7.797,7.797c-0.417,0.786-0.417,1.728,0,2.514l-7.797,7.797
		c-0.786-0.417-1.727-0.417-2.514,0L288.8,40.41c0.204-0.384,0.324-0.809,0.324-1.258c0-0.448-0.12-0.874-0.324-1.258l7.796-7.796
		C296.99,30.306,297.419,30.422,297.852,30.422z M311.237,24.21l4.586,4.586l-7.613,7.613l-7.613-7.613l4.586-4.586H311.237z
		 M318.566,30.422c0.434,0,0.864-0.116,1.257-0.324l7.797,7.797c-0.417,0.786-0.417,1.728,0,2.514l-7.797,7.797
		c-0.786-0.417-1.727-0.417-2.514,0l-7.796-7.796c0.204-0.384,0.324-0.809,0.324-1.258c0-0.448-0.12-0.874-0.324-1.258l7.796-7.796
		C317.703,30.306,318.132,30.422,318.566,30.422z M331.95,24.21l4.586,4.586l-7.613,7.613l-7.613-7.613l4.586-4.586H331.95z
		 M339.279,30.422c0.434,0,0.864-0.116,1.257-0.324l7.797,7.797c-0.417,0.786-0.417,1.728,0,2.514l-7.797,7.797
		c-0.786-0.417-1.727-0.417-2.514,0l-7.796-7.796c0.204-0.384,0.324-0.809,0.324-1.258c0-0.448-0.12-0.874-0.324-1.258l7.796-7.796
		C338.416,30.306,338.845,30.422,339.279,30.422z M352.663,24.21l4.586,4.586l-7.613,7.613l-7.613-7.613l4.587-4.586H352.663z
		 M359.992,30.422c0.435,0,0.864-0.116,1.257-0.324l7.797,7.797c-0.417,0.786-0.417,1.728,0,2.514l-7.797,7.797
		c-0.786-0.417-1.727-0.417-2.514,0l-7.796-7.796c0.204-0.384,0.324-0.809,0.324-1.258c0-0.448-0.12-0.874-0.324-1.258l7.796-7.796
		C359.129,30.306,359.559,30.422,359.992,30.422z M377.963,49.509l-7.613,7.613l-7.613-7.613l7.613-7.613L377.963,49.509z
		 M380.706,51.136c0.434,0,0.864-0.116,1.257-0.324l7.797,7.797c-0.417,0.786-0.417,1.728,0,2.514l-7.797,7.797
		c-0.786-0.416-1.727-0.417-2.514,0l-7.796-7.796c0.204-0.384,0.324-0.81,0.324-1.258s-0.12-0.874-0.324-1.258l7.796-7.796
		C379.843,51.019,380.272,51.136,380.706,51.136z M391.063,41.896l7.612,7.613l-7.613,7.613l-7.613-7.613L391.063,41.896z
		 M400.163,30.098c0.393,0.208,0.822,0.324,1.256,0.324c0.434,0,0.864-0.116,1.257-0.324l8.46,8.46v1.189l-8.459,8.46
		c-0.786-0.417-1.727-0.417-2.514,0l-7.796-7.796c0.204-0.384,0.324-0.809,0.324-1.258c0-0.448-0.12-0.874-0.324-1.258
		L400.163,30.098z M408.656,62.94l-5.979,5.979c-0.786-0.416-1.727-0.417-2.514,0l-7.796-7.796c0.204-0.384,0.324-0.81,0.324-1.258
		s-0.12-0.874-0.324-1.258l7.796-7.796c0.393,0.208,0.822,0.324,1.256,0.324c0.434,0,0.864-0.116,1.257-0.324l5.98,5.979V62.94z
		 M400.163,193.2l-7.796-7.796c0.204-0.384,0.324-0.809,0.324-1.258s-0.12-0.874-0.324-1.258l7.796-7.796
		c0.393,0.208,0.822,0.324,1.256,0.324c0.434,0,0.864-0.116,1.257-0.324l5.98,5.98v6.149l-5.979,5.979
		C401.891,192.783,400.95,192.783,400.163,193.2z M391.063,202.115l-7.613-7.613l7.613-7.612l7.612,7.612L391.063,202.115z
		 M379.45,193.2l-7.796-7.796c0.204-0.384,0.324-0.809,0.324-1.258s-0.12-0.874-0.324-1.258l7.796-7.796
		c0.393,0.208,0.822,0.324,1.256,0.324c0.434,0,0.864-0.116,1.257-0.324l7.797,7.797c-0.417,0.786-0.417,1.728,0,2.514l-7.797,7.797
		C381.177,192.783,380.236,192.783,379.45,193.2z M370.35,202.115l-7.613-7.613l7.613-7.612l7.612,7.612L370.35,202.115z
		 M358.736,193.2l-7.796-7.796c0.204-0.384,0.324-0.809,0.324-1.258s-0.12-0.874-0.324-1.258l7.796-7.796
		c0.393,0.208,0.822,0.324,1.256,0.324c0.435,0,0.864-0.116,1.257-0.324l7.797,7.797c-0.417,0.786-0.417,1.728,0,2.514l-7.797,7.797
		C360.464,192.783,359.523,192.783,358.736,193.2z M349.636,202.115l-7.613-7.613l7.613-7.612l7.613,7.612L349.636,202.115z
		 M338.023,193.2l-7.796-7.796c0.204-0.384,0.324-0.809,0.324-1.258s-0.12-0.874-0.324-1.258l7.796-7.796
		c0.393,0.208,0.822,0.324,1.256,0.324c0.434,0,0.864-0.116,1.257-0.324l7.797,7.797c-0.417,0.786-0.417,1.728,0,2.514l-7.797,7.797
		C339.751,192.783,338.81,192.783,338.023,193.2z M328.923,202.115l-7.613-7.613l7.613-7.612l7.612,7.612L328.923,202.115z
		 M317.31,193.2l-7.796-7.796c0.204-0.384,0.324-0.809,0.324-1.258s-0.12-0.874-0.324-1.258l7.796-7.796
		c0.393,0.208,0.822,0.324,1.256,0.324c0.434,0,0.864-0.116,1.257-0.324l7.797,7.797c-0.417,0.786-0.417,1.728,0,2.514l-7.797,7.797
		C319.037,192.783,318.096,192.783,317.31,193.2z M308.21,202.115l-7.613-7.613l7.613-7.612l7.612,7.612L308.21,202.115z
		 M296.596,193.2l-7.796-7.796c0.204-0.384,0.324-0.809,0.324-1.258s-0.12-0.874-0.324-1.258l7.796-7.796
		c0.393,0.208,0.822,0.324,1.256,0.324c0.434,0,0.864-0.116,1.257-0.324l7.797,7.797c-0.417,0.786-0.417,1.728,0,2.514l-7.797,7.797
		C298.324,192.783,297.383,192.783,296.596,193.2z M287.496,202.115l-7.613-7.613l7.613-7.612l7.612,7.612L287.496,202.115z
		 M275.883,193.2l-7.796-7.796c0.204-0.384,0.324-0.809,0.324-1.258s-0.12-0.874-0.324-1.258l7.796-7.796
		c0.393,0.208,0.822,0.324,1.256,0.324c0.434,0,0.864-0.116,1.257-0.324l7.797,7.797c-0.417,0.786-0.417,1.728,0,2.514l-7.797,7.797
		C277.611,192.783,276.67,192.783,275.883,193.2z M266.783,202.115l-7.613-7.613l7.613-7.612l7.612,7.612L266.783,202.115z
		 M255.169,193.2l-7.796-7.796c0.204-0.384,0.324-0.809,0.324-1.258s-0.12-0.874-0.324-1.258l7.796-7.796
		c0.393,0.208,0.822,0.324,1.256,0.324c0.435,0,0.864-0.116,1.257-0.324l7.797,7.797c-0.417,0.786-0.417,1.728,0,2.514l-7.797,7.797
		C256.897,192.783,255.956,192.783,255.169,193.2z M246.07,202.115l-7.613-7.613l7.613-7.612l7.612,7.612L246.07,202.115z
		 M234.456,193.2l-7.796-7.796c0.204-0.384,0.324-0.809,0.324-1.258s-0.12-0.874-0.324-1.258l7.796-7.796
		c0.393,0.208,0.822,0.324,1.256,0.324c0.434,0,0.864-0.116,1.257-0.324l7.797,7.797c-0.417,0.786-0.417,1.728,0,2.514l-7.797,7.797
		C236.184,192.783,235.243,192.783,234.456,193.2z M225.356,202.115l-7.613-7.613l7.613-7.612l7.612,7.612L225.356,202.115z
		 M213.743,193.2l-7.796-7.796c0.204-0.384,0.324-0.809,0.324-1.258s-0.12-0.874-0.324-1.258l7.796-7.796
		c0.393,0.208,0.822,0.324,1.256,0.324c0.434,0,0.864-0.116,1.257-0.324l7.797,7.797c-0.417,0.786-0.417,1.728,0,2.514l-7.797,7.797
		C215.471,192.783,214.53,192.783,213.743,193.2z M204.643,202.115l-7.613-7.613l7.613-7.612l7.612,7.612L204.643,202.115z
		 M193.029,193.2l-7.796-7.796c0.204-0.384,0.324-0.809,0.324-1.258s-0.12-0.874-0.324-1.258l7.796-7.796
		c0.393,0.208,0.822,0.324,1.256,0.324c0.434,0,0.864-0.116,1.257-0.324l7.797,7.797c-0.417,0.786-0.417,1.728,0,2.514l-7.797,7.797
		C194.757,192.783,193.816,192.783,193.029,193.2z M183.93,202.115l-7.613-7.613l7.613-7.612l7.612,7.612L183.93,202.115z
		 M172.316,193.2l-7.796-7.796c0.204-0.384,0.324-0.809,0.324-1.258s-0.12-0.874-0.324-1.258l7.796-7.796
		c0.393,0.208,0.822,0.324,1.256,0.324c0.434,0,0.864-0.116,1.257-0.324l7.797,7.797c-0.417,0.786-0.417,1.728,0,2.514l-7.797,7.797
		C174.044,192.783,173.103,192.783,172.316,193.2z M163.216,202.115l-7.613-7.613l7.613-7.612l7.612,7.612L163.216,202.115z
		 M151.603,193.2l-7.796-7.796c0.204-0.384,0.324-0.809,0.324-1.258s-0.12-0.874-0.324-1.258l7.796-7.796
		c0.393,0.208,0.822,0.324,1.256,0.324c0.434,0,0.864-0.116,1.257-0.324l7.797,7.797c-0.417,0.786-0.417,1.728,0,2.514l-7.797,7.797
		C153.331,192.783,152.39,192.783,151.603,193.2z M142.503,202.115l-7.613-7.613l7.613-7.612l7.613,7.612L142.503,202.115z
		 M130.889,193.2l-7.796-7.796c0.204-0.384,0.324-0.809,0.324-1.258s-0.12-0.874-0.324-1.258l7.796-7.796
		c0.393,0.208,0.822,0.324,1.256,0.324c0.434,0,0.864-0.116,1.257-0.324l7.797,7.797c-0.417,0.786-0.417,1.728,0,2.514l-7.797,7.797
		C132.617,192.783,131.676,192.783,130.889,193.2z M121.79,202.115l-7.613-7.613l7.613-7.612l7.612,7.612L121.79,202.115z
		 M110.176,193.2l-7.796-7.796c0.204-0.384,0.324-0.809,0.324-1.258s-0.12-0.874-0.324-1.258l7.796-7.796
		c0.393,0.208,0.822,0.324,1.256,0.324c0.434,0,0.864-0.116,1.257-0.324l7.797,7.797c-0.417,0.786-0.417,1.728,0,2.514l-7.797,7.797
		C111.904,192.783,110.963,192.783,110.176,193.2z M101.076,202.115l-7.613-7.613l7.613-7.612l7.612,7.612L101.076,202.115z
		 M89.463,193.2l-7.796-7.796c0.204-0.384,0.324-0.809,0.324-1.258s-0.12-0.874-0.324-1.258l7.796-7.796
		c0.393,0.208,0.822,0.324,1.256,0.324c0.434,0,0.864-0.116,1.257-0.324l7.797,7.797c-0.417,0.786-0.417,1.728,0,2.514l-7.797,7.797
		C91.191,192.783,90.249,192.783,89.463,193.2z M80.363,202.115l-7.613-7.613l7.613-7.612l7.612,7.612L80.363,202.115z
		 M68.749,193.2l-7.796-7.796c0.204-0.384,0.324-0.809,0.324-1.258s-0.12-0.874-0.324-1.258l7.796-7.796
		c0.393,0.208,0.822,0.324,1.256,0.324c0.434,0,0.864-0.116,1.257-0.324l7.797,7.797c-0.417,0.786-0.417,1.728,0,2.514l-7.797,7.797
		C70.477,192.783,69.536,192.783,68.749,193.2z M59.65,202.115l-7.613-7.613l7.613-7.612l7.612,7.612L59.65,202.115z M48.036,193.2
		l-7.796-7.796c0.204-0.384,0.324-0.809,0.324-1.258s-0.12-0.874-0.324-1.258l7.796-7.796c0.393,0.208,0.822,0.324,1.256,0.324
		c0.435,0,0.864-0.116,1.257-0.324l7.797,7.797c-0.417,0.786-0.417,1.728,0,2.514l-7.797,7.797
		C49.764,192.783,48.823,192.783,48.036,193.2z M38.936,202.115l-7.613-7.613l7.613-7.612l7.612,7.612L38.936,202.115z
		 M27.323,193.2l-5.979-5.979v-6.15l5.979-5.979c0.393,0.208,0.822,0.324,1.256,0.324c0.434,0,0.864-0.116,1.257-0.324l7.797,7.797
		c-0.417,0.786-0.417,1.728,0,2.514l-7.797,7.797C29.051,192.783,28.109,192.783,27.323,193.2z M21.344,56.79l5.979-5.979
		c0.393,0.208,0.822,0.324,1.256,0.324c0.434,0,0.864-0.116,1.257-0.324l7.797,7.797c-0.417,0.786-0.417,1.728,0,2.514l-7.797,7.797
		c-0.786-0.416-1.727-0.417-2.514,0l-5.979-5.979V56.79z M38.937,41.896l7.612,7.613l-7.613,7.613l-7.613-7.613L38.937,41.896z
		 M49.292,51.136c0.435,0,0.864-0.116,1.257-0.324l7.797,7.797c-0.417,0.786-0.417,1.728,0,2.514l-7.797,7.797
		c-0.786-0.416-1.727-0.417-2.514,0l-7.796-7.796c0.204-0.384,0.324-0.81,0.324-1.258s-0.12-0.874-0.324-1.258l7.796-7.796
		C48.429,51.019,48.858,51.136,49.292,51.136z M59.65,41.896l7.612,7.613l-7.613,7.613l-7.613-7.613L59.65,41.896z M70.006,51.136
		c0.434,0,0.864-0.116,1.257-0.324l7.797,7.797c-0.417,0.786-0.417,1.728,0,2.514l-7.797,7.797c-0.786-0.416-1.727-0.417-2.514,0
		l-7.796-7.796c0.204-0.384,0.324-0.81,0.324-1.258s-0.12-0.874-0.324-1.258l7.796-7.796C69.143,51.019,69.572,51.136,70.006,51.136
		z M80.363,41.896l7.612,7.613l-7.613,7.613l-7.613-7.613L80.363,41.896z M90.719,51.136c0.434,0,0.864-0.116,1.257-0.324
		l7.797,7.797c-0.417,0.786-0.417,1.728,0,2.514l-7.797,7.797c-0.786-0.416-1.727-0.417-2.514,0l-7.796-7.796
		c0.204-0.384,0.324-0.81,0.324-1.258s-0.12-0.874-0.324-1.258l7.796-7.796C89.856,51.019,90.285,51.136,90.719,51.136z
		 M101.077,41.896l7.612,7.613l-7.613,7.613l-7.613-7.613L101.077,41.896z M111.432,51.136c0.434,0,0.864-0.116,1.257-0.324
		l7.797,7.797c-0.417,0.786-0.417,1.728,0,2.514l-7.797,7.797c-0.786-0.416-1.727-0.417-2.514,0l-7.796-7.796
		c0.204-0.384,0.324-0.81,0.324-1.258s-0.12-0.874-0.324-1.258l7.796-7.796C110.569,51.019,110.998,51.136,111.432,51.136z
		 M121.79,41.896l7.612,7.613l-7.613,7.613l-7.613-7.613L121.79,41.896z M132.146,51.136c0.434,0,0.864-0.116,1.257-0.324
		l7.797,7.797c-0.417,0.786-0.417,1.728,0,2.514l-7.797,7.797c-0.786-0.416-1.727-0.417-2.514,0l-7.796-7.796
		c0.204-0.384,0.324-0.81,0.324-1.258s-0.12-0.874-0.324-1.258l7.796-7.796C131.283,51.019,131.712,51.136,132.146,51.136z
		 M142.503,41.896l7.613,7.613l-7.613,7.613l-7.613-7.613L142.503,41.896z M152.859,51.136c0.434,0,0.864-0.116,1.257-0.324
		l7.797,7.797c-0.417,0.786-0.417,1.728,0,2.514l-7.797,7.797c-0.786-0.416-1.727-0.417-2.514,0l-7.796-7.796
		c0.204-0.384,0.324-0.81,0.324-1.258s-0.12-0.874-0.324-1.258l7.796-7.796C151.996,51.019,152.425,51.136,152.859,51.136z
		 M163.217,41.896l7.612,7.613l-7.613,7.613l-7.613-7.613L163.217,41.896z M173.572,51.136c0.434,0,0.864-0.116,1.257-0.324
		l7.797,7.797c-0.417,0.786-0.417,1.728,0,2.514l-7.797,7.797c-0.786-0.416-1.727-0.417-2.514,0l-7.796-7.796
		c0.204-0.384,0.324-0.81,0.324-1.258s-0.12-0.874-0.324-1.258l7.796-7.796C172.709,51.019,173.138,51.136,173.572,51.136z
		 M183.93,41.896l7.612,7.613l-7.613,7.613l-7.613-7.613L183.93,41.896z M194.286,51.136c0.434,0,0.864-0.116,1.257-0.324
		l7.797,7.797c-0.417,0.786-0.417,1.728,0,2.514l-7.797,7.797c-0.786-0.416-1.727-0.417-2.514,0l-7.796-7.796
		c0.204-0.384,0.324-0.81,0.324-1.258s-0.12-0.874-0.324-1.258l7.796-7.796C193.423,51.019,193.852,51.136,194.286,51.136z
		 M204.643,41.896l7.612,7.613l-7.613,7.613l-7.613-7.613L204.643,41.896z M214.999,51.136c0.434,0,0.864-0.116,1.257-0.324
		l7.797,7.797c-0.417,0.786-0.417,1.728,0,2.514l-7.797,7.797c-0.786-0.416-1.727-0.417-2.514,0l-7.796-7.796
		c0.204-0.384,0.324-0.81,0.324-1.258s-0.12-0.874-0.324-1.258l7.796-7.796C214.136,51.019,214.565,51.136,214.999,51.136z
		 M225.357,41.896l7.612,7.613l-7.613,7.613l-7.613-7.613L225.357,41.896z M235.712,51.136c0.434,0,0.864-0.116,1.257-0.324
		l7.797,7.797c-0.417,0.786-0.417,1.728,0,2.514l-7.797,7.797c-0.786-0.416-1.727-0.417-2.514,0l-7.796-7.796
		c0.204-0.384,0.324-0.81,0.324-1.258s-0.12-0.874-0.324-1.258l7.796-7.796C234.849,51.019,235.279,51.136,235.712,51.136z
		 M246.07,41.896l7.612,7.613l-7.613,7.613l-7.613-7.613L246.07,41.896z M256.426,51.136c0.435,0,0.864-0.116,1.257-0.324
		l7.797,7.797c-0.417,0.786-0.417,1.728,0,2.514l-7.797,7.797c-0.786-0.416-1.727-0.417-2.514,0l-7.796-7.796
		c0.204-0.384,0.324-0.81,0.324-1.258s-0.12-0.874-0.324-1.258l7.796-7.796C255.563,51.019,255.992,51.136,256.426,51.136z
		 M266.783,41.896l7.612,7.613l-7.613,7.613l-7.613-7.613L266.783,41.896z M277.139,51.136c0.434,0,0.864-0.116,1.257-0.324
		l7.797,7.797c-0.417,0.786-0.417,1.728,0,2.514l-7.797,7.797c-0.786-0.416-1.727-0.417-2.514,0l-7.796-7.796
		c0.204-0.384,0.324-0.81,0.324-1.258s-0.12-0.874-0.324-1.258l7.796-7.796C276.276,51.019,276.705,51.136,277.139,51.136z
		 M287.497,41.896l7.612,7.613l-7.613,7.613l-7.613-7.613L287.497,41.896z M297.852,51.136c0.434,0,0.864-0.116,1.257-0.324
		l7.797,7.797c-0.417,0.786-0.417,1.728,0,2.514l-7.797,7.797c-0.786-0.416-1.727-0.417-2.514,0l-7.796-7.796
		c0.204-0.384,0.324-0.81,0.324-1.258s-0.12-0.874-0.324-1.258l7.796-7.796C296.99,51.019,297.419,51.136,297.852,51.136z
		 M308.21,41.896l7.612,7.613l-7.613,7.613l-7.613-7.613L308.21,41.896z M318.566,51.136c0.434,0,0.864-0.116,1.257-0.324
		l7.797,7.797c-0.417,0.786-0.417,1.728,0,2.514l-7.797,7.797c-0.786-0.416-1.727-0.417-2.514,0l-7.796-7.796
		c0.204-0.384,0.324-0.81,0.324-1.258s-0.12-0.874-0.324-1.258l7.796-7.796C317.703,51.019,318.132,51.136,318.566,51.136z
		 M328.923,41.896l7.612,7.613l-7.613,7.613l-7.613-7.613L328.923,41.896z M339.279,51.136c0.434,0,0.864-0.116,1.257-0.324
		l7.797,7.797c-0.417,0.786-0.417,1.728,0,2.514l-7.797,7.797c-0.786-0.416-1.727-0.417-2.514,0l-7.796-7.796
		c0.204-0.384,0.324-0.81,0.324-1.258s-0.12-0.874-0.324-1.258l7.796-7.796C338.416,51.019,338.845,51.136,339.279,51.136z
		 M349.637,41.896l7.613,7.613l-7.613,7.613l-7.613-7.613L349.637,41.896z M359.992,51.136c0.435,0,0.864-0.116,1.257-0.324
		l7.797,7.797c-0.417,0.786-0.417,1.728,0,2.514l-7.797,7.797c-0.786-0.416-1.727-0.417-2.514,0l-7.796-7.796
		c0.204-0.384,0.324-0.81,0.324-1.258s-0.12-0.874-0.324-1.258l7.796-7.796C359.129,51.019,359.559,51.136,359.992,51.136z
		 M377.963,70.222l-7.613,7.613l-7.613-7.613l7.613-7.612L377.963,70.222z M380.706,71.849c0.434,0,0.864-0.116,1.257-0.324
		l7.797,7.797c-0.417,0.786-0.417,1.728,0,2.514l-7.797,7.797c-0.786-0.417-1.727-0.417-2.514,0l-7.796-7.796
		c0.204-0.384,0.324-0.809,0.324-1.258c0-0.448-0.12-0.874-0.324-1.258l7.796-7.796C379.843,71.733,380.272,71.849,380.706,71.849z
		 M391.063,62.61l7.612,7.612l-7.613,7.613l-7.613-7.613L391.063,62.61z M401.419,92.562c0.434,0,0.864-0.116,1.257-0.324l8.46,8.46
		v1.189l-8.459,8.459c-0.786-0.417-1.727-0.416-2.514,0l-7.796-7.796c0.204-0.384,0.324-0.81,0.324-1.258
		c0-0.448-0.12-0.874-0.324-1.258l7.796-7.796C400.556,92.446,400.985,92.562,401.419,92.562z M402.677,172.486
		c-0.786-0.417-1.727-0.416-2.514,0l-7.796-7.796c0.204-0.384,0.324-0.81,0.324-1.258c0-0.448-0.12-0.874-0.324-1.258l7.796-7.796
		c0.393,0.208,0.822,0.324,1.256,0.324c0.434,0,0.864-0.116,1.257-0.324l8.46,8.46v1.189L402.677,172.486z M391.063,181.402
		l-7.613-7.613l7.613-7.612l7.612,7.612L391.063,181.402z M379.45,172.486l-7.796-7.796c0.204-0.384,0.324-0.81,0.324-1.258
		c0-0.448-0.12-0.874-0.324-1.258l7.796-7.796c0.393,0.208,0.822,0.324,1.256,0.324c0.434,0,0.864-0.116,1.257-0.324l7.797,7.797
		c-0.417,0.786-0.417,1.728,0,2.514l-7.797,7.797C381.177,172.069,380.236,172.07,379.45,172.486z M370.35,181.402l-7.613-7.613
		l7.613-7.612l7.612,7.612L370.35,181.402z M358.736,172.486l-7.796-7.796c0.204-0.384,0.324-0.81,0.324-1.258
		c0-0.448-0.12-0.874-0.324-1.258l7.796-7.796c0.393,0.208,0.822,0.324,1.256,0.324c0.435,0,0.864-0.116,1.257-0.324l7.797,7.797
		c-0.417,0.786-0.417,1.728,0,2.514l-7.797,7.797C360.464,172.069,359.523,172.07,358.736,172.486z M349.636,181.402l-7.613-7.613
		l7.613-7.612l7.613,7.612L349.636,181.402z M338.023,172.486l-7.796-7.796c0.204-0.384,0.324-0.81,0.324-1.258
		c0-0.448-0.12-0.874-0.324-1.258l7.796-7.796c0.393,0.208,0.822,0.324,1.256,0.324c0.434,0,0.864-0.116,1.257-0.324l7.797,7.797
		c-0.417,0.786-0.417,1.728,0,2.514l-7.797,7.797C339.751,172.069,338.81,172.07,338.023,172.486z M328.923,181.402l-7.613-7.613
		l7.613-7.612l7.612,7.612L328.923,181.402z M317.31,172.486l-7.796-7.796c0.204-0.384,0.324-0.81,0.324-1.258
		c0-0.448-0.12-0.874-0.324-1.258l7.796-7.796c0.393,0.208,0.822,0.324,1.256,0.324c0.434,0,0.864-0.116,1.257-0.324l7.797,7.797
		c-0.417,0.786-0.417,1.728,0,2.514l-7.797,7.797C319.037,172.069,318.096,172.07,317.31,172.486z M308.21,181.402l-7.613-7.613
		l7.613-7.612l7.612,7.612L308.21,181.402z M296.596,172.486l-7.796-7.796c0.204-0.384,0.324-0.81,0.324-1.258
		c0-0.448-0.12-0.874-0.324-1.258l7.796-7.796c0.393,0.208,0.822,0.324,1.256,0.324c0.434,0,0.864-0.116,1.257-0.324l7.797,7.797
		c-0.417,0.786-0.417,1.728,0,2.514l-7.797,7.797C298.324,172.069,297.383,172.07,296.596,172.486z M287.496,181.402l-7.613-7.613
		l7.613-7.612l7.612,7.612L287.496,181.402z M275.883,172.486l-7.796-7.796c0.204-0.384,0.324-0.81,0.324-1.258
		c0-0.448-0.12-0.874-0.324-1.258l7.796-7.796c0.393,0.208,0.822,0.324,1.256,0.324c0.434,0,0.864-0.116,1.257-0.324l7.797,7.797
		c-0.417,0.786-0.417,1.728,0,2.514l-7.797,7.797C277.611,172.069,276.67,172.07,275.883,172.486z M266.783,181.402l-7.613-7.613
		l7.613-7.612l7.612,7.612L266.783,181.402z M255.169,172.486l-7.796-7.796c0.204-0.384,0.324-0.81,0.324-1.258
		c0-0.448-0.12-0.874-0.324-1.258l7.796-7.796c0.393,0.208,0.822,0.324,1.256,0.324c0.435,0,0.864-0.116,1.257-0.324l7.797,7.797
		c-0.417,0.786-0.417,1.728,0,2.514l-7.797,7.797C256.897,172.069,255.956,172.07,255.169,172.486z M246.07,181.402l-7.613-7.613
		l7.613-7.612l7.612,7.612L246.07,181.402z M234.456,172.486l-7.796-7.796c0.204-0.384,0.324-0.81,0.324-1.258
		c0-0.448-0.12-0.874-0.324-1.258l7.796-7.796c0.393,0.208,0.822,0.324,1.256,0.324c0.434,0,0.864-0.116,1.257-0.324l7.797,7.797
		c-0.417,0.786-0.417,1.728,0,2.514l-7.797,7.797C236.184,172.069,235.243,172.07,234.456,172.486z M225.356,181.402l-7.613-7.613
		l7.613-7.612l7.612,7.612L225.356,181.402z M213.743,172.486l-7.796-7.796c0.204-0.384,0.324-0.81,0.324-1.258
		c0-0.448-0.12-0.874-0.324-1.258l7.796-7.796c0.393,0.208,0.822,0.324,1.256,0.324c0.434,0,0.864-0.116,1.257-0.324l7.797,7.797
		c-0.417,0.786-0.417,1.728,0,2.514l-7.797,7.797C215.471,172.069,214.53,172.07,213.743,172.486z M204.643,181.402l-7.613-7.613
		l7.613-7.612l7.612,7.612L204.643,181.402z M193.029,172.486l-7.796-7.796c0.204-0.384,0.324-0.81,0.324-1.258
		c0-0.448-0.12-0.874-0.324-1.258l7.796-7.796c0.393,0.208,0.822,0.324,1.256,0.324c0.434,0,0.864-0.116,1.257-0.324l7.797,7.797
		c-0.417,0.786-0.417,1.728,0,2.514l-7.797,7.797C194.757,172.069,193.816,172.07,193.029,172.486z M183.93,181.402l-7.613-7.613
		l7.613-7.612l7.612,7.612L183.93,181.402z M172.316,172.486l-7.796-7.796c0.204-0.384,0.324-0.81,0.324-1.258
		c0-0.448-0.12-0.874-0.324-1.258l7.796-7.796c0.393,0.208,0.822,0.324,1.256,0.324c0.434,0,0.864-0.116,1.257-0.324l7.797,7.797
		c-0.417,0.786-0.417,1.728,0,2.514l-7.797,7.797C174.044,172.069,173.103,172.07,172.316,172.486z M163.216,181.402l-7.613-7.613
		l7.613-7.612l7.612,7.612L163.216,181.402z M151.603,172.486l-7.796-7.796c0.204-0.384,0.324-0.81,0.324-1.258
		c0-0.448-0.12-0.874-0.324-1.258l7.796-7.796c0.393,0.208,0.822,0.324,1.256,0.324c0.434,0,0.864-0.116,1.257-0.324l7.797,7.797
		c-0.417,0.786-0.417,1.728,0,2.514l-7.797,7.797C153.331,172.069,152.39,172.07,151.603,172.486z M142.503,181.402l-7.613-7.613
		l7.613-7.612l7.613,7.612L142.503,181.402z M130.889,172.486l-7.796-7.796c0.204-0.384,0.324-0.81,0.324-1.258
		c0-0.448-0.12-0.874-0.324-1.258l7.796-7.796c0.393,0.208,0.822,0.324,1.256,0.324c0.434,0,0.864-0.116,1.257-0.324l7.797,7.797
		c-0.417,0.786-0.417,1.728,0,2.514l-7.797,7.797C132.617,172.069,131.676,172.07,130.889,172.486z M121.79,181.402l-7.613-7.613
		l7.613-7.612l7.612,7.612L121.79,181.402z M110.176,172.486l-7.796-7.796c0.204-0.384,0.324-0.81,0.324-1.258
		c0-0.448-0.12-0.874-0.324-1.258l7.796-7.796c0.393,0.208,0.822,0.324,1.256,0.324c0.434,0,0.864-0.116,1.257-0.324l7.797,7.797
		c-0.417,0.786-0.417,1.728,0,2.514l-7.797,7.797C111.904,172.069,110.963,172.07,110.176,172.486z M101.076,181.402l-7.613-7.613
		l7.613-7.612l7.612,7.612L101.076,181.402z M89.463,172.486l-7.796-7.796c0.204-0.384,0.324-0.81,0.324-1.258
		c0-0.448-0.12-0.874-0.324-1.258l7.796-7.796c0.393,0.208,0.822,0.324,1.256,0.324c0.434,0,0.864-0.116,1.257-0.324l7.797,7.797
		c-0.417,0.786-0.417,1.728,0,2.514l-7.797,7.797C91.191,172.069,90.249,172.07,89.463,172.486z M80.363,181.402l-7.613-7.613
		l7.613-7.612l7.612,7.612L80.363,181.402z M68.749,172.486l-7.796-7.796c0.204-0.384,0.324-0.81,0.324-1.258
		c0-0.448-0.12-0.874-0.324-1.258l7.796-7.796c0.393,0.208,0.822,0.324,1.256,0.324c0.434,0,0.864-0.116,1.257-0.324l7.797,7.797
		c-0.417,0.786-0.417,1.728,0,2.514l-7.797,7.797C70.477,172.069,69.536,172.07,68.749,172.486z M59.65,181.402l-7.613-7.613
		l7.613-7.612l7.612,7.612L59.65,181.402z M48.036,172.486l-7.796-7.796c0.204-0.384,0.324-0.81,0.324-1.258
		c0-0.448-0.12-0.874-0.324-1.258l7.796-7.796c0.393,0.208,0.822,0.324,1.256,0.324c0.435,0,0.864-0.116,1.257-0.324l7.797,7.797
		c-0.417,0.786-0.417,1.728,0,2.514l-7.797,7.797C49.764,172.069,48.823,172.07,48.036,172.486z M38.936,181.402l-7.613-7.613
		l7.613-7.612l7.612,7.612L38.936,181.402z M27.323,151.773l-8.459-8.459v-1.19l8.459-8.459c0.393,0.208,0.822,0.324,1.256,0.324
		c0.434,0,0.864-0.116,1.257-0.324l7.797,7.797c-0.417,0.786-0.417,1.728,0,2.514l-7.797,7.797
		C29.051,151.356,28.109,151.356,27.323,151.773z M27.323,92.238c0.393,0.208,0.822,0.324,1.256,0.324
		c0.434,0,0.864-0.116,1.257-0.324l7.797,7.797c-0.417,0.786-0.417,1.728,0,2.514l-7.797,7.797c-0.786-0.417-1.727-0.416-2.514,0
		l-8.459-8.459v-1.19L27.323,92.238z M38.937,62.61l7.612,7.612l-7.613,7.613l-7.613-7.613L38.937,62.61z M49.292,71.849
		c0.435,0,0.864-0.116,1.257-0.324l7.797,7.797c-0.417,0.786-0.417,1.728,0,2.514l-7.797,7.797c-0.786-0.417-1.727-0.417-2.514,0
		l-7.796-7.796c0.204-0.384,0.324-0.809,0.324-1.258c0-0.448-0.12-0.874-0.324-1.258l7.796-7.796
		C48.429,71.733,48.858,71.849,49.292,71.849z M59.65,62.61l7.612,7.612l-7.613,7.613l-7.613-7.613L59.65,62.61z M70.006,71.849
		c0.434,0,0.864-0.116,1.257-0.324l7.797,7.797c-0.417,0.786-0.417,1.728,0,2.514l-7.797,7.797c-0.786-0.417-1.727-0.417-2.514,0
		l-7.796-7.796c0.204-0.384,0.324-0.809,0.324-1.258c0-0.448-0.12-0.874-0.324-1.258l7.796-7.796
		C69.143,71.733,69.572,71.849,70.006,71.849z M80.363,62.61l7.612,7.612l-7.613,7.613l-7.613-7.613L80.363,62.61z M90.719,71.849
		c0.434,0,0.864-0.116,1.257-0.324l7.797,7.797c-0.417,0.786-0.417,1.728,0,2.514l-7.797,7.797c-0.786-0.417-1.727-0.417-2.514,0
		l-7.796-7.796c0.204-0.384,0.324-0.809,0.324-1.258c0-0.448-0.12-0.874-0.324-1.258l7.796-7.796
		C89.856,71.733,90.285,71.849,90.719,71.849z M101.077,62.61l7.612,7.612l-7.613,7.613l-7.613-7.613L101.077,62.61z
		 M111.432,71.849c0.434,0,0.864-0.116,1.257-0.324l7.797,7.797c-0.417,0.786-0.417,1.728,0,2.514l-7.797,7.797
		c-0.786-0.417-1.727-0.417-2.514,0l-7.796-7.796c0.204-0.384,0.324-0.809,0.324-1.258c0-0.448-0.12-0.874-0.324-1.258l7.796-7.796
		C110.569,71.733,110.998,71.849,111.432,71.849z M121.79,62.61l7.612,7.612l-7.613,7.613l-7.613-7.613L121.79,62.61z
		 M132.146,71.849c0.434,0,0.864-0.116,1.257-0.324l7.797,7.797c-0.417,0.786-0.417,1.728,0,2.514l-7.797,7.797
		c-0.786-0.417-1.727-0.417-2.514,0l-7.796-7.796c0.204-0.384,0.324-0.809,0.324-1.258c0-0.448-0.12-0.874-0.324-1.258l7.796-7.796
		C131.283,71.733,131.712,71.849,132.146,71.849z M142.503,62.61l7.613,7.612l-7.613,7.613l-7.613-7.613L142.503,62.61z
		 M152.859,71.849c0.434,0,0.864-0.116,1.257-0.324l7.797,7.797c-0.417,0.786-0.417,1.728,0,2.514l-7.797,7.797
		c-0.786-0.417-1.727-0.417-2.514,0l-7.796-7.796c0.204-0.384,0.324-0.809,0.324-1.258c0-0.448-0.12-0.874-0.324-1.258l7.796-7.796
		C151.996,71.733,152.425,71.849,152.859,71.849z M163.217,62.61l7.612,7.612l-7.613,7.613l-7.613-7.613L163.217,62.61z
		 M173.572,71.849c0.434,0,0.864-0.116,1.257-0.324l7.797,7.797c-0.417,0.786-0.417,1.728,0,2.514l-7.797,7.797
		c-0.786-0.417-1.727-0.417-2.514,0l-7.796-7.796c0.204-0.384,0.324-0.809,0.324-1.258c0-0.448-0.12-0.874-0.324-1.258l7.796-7.796
		C172.709,71.733,173.138,71.849,173.572,71.849z M183.93,62.61l7.612,7.612l-7.613,7.613l-7.613-7.613L183.93,62.61z
		 M194.286,71.849c0.434,0,0.864-0.116,1.257-0.324l7.797,7.797c-0.417,0.786-0.417,1.728,0,2.514l-7.797,7.797
		c-0.786-0.417-1.727-0.417-2.514,0l-7.796-7.796c0.204-0.384,0.324-0.809,0.324-1.258c0-0.448-0.12-0.874-0.324-1.258l7.796-7.796
		C193.423,71.733,193.852,71.849,194.286,71.849z M204.643,62.61l7.612,7.612l-7.613,7.613l-7.613-7.613L204.643,62.61z
		 M214.999,71.849c0.434,0,0.864-0.116,1.257-0.324l7.797,7.797c-0.417,0.786-0.417,1.728,0,2.514l-7.797,7.797
		c-0.786-0.417-1.727-0.417-2.514,0l-7.796-7.796c0.204-0.384,0.324-0.809,0.324-1.258c0-0.448-0.12-0.874-0.324-1.258l7.796-7.796
		C214.136,71.733,214.565,71.849,214.999,71.849z M225.357,62.61l7.612,7.612l-7.613,7.613l-7.613-7.613L225.357,62.61z
		 M235.712,71.849c0.434,0,0.864-0.116,1.257-0.324l7.797,7.797c-0.417,0.786-0.417,1.728,0,2.514l-7.797,7.797
		c-0.786-0.417-1.727-0.417-2.514,0l-7.796-7.796c0.204-0.384,0.324-0.809,0.324-1.258c0-0.448-0.12-0.874-0.324-1.258l7.796-7.796
		C234.849,71.733,235.279,71.849,235.712,71.849z M246.07,62.61l7.612,7.612l-7.613,7.613l-7.613-7.613L246.07,62.61z
		 M256.426,71.849c0.435,0,0.864-0.116,1.257-0.324l7.797,7.797c-0.417,0.786-0.417,1.728,0,2.514l-7.797,7.797
		c-0.786-0.417-1.727-0.417-2.514,0l-7.796-7.796c0.204-0.384,0.324-0.809,0.324-1.258c0-0.448-0.12-0.874-0.324-1.258l7.796-7.796
		C255.563,71.733,255.992,71.849,256.426,71.849z M266.783,62.61l7.612,7.612l-7.613,7.613l-7.613-7.613L266.783,62.61z
		 M277.139,71.849c0.434,0,0.864-0.116,1.257-0.324l7.797,7.797c-0.417,0.786-0.417,1.728,0,2.514l-7.797,7.797
		c-0.786-0.417-1.727-0.417-2.514,0l-7.796-7.796c0.204-0.384,0.324-0.809,0.324-1.258c0-0.448-0.12-0.874-0.324-1.258l7.796-7.796
		C276.276,71.733,276.705,71.849,277.139,71.849z M287.497,62.61l7.612,7.612l-7.613,7.613l-7.613-7.613L287.497,62.61z
		 M297.852,71.849c0.434,0,0.864-0.116,1.257-0.324l7.797,7.797c-0.417,0.786-0.417,1.728,0,2.514l-7.797,7.797
		c-0.786-0.417-1.727-0.417-2.514,0l-7.796-7.796c0.204-0.384,0.324-0.809,0.324-1.258c0-0.448-0.12-0.874-0.324-1.258l7.796-7.796
		C296.99,71.733,297.419,71.849,297.852,71.849z M308.21,62.61l7.612,7.612l-7.613,7.613l-7.613-7.613L308.21,62.61z
		 M318.566,71.849c0.434,0,0.864-0.116,1.257-0.324l7.797,7.797c-0.417,0.786-0.417,1.728,0,2.514l-7.797,7.797
		c-0.786-0.417-1.727-0.417-2.514,0l-7.796-7.796c0.204-0.384,0.324-0.809,0.324-1.258c0-0.448-0.12-0.874-0.324-1.258l7.796-7.796
		C317.703,71.733,318.132,71.849,318.566,71.849z M328.923,62.61l7.612,7.612l-7.613,7.613l-7.613-7.613L328.923,62.61z
		 M339.279,71.849c0.434,0,0.864-0.116,1.257-0.324l7.797,7.797c-0.417,0.786-0.417,1.728,0,2.514l-7.797,7.797
		c-0.786-0.417-1.727-0.417-2.514,0l-7.796-7.796c0.204-0.384,0.324-0.809,0.324-1.258c0-0.448-0.12-0.874-0.324-1.258l7.796-7.796
		C338.416,71.733,338.845,71.849,339.279,71.849z M349.637,62.61l7.613,7.612l-7.613,7.613l-7.613-7.613L349.637,62.61z
		 M359.992,71.849c0.435,0,0.864-0.116,1.257-0.324l7.797,7.797c-0.417,0.786-0.417,1.728,0,2.514l-7.797,7.797
		c-0.786-0.417-1.727-0.417-2.514,0l-7.796-7.796c0.204-0.384,0.324-0.809,0.324-1.258c0-0.448-0.12-0.874-0.324-1.258l7.796-7.796
		C359.129,71.733,359.559,71.849,359.992,71.849z M377.963,90.935l-7.613,7.613l-7.613-7.613l7.613-7.612L377.963,90.935z
		 M380.706,92.562c0.434,0,0.864-0.116,1.257-0.324l7.797,7.797c-0.417,0.786-0.417,1.728,0,2.514l-7.797,7.797
		c-0.786-0.417-1.727-0.416-2.514,0l-7.796-7.796c0.204-0.384,0.324-0.81,0.324-1.258c0-0.448-0.12-0.874-0.324-1.258l7.796-7.796
		C379.843,92.446,380.272,92.562,380.706,92.562z M398.676,111.649l-7.613,7.613l-7.613-7.613l7.613-7.612L398.676,111.649z
		 M401.419,113.276c0.434,0,0.864-0.116,1.257-0.324l8.46,8.46v1.189l-8.459,8.459c-0.786-0.417-1.727-0.416-2.514,0l-7.796-7.796
		c0.204-0.384,0.324-0.81,0.324-1.258c0-0.448-0.12-0.874-0.324-1.258l7.796-7.796C400.556,113.159,400.985,113.276,401.419,113.276
		z M402.677,151.773c-0.786-0.417-1.727-0.416-2.514,0l-7.796-7.796c0.204-0.384,0.324-0.81,0.324-1.258s-0.12-0.874-0.324-1.258
		l7.796-7.796c0.393,0.208,0.822,0.324,1.256,0.324c0.434,0,0.864-0.116,1.257-0.324l8.46,8.46v1.189L402.677,151.773z
		 M391.063,160.688l-7.613-7.613l7.613-7.613l7.612,7.613L391.063,160.688z M379.45,151.773l-7.796-7.796
		c0.204-0.384,0.324-0.81,0.324-1.258s-0.12-0.874-0.324-1.258l7.796-7.796c0.393,0.208,0.822,0.324,1.256,0.324
		c0.434,0,0.864-0.116,1.257-0.324l7.797,7.797c-0.417,0.786-0.417,1.728,0,2.514l-7.797,7.797
		C381.177,151.356,380.236,151.356,379.45,151.773z M370.35,160.688l-7.613-7.613l7.613-7.613l7.612,7.613L370.35,160.688z
		 M358.736,151.773l-7.796-7.796c0.204-0.384,0.324-0.81,0.324-1.258s-0.12-0.874-0.324-1.258l7.796-7.796
		c0.393,0.208,0.822,0.324,1.256,0.324c0.435,0,0.864-0.116,1.257-0.324l7.797,7.797c-0.417,0.786-0.417,1.728,0,2.514l-7.797,7.797
		C360.464,151.356,359.523,151.356,358.736,151.773z M349.636,160.688l-7.613-7.613l7.613-7.613l7.613,7.613L349.636,160.688z
		 M338.023,151.773l-7.796-7.796c0.204-0.384,0.324-0.81,0.324-1.258s-0.12-0.874-0.324-1.258l7.796-7.796
		c0.393,0.208,0.822,0.324,1.256,0.324c0.434,0,0.864-0.116,1.257-0.324l7.797,7.797c-0.417,0.786-0.417,1.728,0,2.514l-7.797,7.797
		C339.751,151.356,338.81,151.356,338.023,151.773z M328.923,160.688l-7.613-7.613l7.613-7.613l7.612,7.613L328.923,160.688z
		 M317.31,151.773l-7.796-7.796c0.204-0.384,0.324-0.81,0.324-1.258s-0.12-0.874-0.324-1.258l7.796-7.796
		c0.393,0.208,0.822,0.324,1.256,0.324c0.434,0,0.864-0.116,1.257-0.324l7.797,7.797c-0.417,0.786-0.417,1.728,0,2.514l-7.797,7.797
		C319.037,151.356,318.096,151.356,317.31,151.773z M308.21,160.688l-7.613-7.613l7.613-7.613l7.612,7.613L308.21,160.688z
		 M296.596,151.773l-7.796-7.796c0.204-0.384,0.324-0.81,0.324-1.258s-0.12-0.874-0.324-1.258l7.796-7.796
		c0.393,0.208,0.822,0.324,1.256,0.324c0.434,0,0.864-0.116,1.257-0.324l7.797,7.797c-0.417,0.786-0.417,1.728,0,2.514l-7.797,7.797
		C298.324,151.356,297.383,151.356,296.596,151.773z M287.496,160.688l-7.613-7.613l7.613-7.613l7.612,7.613L287.496,160.688z
		 M275.883,151.773l-7.796-7.796c0.204-0.384,0.324-0.81,0.324-1.258s-0.12-0.874-0.324-1.258l7.796-7.796
		c0.393,0.208,0.822,0.324,1.256,0.324c0.434,0,0.864-0.116,1.257-0.324l7.797,7.797c-0.417,0.786-0.417,1.728,0,2.514l-7.797,7.797
		C277.611,151.356,276.67,151.356,275.883,151.773z M266.783,160.688l-7.613-7.613l7.613-7.613l7.612,7.613L266.783,160.688z
		 M255.169,151.773l-7.796-7.796c0.204-0.384,0.324-0.81,0.324-1.258s-0.12-0.874-0.324-1.258l7.796-7.796
		c0.393,0.208,0.822,0.324,1.256,0.324c0.435,0,0.864-0.116,1.257-0.324l7.797,7.797c-0.417,0.786-0.417,1.728,0,2.514l-7.797,7.797
		C256.897,151.356,255.956,151.356,255.169,151.773z M246.07,160.688l-7.613-7.613l7.613-7.613l7.612,7.613L246.07,160.688z
		 M234.456,151.773l-7.796-7.796c0.204-0.384,0.324-0.81,0.324-1.258s-0.12-0.874-0.324-1.258l7.796-7.796
		c0.393,0.208,0.822,0.324,1.256,0.324c0.434,0,0.864-0.116,1.257-0.324l7.797,7.797c-0.417,0.786-0.417,1.728,0,2.514l-7.797,7.797
		C236.184,151.356,235.243,151.356,234.456,151.773z M225.356,160.688l-7.613-7.613l7.613-7.613l7.612,7.613L225.356,160.688z
		 M213.743,151.773l-7.796-7.796c0.204-0.384,0.324-0.81,0.324-1.258s-0.12-0.874-0.324-1.258l7.796-7.796
		c0.393,0.208,0.822,0.324,1.256,0.324c0.434,0,0.864-0.116,1.257-0.324l7.797,7.797c-0.417,0.786-0.417,1.728,0,2.514l-7.797,7.797
		C215.471,151.356,214.53,151.356,213.743,151.773z M204.643,160.688l-7.613-7.613l7.613-7.613l7.612,7.613L204.643,160.688z
		 M193.029,151.773l-7.796-7.796c0.204-0.384,0.324-0.81,0.324-1.258s-0.12-0.874-0.324-1.258l7.796-7.796
		c0.393,0.208,0.822,0.324,1.256,0.324c0.434,0,0.864-0.116,1.257-0.324l7.797,7.797c-0.417,0.786-0.417,1.728,0,2.514l-7.797,7.797
		C194.757,151.356,193.816,151.356,193.029,151.773z M183.93,160.688l-7.613-7.613l7.613-7.613l7.612,7.613L183.93,160.688z
		 M172.316,151.773l-7.796-7.796c0.204-0.384,0.324-0.81,0.324-1.258s-0.12-0.874-0.324-1.258l7.796-7.796
		c0.393,0.208,0.822,0.324,1.256,0.324c0.434,0,0.864-0.116,1.257-0.324l7.797,7.797c-0.417,0.786-0.417,1.728,0,2.514l-7.797,7.797
		C174.044,151.356,173.103,151.356,172.316,151.773z M163.216,160.688l-7.613-7.613l7.613-7.613l7.612,7.613L163.216,160.688z
		 M151.603,151.773l-7.796-7.796c0.204-0.384,0.324-0.81,0.324-1.258s-0.12-0.874-0.324-1.258l7.796-7.796
		c0.393,0.208,0.822,0.324,1.256,0.324c0.434,0,0.864-0.116,1.257-0.324l7.797,7.797c-0.417,0.786-0.417,1.728,0,2.514l-7.797,7.797
		C153.331,151.356,152.39,151.356,151.603,151.773z M142.503,160.688l-7.613-7.613l7.613-7.613l7.613,7.613L142.503,160.688z
		 M130.889,151.773l-7.796-7.796c0.204-0.384,0.324-0.81,0.324-1.258s-0.12-0.874-0.324-1.258l7.796-7.796
		c0.393,0.208,0.822,0.324,1.256,0.324c0.434,0,0.864-0.116,1.257-0.324l7.797,7.797c-0.417,0.786-0.417,1.728,0,2.514l-7.797,7.797
		C132.617,151.356,131.676,151.356,130.889,151.773z M121.79,160.688l-7.613-7.613l7.613-7.613l7.612,7.613L121.79,160.688z
		 M110.176,151.773l-7.796-7.796c0.204-0.384,0.324-0.81,0.324-1.258s-0.12-0.874-0.324-1.258l7.796-7.796
		c0.393,0.208,0.822,0.324,1.256,0.324c0.434,0,0.864-0.116,1.257-0.324l7.797,7.797c-0.417,0.786-0.417,1.728,0,2.514l-7.797,7.797
		C111.904,151.356,110.963,151.356,110.176,151.773z M101.076,160.688l-7.613-7.613l7.613-7.613l7.612,7.613L101.076,160.688z
		 M89.463,151.773l-7.796-7.796c0.204-0.384,0.324-0.81,0.324-1.258s-0.12-0.874-0.324-1.258l7.796-7.796
		c0.393,0.208,0.822,0.324,1.256,0.324c0.434,0,0.864-0.116,1.257-0.324l7.797,7.797c-0.417,0.786-0.417,1.728,0,2.514l-7.797,7.797
		C91.191,151.356,90.249,151.356,89.463,151.773z M80.363,160.688l-7.613-7.613l7.613-7.613l7.612,7.613L80.363,160.688z
		 M68.749,151.773l-7.796-7.796c0.204-0.384,0.324-0.81,0.324-1.258s-0.12-0.874-0.324-1.258l7.796-7.796
		c0.393,0.208,0.822,0.324,1.256,0.324c0.434,0,0.864-0.116,1.257-0.324l7.797,7.797c-0.417,0.786-0.417,1.728,0,2.514l-7.797,7.797
		C70.477,151.356,69.536,151.356,68.749,151.773z M59.65,160.688l-7.613-7.613l7.613-7.613l7.612,7.613L59.65,160.688z
		 M48.036,151.773l-7.796-7.796c0.204-0.384,0.324-0.81,0.324-1.258s-0.12-0.874-0.324-1.258l7.796-7.796
		c0.393,0.208,0.822,0.324,1.256,0.324c0.435,0,0.864-0.116,1.257-0.324l7.797,7.797c-0.417,0.786-0.417,1.728,0,2.514l-7.797,7.797
		C49.764,151.356,48.823,151.356,48.036,151.773z M31.323,132.362l7.613-7.612l7.612,7.612l-7.613,7.613L31.323,132.362z
		 M27.323,131.06l-8.459-8.459v-1.19l8.459-8.459c0.393,0.208,0.822,0.324,1.256,0.324c0.434,0,0.864-0.116,1.257-0.324l7.797,7.797
		c-0.417,0.786-0.417,1.728,0,2.514l-7.797,7.797C29.051,130.643,28.109,130.643,27.323,131.06z M38.937,104.036l7.612,7.612
		l-7.613,7.613l-7.613-7.613L38.937,104.036z M48.036,92.238c0.393,0.208,0.822,0.324,1.256,0.324c0.435,0,0.864-0.116,1.257-0.324
		l7.797,7.797c-0.417,0.786-0.417,1.728,0,2.514l-7.797,7.797c-0.786-0.417-1.727-0.416-2.514,0l-7.796-7.796
		c0.204-0.384,0.324-0.81,0.324-1.258c0-0.448-0.12-0.874-0.324-1.258L48.036,92.238z M59.65,83.323l7.612,7.612l-7.613,7.613
		l-7.613-7.613L59.65,83.323z M70.006,92.562c0.434,0,0.864-0.116,1.257-0.324l7.797,7.797c-0.417,0.786-0.417,1.728,0,2.514
		l-7.797,7.797c-0.786-0.417-1.727-0.416-2.514,0l-7.796-7.796c0.204-0.384,0.324-0.81,0.324-1.258c0-0.448-0.12-0.874-0.324-1.258
		l7.796-7.796C69.143,92.446,69.572,92.562,70.006,92.562z M80.363,83.323l7.612,7.612l-7.613,7.613l-7.613-7.613L80.363,83.323z
		 M90.719,92.562c0.434,0,0.864-0.116,1.257-0.324l7.797,7.797c-0.417,0.786-0.417,1.728,0,2.514l-7.797,7.797
		c-0.786-0.417-1.727-0.416-2.514,0l-7.796-7.796c0.204-0.384,0.324-0.81,0.324-1.258c0-0.448-0.12-0.874-0.324-1.258l7.796-7.796
		C89.856,92.446,90.285,92.562,90.719,92.562z M101.077,83.323l7.612,7.612l-7.613,7.613l-7.613-7.613L101.077,83.323z
		 M111.432,92.562c0.434,0,0.864-0.116,1.257-0.324l7.797,7.797c-0.417,0.786-0.417,1.728,0,2.514l-7.797,7.797
		c-0.786-0.417-1.727-0.416-2.514,0l-7.796-7.796c0.204-0.384,0.324-0.81,0.324-1.258c0-0.448-0.12-0.874-0.324-1.258l7.796-7.796
		C110.569,92.446,110.998,92.562,111.432,92.562z M121.79,83.323l7.612,7.612l-7.613,7.613l-7.613-7.613L121.79,83.323z
		 M132.146,92.562c0.434,0,0.864-0.116,1.257-0.324l7.797,7.797c-0.417,0.786-0.417,1.728,0,2.514l-7.797,7.797
		c-0.786-0.417-1.727-0.416-2.514,0l-7.796-7.796c0.204-0.384,0.324-0.81,0.324-1.258c0-0.448-0.12-0.874-0.324-1.258l7.796-7.796
		C131.283,92.446,131.712,92.562,132.146,92.562z M142.503,83.323l7.613,7.612l-7.613,7.613l-7.613-7.613L142.503,83.323z
		 M152.859,92.562c0.434,0,0.864-0.116,1.257-0.324l7.797,7.797c-0.417,0.786-0.417,1.728,0,2.514l-7.797,7.797
		c-0.786-0.417-1.727-0.416-2.514,0l-7.796-7.796c0.204-0.384,0.324-0.81,0.324-1.258c0-0.448-0.12-0.874-0.324-1.258l7.796-7.796
		C151.996,92.446,152.425,92.562,152.859,92.562z M163.217,83.323l7.612,7.612l-7.613,7.613l-7.613-7.613L163.217,83.323z
		 M173.572,92.562c0.434,0,0.864-0.116,1.257-0.324l7.797,7.797c-0.417,0.786-0.417,1.728,0,2.514l-7.797,7.797
		c-0.786-0.417-1.727-0.416-2.514,0l-7.796-7.796c0.204-0.384,0.324-0.81,0.324-1.258c0-0.448-0.12-0.874-0.324-1.258l7.796-7.796
		C172.709,92.446,173.138,92.562,173.572,92.562z M183.93,83.323l7.612,7.612l-7.613,7.613l-7.613-7.613L183.93,83.323z
		 M194.286,92.562c0.434,0,0.864-0.116,1.257-0.324l7.797,7.797c-0.417,0.786-0.417,1.728,0,2.514l-7.797,7.797
		c-0.786-0.417-1.727-0.416-2.514,0l-7.796-7.796c0.204-0.384,0.324-0.81,0.324-1.258c0-0.448-0.12-0.874-0.324-1.258l7.796-7.796
		C193.423,92.446,193.852,92.562,194.286,92.562z M204.643,83.323l7.612,7.612l-7.613,7.613l-7.613-7.613L204.643,83.323z
		 M214.999,92.562c0.434,0,0.864-0.116,1.257-0.324l7.797,7.797c-0.417,0.786-0.417,1.728,0,2.514l-7.797,7.797
		c-0.786-0.417-1.727-0.416-2.514,0l-7.796-7.796c0.204-0.384,0.324-0.81,0.324-1.258c0-0.448-0.12-0.874-0.324-1.258l7.796-7.796
		C214.136,92.446,214.565,92.562,214.999,92.562z M225.357,83.323l7.612,7.612l-7.613,7.613l-7.613-7.613L225.357,83.323z
		 M235.712,92.562c0.434,0,0.864-0.116,1.257-0.324l7.797,7.797c-0.417,0.786-0.417,1.728,0,2.514l-7.797,7.797
		c-0.786-0.417-1.727-0.416-2.514,0l-7.796-7.796c0.204-0.384,0.324-0.81,0.324-1.258c0-0.448-0.12-0.874-0.324-1.258l7.796-7.796
		C234.849,92.446,235.279,92.562,235.712,92.562z M246.07,83.323l7.612,7.612l-7.613,7.613l-7.613-7.613L246.07,83.323z
		 M256.426,92.562c0.435,0,0.864-0.116,1.257-0.324l7.797,7.797c-0.417,0.786-0.417,1.728,0,2.514l-7.797,7.797
		c-0.786-0.417-1.727-0.416-2.514,0l-7.796-7.796c0.204-0.384,0.324-0.81,0.324-1.258c0-0.448-0.12-0.874-0.324-1.258l7.796-7.796
		C255.563,92.446,255.992,92.562,256.426,92.562z M266.783,83.323l7.612,7.612l-7.613,7.613l-7.613-7.613L266.783,83.323z
		 M277.139,92.562c0.434,0,0.864-0.116,1.257-0.324l7.797,7.797c-0.417,0.786-0.417,1.728,0,2.514l-7.797,7.797
		c-0.786-0.417-1.727-0.416-2.514,0l-7.796-7.796c0.204-0.384,0.324-0.81,0.324-1.258c0-0.448-0.12-0.874-0.324-1.258l7.796-7.796
		C276.276,92.446,276.705,92.562,277.139,92.562z M287.497,83.323l7.612,7.612l-7.613,7.613l-7.613-7.613L287.497,83.323z
		 M297.852,92.562c0.434,0,0.864-0.116,1.257-0.324l7.797,7.797c-0.417,0.786-0.417,1.728,0,2.514l-7.797,7.797
		c-0.786-0.417-1.727-0.416-2.514,0l-7.796-7.796c0.204-0.384,0.324-0.81,0.324-1.258c0-0.448-0.12-0.874-0.324-1.258l7.796-7.796
		C296.99,92.446,297.419,92.562,297.852,92.562z M308.21,83.323l7.612,7.612l-7.613,7.613l-7.613-7.613L308.21,83.323z
		 M318.566,92.562c0.434,0,0.864-0.116,1.257-0.324l7.797,7.797c-0.417,0.786-0.417,1.728,0,2.514l-7.797,7.797
		c-0.786-0.417-1.727-0.416-2.514,0l-7.796-7.796c0.204-0.384,0.324-0.81,0.324-1.258c0-0.448-0.12-0.874-0.324-1.258l7.796-7.796
		C317.703,92.446,318.132,92.562,318.566,92.562z M328.923,83.323l7.612,7.612l-7.613,7.613l-7.613-7.613L328.923,83.323z
		 M339.279,92.562c0.434,0,0.864-0.116,1.257-0.324l7.797,7.797c-0.417,0.786-0.417,1.728,0,2.514l-7.797,7.797
		c-0.786-0.417-1.727-0.416-2.514,0l-7.796-7.796c0.204-0.384,0.324-0.81,0.324-1.258c0-0.448-0.12-0.874-0.324-1.258l7.796-7.796
		C338.416,92.446,338.845,92.562,339.279,92.562z M349.637,83.323l7.613,7.612l-7.613,7.613l-7.613-7.613L349.637,83.323z
		 M359.992,92.562c0.435,0,0.864-0.116,1.257-0.324l7.797,7.797c-0.417,0.786-0.417,1.728,0,2.514l-7.797,7.797
		c-0.786-0.417-1.727-0.416-2.514,0l-7.796-7.796c0.204-0.384,0.324-0.81,0.324-1.258c0-0.448-0.12-0.874-0.324-1.258l7.796-7.796
		C359.129,92.446,359.559,92.562,359.992,92.562z M377.963,111.649l-7.613,7.613l-7.613-7.613l7.613-7.612L377.963,111.649z
		 M380.706,113.276c0.434,0,0.864-0.116,1.257-0.324l7.797,7.797c-0.417,0.786-0.417,1.728,0,2.514l-7.797,7.797
		c-0.786-0.417-1.727-0.416-2.514,0l-7.796-7.796c0.204-0.384,0.324-0.81,0.324-1.258c0-0.448-0.12-0.874-0.324-1.258l7.796-7.796
		C379.843,113.159,380.272,113.276,380.706,113.276z M398.676,132.362l-7.613,7.613l-7.613-7.613l7.613-7.612L398.676,132.362z
		 M370.35,139.975l-7.613-7.613l7.613-7.612l7.612,7.612L370.35,139.975z M358.736,131.06l-7.796-7.796
		c0.204-0.384,0.324-0.81,0.324-1.258c0-0.448-0.12-0.874-0.324-1.258l7.796-7.796c0.393,0.208,0.822,0.324,1.256,0.324
		c0.435,0,0.864-0.116,1.257-0.324l7.797,7.797c-0.417,0.786-0.417,1.728,0,2.514l-7.797,7.797
		C360.464,130.643,359.523,130.643,358.736,131.06z M349.636,139.975l-7.613-7.613l7.613-7.612l7.613,7.612L349.636,139.975z
		 M338.023,131.06l-7.796-7.796c0.204-0.384,0.324-0.81,0.324-1.258c0-0.448-0.12-0.874-0.324-1.258l7.796-7.796
		c0.393,0.208,0.822,0.324,1.256,0.324c0.434,0,0.864-0.116,1.257-0.324l7.797,7.797c-0.417,0.786-0.417,1.728,0,2.514l-7.797,7.797
		C339.751,130.643,338.81,130.643,338.023,131.06z M328.923,139.975l-7.613-7.613l7.613-7.612l7.612,7.612L328.923,139.975z
		 M317.31,131.06l-7.796-7.796c0.204-0.384,0.324-0.81,0.324-1.258c0-0.448-0.12-0.874-0.324-1.258l7.796-7.796
		c0.393,0.208,0.822,0.324,1.256,0.324c0.434,0,0.864-0.116,1.257-0.324l7.797,7.797c-0.417,0.786-0.417,1.728,0,2.514l-7.797,7.797
		C319.037,130.643,318.096,130.643,317.31,131.06z M308.21,139.975l-7.613-7.613l7.613-7.612l7.612,7.612L308.21,139.975z
		 M296.596,131.06l-7.796-7.796c0.204-0.384,0.324-0.81,0.324-1.258c0-0.448-0.12-0.874-0.324-1.258l7.796-7.796
		c0.393,0.208,0.822,0.324,1.256,0.324c0.434,0,0.864-0.116,1.257-0.324l7.797,7.797c-0.417,0.786-0.417,1.728,0,2.514l-7.797,7.797
		C298.324,130.643,297.383,130.643,296.596,131.06z M287.496,139.975l-7.613-7.613l7.613-7.612l7.612,7.612L287.496,139.975z
		 M275.883,131.06l-7.796-7.796c0.204-0.384,0.324-0.81,0.324-1.258c0-0.448-0.12-0.874-0.324-1.258l7.796-7.796
		c0.393,0.208,0.822,0.324,1.256,0.324c0.434,0,0.864-0.116,1.257-0.324l7.797,7.797c-0.417,0.786-0.417,1.728,0,2.514l-7.797,7.797
		C277.611,130.643,276.67,130.643,275.883,131.06z M266.783,139.975l-7.613-7.613l7.613-7.612l7.612,7.612L266.783,139.975z
		 M255.169,131.06l-7.796-7.796c0.204-0.384,0.324-0.81,0.324-1.258c0-0.448-0.12-0.874-0.324-1.258l7.796-7.796
		c0.393,0.208,0.822,0.324,1.256,0.324c0.435,0,0.864-0.116,1.257-0.324l7.797,7.797c-0.417,0.786-0.417,1.728,0,2.514l-7.797,7.797
		C256.897,130.643,255.956,130.643,255.169,131.06z M246.07,139.975l-7.613-7.613l7.613-7.612l7.612,7.612L246.07,139.975z
		 M234.456,131.06l-7.796-7.796c0.204-0.384,0.324-0.81,0.324-1.258c0-0.448-0.12-0.874-0.324-1.258l7.796-7.796
		c0.393,0.208,0.822,0.324,1.256,0.324c0.434,0,0.864-0.116,1.257-0.324l7.797,7.797c-0.417,0.786-0.417,1.728,0,2.514l-7.797,7.797
		C236.184,130.643,235.243,130.643,234.456,131.06z M225.356,139.975l-7.613-7.613l7.613-7.612l7.612,7.612L225.356,139.975z
		 M213.743,131.06l-7.796-7.796c0.204-0.384,0.324-0.81,0.324-1.258c0-0.448-0.12-0.874-0.324-1.258l7.796-7.796
		c0.393,0.208,0.822,0.324,1.256,0.324c0.434,0,0.864-0.116,1.257-0.324l7.797,7.797c-0.417,0.786-0.417,1.728,0,2.514l-7.797,7.797
		C215.471,130.643,214.53,130.643,213.743,131.06z M204.643,139.975l-7.613-7.613l7.613-7.612l7.612,7.612L204.643,139.975z
		 M193.029,131.06l-7.796-7.796c0.204-0.384,0.324-0.81,0.324-1.258c0-0.448-0.12-0.874-0.324-1.258l7.796-7.796
		c0.393,0.208,0.822,0.324,1.256,0.324c0.434,0,0.864-0.116,1.257-0.324l7.797,7.797c-0.417,0.786-0.417,1.728,0,2.514l-7.797,7.797
		C194.757,130.643,193.816,130.643,193.029,131.06z M183.93,139.975l-7.613-7.613l7.613-7.612l7.612,7.612L183.93,139.975z
		 M172.316,131.06l-7.796-7.796c0.204-0.384,0.324-0.81,0.324-1.258c0-0.448-0.12-0.874-0.324-1.258l7.796-7.796
		c0.393,0.208,0.822,0.324,1.256,0.324c0.434,0,0.864-0.116,1.257-0.324l7.797,7.797c-0.417,0.786-0.417,1.728,0,2.514l-7.797,7.797
		C174.044,130.643,173.103,130.643,172.316,131.06z M163.216,139.975l-7.613-7.613l7.613-7.612l7.612,7.612L163.216,139.975z
		 M151.603,131.06l-7.796-7.796c0.204-0.384,0.324-0.81,0.324-1.258c0-0.448-0.12-0.874-0.324-1.258l7.796-7.796
		c0.393,0.208,0.822,0.324,1.256,0.324c0.434,0,0.864-0.116,1.257-0.324l7.797,7.797c-0.417,0.786-0.417,1.728,0,2.514l-7.797,7.797
		C153.331,130.643,152.39,130.643,151.603,131.06z M142.503,139.975l-7.613-7.613l7.613-7.612l7.613,7.612L142.503,139.975z
		 M130.889,131.06l-7.796-7.796c0.204-0.384,0.324-0.81,0.324-1.258c0-0.448-0.12-0.874-0.324-1.258l7.796-7.796
		c0.393,0.208,0.822,0.324,1.256,0.324c0.434,0,0.864-0.116,1.257-0.324l7.797,7.797c-0.417,0.786-0.417,1.728,0,2.514l-7.797,7.797
		C132.617,130.643,131.676,130.643,130.889,131.06z M121.79,139.975l-7.613-7.613l7.613-7.612l7.612,7.612L121.79,139.975z
		 M110.176,131.06l-7.796-7.796c0.204-0.384,0.324-0.81,0.324-1.258c0-0.448-0.12-0.874-0.324-1.258l7.796-7.796
		c0.393,0.208,0.822,0.324,1.256,0.324c0.434,0,0.864-0.116,1.257-0.324l7.797,7.797c-0.417,0.786-0.417,1.728,0,2.514l-7.797,7.797
		C111.904,130.643,110.963,130.643,110.176,131.06z M101.076,139.975l-7.613-7.613l7.613-7.612l7.612,7.612L101.076,139.975z
		 M89.463,131.06l-7.796-7.796c0.204-0.384,0.324-0.81,0.324-1.258c0-0.448-0.12-0.874-0.324-1.258l7.796-7.796
		c0.393,0.208,0.822,0.324,1.256,0.324c0.434,0,0.864-0.116,1.257-0.324l7.797,7.797c-0.417,0.786-0.417,1.728,0,2.514l-7.797,7.797
		C91.191,130.643,90.249,130.643,89.463,131.06z M80.363,139.975l-7.613-7.613l7.613-7.612l7.612,7.612L80.363,139.975z
		 M68.749,131.06l-7.796-7.796c0.204-0.384,0.324-0.81,0.324-1.258c0-0.448-0.12-0.874-0.324-1.258l7.796-7.796
		c0.393,0.208,0.822,0.324,1.256,0.324c0.434,0,0.864-0.116,1.257-0.324l7.797,7.797c-0.417,0.786-0.417,1.728,0,2.514l-7.797,7.797
		C70.477,130.643,69.536,130.643,68.749,131.06z M59.65,139.975l-7.613-7.613l7.613-7.612l7.612,7.612L59.65,139.975z
		 M48.036,131.06l-7.796-7.796c0.204-0.384,0.324-0.81,0.324-1.258c0-0.448-0.12-0.874-0.324-1.258l7.796-7.796
		c0.393,0.208,0.822,0.324,1.256,0.324c0.435,0,0.864-0.116,1.257-0.324l7.797,7.797c-0.417,0.786-0.417,1.728,0,2.514l-7.797,7.797
		C49.764,130.643,48.823,130.643,48.036,131.06z M59.65,104.036l7.612,7.612l-7.613,7.613l-7.613-7.613L59.65,104.036z
		 M80.363,104.036l7.612,7.612l-7.613,7.613l-7.613-7.613L80.363,104.036z M101.077,104.036l7.612,7.612l-7.613,7.613l-7.613-7.613
		L101.077,104.036z M121.79,104.036l7.612,7.612l-7.613,7.613l-7.613-7.613L121.79,104.036z M142.503,104.036l7.613,7.612
		l-7.613,7.613l-7.613-7.613L142.503,104.036z M163.217,104.036l7.612,7.612l-7.613,7.613l-7.613-7.613L163.217,104.036z
		 M183.93,104.036l7.612,7.612l-7.613,7.613l-7.613-7.613L183.93,104.036z M204.643,104.036l7.612,7.612l-7.613,7.613l-7.613-7.613
		L204.643,104.036z M225.357,104.036l7.612,7.612l-7.613,7.613l-7.613-7.613L225.357,104.036z M246.07,104.036l7.612,7.612
		l-7.613,7.613l-7.613-7.613L246.07,104.036z M266.783,104.036l7.612,7.612l-7.613,7.613l-7.613-7.613L266.783,104.036z
		 M287.497,104.036l7.612,7.612l-7.613,7.613l-7.613-7.613L287.497,104.036z M308.21,104.036l7.612,7.612l-7.613,7.613l-7.613-7.613
		L308.21,104.036z M328.923,104.036l7.612,7.612l-7.613,7.613l-7.613-7.613L328.923,104.036z M349.637,104.036l7.613,7.612
		l-7.613,7.613l-7.613-7.613L349.637,104.036z M411.136,139.335l-6.973-6.973l6.973-6.972V139.335z M411.136,118.621l-6.973-6.973
		l6.973-6.972V118.621z M38.937,83.323l7.612,7.612l-7.613,7.613l-7.613-7.613L38.937,83.323z M18.864,104.677l6.972,6.972
		l-6.972,6.972V104.677z M18.864,125.39l6.972,6.972l-6.972,6.972V125.39z M38.937,145.463l7.612,7.613l-7.613,7.613l-7.613-7.613
		L38.937,145.463z M404.163,153.076l6.973-6.972v13.945L404.163,153.076z M411.136,97.908l-6.973-6.973l6.973-6.972V97.908z
		 M391.063,98.548l-7.613-7.613l7.613-7.612l7.612,7.612L391.063,98.548z M27.323,71.525c0.393,0.208,0.822,0.324,1.256,0.324
		c0.434,0,0.864-0.116,1.257-0.324l7.797,7.797c-0.417,0.786-0.417,1.728,0,2.514l-7.797,7.797c-0.786-0.417-1.727-0.417-2.514,0
		l-8.459-8.459v-1.19L27.323,71.525z M25.836,90.935l-6.972,6.972V83.963L25.836,90.935z M18.864,146.104l6.972,6.972l-6.972,6.972
		V146.104z M18.864,162.837l8.459-8.459c0.393,0.208,0.822,0.324,1.256,0.324c0.434,0,0.864-0.116,1.257-0.324l7.797,7.797
		c-0.417,0.786-0.417,1.728,0,2.514l-7.797,7.797c-0.786-0.417-1.727-0.416-2.514,0l-8.459-8.459V162.837z M408.656,190.01v4.369
		v2.21c0.827,0.028,1.653,0.041,2.48,0.063v4.822l-6.973-6.973L408.656,190.01z M408.656,173.674v2.21v2.397l-4.493-4.493
		l6.973-6.972v6.795C410.309,173.633,409.483,173.646,408.656,173.674z M411.136,81.173l-8.459,8.46
		c-0.786-0.417-1.727-0.417-2.514,0l-7.796-7.796c0.204-0.384,0.324-0.809,0.324-1.258c0-0.448-0.12-0.874-0.324-1.258l7.796-7.796
		c0.393,0.208,0.822,0.324,1.256,0.324c0.434,0,0.864-0.116,1.257-0.324l8.46,8.46V81.173z M25.836,49.509l-4.492,4.492v-1.467
		v-2.21c-0.826-0.028-1.653-0.041-2.48-0.063v-7.724L25.836,49.509z M21.344,73.239v-2.21V65.73l4.492,4.492l-6.972,6.972v-3.892
		C19.69,73.281,20.517,73.267,21.344,73.239z M25.836,173.789l-4.492,4.492v-2.396v-2.21c-0.826-0.028-1.653-0.041-2.48-0.063
		v-6.795L25.836,173.789z M21.344,196.59v-2.21v-4.369l4.492,4.492l-6.972,6.972v-4.822C19.69,196.631,20.517,196.618,21.344,196.59
		z M18.864,208.243l6.972,6.972l-6.972,6.972V208.243z M411.136,208.244v13.945l-6.973-6.973L411.136,208.244z M411.136,77.195
		l-6.973-6.973l4.493-4.492v5.299v2.21c0.827,0.028,1.653,0.041,2.48,0.063V77.195z M408.656,50.324v2.21v1.467l-4.493-4.492
		l6.973-6.972v7.724C410.309,50.282,409.483,50.296,408.656,50.324z M411.136,24.21v1.265v10.293l-6.973-6.973l4.586-4.586H411.136z
		 M402.677,27.493c-0.786-0.417-1.727-0.417-2.514,0l-3.283-3.283h9.08L402.677,27.493z M394.09,24.21l4.586,4.586l-7.613,7.613
		l-7.613-7.613l4.587-4.586H394.09z M370.35,36.408l-7.613-7.613l4.586-4.586h6.054l4.586,4.586L370.35,36.408z M361.25,27.493
		c-0.786-0.417-1.727-0.417-2.514,0l-3.283-3.283h9.08L361.25,27.493z M340.537,27.493c-0.786-0.417-1.727-0.417-2.514,0
		l-3.283-3.283h9.08L340.537,27.493z M319.823,27.493c-0.786-0.417-1.727-0.417-2.514,0l-3.283-3.283h9.08L319.823,27.493z
		 M299.11,27.493c-0.786-0.417-1.727-0.417-2.514,0l-3.283-3.283h9.08L299.11,27.493z M278.397,27.493
		c-0.786-0.417-1.727-0.417-2.514,0L272.6,24.21h9.08L278.397,27.493z M257.683,27.493c-0.786-0.417-1.727-0.417-2.514,0
		l-3.283-3.283h9.08L257.683,27.493z M236.97,27.493c-0.786-0.417-1.727-0.417-2.514,0l-3.283-3.283h9.08L236.97,27.493z
		 M216.257,27.493c-0.786-0.417-1.727-0.417-2.514,0l-3.283-3.283h9.08L216.257,27.493z M195.543,27.493
		c-0.786-0.417-1.727-0.417-2.514,0l-3.283-3.283h9.08L195.543,27.493z M174.83,27.493c-0.786-0.417-1.727-0.417-2.514,0
		l-3.283-3.283h9.08L174.83,27.493z M154.117,27.493c-0.786-0.417-1.727-0.417-2.514,0l-3.283-3.283h9.08L154.117,27.493z
		 M133.403,27.493c-0.786-0.417-1.727-0.417-2.514,0l-3.283-3.283h9.08L133.403,27.493z M112.69,27.493
		c-0.786-0.417-1.727-0.417-2.514,0l-3.283-3.283h9.08L112.69,27.493z M91.977,27.493c-0.786-0.417-1.727-0.417-2.514,0L86.18,24.21
		h9.08L91.977,27.493z M71.263,27.493c-0.786-0.417-1.727-0.417-2.514,0l-3.283-3.283h9.08L71.263,27.493z M50.55,27.493
		c-0.786-0.417-1.727-0.417-2.514,0l-3.283-3.283h9.08L50.55,27.493z M29.837,27.493c-0.786-0.417-1.727-0.417-2.514,0L24.04,24.21
		h9.08L29.837,27.493z M18.864,228.957l6.009,6.009h-6.009V228.957z M38.937,228.316l6.649,6.649H32.287L38.937,228.316z
		 M59.65,228.316l6.649,6.649H53L59.65,228.316z M80.363,228.316l6.649,6.649H73.713L80.363,228.316z M101.077,228.316l6.649,6.649
		H94.427L101.077,228.316z M121.79,228.316l6.649,6.649H115.14L121.79,228.316z M142.503,228.316l6.649,6.649h-13.299
		L142.503,228.316z M163.217,228.316l6.649,6.649h-13.299L163.217,228.316z M183.93,228.316l6.649,6.649H177.28L183.93,228.316z
		 M204.643,228.316l6.649,6.649h-13.299L204.643,228.316z M225.357,228.316l6.649,6.649h-13.299L225.357,228.316z M246.07,228.316
		l6.649,6.649H239.42L246.07,228.316z M266.783,228.316l6.649,6.649h-13.299L266.783,228.316z M287.497,228.316l6.649,6.649h-13.299
		L287.497,228.316z M308.21,228.316l6.649,6.649H301.56L308.21,228.316z M328.923,228.316l6.649,6.649h-13.299L328.923,228.316z
		 M349.637,228.316l6.649,6.649h-13.299L349.637,228.316z M370.35,228.316l6.649,6.649H363.7L370.35,228.316z M391.063,228.316
		l6.649,6.649h-13.299L391.063,228.316z M411.136,228.957v6.009h-6.009L411.136,228.957z M385.246,24.21l-3.283,3.283
		c-0.786-0.417-1.727-0.417-2.514,0l-3.283-3.283h8.882H385.246z"/>
</g>
<g id="Layer_1">
</g>
</svg>
