<?xml version="1.0" encoding="iso-8859-1"?>
<!-- Generator: Adobe Illustrator 24.3.0, SVG Export Plug-In . SVG Version: 6.00 Build 0)  -->
<svg version="1.1" xmlns="http://www.w3.org/2000/svg" xmlns:xlink="http://www.w3.org/1999/xlink" x="0px" y="0px"
	 viewBox="0 0 430 276.223" style="enable-background:new 0 0 430 276.223;" xml:space="preserve">
<g id="chain-link-fence-pattern-4">
	<path d="M413.427,2.072v21.127h-2.341l-7.184-7.185c-1.422-1.422-3.913-1.422-5.332,0l-7.185,7.185h-0.958h-5.945l-7.186-7.185
		c-1.471-1.472-3.863-1.469-5.332,0l-7.185,7.185h-6.904l-7.185-7.185c-1.469-1.469-3.86-1.472-5.332,0l-7.185,7.185h-6.904
		l-7.185-7.185c-1.469-1.469-3.86-1.472-5.332,0l-7.185,7.185h-6.904l-7.185-7.185c-1.47-1.469-3.861-1.472-5.332,0l-7.185,7.185
		h-6.903l-7.185-7.185c-1.469-1.469-3.86-1.472-5.332,0l-7.185,7.185h-6.903l-7.185-7.185c-1.469-1.469-3.86-1.472-5.332,0
		l-7.185,7.185h-6.904l-7.185-7.185c-1.469-1.469-3.86-1.472-5.332,0l-7.185,7.185h-6.904l-7.185-7.185
		c-1.47-1.469-3.86-1.472-5.332,0l-7.186,7.185h-6.902l-7.184-7.185c-1.421-1.422-3.911-1.422-5.333,0l-7.186,7.185h-6.902
		l-7.184-7.185c-1.422-1.422-3.913-1.422-5.331,0l-7.185,7.185h-6.903l-7.186-7.185c-1.472-1.472-3.863-1.469-5.332,0l-7.185,7.185
		h-6.903l-7.186-7.185c-1.471-1.472-3.863-1.469-5.332,0l-7.185,7.185h-6.904l-7.185-7.185c-1.47-1.472-3.861-1.469-5.332,0
		l-7.185,7.185h-6.904l-7.185-7.185c-1.472-1.472-3.863-1.469-5.332,0l-7.185,7.185h-2.341V2.072C11.049-0.691,5.524-0.691,0,2.072
		v26.241V247.91v26.241c5.524,2.762,11.049,2.762,16.573,0v-21.333h2.134l7.392,7.392c0.735,0.735,1.701,1.102,2.667,1.102
		c0.964,0,1.93-0.367,2.665-1.102l7.392-7.392h6.49l7.392,7.392c0.735,0.735,1.701,1.102,2.666,1.102
		c0.964,0,1.93-0.367,2.665-1.102l7.392-7.392h6.49l7.392,7.392c0.735,0.735,1.701,1.102,2.666,1.102
		c0.964,0,1.93-0.367,2.665-1.102l7.393-7.392h6.489l7.392,7.392c0.735,0.735,1.701,1.102,2.666,1.102
		c0.964,0,1.93-0.367,2.665-1.102l7.393-7.392h6.488l7.391,7.392c0.711,0.711,1.658,1.102,2.667,1.102
		c1.009,0,1.956-0.391,2.665-1.102l7.392-7.392h6.49l7.392,7.392c0.711,0.711,1.658,1.102,2.667,1.102
		c1.009,0,1.956-0.391,2.665-1.102l7.392-7.392h6.49l7.392,7.392c0.735,0.735,1.701,1.102,2.665,1.102
		c0.966,0,1.931-0.367,2.666-1.102l7.392-7.392h6.49l7.392,7.392c0.735,0.735,1.701,1.102,2.665,1.102
		c0.966,0,1.931-0.367,2.667-1.102l7.392-7.392h6.49l7.392,7.392c0.735,0.735,1.701,1.102,2.665,1.102
		c0.966,0,1.931-0.367,2.667-1.102l7.392-7.392h6.49l7.392,7.392c0.735,0.735,1.701,1.102,2.665,1.102
		c0.966,0,1.931-0.367,2.667-1.102l7.392-7.392h6.49l7.392,7.392c0.735,0.735,1.701,1.102,2.665,1.102
		c0.966,0,1.931-0.367,2.667-1.102l7.392-7.392h6.49l7.392,7.392c0.735,0.735,1.701,1.102,2.665,1.102
		c0.966,0,1.931-0.367,2.666-1.102l7.392-7.392h6.49l7.392,7.392c0.735,0.735,1.701,1.102,2.665,1.102
		c0.966,0,1.931-0.367,2.666-1.102l7.392-7.392h6.49l7.392,7.392c0.735,0.735,1.701,1.102,2.666,1.102
		c0.964,0,1.93-0.367,2.665-1.102l7.393-7.392h0.659h5.829l7.391,7.392c0.711,0.711,1.658,1.102,2.666,1.102
		c1.009,0,1.956-0.391,2.666-1.102l7.391-7.392h2.134v21.333c5.524,2.762,11.049,2.762,16.573,0V247.91V28.313V2.072
		C424.476-0.691,418.951-0.691,413.427,2.072z M403.902,228.853c-1.422-1.422-3.913-1.422-5.332,0l-0.423,0.423l-8.26-8.26
		l0.424-0.424c1.467-1.47,1.467-3.861,0-5.332l-0.424-0.423l8.26-8.259l0.422,0.422c0.711,0.711,1.658,1.102,2.666,1.102
		c1.009,0,1.956-0.391,2.666-1.102l0.423-0.423l9.102,9.103v4.493l-9.102,9.103L403.902,228.853z M402.372,231.229l-0.423,0.423
		c-0.378,0.378-1.048,0.378-1.426,0l-0.422-0.422l0.423-0.424c0.188-0.189,0.44-0.293,0.711-0.293c0.271,0,0.525,0.104,0.713,0.293
		L402.372,231.229z M377.297,228.853c-1.471-1.47-3.863-1.47-5.332,0l-0.423,0.423l-8.261-8.261l0.423-0.423
		c1.47-1.47,1.47-3.861,0-5.332l-0.423-0.423l8.261-8.261l0.423,0.423c0.735,0.735,1.701,1.102,2.666,1.102
		c0.964,0,1.93-0.367,2.665-1.102l0.423-0.423l8.26,8.261l-0.422,0.422c-1.47,1.47-1.47,3.861,0,5.332l0.423,0.423l-8.261,8.261
		L377.297,228.853z M375.767,231.229l-0.423,0.423c-0.391,0.394-1.029,0.396-1.426,0l-0.423-0.423l0.423-0.423
		c0.197-0.197,0.455-0.294,0.712-0.294c0.259,0,0.517,0.097,0.713,0.294L375.767,231.229z M350.691,228.853
		c-1.469-1.47-3.86-1.47-5.332,0l-0.423,0.423l-8.261-8.261l0.423-0.423c1.47-1.47,1.47-3.861,0-5.332l-0.423-0.423l8.261-8.261
		L345.36,207c0.735,0.735,1.701,1.102,2.665,1.102c0.966,0,1.931-0.367,2.666-1.102l0.423-0.423l8.261,8.261l-0.423,0.423
		c-1.47,1.47-1.47,3.861,0,5.332l0.423,0.423l-8.261,8.261L350.691,228.853z M349.161,231.229l-0.423,0.423
		c-0.395,0.396-1.033,0.394-1.426,0l-0.423-0.423l0.423-0.423c0.197-0.197,0.454-0.294,0.714-0.294c0.258,0,0.515,0.097,0.712,0.294
		L349.161,231.229z M324.086,228.853c-1.469-1.47-3.86-1.47-5.332,0l-0.423,0.423l-8.261-8.261l0.423-0.423
		c1.47-1.47,1.47-3.861,0-5.332l-0.423-0.423l8.261-8.261l0.423,0.423c0.735,0.735,1.701,1.102,2.665,1.102
		c0.966,0,1.931-0.367,2.666-1.102l0.423-0.423l8.261,8.261l-0.423,0.423c-1.47,1.47-1.47,3.861,0,5.332l0.423,0.423l-8.261,8.261
		L324.086,228.853z M322.556,231.229l-0.423,0.423c-0.394,0.396-1.032,0.394-1.426,0l-0.423-0.423l0.423-0.423
		c0.197-0.197,0.454-0.294,0.714-0.294c0.258,0,0.515,0.097,0.712,0.294L322.556,231.229z M297.481,228.853
		c-1.47-1.47-3.861-1.47-5.332,0l-0.423,0.423l-8.261-8.261l0.423-0.423c1.47-1.47,1.47-3.861,0-5.332l-0.423-0.423l8.261-8.261
		L292.15,207c0.735,0.735,1.701,1.102,2.665,1.102c0.966,0,1.931-0.367,2.667-1.102l0.423-0.423l8.261,8.261l-0.423,0.423
		c-1.47,1.47-1.47,3.861,0,5.332l0.423,0.423l-8.261,8.261L297.481,228.853z M295.951,231.229l-0.423,0.423
		c-0.395,0.396-1.033,0.394-1.426,0l-0.423-0.423l0.423-0.423c0.197-0.197,0.455-0.294,0.714-0.294c0.258,0,0.515,0.097,0.712,0.294
		L295.951,231.229z M270.876,228.853c-1.469-1.47-3.86-1.47-5.332,0l-0.423,0.423l-8.261-8.261l0.423-0.423
		c1.47-1.47,1.47-3.861,0-5.332l-0.423-0.423l8.261-8.261l0.423,0.423c0.735,0.735,1.701,1.102,2.665,1.102
		c0.966,0,1.931-0.367,2.667-1.102l0.423-0.423l8.261,8.261l-0.423,0.423c-1.47,1.47-1.47,3.861,0,5.332l0.423,0.423l-8.261,8.261
		L270.876,228.853z M269.346,231.229l-0.423,0.423c-0.394,0.396-1.032,0.394-1.426,0l-0.423-0.423l0.423-0.423
		c0.197-0.197,0.454-0.294,0.714-0.294c0.258,0,0.515,0.097,0.712,0.294L269.346,231.229z M244.271,228.853
		c-1.469-1.47-3.86-1.47-5.332,0l-0.423,0.423l-8.261-8.261l0.423-0.423c1.47-1.47,1.47-3.861,0-5.332l-0.423-0.423l8.261-8.261
		l0.423,0.423c0.735,0.735,1.701,1.102,2.665,1.102c0.966,0,1.931-0.367,2.667-1.102l0.423-0.423l8.261,8.261l-0.423,0.423
		c-1.47,1.47-1.47,3.861,0,5.332l0.423,0.423l-8.261,8.261L244.271,228.853z M242.74,231.229l-0.423,0.423
		c-0.395,0.396-1.033,0.394-1.426,0l-0.423-0.423l0.423-0.423c0.197-0.197,0.454-0.294,0.714-0.294c0.258,0,0.515,0.097,0.712,0.294
		L242.74,231.229z M217.665,228.853c-1.469-1.47-3.86-1.47-5.332,0l-0.423,0.423l-8.261-8.261l0.423-0.423
		c1.47-1.47,1.47-3.861,0-5.332l-0.423-0.423l8.261-8.261l0.423,0.423c0.735,0.735,1.701,1.102,2.665,1.102
		c0.966,0,1.931-0.367,2.667-1.102l0.423-0.423l8.261,8.261l-0.423,0.423c-1.47,1.47-1.47,3.861,0,5.332l0.423,0.423l-8.261,8.261
		L217.665,228.853z M216.135,231.229l-0.423,0.423c-0.394,0.396-1.032,0.394-1.426,0l-0.423-0.423l0.423-0.423
		c0.197-0.197,0.454-0.294,0.714-0.294c0.258,0,0.515,0.097,0.712,0.294L216.135,231.229z M191.06,228.853
		c-1.47-1.47-3.86-1.47-5.332,0l-0.423,0.423l-8.26-8.262l0.422-0.422c1.47-1.47,1.47-3.861,0-5.332l-0.423-0.423l8.261-8.261
		l0.423,0.423c0.735,0.735,1.701,1.102,2.665,1.102c0.966,0,1.931-0.367,2.666-1.102l0.423-0.423l8.261,8.261l-0.423,0.423
		c-1.47,1.47-1.47,3.861,0,5.332l0.423,0.423l-8.261,8.261L191.06,228.853z M189.53,231.229l-0.423,0.423
		c-0.395,0.396-1.033,0.394-1.426,0l-0.423-0.423l0.423-0.423c0.197-0.197,0.455-0.294,0.714-0.294c0.258,0,0.515,0.097,0.712,0.294
		L189.53,231.229z M164.456,228.853c-1.421-1.422-3.911-1.422-5.333,0l-0.423,0.423l-8.26-8.262l0.422-0.422
		c1.47-1.47,1.47-3.861,0-5.332l-0.423-0.423l8.261-8.261l0.423,0.423c0.711,0.711,1.658,1.102,2.667,1.102
		c1.009,0,1.956-0.391,2.665-1.102l0.423-0.423l8.26,8.26l-0.424,0.424c-1.467,1.47-1.467,3.861,0.001,5.332l0.423,0.423
		l-8.261,8.26L164.456,228.853z M162.924,231.228l-0.424,0.423c-0.375,0.378-1.047,0.378-1.424,0l-0.423-0.423l0.423-0.423
		c0.189-0.189,0.442-0.293,0.714-0.293s0.523,0.104,0.712,0.293L162.924,231.228z M137.851,228.853
		c-1.422-1.422-3.913-1.422-5.331,0l-0.423,0.423l-8.26-8.26l0.424-0.424c1.467-1.47,1.467-3.861,0-5.332l-0.424-0.423l8.26-8.259
		l0.421,0.422c0.711,0.711,1.658,1.102,2.667,1.102c1.009,0,1.956-0.391,2.665-1.102l0.423-0.423l8.26,8.26l-0.424,0.424
		c-1.467,1.47-1.467,3.861,0.001,5.332l0.423,0.423l-8.261,8.26L137.851,228.853z M136.319,231.228l-0.424,0.423
		c-0.375,0.378-1.045,0.378-1.423,0l-0.422-0.422l0.424-0.424c0.188-0.189,0.44-0.293,0.711-0.293c0.271,0,0.523,0.104,0.712,0.293
		L136.319,231.228z M111.246,228.853c-1.472-1.47-3.863-1.47-5.332,0l-0.423,0.423l-8.26-8.26l0.424-0.424
		c1.467-1.47,1.467-3.861,0-5.332l-0.424-0.424l8.26-8.26l0.423,0.423c0.735,0.735,1.701,1.102,2.666,1.102
		c0.964,0,1.93-0.367,2.665-1.102l0.423-0.423l8.26,8.261l-0.422,0.422c-1.47,1.47-1.47,3.861,0,5.332l0.423,0.423l-8.261,8.261
		L111.246,228.853z M109.716,231.229l-0.423,0.423c-0.391,0.394-1.029,0.396-1.426,0l-0.423-0.423l0.423-0.423
		c0.197-0.197,0.455-0.294,0.712-0.294c0.259,0,0.516,0.097,0.713,0.294L109.716,231.229z M84.641,228.853
		c-1.471-1.47-3.863-1.47-5.332,0l-0.423,0.423l-8.261-8.261l0.423-0.423c1.47-1.47,1.47-3.861,0-5.332l-0.423-0.423l8.261-8.261
		L79.309,207c0.735,0.735,1.701,1.102,2.666,1.102c0.964,0,1.93-0.367,2.665-1.102l0.423-0.423l8.26,8.261l-0.422,0.422
		c-1.47,1.47-1.47,3.861,0,5.332l0.423,0.423l-8.261,8.261L84.641,228.853z M83.111,231.229l-0.423,0.423
		c-0.392,0.394-1.03,0.396-1.426,0l-0.423-0.423l0.423-0.423c0.197-0.197,0.454-0.294,0.712-0.294c0.259,0,0.517,0.097,0.713,0.294
		L83.111,231.229z M58.036,228.853c-1.47-1.47-3.861-1.47-5.332,0l-0.423,0.423l-8.261-8.261l0.423-0.423
		c1.47-1.47,1.47-3.861,0-5.332l-0.423-0.423l8.261-8.261L52.704,207c0.735,0.735,1.701,1.102,2.666,1.102
		c0.964,0,1.93-0.367,2.665-1.102l0.423-0.423l8.261,8.261l-0.423,0.423c-1.47,1.47-1.47,3.861,0,5.332l0.423,0.423l-8.261,8.261
		L58.036,228.853z M56.505,231.229l-0.423,0.423c-0.391,0.394-1.029,0.396-1.426,0l-0.423-0.423l0.423-0.423
		c0.197-0.197,0.454-0.294,0.712-0.294c0.259,0,0.517,0.097,0.714,0.294L56.505,231.229z M31.43,228.853
		c-1.472-1.47-3.863-1.47-5.332,0l-0.423,0.423l-9.103-9.103v-4.494l9.103-9.103L26.099,207c0.735,0.735,1.701,1.102,2.667,1.102
		c0.964,0,1.93-0.367,2.665-1.102l0.423-0.423l8.261,8.261l-0.423,0.423c-1.47,1.47-1.47,3.861,0,5.332l0.423,0.423l-8.261,8.261
		L31.43,228.853z M29.9,231.229l-0.423,0.423c-0.392,0.394-1.03,0.396-1.426,0l-0.423-0.423l0.423-0.423
		c0.197-0.197,0.455-0.294,0.712-0.294c0.259,0,0.517,0.097,0.714,0.294L29.9,231.229z M26.099,47.371
		c0.735,0.734,1.701,1.101,2.665,1.101c0.966,0,1.931-0.368,2.667-1.102l0.423-0.423l8.26,8.26l-0.422,0.422
		c-0.711,0.711-1.102,1.658-1.102,2.666c0,1.009,0.391,1.956,1.102,2.665l0.423,0.423l-8.262,8.262l-0.422-0.422
		c-1.472-1.472-3.863-1.469-5.332,0l-0.422,0.422l-9.104-9.104V56.05l9.102-9.102L26.099,47.371z M27.629,44.994l0.423-0.423
		c0.197-0.197,0.455-0.294,0.712-0.294c0.259,0,0.517,0.097,0.714,0.294l0.422,0.422l-0.422,0.422
		c-0.39,0.392-1.03,0.394-1.426,0.001L27.629,44.994z M52.704,47.371c0.735,0.734,1.701,1.101,2.665,1.101
		c0.966,0,1.931-0.368,2.667-1.102l0.423-0.423l8.26,8.26l-0.422,0.422c-0.711,0.711-1.102,1.658-1.102,2.666
		c0,1.009,0.391,1.956,1.102,2.665l0.423,0.423l-8.262,8.262l-0.422-0.422c-1.47-1.472-3.861-1.469-5.332,0l-0.422,0.422
		l-8.26-8.262l0.422-0.422c0.711-0.711,1.102-1.658,1.102-2.667c0-1.009-0.391-1.956-1.102-2.666l-0.422-0.422l8.26-8.26
		L52.704,47.371z M54.234,44.994l0.423-0.423c0.197-0.197,0.454-0.294,0.712-0.294c0.259,0,0.517,0.097,0.714,0.294l0.422,0.422
		l-0.422,0.422c-0.388,0.392-1.029,0.394-1.426,0.001L54.234,44.994z M79.309,47.371c0.735,0.734,1.701,1.101,2.665,1.101
		c0.966,0,1.931-0.368,2.666-1.102l0.423-0.423l8.26,8.26l-0.422,0.422c-0.711,0.711-1.102,1.658-1.102,2.666
		c0,1.009,0.391,1.956,1.102,2.665l0.423,0.423l-8.262,8.262l-0.422-0.422c-1.471-1.472-3.863-1.469-5.332,0l-0.422,0.422
		l-8.26-8.262l0.422-0.422c0.711-0.711,1.102-1.658,1.102-2.667c0-1.009-0.391-1.956-1.102-2.666l-0.422-0.422l8.26-8.26
		L79.309,47.371z M80.839,44.994l0.423-0.423c0.197-0.197,0.454-0.294,0.712-0.294c0.259,0,0.517,0.097,0.713,0.294l0.422,0.422
		l-0.422,0.422c-0.39,0.392-1.03,0.394-1.426,0.001L80.839,44.994z M105.914,47.371c0.735,0.734,1.701,1.101,2.665,1.101
		c0.966,0,1.931-0.368,2.666-1.102l0.423-0.423l8.26,8.26l-0.422,0.422c-0.711,0.711-1.102,1.658-1.102,2.666
		c0,1.009,0.391,1.956,1.102,2.665l0.423,0.423l-8.262,8.262l-0.422-0.422c-1.472-1.472-3.863-1.469-5.332,0l-0.422,0.422
		l-8.261-8.262l0.422-0.422c1.47-1.47,1.47-3.86,0-5.33l-0.423-0.423l8.26-8.26L105.914,47.371z M107.445,44.994l0.423-0.423
		c0.197-0.197,0.455-0.294,0.712-0.294c0.259,0,0.516,0.097,0.713,0.294l0.422,0.422l-0.422,0.422
		c-0.388,0.392-1.029,0.394-1.426,0.001L107.445,44.994z M132.52,47.37c0.735,0.735,1.699,1.102,2.665,1.102s1.93-0.367,2.665-1.102
		l0.423-0.423l8.261,8.261l-0.423,0.423c-1.47,1.47-1.47,3.86,0,5.33l0.423,0.423l-8.262,8.261l-0.421-0.421
		c-1.422-1.422-3.913-1.422-5.331,0l-0.422,0.422l-8.261-8.262l0.422-0.422c1.47-1.47,1.47-3.86,0-5.33l-0.423-0.423l8.262-8.26
		L132.52,47.37z M134.05,44.995l0.424-0.424c0.188-0.189,0.44-0.293,0.711-0.293c0.271,0,0.523,0.104,0.712,0.293l0.423,0.423
		l-0.423,0.423c-0.386,0.386-1.038,0.386-1.424,0L134.05,44.995z M159.123,47.371c0.736,0.734,1.701,1.101,2.667,1.101
		s1.93-0.367,2.665-1.102l0.423-0.423l8.261,8.261l-0.423,0.423c-1.47,1.47-1.47,3.86,0,5.33l0.423,0.423l-8.262,8.261l-0.421-0.421
		c-1.421-1.422-3.911-1.422-5.333,0l-0.422,0.422l-8.261-8.261l0.422-0.422c0.711-0.711,1.102-1.658,1.102-2.667
		c0-1.009-0.391-1.956-1.102-2.665l-0.423-0.423l8.26-8.26L159.123,47.371z M160.654,44.994l0.423-0.423
		c0.189-0.189,0.442-0.293,0.714-0.293s0.523,0.104,0.712,0.293l0.423,0.423l-0.423,0.423c-0.387,0.386-1.041,0.386-1.426,0
		L160.654,44.994z M185.729,47.371c0.735,0.734,1.701,1.101,2.665,1.101c0.966,0,1.931-0.368,2.666-1.102l0.423-0.423l8.26,8.26
		l-0.422,0.422c-0.711,0.711-1.102,1.658-1.102,2.666c0,1.009,0.391,1.956,1.102,2.665l0.423,0.423l-8.262,8.262l-0.422-0.422
		c-1.47-1.469-3.86-1.472-5.332,0l-0.422,0.422l-8.261-8.261l0.422-0.422c0.711-0.711,1.102-1.658,1.102-2.667
		c0-1.009-0.391-1.956-1.102-2.665l-0.423-0.423l8.26-8.26L185.729,47.371z M187.259,44.994l0.423-0.423
		c0.197-0.197,0.455-0.294,0.714-0.294c0.258,0,0.515,0.097,0.712,0.294l0.422,0.422l-0.422,0.422
		c-0.39,0.392-1.03,0.394-1.426,0.001L187.259,44.994z M212.334,47.371c0.735,0.734,1.701,1.101,2.665,1.101
		c0.966,0,1.931-0.368,2.667-1.102l0.423-0.423l8.26,8.26l-0.422,0.422c-0.711,0.711-1.102,1.658-1.102,2.666
		c0,1.009,0.391,1.956,1.102,2.665l0.423,0.423l-8.262,8.262l-0.422-0.422c-1.469-1.469-3.86-1.472-5.332,0l-0.422,0.422
		l-8.26-8.262l0.422-0.422c0.711-0.711,1.102-1.658,1.102-2.667c0-1.009-0.391-1.956-1.102-2.665l-0.423-0.423l8.26-8.26
		L212.334,47.371z M213.864,44.994l0.423-0.423c0.197-0.197,0.454-0.294,0.714-0.294c0.258,0,0.515,0.097,0.712,0.294l0.422,0.422
		l-0.422,0.422c-0.388,0.392-1.029,0.394-1.426,0.001L213.864,44.994z M238.939,47.371c0.735,0.734,1.701,1.101,2.665,1.101
		c0.966,0,1.931-0.368,2.667-1.102l0.423-0.423l8.26,8.26l-0.422,0.422c-0.711,0.711-1.102,1.658-1.102,2.666
		c0,1.009,0.391,1.956,1.102,2.665l0.423,0.423l-8.262,8.262l-0.422-0.422c-1.469-1.469-3.86-1.472-5.332,0l-0.422,0.422
		l-8.261-8.262l0.422-0.422c0.711-0.711,1.102-1.658,1.102-2.667c0-1.009-0.391-1.956-1.102-2.665l-0.423-0.423l8.26-8.26
		L238.939,47.371z M240.469,44.994l0.423-0.423c0.197-0.197,0.454-0.294,0.714-0.294c0.258,0,0.515,0.097,0.712,0.294l0.422,0.422
		l-0.422,0.422c-0.39,0.392-1.03,0.394-1.426,0.001L240.469,44.994z M265.544,47.371c0.735,0.734,1.701,1.101,2.665,1.101
		c0.966,0,1.931-0.368,2.667-1.102l0.423-0.423l8.26,8.26l-0.422,0.422c-0.711,0.711-1.102,1.658-1.102,2.666
		c0,1.009,0.391,1.956,1.102,2.665l0.423,0.423l-8.262,8.262l-0.422-0.422c-1.469-1.469-3.86-1.472-5.332,0l-0.422,0.422
		l-8.26-8.262l0.422-0.422c0.711-0.711,1.102-1.658,1.102-2.667c0-1.009-0.391-1.956-1.102-2.665l-0.423-0.423l8.26-8.26
		L265.544,47.371z M267.074,44.994l0.423-0.423c0.197-0.197,0.454-0.294,0.714-0.294c0.258,0,0.515,0.097,0.712,0.294l0.422,0.422
		l-0.422,0.422c-0.388,0.392-1.029,0.394-1.426,0.001L267.074,44.994z M292.15,47.371c0.735,0.734,1.701,1.101,2.665,1.101
		c0.966,0,1.931-0.368,2.667-1.102l0.423-0.423l8.26,8.26l-0.422,0.422c-0.711,0.711-1.102,1.658-1.102,2.666
		c0,1.009,0.391,1.956,1.102,2.665l0.423,0.423l-8.262,8.262l-0.422-0.422c-1.47-1.469-3.861-1.472-5.332,0l-0.422,0.422
		l-8.26-8.262l0.422-0.422c0.711-0.711,1.102-1.658,1.102-2.667c0-1.009-0.391-1.956-1.102-2.665l-0.423-0.423l8.26-8.26
		L292.15,47.371z M293.68,44.994l0.423-0.423c0.197-0.197,0.455-0.294,0.714-0.294c0.258,0,0.515,0.097,0.712,0.294l0.422,0.422
		l-0.422,0.422c-0.39,0.392-1.03,0.394-1.426,0.001L293.68,44.994z M318.755,47.371c0.735,0.734,1.701,1.101,2.665,1.101
		c0.966,0,1.931-0.368,2.666-1.102l0.423-0.423l8.26,8.26l-0.422,0.422c-0.711,0.711-1.102,1.658-1.102,2.666
		c0,1.009,0.391,1.956,1.102,2.665l0.423,0.423l-8.262,8.262l-0.422-0.422c-1.469-1.469-3.86-1.472-5.332,0l-0.422,0.422
		l-8.26-8.262l0.422-0.422c0.711-0.711,1.102-1.658,1.102-2.667c0-1.009-0.391-1.956-1.102-2.665l-0.423-0.423l8.26-8.26
		L318.755,47.371z M320.285,44.994l0.423-0.423c0.197-0.197,0.454-0.294,0.714-0.294c0.258,0,0.515,0.097,0.712,0.294l0.422,0.422
		l-0.422,0.422c-0.388,0.392-1.029,0.394-1.426,0.001L320.285,44.994z M345.36,47.371c0.735,0.734,1.701,1.101,2.665,1.101
		c0.966,0,1.931-0.368,2.666-1.102l0.423-0.423l8.26,8.26l-0.422,0.422c-0.711,0.711-1.102,1.658-1.102,2.666
		c0,1.009,0.391,1.956,1.102,2.665l0.423,0.423l-8.262,8.262l-0.422-0.422c-1.469-1.469-3.86-1.472-5.332,0l-0.422,0.422
		l-8.26-8.262l0.422-0.422c0.711-0.711,1.102-1.658,1.102-2.667c0-1.009-0.391-1.956-1.102-2.665l-0.423-0.423l8.26-8.26
		L345.36,47.371z M346.89,44.994l0.423-0.423c0.197-0.197,0.454-0.294,0.714-0.294c0.258,0,0.515,0.097,0.712,0.294l0.422,0.422
		l-0.422,0.422c-0.39,0.392-1.03,0.394-1.426,0.001L346.89,44.994z M371.965,47.371c0.735,0.734,1.701,1.101,2.665,1.101
		c0.966,0,1.931-0.368,2.666-1.102l0.423-0.423l8.26,8.26l-0.422,0.422c-0.711,0.711-1.102,1.658-1.102,2.666
		c0,1.009,0.391,1.956,1.102,2.665l0.423,0.423l-8.262,8.262l-0.422-0.422c-1.471-1.472-3.863-1.469-5.332,0l-0.422,0.422
		l-8.26-8.262l0.422-0.422c0.711-0.711,1.102-1.658,1.102-2.667c0-1.009-0.391-1.956-1.102-2.665l-0.423-0.423l8.26-8.26
		L371.965,47.371z M373.495,44.994l0.423-0.423c0.197-0.197,0.455-0.294,0.712-0.294c0.259,0,0.517,0.097,0.713,0.294l0.422,0.422
		l-0.422,0.422c-0.388,0.392-1.029,0.394-1.426,0.001L373.495,44.994z M398.57,47.37c0.735,0.735,1.699,1.102,2.665,1.102
		c0.966,0,1.931-0.367,2.666-1.102l0.423-0.423l9.102,9.103v4.492l-9.103,9.104l-0.422-0.422c-1.422-1.422-3.913-1.422-5.332,0
		l-0.422,0.422l-8.261-8.262l0.422-0.422c1.47-1.47,1.47-3.86,0-5.33l-0.423-0.423l8.262-8.26L398.57,47.37z M400.101,44.995
		l0.423-0.424c0.188-0.189,0.44-0.293,0.711-0.293c0.271,0,0.525,0.104,0.713,0.293l0.422,0.422l-0.422,0.422
		c-0.386,0.387-1.04,0.388-1.426,0.001L400.101,44.995z M413.427,113.752l-9.101,9.103l-0.423-0.424
		c-1.473-1.467-3.861-1.469-5.332,0.001l-0.423,0.423l-8.26-8.26l0.424-0.424c1.467-1.47,1.467-3.861,0-5.332l-0.424-0.424
		l8.26-8.26l0.422,0.422c0.711,0.711,1.658,1.102,2.666,1.102c1.009,0,1.956-0.391,2.666-1.102l0.423-0.423l9.102,9.103V113.752z
		 M413.427,140.357l-9.102,9.103l-0.423-0.423c-1.422-1.422-3.913-1.422-5.332,0l-0.423,0.423l-8.26-8.26l0.424-0.423
		c1.467-1.47,1.467-3.861,0-5.331l-0.424-0.424l8.26-8.26l0.422,0.422c0.711,0.711,1.658,1.102,2.666,1.102
		c1.009,0,1.956-0.391,2.666-1.102l0.423-0.423l9.102,9.103V140.357z M413.427,166.963l-9.102,9.103l-0.423-0.423
		c-1.422-1.422-3.913-1.422-5.332,0l-0.423,0.423l-8.26-8.26l0.424-0.424c1.467-1.47,1.467-3.861,0-5.331l-0.424-0.423l8.26-8.259
		l0.422,0.422c0.711,0.711,1.658,1.102,2.666,1.102c1.009,0,1.956-0.391,2.666-1.102l0.423-0.423l9.102,9.103V166.963z
		 M413.427,193.568l-9.102,9.103l-0.423-0.423c-1.422-1.422-3.913-1.422-5.332,0l-0.423,0.423l-8.26-8.26l0.424-0.424
		c1.467-1.47,1.467-3.861,0-5.332l-0.424-0.423l8.26-8.259l0.422,0.422c0.711,0.711,1.658,1.102,2.666,1.102
		c1.009,0,1.956-0.391,2.666-1.102l0.423-0.423l9.102,9.103V193.568z M402.372,204.624l-0.423,0.423
		c-0.378,0.378-1.048,0.378-1.426,0l-0.422-0.422l0.423-0.424c0.188-0.189,0.44-0.293,0.711-0.293c0.271,0,0.525,0.104,0.713,0.293
		L402.372,204.624z M377.297,202.248c-1.471-1.471-3.863-1.469-5.332,0l-0.423,0.423l-8.261-8.261l0.423-0.423
		c1.47-1.47,1.47-3.861,0-5.332l-0.423-0.423l8.261-8.261l0.423,0.423c0.735,0.735,1.701,1.102,2.666,1.102
		c0.964,0,1.93-0.367,2.665-1.102l0.423-0.423l8.26,8.262l-0.422,0.422c-1.47,1.47-1.47,3.861,0,5.332l0.423,0.423l-8.261,8.261
		L377.297,202.248z M375.767,204.624l-0.423,0.423c-0.391,0.393-1.029,0.395-1.426,0l-0.423-0.423l0.423-0.423
		c0.197-0.197,0.455-0.294,0.712-0.294c0.259,0,0.517,0.097,0.713,0.294L375.767,204.624z M350.691,202.248
		c-1.469-1.469-3.86-1.471-5.332,0l-0.423,0.423l-8.261-8.261l0.423-0.423c1.47-1.47,1.47-3.861,0-5.332l-0.423-0.423l8.261-8.261
		l0.423,0.423c0.735,0.735,1.701,1.102,2.665,1.102c0.966,0,1.931-0.367,2.666-1.102l0.423-0.423l8.261,8.261l-0.423,0.423
		c-1.47,1.47-1.47,3.861,0,5.332l0.423,0.423l-8.261,8.261L350.691,202.248z M349.161,204.624l-0.423,0.423
		c-0.395,0.395-1.033,0.393-1.426,0l-0.423-0.423l0.423-0.423c0.197-0.197,0.454-0.294,0.714-0.294c0.258,0,0.515,0.097,0.712,0.294
		L349.161,204.624z M324.086,202.248c-1.469-1.469-3.86-1.471-5.332,0l-0.423,0.423l-8.261-8.261l0.423-0.423
		c1.47-1.47,1.47-3.861,0-5.332l-0.423-0.423l8.261-8.261l0.423,0.423c0.735,0.735,1.701,1.102,2.665,1.102
		c0.966,0,1.931-0.367,2.666-1.102l0.423-0.423l8.261,8.261l-0.423,0.423c-1.47,1.47-1.47,3.861,0,5.332l0.423,0.423l-8.261,8.261
		L324.086,202.248z M322.556,204.624l-0.423,0.423c-0.394,0.395-1.032,0.393-1.426,0l-0.423-0.423l0.423-0.423
		c0.197-0.197,0.454-0.294,0.714-0.294c0.258,0,0.515,0.097,0.712,0.294L322.556,204.624z M297.481,202.248
		c-1.47-1.469-3.861-1.471-5.332,0l-0.423,0.423l-8.261-8.261l0.423-0.423c1.47-1.47,1.47-3.861,0-5.332l-0.423-0.423l8.261-8.261
		l0.423,0.423c0.735,0.735,1.701,1.102,2.665,1.102c0.966,0,1.931-0.367,2.667-1.102l0.423-0.423l8.261,8.261l-0.423,0.423
		c-1.47,1.47-1.47,3.861,0,5.332l0.423,0.423l-8.261,8.261L297.481,202.248z M295.951,204.624l-0.423,0.423
		c-0.395,0.395-1.033,0.393-1.426,0l-0.423-0.423l0.423-0.423c0.197-0.197,0.455-0.294,0.714-0.294c0.258,0,0.515,0.097,0.712,0.294
		L295.951,204.624z M270.876,202.248c-1.469-1.469-3.86-1.471-5.332,0l-0.423,0.423l-8.261-8.261l0.423-0.423
		c1.47-1.47,1.47-3.861,0-5.332l-0.423-0.423l8.261-8.261l0.423,0.423c0.735,0.735,1.701,1.102,2.665,1.102
		c0.966,0,1.931-0.367,2.667-1.102l0.423-0.423l8.261,8.261l-0.423,0.423c-1.47,1.47-1.47,3.861,0,5.332l0.423,0.423l-8.261,8.261
		L270.876,202.248z M269.346,204.624l-0.423,0.423c-0.394,0.395-1.032,0.393-1.426,0l-0.423-0.423l0.423-0.423
		c0.197-0.197,0.454-0.294,0.714-0.294c0.258,0,0.515,0.097,0.712,0.294L269.346,204.624z M244.271,202.248
		c-1.469-1.469-3.86-1.471-5.332,0l-0.423,0.423l-8.261-8.261l0.423-0.423c1.47-1.47,1.47-3.861,0-5.332l-0.423-0.423l8.261-8.261
		l0.423,0.423c0.735,0.735,1.701,1.102,2.665,1.102c0.966,0,1.931-0.367,2.667-1.102l0.423-0.423l8.261,8.261l-0.423,0.423
		c-1.47,1.47-1.47,3.861,0,5.332l0.423,0.423l-8.261,8.261L244.271,202.248z M242.74,204.624l-0.423,0.423
		c-0.395,0.395-1.033,0.393-1.426,0l-0.423-0.423l0.423-0.423c0.197-0.197,0.454-0.294,0.714-0.294c0.258,0,0.515,0.097,0.712,0.294
		L242.74,204.624z M217.665,202.248c-1.469-1.469-3.86-1.471-5.332,0l-0.423,0.423l-8.261-8.261l0.423-0.423
		c1.47-1.47,1.47-3.861,0-5.332l-0.423-0.423l8.261-8.261l0.423,0.423c0.735,0.735,1.701,1.102,2.665,1.102
		c0.966,0,1.931-0.367,2.667-1.102l0.423-0.423l8.261,8.261l-0.423,0.423c-1.47,1.47-1.47,3.861,0,5.332l0.423,0.423l-8.261,8.261
		L217.665,202.248z M216.135,204.624l-0.423,0.423c-0.394,0.395-1.032,0.393-1.426,0l-0.423-0.423l0.423-0.423
		c0.197-0.197,0.454-0.294,0.714-0.294c0.258,0,0.515,0.097,0.712,0.294L216.135,204.624z M191.06,202.248
		c-1.47-1.469-3.86-1.471-5.332,0l-0.423,0.423l-8.26-8.262l0.422-0.422c1.47-1.47,1.47-3.861,0-5.332l-0.423-0.423l8.261-8.261
		l0.423,0.423c0.735,0.735,1.701,1.102,2.665,1.102c0.966,0,1.931-0.367,2.666-1.102l0.423-0.423l8.261,8.261l-0.423,0.423
		c-1.47,1.47-1.47,3.861,0,5.332l0.423,0.423l-8.261,8.261L191.06,202.248z M189.53,204.624l-0.423,0.423
		c-0.395,0.395-1.033,0.393-1.426,0l-0.423-0.423l0.423-0.423c0.197-0.197,0.455-0.294,0.714-0.294c0.258,0,0.515,0.097,0.712,0.294
		L189.53,204.624z M164.456,202.248c-1.421-1.422-3.911-1.422-5.333,0l-0.423,0.423l-8.26-8.262l0.422-0.422
		c1.47-1.47,1.47-3.861,0-5.332l-0.423-0.423l8.261-8.261l0.423,0.423c0.711,0.711,1.658,1.102,2.667,1.102
		c1.009,0,1.956-0.391,2.665-1.102l0.423-0.423l8.26,8.26l-0.424,0.423c-1.467,1.47-1.467,3.861,0.001,5.332l0.423,0.423
		l-8.261,8.26L164.456,202.248z M162.924,204.623l-0.424,0.423c-0.375,0.378-1.047,0.378-1.424,0l-0.423-0.423l0.423-0.423
		c0.189-0.189,0.442-0.293,0.714-0.293s0.523,0.104,0.712,0.293L162.924,204.623z M137.851,202.248
		c-1.422-1.422-3.913-1.422-5.331,0l-0.423,0.423l-8.26-8.26l0.424-0.424c1.467-1.47,1.467-3.861,0-5.332l-0.424-0.423l8.26-8.259
		l0.421,0.422c0.711,0.711,1.658,1.102,2.667,1.102c1.009,0,1.956-0.391,2.665-1.102l0.423-0.423l8.26,8.26l-0.424,0.423
		c-1.467,1.47-1.467,3.861,0.001,5.332l0.423,0.423l-8.261,8.26L137.851,202.248z M136.319,204.623l-0.424,0.423
		c-0.375,0.378-1.045,0.378-1.423,0l-0.422-0.422l0.424-0.424c0.188-0.189,0.44-0.293,0.711-0.293c0.271,0,0.523,0.104,0.712,0.293
		L136.319,204.623z M111.246,202.248c-1.472-1.471-3.863-1.469-5.332,0l-0.423,0.423l-8.26-8.26l0.424-0.424
		c1.467-1.47,1.467-3.861,0-5.332l-0.424-0.423l8.26-8.26l0.423,0.423c0.735,0.735,1.701,1.102,2.666,1.102
		c0.964,0,1.93-0.367,2.665-1.102l0.423-0.423l8.26,8.262l-0.422,0.422c-1.47,1.47-1.47,3.861,0,5.332l0.423,0.423l-8.261,8.261
		L111.246,202.248z M109.716,204.624l-0.423,0.423c-0.391,0.393-1.029,0.395-1.426,0l-0.423-0.423l0.423-0.423
		c0.197-0.197,0.455-0.294,0.712-0.294c0.259,0,0.516,0.097,0.713,0.294L109.716,204.624z M84.641,202.248
		c-1.471-1.471-3.863-1.469-5.332,0l-0.423,0.423l-8.261-8.261l0.423-0.423c1.47-1.47,1.47-3.861,0-5.332l-0.423-0.423l8.261-8.261
		l0.423,0.423c0.735,0.735,1.701,1.102,2.666,1.102c0.964,0,1.93-0.367,2.665-1.102l0.423-0.423l8.26,8.262l-0.422,0.422
		c-1.47,1.47-1.47,3.861,0,5.332l0.423,0.423l-8.261,8.261L84.641,202.248z M83.111,204.624l-0.423,0.423
		c-0.392,0.393-1.03,0.395-1.426,0l-0.423-0.423l0.423-0.423c0.197-0.197,0.454-0.294,0.712-0.294c0.259,0,0.517,0.097,0.713,0.294
		L83.111,204.624z M58.036,202.248c-1.47-1.471-3.861-1.469-5.332,0l-0.423,0.423l-8.261-8.261l0.423-0.423
		c1.47-1.47,1.47-3.861,0-5.332l-0.423-0.423l8.261-8.261l0.423,0.423c0.735,0.735,1.701,1.102,2.666,1.102
		c0.964,0,1.93-0.367,2.665-1.102l0.423-0.423l8.261,8.261l-0.423,0.423c-1.47,1.47-1.47,3.861,0,5.332l0.423,0.423l-8.261,8.261
		L58.036,202.248z M56.505,204.624l-0.423,0.423c-0.391,0.393-1.029,0.395-1.426,0l-0.423-0.423l0.423-0.423
		c0.197-0.197,0.454-0.294,0.712-0.294c0.259,0,0.517,0.097,0.714,0.294L56.505,204.624z M31.43,202.248
		c-1.472-1.471-3.863-1.469-5.332,0l-0.423,0.423l-9.103-9.103v-4.494l9.103-9.103l0.423,0.423c0.735,0.735,1.701,1.102,2.667,1.102
		c0.964,0,1.93-0.367,2.665-1.102l0.423-0.423l8.261,8.261l-0.423,0.423c-1.47,1.47-1.47,3.861,0,5.332l0.423,0.423l-8.261,8.261
		L31.43,202.248z M29.9,204.624l-0.423,0.423c-0.392,0.393-1.03,0.395-1.426,0l-0.423-0.423l0.423-0.423
		c0.197-0.197,0.455-0.294,0.712-0.294c0.259,0,0.517,0.097,0.714,0.294L29.9,204.624z M26.099,73.974
		c0.735,0.735,1.701,1.102,2.667,1.102c0.964,0,1.93-0.367,2.665-1.102l0.422-0.422l8.261,8.261l-0.422,0.422
		c-0.711,0.711-1.102,1.658-1.102,2.666c0,1.009,0.391,1.956,1.102,2.665l0.423,0.423l-8.26,8.26l-0.424-0.424
		c-1.472-1.467-3.863-1.466-5.332,0.001l-0.423,0.423l-9.103-9.104v-4.491l9.103-9.103L26.099,73.974z M27.63,71.599l0.422-0.422
		c0.197-0.197,0.455-0.294,0.712-0.294c0.259,0,0.517,0.097,0.714,0.294l0.422,0.422l-0.422,0.422c-0.392,0.394-1.03,0.396-1.426,0
		L27.63,71.599z M52.704,73.974c0.735,0.735,1.701,1.102,2.666,1.102c0.964,0,1.93-0.367,2.665-1.102l0.422-0.422l8.261,8.261
		l-0.422,0.422c-0.711,0.711-1.102,1.658-1.102,2.666c0,1.009,0.391,1.956,1.102,2.665l0.423,0.423l-8.26,8.26l-0.424-0.424
		c-1.47-1.467-3.861-1.466-5.332,0.001l-0.423,0.423l-8.26-8.261l0.422-0.421c0.711-0.711,1.102-1.658,1.102-2.667
		c0-1.009-0.391-1.956-1.102-2.666l-0.422-0.422l8.261-8.261L52.704,73.974z M54.235,71.599l0.422-0.422
		c0.197-0.197,0.454-0.294,0.712-0.294c0.259,0,0.517,0.097,0.714,0.294l0.422,0.422l-0.422,0.422c-0.391,0.394-1.029,0.396-1.426,0
		L54.235,71.599z M79.309,73.974c0.735,0.735,1.701,1.102,2.666,1.102c0.964,0,1.93-0.367,2.665-1.102l0.422-0.422l8.261,8.261
		l-0.422,0.422c-0.711,0.711-1.102,1.658-1.102,2.666c0,1.009,0.391,1.956,1.102,2.665l0.423,0.423l-8.26,8.26l-0.424-0.424
		c-1.471-1.467-3.863-1.466-5.332,0.001l-0.423,0.423l-8.26-8.261l0.422-0.421c0.711-0.711,1.102-1.658,1.102-2.667
		c0-1.009-0.391-1.956-1.102-2.666l-0.422-0.422l8.261-8.261L79.309,73.974z M80.84,71.599l0.422-0.422
		c0.197-0.197,0.454-0.294,0.712-0.294c0.259,0,0.517,0.097,0.713,0.294l0.422,0.422l-0.422,0.422c-0.392,0.394-1.03,0.396-1.426,0
		L80.84,71.599z M105.914,73.974c0.735,0.735,1.701,1.102,2.666,1.102c0.964,0,1.93-0.367,2.665-1.102l0.422-0.422l8.261,8.261
		l-0.422,0.422c-0.711,0.711-1.102,1.658-1.102,2.666c0,1.009,0.391,1.956,1.102,2.665l0.423,0.423l-8.26,8.26l-0.423-0.424
		c-1.472-1.467-3.863-1.466-5.332,0.001l-0.423,0.423l-8.26-8.262l0.422-0.422c1.47-1.47,1.47-3.86,0-5.33l-0.423-0.423l8.262-8.262
		L105.914,73.974z M107.445,71.599l0.422-0.422c0.197-0.197,0.455-0.294,0.712-0.294c0.259,0,0.516,0.097,0.713,0.294l0.422,0.422
		l-0.422,0.422c-0.391,0.394-1.029,0.396-1.426,0L107.445,71.599z M132.518,73.974c0.711,0.711,1.658,1.102,2.667,1.102
		c1.009,0,1.956-0.391,2.665-1.102l0.422-0.422l8.262,8.262l-0.423,0.423c-1.47,1.47-1.47,3.86,0,5.33l0.423,0.423l-8.262,8.26
		l-0.422-0.422c-1.47-1.47-3.86-1.47-5.33,0l-0.423,0.423l-8.26-8.262l0.422-0.422c1.47-1.47,1.47-3.86,0-5.33l-0.423-0.423
		l8.262-8.26L132.518,73.974z M134.051,71.599l0.423-0.423c0.188-0.189,0.44-0.293,0.711-0.293c0.271,0,0.523,0.104,0.712,0.293
		l0.421,0.422l-0.423,0.423c-0.375,0.378-1.045,0.378-1.423,0L134.051,71.599z M159.123,73.974c0.711,0.711,1.658,1.102,2.667,1.102
		c1.009,0,1.956-0.391,2.665-1.102l0.422-0.422l8.262,8.262l-0.423,0.423c-1.47,1.47-1.47,3.86,0,5.33l0.423,0.423l-8.262,8.26
		l-0.422-0.422c-1.47-1.47-3.861-1.47-5.332,0l-0.423,0.423l-8.26-8.26l0.422-0.422c0.711-0.711,1.102-1.658,1.102-2.667
		c0-1.009-0.391-1.956-1.102-2.665l-0.423-0.423l8.262-8.262L159.123,73.974z M160.654,71.599l0.422-0.422
		c0.189-0.189,0.442-0.293,0.714-0.293s0.523,0.104,0.712,0.293l0.422,0.422l-0.423,0.423c-0.375,0.378-1.047,0.378-1.424,0
		L160.654,71.599z M185.729,73.974c0.735,0.735,1.701,1.102,2.665,1.102c0.966,0,1.931-0.367,2.666-1.102l0.422-0.422l8.261,8.261
		l-0.422,0.422c-0.711,0.711-1.102,1.658-1.102,2.666c0,1.009,0.391,1.956,1.102,2.665l0.423,0.423l-8.26,8.26l-0.424-0.424
		c-1.47-1.467-3.863-1.466-5.332,0.001l-0.423,0.423l-8.26-8.26l0.422-0.422c0.711-0.711,1.102-1.658,1.102-2.667
		c0-1.009-0.391-1.956-1.102-2.665l-0.423-0.423l8.262-8.262L185.729,73.974z M187.259,71.599l0.422-0.422
		c0.197-0.197,0.455-0.294,0.714-0.294c0.258,0,0.515,0.097,0.712,0.294l0.422,0.422l-0.422,0.422c-0.395,0.396-1.033,0.394-1.426,0
		L187.259,71.599z M212.334,73.974c0.735,0.735,1.701,1.102,2.665,1.102c0.966,0,1.931-0.367,2.667-1.102l0.422-0.422l8.261,8.261
		l-0.422,0.422c-0.711,0.711-1.102,1.658-1.102,2.666c0,1.009,0.391,1.956,1.102,2.665l0.423,0.423l-8.26,8.26l-0.424-0.424
		c-1.471-1.467-3.863-1.466-5.332,0.001l-0.423,0.423l-8.26-8.261l0.422-0.421c0.711-0.711,1.102-1.658,1.102-2.667
		c0-1.009-0.391-1.956-1.102-2.665l-0.423-0.423l8.262-8.262L212.334,73.974z M213.865,71.599l0.422-0.422
		c0.197-0.197,0.454-0.294,0.714-0.294c0.258,0,0.515,0.097,0.712,0.294l0.422,0.422l-0.422,0.422c-0.394,0.396-1.032,0.394-1.426,0
		L213.865,71.599z M238.939,73.974c0.735,0.735,1.701,1.102,2.665,1.102c0.966,0,1.931-0.367,2.667-1.102l0.422-0.422l8.261,8.261
		l-0.422,0.422c-0.711,0.711-1.102,1.658-1.102,2.666c0,1.009,0.391,1.956,1.102,2.665l0.423,0.423l-8.26,8.26l-0.424-0.424
		c-1.471-1.467-3.863-1.466-5.332,0.001l-0.423,0.423l-8.26-8.261l0.422-0.421c0.711-0.711,1.102-1.658,1.102-2.667
		c0-1.009-0.391-1.956-1.102-2.665l-0.423-0.423l8.262-8.262L238.939,73.974z M240.47,71.599l0.422-0.422
		c0.197-0.197,0.454-0.294,0.714-0.294c0.258,0,0.515,0.097,0.712,0.294l0.422,0.422l-0.422,0.422c-0.395,0.396-1.033,0.394-1.426,0
		L240.47,71.599z M265.544,73.974c0.735,0.735,1.701,1.102,2.665,1.102c0.966,0,1.931-0.367,2.667-1.102l0.422-0.422l8.261,8.261
		l-0.422,0.422c-0.711,0.711-1.102,1.658-1.102,2.666c0,1.009,0.391,1.956,1.102,2.665l0.423,0.423l-8.26,8.26l-0.423-0.424
		c-1.471-1.467-3.863-1.466-5.332,0.001l-0.423,0.423l-8.26-8.261l0.422-0.421c0.711-0.711,1.102-1.658,1.102-2.667
		c0-1.009-0.391-1.956-1.102-2.665l-0.423-0.423l8.262-8.262L265.544,73.974z M267.075,71.599l0.422-0.422
		c0.197-0.197,0.454-0.294,0.714-0.294c0.258,0,0.515,0.097,0.712,0.294l0.422,0.422l-0.422,0.422c-0.394,0.396-1.032,0.394-1.426,0
		L267.075,71.599z M292.15,73.974c0.735,0.735,1.701,1.102,2.665,1.102c0.966,0,1.931-0.367,2.667-1.102l0.422-0.422l8.261,8.261
		l-0.422,0.422c-0.711,0.711-1.102,1.658-1.102,2.666c0,1.009,0.391,1.956,1.102,2.665l0.423,0.423l-8.26,8.26l-0.424-0.424
		c-1.47-1.467-3.861-1.466-5.332,0.001l-0.423,0.423l-8.26-8.261l0.422-0.421c0.711-0.711,1.102-1.658,1.102-2.667
		c0-1.009-0.391-1.956-1.102-2.665l-0.423-0.423l8.262-8.262L292.15,73.974z M293.68,71.599l0.422-0.422
		c0.197-0.197,0.455-0.294,0.714-0.294c0.258,0,0.515,0.097,0.712,0.294l0.422,0.422l-0.422,0.422c-0.395,0.396-1.033,0.394-1.426,0
		L293.68,71.599z M318.755,73.974c0.735,0.735,1.701,1.102,2.665,1.102c0.966,0,1.931-0.367,2.666-1.102l0.422-0.422l8.261,8.261
		l-0.422,0.422c-0.711,0.711-1.102,1.658-1.102,2.666c0,1.009,0.391,1.956,1.102,2.665l0.423,0.423l-8.26,8.26l-0.423-0.424
		c-1.472-1.467-3.863-1.466-5.332,0.001l-0.423,0.423l-8.26-8.261l0.422-0.421c0.711-0.711,1.102-1.658,1.102-2.667
		c0-1.009-0.391-1.956-1.102-2.665l-0.423-0.423l8.262-8.262L318.755,73.974z M320.286,71.599l0.422-0.422
		c0.197-0.197,0.454-0.294,0.714-0.294c0.258,0,0.515,0.097,0.712,0.294l0.422,0.422l-0.422,0.422c-0.394,0.396-1.032,0.394-1.426,0
		L320.286,71.599z M345.36,73.974c0.735,0.735,1.701,1.102,2.665,1.102c0.966,0,1.931-0.367,2.666-1.102l0.422-0.422l8.261,8.261
		l-0.422,0.422c-0.711,0.711-1.102,1.658-1.102,2.666c0,1.009,0.391,1.956,1.102,2.665l0.423,0.423l-8.26,8.26l-0.423-0.424
		c-1.471-1.467-3.863-1.466-5.332,0.001l-0.423,0.423l-8.26-8.261l0.422-0.421c0.711-0.711,1.102-1.658,1.102-2.667
		c0-1.009-0.391-1.956-1.102-2.665l-0.423-0.423l8.262-8.262L345.36,73.974z M346.891,71.599l0.422-0.422
		c0.197-0.197,0.454-0.294,0.714-0.294c0.258,0,0.515,0.097,0.712,0.294l0.422,0.422l-0.422,0.422c-0.395,0.396-1.033,0.394-1.426,0
		L346.891,71.599z M371.965,73.974c0.735,0.735,1.701,1.102,2.666,1.102c0.964,0,1.93-0.367,2.665-1.102l0.422-0.422l8.261,8.261
		l-0.422,0.422c-0.711,0.711-1.102,1.658-1.102,2.666c0,1.009,0.391,1.956,1.102,2.665l0.423,0.423l-8.26,8.26l-0.423-0.424
		c-1.471-1.467-3.863-1.466-5.332,0.001l-0.423,0.423l-8.26-8.261l0.422-0.421c0.711-0.711,1.102-1.658,1.102-2.667
		c0-1.009-0.391-1.956-1.102-2.665l-0.423-0.423l8.262-8.262L371.965,73.974z M373.496,71.599l0.422-0.422
		c0.197-0.197,0.455-0.294,0.712-0.294c0.259,0,0.517,0.097,0.713,0.294l0.422,0.422l-0.422,0.422c-0.391,0.394-1.029,0.396-1.426,0
		L373.496,71.599z M379.672,71.599l8.262-8.262l8.261,8.262l-8.262,8.261L379.672,71.599z M388.356,84.189
		c0.386,0.386,0.386,1.038,0,1.424l-0.422,0.422l-0.423-0.424c-0.189-0.188-0.293-0.44-0.293-0.711s0.104-0.523,0.293-0.712
		l0.423-0.423L388.356,84.189z M388.355,110.793c0.394,0.393,0.394,1.033,0.001,1.426l-0.423,0.423l-0.423-0.423
		c-0.392-0.392-0.392-1.033,0-1.426l0.422-0.422L388.355,110.793z M385.558,114.171l0.423,0.423l-8.26,8.26l-0.423-0.424
		c-1.471-1.467-3.863-1.466-5.332,0.001l-0.423,0.423l-8.261-8.261l0.423-0.423c1.47-1.47,1.47-3.861,0-5.332l-0.423-0.423
		l8.262-8.26l0.422,0.422c0.735,0.735,1.701,1.102,2.666,1.102c0.964,0,1.93-0.367,2.665-1.102l0.423-0.423l8.26,8.262l-0.422,0.422
		C384.088,110.31,384.088,112.701,385.558,114.171z M388.355,137.398c0.394,0.392,0.394,1.033,0.001,1.426l-0.423,0.423
		l-0.423-0.423c-0.392-0.393-0.392-1.033,0-1.426l0.422-0.422L388.355,137.398z M385.558,140.777l0.423,0.423l-8.261,8.261
		l-0.423-0.423c-1.471-1.471-3.863-1.469-5.332,0l-0.423,0.423l-8.261-8.261l0.423-0.423c1.47-1.47,1.47-3.861,0-5.331l-0.423-0.423
		l8.262-8.26l0.422,0.422c0.735,0.735,1.701,1.102,2.666,1.102c0.964,0,1.93-0.367,2.665-1.102l0.423-0.423l8.26,8.261l-0.422,0.422
		C384.088,136.915,384.088,139.307,385.558,140.777z M388.355,164.003c0.394,0.392,0.394,1.033,0.001,1.426l-0.423,0.423
		l-0.423-0.423c-0.392-0.393-0.392-1.033,0-1.426l0.422-0.422L388.355,164.003z M385.558,167.382l0.423,0.423l-8.261,8.261
		l-0.423-0.423c-1.471-1.472-3.863-1.469-5.332,0l-0.423,0.423l-8.261-8.261l0.423-0.423c1.47-1.47,1.47-3.861,0-5.331l-0.423-0.423
		l8.261-8.261l0.423,0.423c0.735,0.735,1.701,1.102,2.666,1.102c0.964,0,1.93-0.367,2.665-1.102l0.423-0.423l8.26,8.262
		l-0.422,0.422C384.088,163.52,384.088,165.912,385.558,167.382z M387.934,169.758l8.26,8.261l-8.26,8.26l-8.261-8.26
		L387.934,169.758z M375.767,178.019l-0.423,0.423c-0.391,0.394-1.029,0.396-1.426,0l-0.423-0.423l0.423-0.423
		c0.197-0.197,0.455-0.294,0.712-0.294c0.259,0,0.517,0.097,0.713,0.294L375.767,178.019z M350.691,175.643
		c-1.469-1.469-3.86-1.472-5.332,0l-0.423,0.423l-8.261-8.261l0.423-0.423c1.47-1.47,1.47-3.861,0-5.331l-0.423-0.423l8.261-8.261
		l0.423,0.423c0.735,0.735,1.701,1.102,2.665,1.102c0.966,0,1.931-0.367,2.666-1.102l0.423-0.423l8.261,8.261l-0.423,0.423
		c-1.47,1.47-1.47,3.861,0,5.331l0.423,0.423l-8.261,8.261L350.691,175.643z M349.161,178.019l-0.423,0.423
		c-0.395,0.396-1.033,0.394-1.426,0l-0.423-0.423l0.423-0.423c0.197-0.197,0.454-0.294,0.714-0.294c0.258,0,0.515,0.097,0.712,0.294
		L349.161,178.019z M324.086,175.643c-1.469-1.469-3.86-1.472-5.332,0l-0.423,0.423l-8.261-8.261l0.423-0.423
		c1.47-1.47,1.47-3.861,0-5.331l-0.423-0.423l8.261-8.261l0.423,0.423c0.735,0.735,1.701,1.102,2.665,1.102
		c0.966,0,1.931-0.367,2.666-1.102l0.423-0.423l8.261,8.261l-0.423,0.423c-1.47,1.47-1.47,3.861,0,5.331l0.423,0.423l-8.261,8.261
		L324.086,175.643z M322.556,178.019l-0.423,0.423c-0.394,0.396-1.032,0.394-1.426,0l-0.423-0.423l0.423-0.423
		c0.197-0.197,0.454-0.294,0.714-0.294c0.258,0,0.515,0.097,0.712,0.294L322.556,178.019z M297.481,175.643
		c-1.47-1.469-3.861-1.472-5.332,0l-0.423,0.423l-8.261-8.261l0.423-0.423c1.47-1.47,1.47-3.861,0-5.331l-0.423-0.423l8.261-8.261
		l0.423,0.423c0.735,0.735,1.701,1.102,2.665,1.102c0.966,0,1.931-0.367,2.667-1.102l0.423-0.423l8.261,8.261l-0.423,0.423
		c-1.47,1.47-1.47,3.861,0,5.331l0.423,0.423l-8.261,8.261L297.481,175.643z M295.951,178.019l-0.423,0.423
		c-0.395,0.396-1.033,0.394-1.426,0l-0.423-0.423l0.423-0.423c0.197-0.197,0.455-0.294,0.714-0.294c0.258,0,0.515,0.097,0.712,0.294
		L295.951,178.019z M270.876,175.643c-1.469-1.469-3.86-1.472-5.332,0l-0.423,0.423l-8.261-8.261l0.423-0.423
		c1.47-1.47,1.47-3.861,0-5.331l-0.423-0.423l8.261-8.261l0.423,0.423c0.735,0.735,1.701,1.102,2.665,1.102
		c0.966,0,1.931-0.367,2.667-1.102l0.423-0.423l8.261,8.261l-0.423,0.423c-1.47,1.47-1.47,3.861,0,5.331l0.423,0.423l-8.261,8.261
		L270.876,175.643z M269.346,178.019l-0.423,0.423c-0.394,0.396-1.032,0.394-1.426,0l-0.423-0.423l0.423-0.423
		c0.197-0.197,0.454-0.294,0.714-0.294c0.258,0,0.515,0.097,0.712,0.294L269.346,178.019z M244.271,175.643
		c-1.469-1.469-3.86-1.472-5.332,0l-0.423,0.423l-8.261-8.261l0.423-0.423c1.47-1.47,1.47-3.861,0-5.331l-0.423-0.423l8.261-8.261
		l0.423,0.423c0.735,0.735,1.701,1.102,2.665,1.102c0.966,0,1.931-0.367,2.667-1.102l0.423-0.423l8.261,8.261l-0.423,0.423
		c-1.47,1.47-1.47,3.861,0,5.331l0.423,0.423l-8.261,8.261L244.271,175.643z M242.74,178.019l-0.423,0.423
		c-0.395,0.396-1.033,0.394-1.426,0l-0.423-0.423l0.423-0.423c0.197-0.197,0.454-0.294,0.714-0.294c0.258,0,0.515,0.097,0.712,0.294
		L242.74,178.019z M217.665,175.643c-1.469-1.469-3.86-1.472-5.332,0l-0.423,0.423l-8.261-8.261l0.423-0.423
		c1.47-1.47,1.47-3.861,0-5.331l-0.423-0.423l8.261-8.261l0.423,0.423c0.735,0.735,1.701,1.102,2.665,1.102
		c0.966,0,1.931-0.367,2.667-1.102l0.423-0.423l8.261,8.261l-0.423,0.423c-1.47,1.47-1.47,3.861,0,5.331l0.423,0.423l-8.261,8.261
		L217.665,175.643z M216.135,178.019l-0.423,0.423c-0.394,0.396-1.032,0.394-1.426,0l-0.423-0.423l0.423-0.423
		c0.197-0.197,0.454-0.294,0.714-0.294c0.258,0,0.515,0.097,0.712,0.294L216.135,178.019z M191.06,175.643
		c-1.47-1.469-3.86-1.472-5.332,0l-0.423,0.423l-8.26-8.262l0.422-0.422c1.47-1.47,1.47-3.861,0-5.331l-0.423-0.423l8.261-8.261
		l0.423,0.423c0.735,0.735,1.701,1.102,2.665,1.102c0.966,0,1.931-0.367,2.666-1.102l0.423-0.423l8.261,8.261l-0.423,0.423
		c-1.47,1.47-1.47,3.861,0,5.331l0.423,0.423l-8.261,8.261L191.06,175.643z M189.53,178.019l-0.423,0.423
		c-0.395,0.396-1.033,0.394-1.426,0l-0.423-0.423l0.423-0.423c0.197-0.197,0.455-0.294,0.714-0.294c0.258,0,0.515,0.097,0.712,0.294
		L189.53,178.019z M164.456,175.643c-1.421-1.422-3.911-1.422-5.333,0l-0.423,0.423l-8.26-8.262l0.422-0.422
		c1.47-1.47,1.47-3.861,0-5.331l-0.423-0.423l8.261-8.261l0.423,0.423c0.711,0.711,1.658,1.102,2.667,1.102
		c1.009,0,1.956-0.391,2.665-1.102l0.423-0.423l8.26,8.26l-0.424,0.424c-1.467,1.47-1.467,3.861,0.001,5.331l0.423,0.423
		l-8.261,8.26L164.456,175.643z M162.924,178.018l-0.424,0.424c-0.375,0.378-1.047,0.378-1.424,0l-0.423-0.423l0.423-0.423
		c0.189-0.189,0.442-0.293,0.714-0.293s0.523,0.104,0.712,0.293L162.924,178.018z M137.851,175.643
		c-1.422-1.422-3.913-1.422-5.331,0l-0.423,0.423l-8.26-8.26l0.424-0.424c1.467-1.47,1.467-3.861,0-5.331l-0.424-0.423l8.26-8.259
		l0.421,0.422c0.711,0.711,1.658,1.102,2.667,1.102c1.009,0,1.956-0.391,2.665-1.102l0.423-0.423l8.26,8.26l-0.424,0.424
		c-1.467,1.47-1.467,3.861,0.001,5.331l0.423,0.423l-8.261,8.26L137.851,175.643z M136.319,178.018l-0.424,0.424
		c-0.375,0.378-1.045,0.378-1.423,0l-0.422-0.422l0.424-0.423c0.188-0.189,0.44-0.293,0.711-0.293c0.271,0,0.523,0.104,0.712,0.293
		L136.319,178.018z M111.246,175.643c-1.472-1.472-3.863-1.469-5.332,0l-0.423,0.423l-8.26-8.26l0.424-0.424
		c1.467-1.47,1.467-3.861,0-5.331l-0.424-0.424l8.26-8.26l0.423,0.423c0.735,0.735,1.701,1.102,2.666,1.102
		c0.964,0,1.93-0.367,2.665-1.102l0.423-0.423l8.26,8.262l-0.422,0.422c-1.47,1.47-1.47,3.861,0,5.331l0.423,0.423l-8.261,8.261
		L111.246,175.643z M109.716,178.019l-0.423,0.423c-0.391,0.394-1.029,0.396-1.426,0l-0.423-0.423l0.423-0.423
		c0.197-0.197,0.455-0.294,0.712-0.294c0.259,0,0.516,0.097,0.713,0.294L109.716,178.019z M84.641,175.643
		c-1.471-1.472-3.863-1.469-5.332,0l-0.423,0.423l-8.261-8.261l0.423-0.423c1.47-1.47,1.47-3.861,0-5.331l-0.423-0.423l8.261-8.261
		l0.423,0.423c0.735,0.735,1.701,1.102,2.666,1.102c0.964,0,1.93-0.367,2.665-1.102l0.423-0.423l8.26,8.262l-0.422,0.422
		c-1.47,1.47-1.47,3.861,0,5.331l0.423,0.423l-8.261,8.261L84.641,175.643z M83.111,178.019l-0.423,0.423
		c-0.392,0.394-1.03,0.396-1.426,0l-0.423-0.423l0.423-0.423c0.197-0.197,0.454-0.294,0.712-0.294c0.259,0,0.517,0.097,0.713,0.294
		L83.111,178.019z M58.036,175.643c-1.47-1.472-3.861-1.469-5.332,0l-0.423,0.423l-8.261-8.261l0.423-0.423
		c1.47-1.47,1.47-3.861,0-5.331l-0.423-0.423l8.261-8.261l0.423,0.423c0.735,0.735,1.701,1.102,2.666,1.102
		c0.964,0,1.93-0.367,2.665-1.102l0.423-0.423l8.261,8.261l-0.423,0.423c-1.47,1.47-1.47,3.861,0,5.331l0.423,0.423l-8.261,8.261
		L58.036,175.643z M56.505,178.019l-0.423,0.423c-0.391,0.394-1.029,0.396-1.426,0l-0.423-0.423l0.423-0.423
		c0.197-0.197,0.454-0.294,0.712-0.294c0.259,0,0.517,0.097,0.714,0.294L56.505,178.019z M31.43,175.643
		c-1.472-1.472-3.863-1.469-5.332,0l-0.423,0.423l-9.103-9.103v-4.494l9.103-9.103l0.423,0.423c0.735,0.735,1.701,1.102,2.667,1.102
		c0.964,0,1.93-0.367,2.665-1.102l0.423-0.423l8.261,8.261l-0.423,0.423c-1.47,1.47-1.47,3.861,0,5.331l0.423,0.423l-8.261,8.261
		L31.43,175.643z M29.9,178.019l-0.423,0.423c-0.392,0.394-1.03,0.396-1.426,0l-0.423-0.423l0.423-0.423
		c0.197-0.197,0.455-0.294,0.712-0.294c0.259,0,0.517,0.097,0.714,0.294L29.9,178.019z M16.573,135.864l9.103-9.102l0.422,0.422
		c0.735,0.735,1.701,1.102,2.667,1.102c0.964,0,1.93-0.367,2.665-1.102l0.423-0.423l8.261,8.261l-0.423,0.423
		c-1.47,1.47-1.47,3.861,0,5.331l0.423,0.423l-8.261,8.261l-0.423-0.423c-1.472-1.471-3.863-1.469-5.332,0l-0.423,0.423
		l-9.103-9.103V135.864z M16.573,109.259l9.103-9.102l0.422,0.422c0.735,0.735,1.701,1.102,2.667,1.102
		c0.964,0,1.93-0.367,2.665-1.102l0.423-0.423l8.261,8.261l-0.423,0.423c-1.47,1.47-1.47,3.861,0,5.332l0.423,0.423l-8.26,8.26
		l-0.424-0.424c-1.472-1.467-3.863-1.466-5.332,0.001l-0.423,0.423l-9.103-9.103V109.259z M27.63,98.204l0.422-0.422
		c0.196-0.197,0.455-0.295,0.713-0.295c0.258,0,0.515,0.099,0.712,0.294l0.423,0.423l-0.423,0.423c-0.392,0.393-1.03,0.395-1.426,0
		L27.63,98.204z M52.704,100.579c0.735,0.735,1.701,1.102,2.666,1.102c0.964,0,1.93-0.367,2.665-1.102l0.423-0.423l8.261,8.261
		l-0.423,0.423c-1.47,1.47-1.47,3.861,0,5.332l0.423,0.423l-8.26,8.26l-0.424-0.424c-1.47-1.467-3.861-1.466-5.332,0.001
		l-0.423,0.423l-8.261-8.261l0.423-0.423c1.47-1.47,1.47-3.861,0-5.332l-0.423-0.423l8.261-8.26L52.704,100.579z M54.235,98.204
		l0.422-0.422c0.196-0.197,0.454-0.295,0.713-0.295c0.258,0,0.515,0.099,0.712,0.294l0.423,0.423l-0.423,0.423
		c-0.391,0.393-1.029,0.395-1.426,0L54.235,98.204z M79.309,100.579c0.735,0.735,1.701,1.102,2.666,1.102
		c0.964,0,1.93-0.367,2.665-1.102l0.423-0.423l8.26,8.262l-0.422,0.422c-1.47,1.47-1.47,3.861,0,5.332l0.423,0.423l-8.26,8.26
		l-0.424-0.424c-1.471-1.467-3.863-1.466-5.332,0.001l-0.423,0.423l-8.261-8.261l0.423-0.423c1.47-1.47,1.47-3.861,0-5.332
		l-0.423-0.423l8.261-8.26L79.309,100.579z M80.84,98.204l0.422-0.422c0.196-0.197,0.454-0.295,0.713-0.295
		c0.258,0,0.515,0.099,0.712,0.294l0.423,0.423l-0.423,0.423c-0.392,0.393-1.03,0.395-1.426,0L80.84,98.204z M105.914,100.579
		c0.735,0.735,1.701,1.102,2.666,1.102c0.964,0,1.93-0.367,2.665-1.102l0.423-0.423l8.26,8.262l-0.422,0.422
		c-1.47,1.47-1.47,3.861,0,5.332l0.423,0.423l-8.26,8.26l-0.423-0.424c-1.472-1.467-3.863-1.466-5.332,0.001l-0.423,0.423
		l-8.26-8.26l0.424-0.424c1.467-1.47,1.467-3.861,0-5.332l-0.424-0.424l8.261-8.26L105.914,100.579z M107.445,98.204l0.422-0.422
		c0.196-0.197,0.455-0.295,0.714-0.295c0.258,0,0.515,0.099,0.712,0.294l0.423,0.423l-0.423,0.423c-0.391,0.393-1.029,0.395-1.426,0
		L107.445,98.204z M132.518,100.579c0.711,0.711,1.658,1.102,2.667,1.102c1.009,0,1.956-0.391,2.665-1.102l0.423-0.423l8.26,8.26
		l-0.424,0.424c-1.467,1.47-1.467,3.861,0.001,5.332l0.423,0.423l-8.262,8.26l-0.422-0.422c-1.47-1.47-3.86-1.47-5.33,0
		l-0.423,0.423l-8.26-8.26l0.424-0.424c1.467-1.47,1.467-3.861,0-5.332l-0.424-0.424l8.26-8.26L132.518,100.579z M134.05,98.203
		l0.423-0.423c0.193-0.193,0.453-0.29,0.712-0.29c0.259,0,0.519,0.097,0.712,0.29l0.422,0.422l-0.424,0.424
		c-0.375,0.378-1.045,0.378-1.423,0L134.05,98.203z M159.123,100.579c0.711,0.711,1.658,1.102,2.667,1.102
		c1.009,0,1.956-0.391,2.665-1.102l0.423-0.423l8.26,8.26l-0.424,0.424c-1.467,1.47-1.467,3.861,0.001,5.332l0.423,0.423
		l-8.262,8.26l-0.422-0.422c-1.47-1.47-3.861-1.47-5.332,0l-0.423,0.423l-8.26-8.262l0.422-0.422c1.47-1.47,1.47-3.861,0-5.332
		l-0.423-0.423l8.262-8.26L159.123,100.579z M160.654,98.204l0.422-0.422c0.193-0.194,0.453-0.29,0.714-0.29
		c0.259,0,0.519,0.096,0.712,0.289l0.422,0.422l-0.424,0.424c-0.375,0.378-1.047,0.378-1.424,0L160.654,98.204z M185.729,100.579
		c0.735,0.735,1.701,1.102,2.665,1.102c0.966,0,1.931-0.367,2.666-1.102l0.423-0.423l8.261,8.261l-0.423,0.423
		c-1.47,1.47-1.47,3.861,0,5.332l0.423,0.423l-8.26,8.26l-0.424-0.424c-1.47-1.467-3.863-1.466-5.332,0.001l-0.423,0.423
		l-8.26-8.262l0.422-0.422c1.47-1.47,1.47-3.861,0-5.332l-0.423-0.423l8.262-8.26L185.729,100.579z M187.259,98.204l0.422-0.422
		c0.196-0.197,0.455-0.295,0.714-0.295c0.258,0,0.515,0.099,0.712,0.294l0.423,0.423l-0.423,0.423c-0.395,0.395-1.033,0.393-1.426,0
		L187.259,98.204z M212.334,100.579c0.735,0.735,1.701,1.102,2.665,1.102c0.966,0,1.931-0.367,2.667-1.102l0.423-0.423l8.261,8.261
		l-0.423,0.423c-1.47,1.47-1.47,3.861,0,5.332l0.423,0.423l-8.26,8.26l-0.424-0.424c-1.471-1.467-3.863-1.466-5.332,0.001
		l-0.423,0.423l-8.261-8.261l0.423-0.423c1.47-1.47,1.47-3.861,0-5.332l-0.423-0.423l8.262-8.26L212.334,100.579z M213.865,98.204
		l0.422-0.422c0.196-0.197,0.454-0.295,0.714-0.295c0.258,0,0.515,0.099,0.712,0.294l0.423,0.423l-0.423,0.423
		c-0.394,0.395-1.032,0.393-1.426,0L213.865,98.204z M238.939,100.579c0.735,0.735,1.701,1.102,2.665,1.102
		c0.966,0,1.931-0.367,2.667-1.102l0.423-0.423l8.261,8.261l-0.423,0.423c-1.47,1.47-1.47,3.861,0,5.332l0.423,0.423l-8.26,8.26
		l-0.424-0.424c-1.471-1.467-3.863-1.466-5.332,0.001l-0.423,0.423l-8.261-8.261l0.423-0.423c1.47-1.47,1.47-3.861,0-5.332
		l-0.423-0.423l8.262-8.26L238.939,100.579z M240.47,98.204l0.422-0.422c0.196-0.197,0.454-0.295,0.714-0.295
		c0.258,0,0.515,0.099,0.712,0.294l0.423,0.423l-0.423,0.423c-0.395,0.395-1.033,0.393-1.426,0L240.47,98.204z M265.544,100.579
		c0.735,0.735,1.701,1.102,2.665,1.102c0.966,0,1.931-0.367,2.667-1.102l0.423-0.423l8.261,8.261l-0.423,0.423
		c-1.47,1.47-1.47,3.861,0,5.332l0.423,0.423l-8.26,8.26l-0.423-0.424c-1.471-1.467-3.863-1.466-5.332,0.001l-0.423,0.423
		l-8.261-8.261l0.423-0.423c1.47-1.47,1.47-3.861,0-5.332l-0.423-0.423l8.262-8.26L265.544,100.579z M267.075,98.204l0.422-0.422
		c0.196-0.197,0.454-0.295,0.714-0.295c0.258,0,0.515,0.099,0.712,0.294l0.423,0.423l-0.423,0.423c-0.394,0.395-1.032,0.393-1.426,0
		L267.075,98.204z M292.15,100.579c0.735,0.735,1.701,1.102,2.665,1.102c0.966,0,1.931-0.367,2.667-1.102l0.423-0.423l8.261,8.261
		l-0.423,0.423c-1.47,1.47-1.47,3.861,0,5.332l0.423,0.423l-8.26,8.26l-0.424-0.424c-1.47-1.467-3.861-1.466-5.332,0.001
		l-0.423,0.423l-8.261-8.261l0.423-0.423c1.47-1.47,1.47-3.861,0-5.332l-0.423-0.423l8.262-8.26L292.15,100.579z M293.68,98.204
		l0.422-0.422c0.196-0.197,0.455-0.295,0.714-0.295c0.258,0,0.515,0.099,0.712,0.294l0.423,0.423l-0.423,0.423
		c-0.395,0.395-1.033,0.393-1.426,0L293.68,98.204z M318.755,100.579c0.735,0.735,1.701,1.102,2.665,1.102
		c0.966,0,1.931-0.367,2.666-1.102l0.423-0.423l8.261,8.261l-0.423,0.423c-1.47,1.47-1.47,3.861,0,5.332l0.423,0.423l-8.26,8.26
		l-0.423-0.424c-1.472-1.467-3.863-1.466-5.332,0.001l-0.423,0.423l-8.261-8.261l0.423-0.423c1.47-1.47,1.47-3.861,0-5.332
		l-0.423-0.423l8.262-8.26L318.755,100.579z M320.286,98.204l0.422-0.422c0.196-0.197,0.454-0.295,0.714-0.295
		c0.258,0,0.515,0.099,0.712,0.294l0.423,0.423l-0.423,0.423c-0.394,0.395-1.032,0.393-1.426,0L320.286,98.204z M345.36,100.579
		c0.735,0.735,1.701,1.102,2.665,1.102c0.966,0,1.931-0.367,2.666-1.102l0.423-0.423l8.261,8.261l-0.423,0.423
		c-1.47,1.47-1.47,3.861,0,5.332l0.423,0.423l-8.26,8.26l-0.423-0.424c-1.471-1.467-3.863-1.466-5.332,0.001l-0.423,0.423
		l-8.261-8.261l0.423-0.423c1.47-1.47,1.47-3.861,0-5.332l-0.423-0.423l8.261-8.26L345.36,100.579z M346.891,98.204l0.422-0.422
		c0.196-0.197,0.454-0.295,0.714-0.295c0.258,0,0.515,0.099,0.712,0.294l0.423,0.423l-0.423,0.423c-0.395,0.395-1.033,0.393-1.426,0
		L346.891,98.204z M353.068,98.203l8.261-8.26l8.26,8.26l-8.261,8.261L353.068,98.203z M361.751,110.793
		c0.392,0.393,0.392,1.033,0,1.426l-0.423,0.423l-0.423-0.423c-0.392-0.392-0.392-1.033,0-1.426l0.423-0.423L361.751,110.793z
		 M361.751,137.398c0.392,0.392,0.392,1.033,0,1.426l-0.423,0.423l-0.423-0.423c-0.392-0.393-0.392-1.033,0-1.426l0.423-0.423
		L361.751,137.398z M358.952,140.777l0.423,0.423l-8.261,8.261l-0.423-0.423c-1.469-1.469-3.86-1.471-5.332,0l-0.423,0.423
		l-8.261-8.261l0.423-0.423c1.47-1.47,1.47-3.861,0-5.331l-0.423-0.423l8.261-8.26l0.422,0.422c0.735,0.735,1.701,1.102,2.665,1.102
		c0.966,0,1.931-0.367,2.666-1.102l0.423-0.423l8.261,8.261l-0.423,0.423C357.482,136.915,357.482,139.307,358.952,140.777z
		 M361.328,143.152l8.261,8.261l-8.261,8.261l-8.261-8.261L361.328,143.152z M349.161,151.414l-0.423,0.423
		c-0.395,0.395-1.033,0.393-1.426,0l-0.423-0.423l0.423-0.423c0.197-0.197,0.454-0.294,0.714-0.294c0.258,0,0.515,0.097,0.712,0.294
		L349.161,151.414z M324.086,149.038c-1.469-1.469-3.86-1.471-5.332,0l-0.423,0.423l-8.261-8.261l0.423-0.423
		c1.47-1.47,1.47-3.861,0-5.331l-0.423-0.423l8.262-8.26l0.422,0.422c0.735,0.735,1.701,1.102,2.665,1.102
		c0.966,0,1.931-0.367,2.666-1.102l0.423-0.423l8.261,8.261l-0.423,0.423c-1.47,1.47-1.47,3.861,0,5.331l0.423,0.423l-8.261,8.261
		L324.086,149.038z M322.556,151.414l-0.423,0.423c-0.394,0.395-1.032,0.393-1.426,0l-0.423-0.423l0.423-0.423
		c0.197-0.197,0.454-0.294,0.714-0.294c0.258,0,0.515,0.097,0.712,0.294L322.556,151.414z M297.481,149.038
		c-1.47-1.469-3.861-1.471-5.332,0l-0.423,0.423l-8.261-8.261l0.423-0.423c1.47-1.47,1.47-3.861,0-5.331l-0.423-0.423l8.262-8.26
		l0.422,0.422c0.735,0.735,1.701,1.102,2.665,1.102c0.966,0,1.931-0.367,2.667-1.102l0.423-0.423l8.261,8.261l-0.423,0.423
		c-1.47,1.47-1.47,3.861,0,5.331l0.423,0.423l-8.261,8.261L297.481,149.038z M295.951,151.414l-0.423,0.423
		c-0.395,0.395-1.033,0.393-1.426,0l-0.423-0.423l0.423-0.423c0.197-0.197,0.455-0.294,0.714-0.294c0.258,0,0.515,0.097,0.712,0.294
		L295.951,151.414z M270.876,149.038c-1.469-1.469-3.86-1.471-5.332,0l-0.423,0.423l-8.261-8.261l0.423-0.423
		c1.47-1.47,1.47-3.861,0-5.331l-0.423-0.423l8.262-8.26l0.422,0.422c0.735,0.735,1.701,1.102,2.665,1.102
		c0.966,0,1.931-0.367,2.667-1.102l0.423-0.423l8.261,8.261l-0.423,0.423c-1.47,1.47-1.47,3.861,0,5.331l0.423,0.423l-8.261,8.261
		L270.876,149.038z M269.346,151.414l-0.423,0.423c-0.394,0.395-1.032,0.393-1.426,0l-0.423-0.423l0.423-0.423
		c0.197-0.197,0.454-0.294,0.714-0.294c0.258,0,0.515,0.097,0.712,0.294L269.346,151.414z M244.271,149.038
		c-1.469-1.469-3.86-1.471-5.332,0l-0.423,0.423l-8.261-8.261l0.423-0.423c1.47-1.47,1.47-3.861,0-5.331l-0.423-0.423l8.262-8.26
		l0.422,0.422c0.735,0.735,1.701,1.102,2.665,1.102c0.966,0,1.931-0.367,2.667-1.102l0.423-0.423l8.261,8.261l-0.423,0.423
		c-1.47,1.47-1.47,3.861,0,5.331l0.423,0.423l-8.261,8.261L244.271,149.038z M242.74,151.414l-0.423,0.423
		c-0.395,0.395-1.033,0.393-1.426,0l-0.423-0.423l0.423-0.423c0.197-0.197,0.454-0.294,0.714-0.294c0.258,0,0.515,0.097,0.712,0.294
		L242.74,151.414z M217.665,149.038c-1.469-1.469-3.86-1.471-5.332,0l-0.423,0.423l-8.261-8.261l0.423-0.423
		c1.47-1.47,1.47-3.861,0-5.331l-0.423-0.423l8.262-8.26l0.422,0.422c0.735,0.735,1.701,1.102,2.665,1.102
		c0.966,0,1.931-0.367,2.667-1.102l0.423-0.423l8.261,8.261l-0.423,0.423c-1.47,1.47-1.47,3.861,0,5.331l0.423,0.423l-8.261,8.261
		L217.665,149.038z M216.135,151.414l-0.423,0.423c-0.394,0.395-1.032,0.393-1.426,0l-0.423-0.423l0.423-0.423
		c0.197-0.197,0.454-0.294,0.714-0.294c0.258,0,0.515,0.097,0.712,0.294L216.135,151.414z M191.06,149.038
		c-1.47-1.469-3.86-1.471-5.332,0l-0.423,0.423l-8.26-8.262l0.422-0.422c1.47-1.47,1.47-3.861,0-5.331l-0.423-0.423l8.262-8.26
		l0.422,0.422c0.735,0.735,1.701,1.102,2.665,1.102c0.966,0,1.931-0.367,2.666-1.102l0.423-0.423l8.261,8.261l-0.423,0.423
		c-1.47,1.47-1.47,3.861,0,5.331l0.423,0.423l-8.261,8.261L191.06,149.038z M189.53,151.414l-0.423,0.423
		c-0.395,0.395-1.033,0.393-1.426,0l-0.423-0.423l0.423-0.423c0.197-0.197,0.455-0.294,0.714-0.294c0.258,0,0.515,0.097,0.712,0.294
		L189.53,151.414z M164.456,149.038c-1.421-1.422-3.911-1.422-5.333,0l-0.423,0.423l-8.26-8.262l0.422-0.422
		c1.47-1.47,1.47-3.861,0-5.331l-0.423-0.423l8.262-8.26l0.422,0.422c0.711,0.711,1.658,1.102,2.667,1.102
		c1.009,0,1.956-0.391,2.665-1.102l0.423-0.423l8.26,8.26l-0.424,0.424c-1.467,1.47-1.467,3.861,0.001,5.331l0.423,0.423
		l-8.261,8.26L164.456,149.038z M162.924,151.413l-0.424,0.423c-0.375,0.378-1.047,0.378-1.424,0l-0.423-0.423l0.423-0.423
		c0.189-0.189,0.442-0.293,0.714-0.293s0.523,0.104,0.712,0.293L162.924,151.413z M137.851,149.038
		c-1.422-1.422-3.913-1.422-5.331,0l-0.423,0.423l-8.26-8.26l0.424-0.423c1.467-1.47,1.467-3.861,0-5.331l-0.424-0.424l8.26-8.26
		l0.422,0.422c0.711,0.711,1.658,1.102,2.667,1.102c1.009,0,1.956-0.391,2.665-1.102l0.423-0.423l8.26,8.26l-0.424,0.424
		c-1.467,1.47-1.467,3.861,0.001,5.331l0.423,0.423l-8.261,8.26L137.851,149.038z M136.319,151.413l-0.424,0.423
		c-0.375,0.378-1.045,0.378-1.423,0l-0.422-0.422l0.424-0.424c0.188-0.189,0.44-0.293,0.711-0.293c0.271,0,0.523,0.104,0.712,0.293
		L136.319,151.413z M111.246,149.038c-1.472-1.471-3.863-1.469-5.332,0l-0.423,0.423l-8.26-8.26l0.424-0.423
		c1.467-1.47,1.467-3.861,0-5.331l-0.424-0.424l8.261-8.26l0.422,0.422c0.735,0.735,1.701,1.102,2.666,1.102
		c0.964,0,1.93-0.367,2.665-1.102l0.423-0.423l8.26,8.261l-0.422,0.422c-1.47,1.47-1.47,3.861,0,5.331l0.423,0.423l-8.261,8.261
		L111.246,149.038z M109.716,151.414l-0.423,0.423c-0.391,0.393-1.029,0.395-1.426,0l-0.423-0.423l0.423-0.423
		c0.197-0.197,0.455-0.294,0.712-0.294c0.259,0,0.516,0.097,0.713,0.294L109.716,151.414z M84.641,149.038
		c-1.471-1.471-3.863-1.469-5.332,0l-0.423,0.423l-8.261-8.261l0.423-0.423c1.47-1.47,1.47-3.861,0-5.331l-0.423-0.423l8.261-8.26
		l0.422,0.422c0.735,0.735,1.701,1.102,2.666,1.102c0.964,0,1.93-0.367,2.665-1.102l0.423-0.423l8.26,8.261l-0.422,0.422
		c-1.47,1.47-1.47,3.861,0,5.331l0.423,0.423l-8.261,8.261L84.641,149.038z M83.111,151.414l-0.423,0.423
		c-0.392,0.393-1.03,0.395-1.426,0l-0.423-0.423l0.423-0.423c0.197-0.197,0.454-0.294,0.712-0.294c0.259,0,0.517,0.097,0.713,0.294
		L83.111,151.414z M58.036,149.038c-1.47-1.471-3.861-1.469-5.332,0l-0.423,0.423L44.02,141.2l0.423-0.423
		c1.47-1.47,1.47-3.861,0-5.331l-0.423-0.423l8.261-8.26l0.422,0.422c0.735,0.735,1.701,1.102,2.666,1.102
		c0.964,0,1.93-0.367,2.665-1.102l0.423-0.423l8.261,8.261l-0.423,0.423c-1.47,1.47-1.47,3.861,0,5.331l0.423,0.423l-8.261,8.261
		L58.036,149.038z M56.505,151.414l-0.423,0.423c-0.391,0.393-1.029,0.395-1.426,0l-0.423-0.423l0.423-0.423
		c0.197-0.197,0.454-0.294,0.712-0.294c0.259,0,0.517,0.097,0.714,0.294L56.505,151.414z M50.328,151.414l-8.261,8.261l-8.261-8.261
		l8.261-8.261L50.328,151.414z M41.644,138.824c-0.393-0.393-0.393-1.033,0-1.426l0.423-0.423l0.423,0.423
		c0.392,0.392,0.392,1.033,0,1.426l-0.423,0.423L41.644,138.824z M42.067,133.069l-8.26-8.262l8.26-8.26l8.261,8.261L42.067,133.069
		z M54.235,124.809l0.422-0.422c0.196-0.197,0.454-0.295,0.713-0.295c0.258,0,0.515,0.099,0.712,0.294l0.423,0.423l-0.423,0.423
		c-0.391,0.394-1.029,0.396-1.426,0L54.235,124.809z M60.412,124.808l8.26-8.26l8.261,8.261l-8.261,8.261L60.412,124.808z
		 M69.095,137.398c0.392,0.392,0.392,1.033,0,1.426l-0.423,0.423l-0.423-0.423c-0.393-0.393-0.393-1.033,0-1.426l0.423-0.423
		L69.095,137.398z M68.672,143.152l8.261,8.261l-8.261,8.261l-8.261-8.261L68.672,143.152z M80.84,124.809l0.422-0.422
		c0.196-0.197,0.454-0.295,0.713-0.295c0.258,0,0.515,0.099,0.712,0.294l0.423,0.423l-0.423,0.423c-0.392,0.394-1.03,0.396-1.426,0
		L80.84,124.809z M87.017,124.808l8.261-8.26l8.26,8.26l-8.26,8.26L87.017,124.808z M95.699,137.398
		c0.394,0.392,0.394,1.033,0.001,1.426l-0.423,0.423l-0.423-0.423c-0.393-0.393-0.393-1.033,0-1.426l0.422-0.422L95.699,137.398z
		 M95.278,143.153l8.26,8.26l-8.26,8.26l-8.261-8.26L95.278,143.153z M107.445,124.809l0.422-0.422
		c0.196-0.197,0.455-0.295,0.714-0.295c0.258,0,0.515,0.099,0.712,0.294l0.423,0.423l-0.423,0.423c-0.391,0.394-1.029,0.396-1.426,0
		L107.445,124.809z M113.622,124.808l8.261-8.26l8.26,8.261l-8.26,8.26L113.622,124.808z M122.304,137.398
		c0.394,0.392,0.394,1.033,0.001,1.426l-0.423,0.423l-0.423-0.423c-0.393-0.393-0.393-1.033,0-1.426l0.422-0.422L122.304,137.398z
		 M121.883,143.153l8.26,8.261l-8.26,8.26l-8.261-8.26L121.883,143.153z M134.05,124.808l0.423-0.423
		c0.193-0.193,0.453-0.29,0.712-0.29c0.259,0,0.519,0.097,0.712,0.29l0.422,0.422l-0.424,0.424c-0.375,0.378-1.045,0.378-1.423,0
		L134.05,124.808z M140.226,124.808l8.261-8.261l8.261,8.261l-8.262,8.26L140.226,124.808z M148.91,137.398
		c0.393,0.392,0.393,1.033,0,1.426l-0.422,0.422l-0.422-0.422c-0.394-0.393-0.394-1.033-0.001-1.426l0.423-0.423L148.91,137.398z
		 M148.487,143.152l8.261,8.261l-8.261,8.26l-8.26-8.261L148.487,143.152z M160.654,124.809l0.422-0.422
		c0.193-0.194,0.453-0.29,0.714-0.29c0.259,0,0.519,0.096,0.712,0.289l0.422,0.422l-0.424,0.424c-0.375,0.378-1.047,0.378-1.424,0
		L160.654,124.809z M166.831,124.808l8.261-8.261l8.261,8.261l-8.262,8.26L166.831,124.808z M175.515,137.398
		c0.393,0.392,0.393,1.033,0,1.426l-0.422,0.422l-0.422-0.422c-0.394-0.393-0.394-1.033-0.001-1.426l0.423-0.423L175.515,137.398z
		 M175.092,143.152l8.261,8.261l-8.261,8.26l-8.26-8.261L175.092,143.152z M187.259,124.809l0.422-0.422
		c0.196-0.197,0.455-0.295,0.714-0.295c0.258,0,0.515,0.099,0.712,0.294l0.423,0.423l-0.423,0.423c-0.395,0.396-1.033,0.394-1.426,0
		L187.259,124.809z M193.437,124.808l8.26-8.26l8.261,8.261l-8.261,8.261L193.437,124.808z M202.12,137.398
		c0.393,0.392,0.393,1.033,0,1.426l-0.423,0.423l-0.423-0.423c-0.393-0.393-0.393-1.033,0-1.426l0.423-0.423L202.12,137.398z
		 M201.697,143.152l8.261,8.261l-8.261,8.261l-8.261-8.261L201.697,143.152z M213.865,124.809l0.422-0.422
		c0.196-0.197,0.454-0.295,0.714-0.295c0.258,0,0.515,0.099,0.712,0.294l0.423,0.423l-0.423,0.423c-0.394,0.396-1.032,0.394-1.426,0
		L213.865,124.809z M220.042,124.808l8.26-8.26l8.261,8.261l-8.261,8.261L220.042,124.808z M228.725,137.398
		c0.393,0.392,0.393,1.033,0,1.426l-0.423,0.423l-0.423-0.423c-0.392-0.393-0.392-1.033,0-1.426l0.423-0.423L228.725,137.398z
		 M228.302,143.152l8.261,8.261l-8.261,8.261l-8.261-8.261L228.302,143.152z M240.47,124.809l0.422-0.422
		c0.196-0.197,0.454-0.295,0.714-0.295c0.258,0,0.515,0.099,0.712,0.294l0.423,0.423l-0.423,0.423c-0.395,0.396-1.033,0.394-1.426,0
		L240.47,124.809z M246.647,124.808l8.26-8.26l8.261,8.261l-8.261,8.261L246.647,124.808z M255.33,137.398
		c0.393,0.392,0.393,1.033,0,1.426l-0.423,0.423l-0.423-0.423c-0.393-0.393-0.393-1.033,0-1.426l0.423-0.423L255.33,137.398z
		 M254.907,143.152l8.261,8.261l-8.261,8.261l-8.261-8.261L254.907,143.152z M267.075,124.809l0.422-0.422
		c0.196-0.197,0.454-0.295,0.714-0.295c0.258,0,0.515,0.099,0.712,0.294l0.423,0.423l-0.423,0.423c-0.394,0.396-1.032,0.394-1.426,0
		L267.075,124.809z M273.252,124.808l8.26-8.26l8.261,8.261l-8.261,8.261L273.252,124.808z M281.935,137.398
		c0.393,0.392,0.393,1.033,0,1.426l-0.423,0.423l-0.423-0.423c-0.393-0.393-0.393-1.033,0-1.426l0.423-0.423L281.935,137.398z
		 M281.513,143.152l8.261,8.261l-8.261,8.261l-8.261-8.261L281.513,143.152z M293.68,124.809l0.422-0.422
		c0.196-0.197,0.455-0.295,0.714-0.295c0.258,0,0.515,0.099,0.712,0.294l0.423,0.423l-0.423,0.423c-0.395,0.396-1.033,0.394-1.426,0
		L293.68,124.809z M299.858,124.808l8.26-8.26l8.261,8.261l-8.261,8.261L299.858,124.808z M308.541,137.398
		c0.392,0.392,0.392,1.033,0,1.426l-0.423,0.423l-0.423-0.423c-0.393-0.393-0.393-1.033,0-1.426l0.423-0.423L308.541,137.398z
		 M308.118,143.152l8.261,8.261l-8.261,8.261l-8.261-8.261L308.118,143.152z M320.286,124.809l0.422-0.422
		c0.196-0.197,0.454-0.295,0.714-0.295c0.258,0,0.515,0.099,0.712,0.294l0.423,0.423l-0.423,0.423c-0.394,0.396-1.032,0.394-1.426,0
		L320.286,124.809z M326.463,124.808l8.26-8.26l8.261,8.261l-8.261,8.261L326.463,124.808z M335.146,137.398
		c0.392,0.392,0.392,1.033,0,1.426l-0.423,0.423l-0.423-0.423c-0.393-0.393-0.393-1.033,0-1.426l0.423-0.423L335.146,137.398z
		 M334.723,143.152l8.261,8.261l-8.261,8.261l-8.261-8.261L334.723,143.152z M346.891,124.809l0.422-0.422
		c0.196-0.197,0.454-0.295,0.714-0.295c0.258,0,0.515,0.099,0.712,0.294l0.423,0.423l-0.423,0.423c-0.395,0.396-1.033,0.394-1.426,0
		L346.891,124.809z M353.068,124.808l8.26-8.26l8.261,8.261l-8.261,8.261L353.068,124.808z M334.3,112.219
		c-0.393-0.392-0.393-1.033,0-1.426l0.423-0.423l0.423,0.423c0.392,0.393,0.392,1.033,0,1.426l-0.423,0.423L334.3,112.219z
		 M334.723,106.464l-8.26-8.261l8.261-8.26l8.26,8.26L334.723,106.464z M307.695,112.219c-0.393-0.392-0.393-1.033,0-1.426
		l0.423-0.423l0.423,0.423c0.392,0.393,0.392,1.033,0,1.426l-0.423,0.423L307.695,112.219z M308.118,106.464l-8.26-8.261l8.261-8.26
		l8.26,8.26L308.118,106.464z M281.09,112.219c-0.393-0.392-0.393-1.033,0-1.426l0.423-0.423l0.423,0.423
		c0.393,0.393,0.393,1.033,0,1.426l-0.423,0.423L281.09,112.219z M281.513,106.464l-8.26-8.261l8.261-8.26l8.26,8.26
		L281.513,106.464z M254.485,112.219c-0.393-0.392-0.393-1.033,0-1.426l0.423-0.423l0.423,0.423c0.393,0.393,0.393,1.033,0,1.426
		l-0.423,0.423L254.485,112.219z M254.907,106.464l-8.26-8.261l8.261-8.26l8.26,8.26L254.907,106.464z M227.879,112.219
		c-0.392-0.392-0.392-1.033,0-1.426l0.423-0.423l0.423,0.423c0.393,0.393,0.393,1.033,0,1.426l-0.423,0.423L227.879,112.219z
		 M228.302,106.464l-8.26-8.261l8.261-8.26l8.26,8.26L228.302,106.464z M201.274,112.219c-0.393-0.392-0.393-1.033,0-1.426
		l0.423-0.423l0.423,0.423c0.393,0.393,0.393,1.033,0,1.426l-0.423,0.423L201.274,112.219z M201.697,106.464l-8.26-8.261l8.261-8.26
		l8.26,8.26L201.697,106.464z M174.67,112.219c-0.394-0.392-0.394-1.033-0.001-1.426l0.423-0.423l0.423,0.423
		c0.393,0.393,0.393,1.033,0,1.426l-0.422,0.422L174.67,112.219z M175.091,106.463l-8.26-8.26l8.262-8.26l8.26,8.26L175.091,106.463
		z M148.065,112.219c-0.394-0.392-0.394-1.033-0.001-1.426l0.423-0.423l0.423,0.423c0.393,0.393,0.393,1.033,0,1.426l-0.422,0.422
		L148.065,112.219z M148.486,106.463l-8.26-8.26l8.262-8.26l8.26,8.26L148.486,106.463z M121.46,112.219
		c-0.393-0.392-0.393-1.033,0-1.426l0.422-0.422l0.422,0.422c0.394,0.393,0.394,1.033,0.001,1.426l-0.423,0.423L121.46,112.219z
		 M121.883,106.463l-8.261-8.261l8.26-8.26l8.26,8.262L121.883,106.463z M94.855,112.219c-0.393-0.392-0.393-1.033,0-1.426
		l0.422-0.422l0.422,0.422c0.394,0.393,0.394,1.033,0.001,1.426l-0.423,0.423L94.855,112.219z M95.278,106.463l-8.261-8.261
		l8.26-8.26l8.261,8.261L95.278,106.463z M68.25,112.219c-0.393-0.392-0.393-1.033,0-1.426l0.423-0.423l0.423,0.423
		c0.392,0.393,0.392,1.033,0,1.426l-0.423,0.423L68.25,112.219z M68.672,106.464l-8.26-8.261l8.261-8.26l8.26,8.26L68.672,106.464z
		 M41.644,112.219c-0.393-0.392-0.393-1.033,0-1.426l0.423-0.423l0.423,0.423c0.392,0.393,0.392,1.033,0,1.426l-0.423,0.423
		L41.644,112.219z M42.067,106.464l-8.26-8.261l8.261-8.26l8.26,8.26L42.067,106.464z M28.052,124.387
		c0.196-0.197,0.455-0.295,0.713-0.295c0.258,0,0.515,0.099,0.712,0.294l0.423,0.423l-0.423,0.423c-0.392,0.394-1.03,0.396-1.426,0
		l-0.422-0.422L28.052,124.387z M28.052,150.991c0.197-0.197,0.455-0.294,0.712-0.294c0.259,0,0.517,0.097,0.714,0.294l0.423,0.423
		l-0.423,0.423c-0.392,0.393-1.03,0.395-1.426,0l-0.423-0.423L28.052,150.991z M42.49,164.003c0.392,0.392,0.392,1.033,0,1.426
		l-0.423,0.423l-0.423-0.423c-0.393-0.393-0.393-1.033,0-1.426l0.423-0.423L42.49,164.003z M42.067,169.758l8.261,8.261
		l-8.261,8.261l-8.261-8.261L42.067,169.758z M69.095,164.003c0.392,0.392,0.392,1.033,0,1.426l-0.423,0.423l-0.423-0.423
		c-0.393-0.393-0.393-1.033,0-1.426l0.423-0.423L69.095,164.003z M68.672,169.758l8.261,8.261l-8.261,8.261l-8.261-8.261
		L68.672,169.758z M95.699,164.003c0.394,0.392,0.394,1.033,0.001,1.426l-0.423,0.423l-0.423-0.423
		c-0.393-0.393-0.393-1.033,0-1.426l0.422-0.422L95.699,164.003z M95.278,169.758l8.26,8.26l-8.26,8.26l-8.261-8.26L95.278,169.758z
		 M122.304,164.003c0.394,0.392,0.394,1.033,0.001,1.426l-0.423,0.423l-0.423-0.423c-0.393-0.393-0.393-1.033,0-1.426l0.422-0.422
		L122.304,164.003z M121.883,169.758l8.26,8.261l-8.26,8.26l-8.261-8.26L121.883,169.758z M148.91,164.003
		c0.393,0.392,0.393,1.033,0,1.426l-0.422,0.422l-0.422-0.422c-0.394-0.393-0.394-1.033-0.001-1.426l0.423-0.423L148.91,164.003z
		 M148.487,169.758l8.261,8.261l-8.261,8.26l-8.26-8.261L148.487,169.758z M175.515,164.003c0.393,0.392,0.393,1.033,0,1.426
		l-0.422,0.422l-0.422-0.422c-0.394-0.393-0.394-1.033-0.001-1.426l0.423-0.423L175.515,164.003z M175.092,169.758l8.261,8.261
		l-8.261,8.26l-8.26-8.261L175.092,169.758z M202.12,164.003c0.393,0.392,0.393,1.033,0,1.426l-0.423,0.423l-0.423-0.423
		c-0.393-0.393-0.393-1.033,0-1.426l0.423-0.423L202.12,164.003z M201.697,169.758l8.261,8.261l-8.261,8.261l-8.261-8.261
		L201.697,169.758z M228.725,164.003c0.393,0.392,0.393,1.033,0,1.426l-0.423,0.423l-0.423-0.423c-0.392-0.393-0.392-1.033,0-1.426
		l0.423-0.423L228.725,164.003z M228.302,169.758l8.261,8.261l-8.261,8.261l-8.261-8.261L228.302,169.758z M255.33,164.003
		c0.393,0.392,0.393,1.033,0,1.426l-0.423,0.423l-0.423-0.423c-0.393-0.393-0.393-1.033,0-1.426l0.423-0.423L255.33,164.003z
		 M254.907,169.758l8.261,8.261l-8.261,8.261l-8.261-8.261L254.907,169.758z M281.935,164.003c0.393,0.392,0.393,1.033,0,1.426
		l-0.423,0.423l-0.423-0.423c-0.393-0.393-0.393-1.033,0-1.426l0.423-0.423L281.935,164.003z M281.513,169.758l8.261,8.261
		l-8.261,8.261l-8.261-8.261L281.513,169.758z M308.541,164.003c0.392,0.392,0.392,1.033,0,1.426l-0.423,0.423l-0.423-0.423
		c-0.393-0.393-0.393-1.033,0-1.426l0.423-0.423L308.541,164.003z M308.118,169.758l8.261,8.261l-8.261,8.261l-8.261-8.261
		L308.118,169.758z M335.146,164.003c0.392,0.392,0.392,1.033,0,1.426l-0.423,0.423l-0.423-0.423c-0.393-0.393-0.393-1.033,0-1.426
		l0.423-0.423L335.146,164.003z M334.723,169.758l8.261,8.261l-8.261,8.261l-8.261-8.261L334.723,169.758z M361.751,164.003
		c0.392,0.392,0.392,1.033,0,1.426l-0.423,0.423l-0.423-0.423c-0.392-0.393-0.392-1.033,0-1.426l0.423-0.423L361.751,164.003z
		 M361.328,169.758l8.261,8.261l-8.261,8.261l-8.261-8.261L361.328,169.758z M373.495,151.414l0.423-0.423
		c0.197-0.197,0.455-0.294,0.712-0.294c0.259,0,0.517,0.097,0.713,0.294l0.423,0.423l-0.423,0.423c-0.391,0.393-1.029,0.395-1.426,0
		L373.495,151.414z M379.673,151.414l8.261-8.26l8.26,8.261l-8.26,8.26L379.673,151.414z M373.496,124.809l0.422-0.422
		c0.196-0.197,0.455-0.295,0.714-0.295c0.258,0,0.515,0.099,0.712,0.294l0.423,0.423l-0.423,0.423c-0.391,0.394-1.029,0.396-1.426,0
		L373.496,124.809z M379.673,124.808l8.261-8.26l8.26,8.261l-8.26,8.26L379.673,124.808z M373.496,98.204l0.422-0.422
		c0.196-0.197,0.455-0.295,0.714-0.295c0.258,0,0.515,0.099,0.712,0.294l0.423,0.423l-0.423,0.423c-0.391,0.393-1.029,0.395-1.426,0
		L373.496,98.204z M379.673,98.202l8.26-8.26l8.26,8.262l-8.26,8.26L379.673,98.202z M360.905,85.612
		c-0.189-0.188-0.293-0.44-0.293-0.711s0.104-0.523,0.293-0.712l0.423-0.423l0.423,0.423v0.001c0.189,0.188,0.293,0.44,0.293,0.711
		s-0.104,0.523-0.293,0.712l-0.422,0.422L360.905,85.612z M361.328,79.86l-8.261-8.261l8.262-8.261l8.261,8.261L361.328,79.86z
		 M334.3,85.612c-0.189-0.188-0.293-0.44-0.293-0.711s0.104-0.523,0.293-0.712l0.423-0.423l0.423,0.423v0.001
		c0.189,0.188,0.293,0.44,0.293,0.711s-0.104,0.523-0.293,0.712l-0.422,0.422L334.3,85.612z M334.723,79.86l-8.261-8.261
		l8.262-8.261l8.261,8.261L334.723,79.86z M307.695,85.612c-0.189-0.188-0.293-0.44-0.293-0.711s0.104-0.523,0.293-0.712
		l0.423-0.423l0.423,0.423v0.001c0.189,0.188,0.293,0.44,0.293,0.711s-0.104,0.523-0.293,0.712l-0.422,0.422L307.695,85.612z
		 M308.117,79.86l-8.261-8.261l8.262-8.261l8.261,8.261L308.117,79.86z M281.09,85.612c-0.189-0.188-0.293-0.44-0.293-0.711
		s0.104-0.523,0.293-0.712l0.423-0.423l0.423,0.423v0.001c0.189,0.188,0.293,0.44,0.293,0.711s-0.104,0.523-0.293,0.712
		l-0.422,0.422L281.09,85.612z M281.512,79.86l-8.261-8.261l8.262-8.261l8.261,8.261L281.512,79.86z M254.485,85.612
		c-0.189-0.188-0.293-0.44-0.293-0.711s0.104-0.523,0.293-0.712l0.423-0.423l0.423,0.423v0.001c0.189,0.188,0.293,0.44,0.293,0.711
		s-0.104,0.523-0.293,0.712l-0.422,0.422L254.485,85.612z M254.907,79.86l-8.261-8.261l8.262-8.261l8.261,8.261L254.907,79.86z
		 M227.879,85.612c-0.189-0.188-0.293-0.44-0.293-0.711s0.104-0.523,0.293-0.712l0.423-0.423l0.423,0.423v0.001
		c0.189,0.188,0.293,0.44,0.293,0.711s-0.104,0.523-0.293,0.712l-0.422,0.422L227.879,85.612z M228.302,79.86l-8.261-8.261
		l8.262-8.261l8.261,8.261L228.302,79.86z M201.274,85.612c-0.189-0.188-0.293-0.44-0.293-0.711s0.104-0.523,0.293-0.712
		l0.423-0.423l0.423,0.423v0.001c0.189,0.188,0.293,0.44,0.293,0.711s-0.104,0.523-0.293,0.712l-0.422,0.422L201.274,85.612z
		 M201.696,79.86l-8.261-8.261l8.262-8.261l8.261,8.261L201.696,79.86z M174.669,85.613c-0.386-0.386-0.386-1.039,0-1.424
		l0.423-0.423l0.423,0.423v0.001c0.189,0.188,0.293,0.44,0.293,0.711s-0.104,0.523-0.293,0.712l-0.423,0.423L174.669,85.613z
		 M175.092,79.86l-8.261-8.262l8.262-8.261l8.261,8.261L175.092,79.86z M148.064,85.613c-0.386-0.386-0.386-1.039,0-1.424
		l0.423-0.423l0.423,0.423v0.001c0.189,0.188,0.293,0.44,0.293,0.711s-0.104,0.523-0.293,0.712l-0.423,0.423L148.064,85.613z
		 M148.487,79.86l-8.261-8.262l8.262-8.261l8.261,8.261L148.487,79.86z M121.46,85.612c-0.189-0.188-0.293-0.44-0.293-0.711
		s0.104-0.523,0.293-0.712l0.423-0.423l0.423,0.423c0.386,0.386,0.386,1.038,0,1.424l-0.422,0.422L121.46,85.612z M121.882,79.86
		l-8.261-8.261l8.262-8.262l8.261,8.262L121.882,79.86z M94.855,85.612c-0.189-0.188-0.293-0.44-0.293-0.711
		s0.104-0.523,0.293-0.712l0.423-0.423l0.423,0.423c0.386,0.386,0.386,1.038,0,1.424l-0.422,0.422L94.855,85.612z M95.277,79.86
		l-8.261-8.261l8.262-8.262l8.262,8.262L95.277,79.86z M68.25,85.612c-0.189-0.188-0.293-0.44-0.293-0.711s0.104-0.523,0.293-0.712
		l0.423-0.423l0.423,0.423v0.001c0.189,0.188,0.293,0.44,0.293,0.711s-0.104,0.523-0.293,0.712l-0.422,0.422L68.25,85.612z
		 M68.672,79.859l-8.261-8.261l8.262-8.261l8.261,8.261L68.672,79.859z M41.644,85.612c-0.189-0.188-0.293-0.44-0.293-0.711
		s0.104-0.523,0.293-0.712l0.423-0.423l0.423,0.423v0.001c0.189,0.188,0.293,0.44,0.293,0.711s-0.104,0.523-0.293,0.712
		l-0.422,0.422L41.644,85.612z M42.067,79.859l-8.261-8.261l8.262-8.261l8.261,8.261L42.067,79.859z M16.573,78.748v-14.3l7.15,7.15
		L16.573,78.748z M16.573,91.053l7.15,7.15l-7.15,7.15V91.053z M16.573,117.659l7.15,7.15l-7.15,7.15V117.659z M16.573,144.264
		l7.15,7.15l-7.15,7.15V144.264z M16.573,170.869l7.15,7.15l-7.15,7.15V170.869z M16.573,197.474l7.15,7.15l-7.15,7.15V197.474z
		 M42.49,190.609c0.392,0.392,0.392,1.033,0,1.426l-0.423,0.423l-0.423-0.423c-0.393-0.393-0.393-1.033,0-1.426l0.423-0.423
		L42.49,190.609z M42.067,196.363l8.261,8.261l-8.261,8.261l-8.261-8.261L42.067,196.363z M69.095,190.609
		c0.392,0.392,0.392,1.033,0,1.426l-0.423,0.423l-0.423-0.423c-0.393-0.393-0.393-1.033,0-1.426l0.423-0.423L69.095,190.609z
		 M68.672,196.363l8.261,8.261l-8.261,8.261l-8.261-8.261L68.672,196.363z M95.699,190.609c0.394,0.392,0.394,1.033,0.001,1.426
		l-0.423,0.423l-0.423-0.423c-0.393-0.393-0.393-1.033,0-1.426l0.422-0.422L95.699,190.609z M95.278,196.364l8.26,8.26l-8.26,8.26
		l-8.261-8.26L95.278,196.364z M122.304,190.609c0.394,0.392,0.394,1.033,0.001,1.426l-0.423,0.423l-0.423-0.423
		c-0.393-0.393-0.393-1.033,0-1.426l0.422-0.422L122.304,190.609z M121.883,196.364l8.26,8.261l-8.26,8.26l-8.261-8.26
		L121.883,196.364z M148.91,190.609c0.393,0.392,0.393,1.033,0,1.426l-0.422,0.422l-0.422-0.422
		c-0.394-0.393-0.394-1.033-0.001-1.426l0.423-0.423L148.91,190.609z M148.487,196.363l8.261,8.261l-8.261,8.26l-8.26-8.261
		L148.487,196.363z M175.515,190.609c0.393,0.392,0.393,1.033,0,1.426l-0.422,0.422l-0.422-0.422
		c-0.394-0.393-0.394-1.033-0.001-1.426l0.423-0.423L175.515,190.609z M175.092,196.363l8.261,8.261l-8.261,8.26l-8.26-8.261
		L175.092,196.363z M202.12,190.609c0.393,0.392,0.393,1.033,0,1.426l-0.423,0.423l-0.423-0.423c-0.393-0.393-0.393-1.033,0-1.426
		l0.423-0.423L202.12,190.609z M201.697,196.363l8.261,8.261l-8.261,8.261l-8.261-8.261L201.697,196.363z M228.725,190.609
		c0.393,0.392,0.393,1.033,0,1.426l-0.423,0.423l-0.423-0.423c-0.392-0.393-0.392-1.033,0-1.426l0.423-0.423L228.725,190.609z
		 M228.302,196.363l8.261,8.261l-8.261,8.261l-8.261-8.261L228.302,196.363z M255.33,190.609c0.393,0.392,0.393,1.033,0,1.426
		l-0.423,0.423l-0.423-0.423c-0.393-0.393-0.393-1.033,0-1.426l0.423-0.423L255.33,190.609z M254.907,196.363l8.261,8.261
		l-8.261,8.261l-8.261-8.261L254.907,196.363z M281.935,190.609c0.393,0.392,0.393,1.033,0,1.426l-0.423,0.423l-0.423-0.423
		c-0.393-0.393-0.393-1.033,0-1.426l0.423-0.423L281.935,190.609z M281.513,196.363l8.261,8.261l-8.261,8.261l-8.261-8.261
		L281.513,196.363z M308.541,190.609c0.392,0.392,0.392,1.033,0,1.426l-0.423,0.423l-0.423-0.423c-0.393-0.393-0.393-1.033,0-1.426
		l0.423-0.423L308.541,190.609z M308.118,196.363l8.261,8.261l-8.261,8.261l-8.261-8.261L308.118,196.363z M335.146,190.609
		c0.392,0.392,0.392,1.033,0,1.426l-0.423,0.423l-0.423-0.423c-0.393-0.393-0.393-1.033,0-1.426l0.423-0.423L335.146,190.609z
		 M334.723,196.363l8.261,8.261l-8.261,8.261l-8.261-8.261L334.723,196.363z M361.751,190.609c0.392,0.392,0.392,1.033,0,1.426
		l-0.423,0.423l-0.423-0.423c-0.392-0.393-0.392-1.033,0-1.426l0.423-0.423L361.751,190.609z M361.328,196.363l8.261,8.261
		l-8.261,8.261l-8.261-8.261L361.328,196.363z M388.355,190.609c0.394,0.392,0.394,1.033,0.001,1.426l-0.423,0.423l-0.423-0.423
		c-0.392-0.393-0.392-1.033,0-1.426l0.422-0.422L388.355,190.609z M387.934,196.364l8.26,8.261l-8.26,8.26l-8.261-8.26
		L387.934,196.364z M401.949,178.442c-0.378,0.378-1.048,0.378-1.426,0l-0.422-0.422l0.423-0.423
		c0.188-0.189,0.44-0.293,0.711-0.293c0.271,0,0.525,0.104,0.713,0.293l0.423,0.423L401.949,178.442z M401.949,151.836
		c-0.378,0.378-1.048,0.378-1.426,0l-0.422-0.422l0.423-0.424c0.188-0.189,0.44-0.293,0.711-0.293c0.271,0,0.525,0.104,0.713,0.293
		l0.423,0.423L401.949,151.836z M401.949,125.231c-0.378,0.378-1.048,0.378-1.426,0l-0.423-0.423l0.423-0.423
		c0.193-0.193,0.453-0.29,0.712-0.29c0.26,0,0.521,0.097,0.713,0.29l0.423,0.423L401.949,125.231z M401.949,98.626
		c-0.378,0.378-1.048,0.378-1.426,0l-0.423-0.423l0.423-0.423c0.193-0.193,0.453-0.29,0.712-0.29c0.26,0,0.521,0.097,0.713,0.29
		l0.423,0.423L401.949,98.626z M403.902,95.826c-1.473-1.467-3.861-1.469-5.332,0.001l-0.423,0.423l-8.26-8.262l0.422-0.422
		c1.47-1.47,1.47-3.86,0-5.33l-0.423-0.423l8.262-8.26l0.421,0.421c0.711,0.711,1.658,1.102,2.666,1.102
		c1.009,0,1.956-0.391,2.666-1.102l0.422-0.422l9.103,9.104v4.492l-9.101,9.102L403.902,95.826z M400.102,71.599l0.423-0.423
		c0.188-0.189,0.44-0.293,0.711-0.293c0.271,0,0.525,0.104,0.713,0.293l0.422,0.422l-0.422,0.422c-0.378,0.378-1.048,0.378-1.426,0
		L400.102,71.599z M413.427,78.749l-7.15-7.151l7.15-7.15V78.749z M387.511,59.007c-0.189-0.188-0.293-0.44-0.293-0.711
		c0-0.271,0.104-0.523,0.293-0.712l0.423-0.423l0.423,0.423c0.386,0.386,0.386,1.038,0,1.424l-0.422,0.422L387.511,59.007z
		 M387.933,53.254l-8.26-8.26l8.262-8.26l8.26,8.26L387.933,53.254z M360.905,59.007c-0.189-0.188-0.293-0.44-0.293-0.711
		c0-0.271,0.104-0.523,0.293-0.712l0.423-0.423l0.423,0.423v0.001c0.189,0.188,0.293,0.44,0.293,0.711
		c0,0.271-0.104,0.523-0.293,0.712l-0.422,0.422L360.905,59.007z M361.328,53.254l-8.26-8.26l8.261-8.261l8.26,8.261L361.328,53.254
		z M334.3,59.007c-0.189-0.188-0.293-0.44-0.293-0.711c0-0.271,0.104-0.523,0.293-0.712l0.423-0.423l0.423,0.423v0.001
		c0.189,0.188,0.293,0.44,0.293,0.711c0,0.271-0.104,0.523-0.293,0.712l-0.422,0.422L334.3,59.007z M334.723,53.254l-8.26-8.26
		l8.261-8.261l8.26,8.261L334.723,53.254z M307.695,59.007c-0.189-0.188-0.293-0.44-0.293-0.711c0-0.271,0.104-0.523,0.293-0.712
		l0.423-0.423l0.423,0.423v0.001c0.189,0.188,0.293,0.44,0.293,0.711c0,0.271-0.104,0.523-0.293,0.712l-0.422,0.422L307.695,59.007z
		 M308.117,53.254l-8.26-8.26l8.261-8.261l8.26,8.261L308.117,53.254z M281.09,59.007c-0.189-0.188-0.293-0.44-0.293-0.711
		c0-0.271,0.104-0.523,0.293-0.712l0.423-0.423l0.423,0.423v0.001c0.189,0.188,0.293,0.44,0.293,0.711
		c0,0.271-0.104,0.523-0.293,0.712l-0.422,0.422L281.09,59.007z M281.512,53.254l-8.26-8.26l8.261-8.261l8.26,8.261L281.512,53.254z
		 M254.485,59.007c-0.189-0.188-0.293-0.44-0.293-0.711c0-0.271,0.104-0.523,0.293-0.712l0.423-0.423l0.423,0.423v0.001
		c0.189,0.188,0.293,0.44,0.293,0.711c0,0.271-0.104,0.523-0.293,0.712l-0.422,0.422L254.485,59.007z M254.907,53.254l-8.26-8.26
		l8.261-8.261l8.26,8.261L254.907,53.254z M227.879,59.007c-0.189-0.188-0.293-0.44-0.293-0.711c0-0.271,0.104-0.523,0.293-0.712
		l0.423-0.423l0.423,0.423v0.001c0.189,0.188,0.293,0.44,0.293,0.711c0,0.271-0.104,0.523-0.293,0.712l-0.422,0.422L227.879,59.007z
		 M228.302,53.254l-8.26-8.26l8.261-8.261l8.26,8.261L228.302,53.254z M201.274,59.007c-0.189-0.188-0.293-0.44-0.293-0.711
		c0-0.271,0.104-0.523,0.293-0.712l0.423-0.423l0.423,0.423v0.001c0.189,0.188,0.293,0.44,0.293,0.711
		c0,0.271-0.104,0.523-0.293,0.712l-0.422,0.422L201.274,59.007z M201.696,53.254l-8.26-8.26l8.261-8.261l8.26,8.261L201.696,53.254
		z M174.669,59.008c-0.386-0.386-0.386-1.039,0-1.424l0.423-0.423l0.423,0.423v0.001c0.189,0.188,0.293,0.44,0.293,0.711
		c0,0.271-0.104,0.523-0.293,0.712l-0.423,0.423L174.669,59.008z M175.092,53.255l-8.26-8.262l8.26-8.26l8.26,8.262L175.092,53.255z
		 M148.064,59.008c-0.386-0.386-0.386-1.039,0-1.424l0.423-0.423l0.423,0.423v0.001c0.189,0.188,0.293,0.44,0.293,0.711
		c0,0.271-0.104,0.523-0.293,0.712l-0.423,0.423L148.064,59.008z M148.487,53.255l-8.26-8.262l8.26-8.26l8.26,8.262L148.487,53.255z
		 M121.46,59.007c-0.189-0.188-0.293-0.44-0.293-0.711c0-0.271,0.104-0.523,0.293-0.712l0.423-0.423l0.423,0.423
		c0.386,0.386,0.386,1.038,0,1.424l-0.422,0.422L121.46,59.007z M121.882,53.254l-8.26-8.26l8.262-8.26l8.26,8.26L121.882,53.254z
		 M94.855,59.007c-0.189-0.188-0.293-0.44-0.293-0.711c0-0.271,0.104-0.523,0.293-0.712l0.423-0.423l0.423,0.423
		c0.386,0.386,0.386,1.038,0,1.424l-0.422,0.422L94.855,59.007z M95.277,53.254l-8.26-8.26l8.261-8.26l8.26,8.261L95.277,53.254z
		 M68.25,59.007c-0.189-0.188-0.293-0.44-0.293-0.711c0-0.271,0.104-0.523,0.293-0.712l0.423-0.423l0.423,0.423v0.001
		c0.189,0.188,0.293,0.44,0.293,0.711c0,0.271-0.104,0.523-0.293,0.712l-0.422,0.422L68.25,59.007z M68.672,53.254l-8.261-8.26
		l8.261-8.261l8.26,8.261L68.672,53.254z M41.644,59.007c-0.189-0.188-0.293-0.44-0.293-0.711c0-0.271,0.104-0.523,0.293-0.712
		l0.423-0.423l0.423,0.423v0.001c0.189,0.188,0.293,0.44,0.293,0.711c0,0.271-0.104,0.523-0.293,0.712l-0.422,0.422L41.644,59.007z
		 M42.067,53.254l-8.261-8.26l8.261-8.261l8.26,8.261L42.067,53.254z M16.573,52.143V37.845l7.149,7.15L16.573,52.143z
		 M16.573,224.079l7.15,7.15l-7.15,7.15V224.079z M42.49,217.214c0.392,0.392,0.392,1.033,0,1.426l-0.423,0.423l-0.423-0.423
		c-0.393-0.393-0.393-1.033,0-1.426l0.423-0.423L42.49,217.214z M42.067,222.968l8.261,8.261l-8.261,8.261l-8.261-8.261
		L42.067,222.968z M69.095,217.214c0.392,0.392,0.392,1.033,0,1.426l-0.423,0.423l-0.423-0.423c-0.393-0.393-0.393-1.033,0-1.426
		l0.423-0.423L69.095,217.214z M68.672,222.968l8.261,8.261l-8.261,8.261l-8.261-8.261L68.672,222.968z M95.699,217.214
		c0.394,0.392,0.394,1.033,0.001,1.426l-0.423,0.423l-0.423-0.423c-0.393-0.393-0.393-1.033,0-1.426l0.422-0.422L95.699,217.214z
		 M95.278,222.969l8.26,8.26l-8.26,8.26l-8.261-8.26L95.278,222.969z M122.304,217.214c0.394,0.392,0.394,1.033,0.001,1.426
		l-0.423,0.423l-0.423-0.423c-0.393-0.393-0.393-1.033,0-1.426l0.422-0.422L122.304,217.214z M121.883,222.969l8.26,8.261
		l-8.26,8.26l-8.261-8.26L121.883,222.969z M148.91,217.214c0.393,0.392,0.393,1.033,0,1.426l-0.422,0.422l-0.422-0.422
		c-0.394-0.393-0.394-1.033-0.001-1.426l0.423-0.423L148.91,217.214z M148.487,222.968l8.261,8.261l-8.261,8.26l-8.26-8.261
		L148.487,222.968z M175.515,217.214c0.393,0.392,0.393,1.033,0,1.426l-0.422,0.422l-0.422-0.422
		c-0.394-0.393-0.394-1.033-0.001-1.426l0.423-0.423L175.515,217.214z M175.092,222.968l8.261,8.261l-8.261,8.26l-8.26-8.261
		L175.092,222.968z M202.12,217.214c0.393,0.392,0.393,1.033,0,1.426l-0.423,0.423l-0.423-0.423c-0.393-0.393-0.393-1.033,0-1.426
		l0.423-0.423L202.12,217.214z M201.697,222.968l8.261,8.261l-8.261,8.261l-8.261-8.261L201.697,222.968z M228.725,217.214
		c0.393,0.392,0.393,1.033,0,1.426l-0.423,0.423l-0.423-0.423c-0.392-0.393-0.392-1.033,0-1.426l0.423-0.423L228.725,217.214z
		 M228.302,222.968l8.261,8.261l-8.261,8.261l-8.261-8.261L228.302,222.968z M255.33,217.214c0.393,0.392,0.393,1.033,0,1.426
		l-0.423,0.423l-0.423-0.423c-0.393-0.393-0.393-1.033,0-1.426l0.423-0.423L255.33,217.214z M254.907,222.968l8.261,8.261
		l-8.261,8.261l-8.261-8.261L254.907,222.968z M281.935,217.214c0.393,0.392,0.393,1.033,0,1.426l-0.423,0.423l-0.423-0.423
		c-0.393-0.393-0.393-1.033,0-1.426l0.423-0.423L281.935,217.214z M281.513,222.968l8.261,8.261l-8.261,8.261l-8.261-8.261
		L281.513,222.968z M308.541,217.214c0.392,0.392,0.392,1.033,0,1.426l-0.423,0.423l-0.423-0.423c-0.393-0.393-0.393-1.033,0-1.426
		l0.423-0.423L308.541,217.214z M308.118,222.968l8.261,8.261l-8.261,8.261l-8.261-8.261L308.118,222.968z M335.146,217.214
		c0.392,0.392,0.392,1.033,0,1.426l-0.423,0.423l-0.423-0.423c-0.393-0.393-0.393-1.033,0-1.426l0.423-0.423L335.146,217.214z
		 M334.723,222.968l8.261,8.261l-8.261,8.261l-8.261-8.261L334.723,222.968z M361.751,217.214c0.392,0.392,0.392,1.033,0,1.426
		l-0.423,0.423l-0.423-0.423c-0.392-0.393-0.392-1.033,0-1.426l0.423-0.423L361.751,217.214z M361.328,222.968l8.261,8.261
		l-8.261,8.261l-8.261-8.261L361.328,222.968z M388.355,217.214c0.394,0.392,0.394,1.033,0.001,1.426l-0.423,0.423l-0.423-0.423
		c-0.392-0.393-0.392-1.033,0-1.426l0.422-0.422L388.355,217.214z M387.934,222.969l8.26,8.261l-8.26,8.26l-8.261-8.26
		L387.934,222.969z M406.277,204.624l7.149-7.15v14.3L406.277,204.624z M406.277,178.019l7.149-7.15v14.3L406.277,178.019z
		 M406.277,151.414l7.149-7.15v14.3L406.277,151.414z M406.278,124.808l7.149-7.149v14.3L406.278,124.808z M406.278,98.203
		l7.149-7.149v14.299L406.278,98.203z M413.427,52.144l-7.149-7.15l7.149-7.15V52.144z M413.427,33.938l-9.103,9.103l-0.422-0.422
		c-1.422-1.422-3.913-1.422-5.332,0l-0.423,0.423l-8.26-8.26l0.424-0.424c0.786-0.788,1.137-1.839,1.081-2.872h22.035V33.938z
		 M387.511,32.404c-0.25-0.25-0.322-0.597-0.254-0.92h1.354c0.068,0.323-0.004,0.67-0.254,0.92l-0.423,0.423L387.511,32.404z
		 M385.558,34.357l0.423,0.423l-8.262,8.26l-0.422-0.422c-1.471-1.471-3.863-1.469-5.332,0l-0.423,0.423l-8.261-8.261l0.423-0.423
		c0.788-0.788,1.139-1.839,1.083-2.872h19.688C384.418,32.518,384.77,33.569,385.558,34.357z M360.905,32.404
		c-0.25-0.25-0.322-0.597-0.254-0.92h1.354c0.068,0.323-0.005,0.67-0.254,0.92l-0.423,0.423L360.905,32.404z M358.952,34.357
		l0.423,0.423l-8.262,8.26l-0.422-0.422c-1.469-1.469-3.86-1.471-5.332,0l-0.423,0.423l-8.261-8.261l0.423-0.423
		c0.788-0.788,1.139-1.839,1.083-2.872h19.688C357.813,32.518,358.165,33.569,358.952,34.357z M334.3,32.404
		c-0.25-0.25-0.322-0.597-0.254-0.92h1.354c0.068,0.323-0.005,0.67-0.254,0.92l-0.423,0.423L334.3,32.404z M332.347,34.357
		l0.423,0.423l-8.262,8.26l-0.422-0.422c-1.469-1.469-3.86-1.471-5.332,0l-0.423,0.423l-8.261-8.261l0.423-0.423
		c0.788-0.788,1.139-1.839,1.083-2.872h19.688C331.208,32.518,331.559,33.569,332.347,34.357z M307.695,32.404
		c-0.25-0.25-0.322-0.597-0.254-0.92h1.354c0.068,0.323-0.005,0.67-0.254,0.92l-0.423,0.423L307.695,32.404z M305.742,34.357
		l0.423,0.423l-8.262,8.26l-0.422-0.422c-1.47-1.469-3.861-1.471-5.332,0l-0.423,0.423l-8.261-8.261l0.423-0.423
		c0.788-0.788,1.139-1.839,1.083-2.872h19.688C304.603,32.518,304.954,33.569,305.742,34.357z M281.09,32.404
		c-0.25-0.25-0.322-0.597-0.254-0.92h1.354c0.068,0.323-0.005,0.67-0.254,0.92l-0.423,0.423L281.09,32.404z M279.137,34.357
		l0.423,0.423l-8.262,8.26l-0.422-0.422c-1.469-1.469-3.86-1.471-5.332,0l-0.423,0.423l-8.261-8.261l0.423-0.423
		c0.788-0.788,1.139-1.839,1.083-2.872h19.688C277.998,32.518,278.349,33.569,279.137,34.357z M254.485,32.404
		c-0.25-0.25-0.322-0.597-0.254-0.92h1.354c0.068,0.323-0.005,0.67-0.254,0.92l-0.423,0.423L254.485,32.404z M252.532,34.357
		l0.423,0.423l-8.262,8.26l-0.422-0.422c-1.469-1.469-3.86-1.471-5.332,0l-0.423,0.423l-8.261-8.261l0.423-0.423
		c0.788-0.788,1.139-1.839,1.083-2.872h19.688C251.392,32.518,251.744,33.569,252.532,34.357z M227.879,32.404
		c-0.25-0.25-0.322-0.597-0.254-0.92h1.354c0.068,0.323-0.005,0.67-0.254,0.92l-0.423,0.423L227.879,32.404z M225.926,34.357
		l0.423,0.423l-8.262,8.26l-0.422-0.422c-1.469-1.469-3.86-1.471-5.332,0l-0.423,0.423l-8.261-8.261l0.423-0.423
		c0.788-0.788,1.139-1.839,1.083-2.872h19.688C224.787,32.518,225.139,33.569,225.926,34.357z M201.274,32.404
		c-0.25-0.25-0.322-0.597-0.254-0.92h1.354c0.068,0.323-0.005,0.67-0.254,0.92l-0.423,0.423L201.274,32.404z M199.321,34.357
		l0.423,0.423l-8.262,8.26l-0.422-0.422c-1.47-1.469-3.86-1.471-5.332,0l-0.423,0.423l-8.26-8.262l0.422-0.422
		c0.788-0.788,1.139-1.839,1.083-2.872h19.688C198.182,32.518,198.533,33.569,199.321,34.357z M174.67,32.404
		c-0.251-0.25-0.323-0.597-0.256-0.92h1.354c0.068,0.323-0.005,0.67-0.254,0.92l-0.422,0.422L174.67,32.404z M172.716,34.357
		l0.423,0.423l-8.26,8.26l-0.422-0.422c-1.421-1.422-3.911-1.422-5.333,0l-0.423,0.423l-8.26-8.262l0.422-0.422
		c0.788-0.788,1.139-1.839,1.083-2.872h19.689C171.578,32.518,171.929,33.569,172.716,34.357z M148.065,32.404
		c-0.251-0.25-0.323-0.597-0.256-0.92h1.354c0.068,0.323-0.005,0.67-0.254,0.92l-0.422,0.422L148.065,32.404z M146.111,34.357
		l0.423,0.423l-8.26,8.26l-0.422-0.422c-1.422-1.422-3.913-1.422-5.331,0l-0.423,0.423l-8.26-8.26l0.424-0.424
		c0.786-0.788,1.137-1.839,1.081-2.872h19.688C144.973,32.518,145.324,33.569,146.111,34.357z M121.46,32.404
		c-0.25-0.25-0.322-0.597-0.254-0.92h1.354c0.068,0.323-0.004,0.67-0.254,0.92l-0.423,0.423L121.46,32.404z M119.507,34.357
		l0.423,0.423l-8.262,8.26l-0.422-0.422c-1.472-1.471-3.863-1.469-5.332,0l-0.423,0.423l-8.26-8.26l0.424-0.424
		c0.786-0.788,1.137-1.839,1.081-2.872h19.689C118.368,32.518,118.719,33.569,119.507,34.357z M94.855,32.404
		c-0.25-0.25-0.322-0.597-0.254-0.92h1.354c0.068,0.323-0.004,0.67-0.254,0.92l-0.423,0.423L94.855,32.404z M92.902,34.357
		l0.423,0.423l-8.261,8.26l-0.422-0.422c-1.471-1.471-3.863-1.469-5.332,0l-0.423,0.423l-8.261-8.261l0.423-0.423
		c0.788-0.788,1.139-1.839,1.083-2.872h19.688C91.762,32.518,92.114,33.569,92.902,34.357z M68.25,32.404
		c-0.25-0.25-0.322-0.597-0.254-0.92h1.354c0.068,0.323-0.005,0.67-0.254,0.92l-0.423,0.423L68.25,32.404z M66.297,34.357
		l0.423,0.423l-8.261,8.26l-0.422-0.422c-1.47-1.471-3.861-1.469-5.332,0l-0.423,0.423L44.02,34.78l0.423-0.423
		c0.788-0.788,1.139-1.839,1.083-2.872h19.688C65.157,32.518,65.509,33.569,66.297,34.357z M41.644,32.404
		c-0.25-0.25-0.322-0.597-0.254-0.92h1.354c0.068,0.323-0.005,0.67-0.254,0.92l-0.423,0.423L41.644,32.404z M38.609,31.485
		c-0.056,1.033,0.295,2.085,1.083,2.872l0.423,0.423l-8.261,8.26l-0.422-0.422c-1.472-1.471-3.863-1.469-5.332,0l-0.423,0.423
		l-9.103-9.103v-2.454h19.791H38.609z M16.573,242.285l9.103-9.103l0.423,0.423c0.735,0.735,1.701,1.102,2.667,1.102
		c0.964,0,1.93-0.367,2.665-1.102l0.423-0.423l8.261,8.261l-0.423,0.423c-0.735,0.735-1.103,1.7-1.103,2.666h-7.303H16.573V242.285z
		 M42.49,243.819c0.196,0.196,0.294,0.454,0.294,0.713H41.35c0-0.258,0.098-0.516,0.294-0.713l0.423-0.423L42.49,243.819z
		 M45.546,244.532c0-0.965-0.368-1.93-1.103-2.666l-0.423-0.423l8.261-8.261l0.423,0.423c0.735,0.735,1.701,1.102,2.666,1.102
		c0.964,0,1.93-0.367,2.665-1.102l0.423-0.423l8.261,8.261l-0.423,0.423c-0.735,0.735-1.103,1.7-1.103,2.666H45.546z
		 M69.095,243.819c0.196,0.196,0.294,0.454,0.294,0.713h-1.434c0-0.258,0.098-0.516,0.294-0.713l0.423-0.423L69.095,243.819z
		 M72.151,244.532c0-0.965-0.368-1.93-1.103-2.666l-0.423-0.423l8.261-8.261l0.423,0.423c0.735,0.735,1.701,1.102,2.666,1.102
		c0.964,0,1.93-0.367,2.665-1.102l0.423-0.423l8.26,8.262l-0.422,0.422c-0.735,0.735-1.103,1.7-1.103,2.666H72.151z M95.699,243.819
		c0.197,0.196,0.295,0.454,0.296,0.713H94.56c0-0.258,0.098-0.516,0.294-0.713l0.422-0.422L95.699,243.819z M98.755,244.532
		c0-0.965-0.367-1.93-1.101-2.666l-0.424-0.423l8.26-8.26l0.423,0.423c0.735,0.735,1.701,1.102,2.666,1.102
		c0.964,0,1.93-0.367,2.665-1.102l0.423-0.423l8.26,8.262l-0.422,0.422c-0.735,0.735-1.103,1.7-1.103,2.666H98.755z
		 M122.304,243.819c0.197,0.196,0.295,0.454,0.296,0.713h-1.434c0-0.258,0.098-0.516,0.294-0.713l0.422-0.422L122.304,243.819z
		 M125.361,244.532c0-0.965-0.367-1.93-1.101-2.666l-0.424-0.423l8.26-8.259l0.421,0.422c0.711,0.711,1.658,1.102,2.667,1.102
		c1.009,0,1.956-0.391,2.665-1.102l0.423-0.423l8.26,8.26l-0.424,0.423c-0.734,0.735-1.1,1.7-1.1,2.666H125.361z M148.91,243.819
		c0.196,0.196,0.294,0.454,0.294,0.713h-1.434c0-0.258,0.098-0.516,0.294-0.713l0.423-0.423L148.91,243.819z M151.965,244.532
		c0-0.965-0.367-1.93-1.103-2.666l-0.423-0.423l8.261-8.261l0.423,0.423c0.711,0.711,1.658,1.102,2.667,1.102
		c1.009,0,1.956-0.391,2.665-1.102l0.423-0.423l8.26,8.26l-0.424,0.423c-0.734,0.735-1.1,1.7-1.1,2.666H151.965z M175.515,243.819
		c0.196,0.196,0.294,0.454,0.294,0.713h-1.434c0-0.258,0.098-0.516,0.294-0.713l0.423-0.423L175.515,243.819z M178.57,244.532
		c0-0.965-0.368-1.93-1.103-2.666l-0.423-0.423l8.261-8.261l0.423,0.423c0.735,0.735,1.701,1.102,2.665,1.102
		c0.966,0,1.931-0.367,2.666-1.102l0.423-0.423l8.261,8.261l-0.423,0.423c-0.735,0.735-1.103,1.7-1.103,2.666H178.57z
		 M202.12,243.819c0.196,0.196,0.294,0.454,0.294,0.713h-1.434c0-0.258,0.098-0.516,0.294-0.713l0.423-0.423L202.12,243.819z
		 M205.175,244.532c0-0.965-0.367-1.93-1.103-2.666l-0.423-0.423l8.261-8.261l0.423,0.423c0.735,0.735,1.701,1.102,2.665,1.102
		c0.966,0,1.931-0.367,2.667-1.102l0.423-0.423l8.261,8.261l-0.423,0.423c-0.735,0.735-1.103,1.7-1.103,2.666H205.175z
		 M228.725,243.819c0.196,0.196,0.294,0.454,0.294,0.713h-1.434c0-0.258,0.098-0.516,0.294-0.713l0.423-0.423L228.725,243.819z
		 M231.781,244.532c0-0.965-0.367-1.93-1.103-2.666l-0.423-0.423l8.261-8.261l0.423,0.423c0.735,0.735,1.701,1.102,2.665,1.102
		c0.966,0,1.931-0.367,2.667-1.102l0.423-0.423l8.261,8.261l-0.423,0.423c-0.735,0.735-1.103,1.7-1.103,2.666H231.781z
		 M255.33,243.819c0.196,0.196,0.294,0.454,0.294,0.713h-1.434c0-0.258,0.098-0.516,0.294-0.713l0.423-0.423L255.33,243.819z
		 M258.386,244.532c0-0.965-0.367-1.93-1.103-2.666l-0.423-0.423l8.261-8.261l0.423,0.423c0.735,0.735,1.701,1.102,2.665,1.102
		c0.966,0,1.931-0.367,2.667-1.102l0.423-0.423l8.261,8.261l-0.423,0.423c-0.735,0.735-1.103,1.7-1.103,2.666H258.386z
		 M281.935,243.819c0.196,0.196,0.294,0.454,0.294,0.713h-1.434c0-0.258,0.098-0.516,0.294-0.713l0.423-0.423L281.935,243.819z
		 M284.991,244.532c0-0.965-0.367-1.93-1.103-2.666l-0.423-0.423l8.261-8.261l0.423,0.423c0.735,0.735,1.701,1.102,2.665,1.102
		c0.966,0,1.931-0.367,2.667-1.102l0.423-0.423l8.261,8.261l-0.423,0.423c-0.735,0.735-1.103,1.7-1.103,2.666H284.991z
		 M308.541,243.819c0.196,0.196,0.294,0.454,0.294,0.713h-1.434c0-0.258,0.098-0.516,0.294-0.713l0.423-0.423L308.541,243.819z
		 M311.596,244.532c0-0.965-0.367-1.93-1.103-2.666l-0.423-0.423l8.261-8.261l0.423,0.423c0.735,0.735,1.701,1.102,2.665,1.102
		c0.966,0,1.931-0.367,2.666-1.102l0.423-0.423l8.261,8.261l-0.423,0.423c-0.735,0.735-1.103,1.7-1.103,2.666H311.596z
		 M335.146,243.819c0.196,0.196,0.294,0.454,0.294,0.713h-1.434c0-0.258,0.098-0.516,0.294-0.713l0.423-0.423L335.146,243.819z
		 M338.201,244.532c0-0.965-0.367-1.93-1.103-2.666l-0.423-0.423l8.261-8.261l0.423,0.423c0.735,0.735,1.701,1.102,2.665,1.102
		c0.966,0,1.931-0.367,2.666-1.102l0.423-0.423l8.261,8.261l-0.423,0.423c-0.735,0.735-1.103,1.7-1.103,2.666H338.201z
		 M361.751,243.819c0.196,0.196,0.294,0.454,0.294,0.713h-1.434c0-0.258,0.098-0.516,0.294-0.713l0.423-0.423L361.751,243.819z
		 M364.807,244.532c0-0.965-0.368-1.93-1.103-2.666l-0.423-0.423l8.261-8.261l0.423,0.423c0.735,0.735,1.701,1.102,2.666,1.102
		c0.964,0,1.93-0.367,2.665-1.102l0.423-0.423l8.26,8.262l-0.422,0.422c-0.735,0.735-1.103,1.7-1.103,2.666H364.807z
		 M388.355,243.819c0.197,0.196,0.295,0.454,0.296,0.713h-1.434c0-0.258,0.098-0.516,0.294-0.713l0.422-0.422L388.355,243.819z
		 M391.411,244.532c0-0.965-0.367-1.93-1.101-2.666l-0.424-0.423l8.26-8.259l0.422,0.422c0.711,0.711,1.658,1.102,2.666,1.102
		c1.009,0,1.956-0.391,2.666-1.102l0.423-0.423l9.102,9.103v2.246H391.411z M406.277,231.229l7.149-7.15v14.3L406.277,231.229z
		 M400.525,17.966c0.188-0.189,0.44-0.293,0.711-0.293c0.271,0,0.525,0.104,0.713,0.293l5.232,5.232h-11.888L400.525,17.966z
		 M373.918,17.966c0.197-0.197,0.455-0.294,0.712-0.294c0.259,0,0.517,0.097,0.713,0.294l5.232,5.232h-11.889L373.918,17.966z
		 M347.313,17.966c0.197-0.197,0.454-0.294,0.714-0.294c0.258,0,0.515,0.097,0.712,0.294l5.232,5.232h-11.89L347.313,17.966z
		 M320.708,17.966c0.197-0.197,0.454-0.294,0.714-0.294c0.258,0,0.515,0.097,0.712,0.294l5.232,5.232h-11.89L320.708,17.966z
		 M294.102,17.966c0.197-0.197,0.455-0.294,0.714-0.294c0.258,0,0.515,0.097,0.712,0.294l5.232,5.232h-11.89L294.102,17.966z
		 M267.497,17.966c0.197-0.197,0.454-0.294,0.714-0.294c0.258,0,0.515,0.097,0.712,0.294l5.232,5.232h-11.89L267.497,17.966z
		 M240.892,17.966c0.197-0.197,0.454-0.294,0.714-0.294c0.258,0,0.515,0.097,0.712,0.294l5.232,5.232h-11.89L240.892,17.966z
		 M214.287,17.966c0.197-0.197,0.454-0.294,0.714-0.294c0.258,0,0.515,0.097,0.712,0.294l5.232,5.232h-11.89L214.287,17.966z
		 M187.682,17.966c0.197-0.197,0.455-0.294,0.714-0.294c0.258,0,0.515,0.097,0.712,0.294l5.232,5.232h-11.89L187.682,17.966z
		 M161.076,17.966c0.189-0.189,0.442-0.293,0.714-0.293s0.523,0.104,0.712,0.293l5.232,5.232h-11.89L161.076,17.966z
		 M134.474,17.966c0.188-0.189,0.44-0.293,0.711-0.293c0.271,0,0.523,0.104,0.712,0.293l5.232,5.232h-11.887L134.474,17.966z
		 M107.867,17.966c0.197-0.197,0.455-0.294,0.712-0.294c0.259,0,0.516,0.097,0.713,0.294l5.231,5.232h-11.889L107.867,17.966z
		 M81.262,17.966c0.197-0.197,0.454-0.294,0.712-0.294c0.259,0,0.517,0.097,0.713,0.294l5.231,5.232H76.03L81.262,17.966z
		 M54.657,17.966c0.197-0.197,0.454-0.294,0.712-0.294c0.259,0,0.517,0.097,0.714,0.294l5.232,5.232h-11.89L54.657,17.966z
		 M28.052,17.966c0.197-0.197,0.455-0.294,0.712-0.294c0.259,0,0.517,0.097,0.714,0.294l5.232,5.232H22.82L28.052,17.966z
		 M29.477,258.257c-0.392,0.393-1.03,0.395-1.426,0l-5.439-5.439h8.673h3.631L29.477,258.257z M56.083,258.257
		c-0.391,0.393-1.029,0.395-1.426,0l-5.439-5.439h12.303L56.083,258.257z M82.688,258.257c-0.392,0.393-1.03,0.395-1.426,0
		l-5.439-5.439h12.303L82.688,258.257z M109.293,258.257c-0.391,0.393-1.029,0.395-1.426,0l-5.439-5.439h12.304L109.293,258.257z
		 M135.895,258.257c-0.375,0.378-1.045,0.378-1.423,0l-5.439-5.439h12.301L135.895,258.257z M162.501,258.257
		c-0.375,0.378-1.047,0.378-1.424,0l-5.438-5.439h12.302L162.501,258.257z M189.107,258.257c-0.395,0.395-1.033,0.393-1.426,0
		l-5.438-5.439h12.303L189.107,258.257z M215.712,258.257c-0.394,0.395-1.032,0.393-1.426,0l-5.439-5.439h12.304L215.712,258.257z
		 M242.318,258.257c-0.395,0.395-1.033,0.393-1.426,0l-5.439-5.439h12.304L242.318,258.257z M268.923,258.257
		c-0.394,0.395-1.032,0.393-1.426,0l-5.439-5.439h12.303L268.923,258.257z M295.528,258.257c-0.395,0.395-1.033,0.393-1.426,0
		l-5.439-5.439h12.303L295.528,258.257z M322.133,258.257c-0.394,0.395-1.032,0.393-1.426,0l-5.439-5.439h12.303L322.133,258.257z
		 M348.738,258.257c-0.395,0.395-1.033,0.393-1.426,0l-5.439-5.439h12.303L348.738,258.257z M375.344,258.257
		c-0.391,0.393-1.029,0.395-1.426,0l-5.439-5.439h12.303L375.344,258.257z M401.949,258.257c-0.378,0.378-1.048,0.378-1.426,0
		l-5.439-5.439h12.303L401.949,258.257z"/>
</g>
<g id="Layer_1">
</g>
</svg>
