<?xml version="1.0" encoding="iso-8859-1"?>
<!-- Generator: Adobe Illustrator 24.3.0, SVG Export Plug-In . SVG Version: 6.00 Build 0)  -->
<svg version="1.1" xmlns="http://www.w3.org/2000/svg" xmlns:xlink="http://www.w3.org/1999/xlink" x="0px" y="0px"
	 viewBox="0 0 430 251.067" style="enable-background:new 0 0 430 251.067;" xml:space="preserve">
<g id="chain-link-fence-pattern-5">
	<path d="M427.408,237.359h-1.573v-12.026v-46.108h1.573c3.457-2.875,3.457-5.75,0-8.625h-1.573V96.197h0.046
		c3.457-2.875,3.457-5.75,0-8.624h-0.046V28.442h0.046c3.457-2.875,3.457-5.75,0-8.624h-0.046V1.883
		c-3.986-2.511-7.971-2.511-11.957,0v17.345l-0.589,0.589h-18.33c0.495-1.015,0.333-2.272-0.509-3.114l-0.849,0.849l-0.849-0.849
		c-0.842,0.842-1.004,2.099-0.509,3.114h-18.208c0.495-1.015,0.333-2.272-0.509-3.114l-0.849,0.849l-0.849-0.849
		c-0.842,0.842-1.004,2.099-0.509,3.114h-18.208c0.495-1.015,0.333-2.272-0.509-3.114l-0.849,0.849l-0.849-0.849
		c-0.842,0.842-1.004,2.099-0.509,3.114h-18.208c0.495-1.015,0.333-2.272-0.509-3.114l-0.849,0.849l-0.849-0.849
		c-0.842,0.842-1.004,2.099-0.509,3.114h-18.209c0.495-1.015,0.333-2.272-0.509-3.114l-0.849,0.849l-0.849-0.849
		c-0.842,0.842-1.004,2.099-0.509,3.114h-18.209c0.495-1.015,0.333-2.272-0.509-3.114l-0.849,0.849l-0.849-0.849
		c-0.842,0.842-1.004,2.099-0.509,3.114h-18.209c0.495-1.015,0.333-2.272-0.509-3.114l-0.849,0.849l-0.849-0.849
		c-0.842,0.842-1.004,2.099-0.509,3.114h-18.208c0.495-1.015,0.333-2.272-0.509-3.114l-0.849,0.849l-0.849-0.849
		c-0.842,0.842-1.004,2.099-0.509,3.114h-18.208c0.495-1.015,0.333-2.272-0.509-3.114l-0.849,0.849l-0.849-0.849
		c-0.842,0.842-1.004,2.099-0.509,3.114h-18.208c0.495-1.015,0.333-2.272-0.509-3.114l-0.849,0.849l-0.849-0.849
		c-0.842,0.842-1.004,2.099-0.509,3.114h-18.208c0.495-1.015,0.333-2.272-0.509-3.114l-0.849,0.849l-0.849-0.849
		c-0.842,0.842-1.004,2.099-0.509,3.114h-18.208c0.495-1.015,0.333-2.272-0.509-3.114l-0.849,0.849l-0.849-0.849
		c-0.842,0.842-1.004,2.099-0.509,3.114h-18.209c0.495-1.015,0.333-2.272-0.509-3.114l-0.849,0.849l-0.849-0.849
		c-0.842,0.842-1.004,2.099-0.509,3.114h-18.209c0.495-1.015,0.333-2.272-0.509-3.114l-0.849,0.849l-0.849-0.849
		c-0.842,0.842-1.004,2.099-0.509,3.114h-18.209c0.495-1.015,0.333-2.272-0.509-3.114l-0.849,0.849l-0.849-0.849
		c-0.842,0.842-1.004,2.099-0.509,3.114H81.094c0.495-1.015,0.333-2.272-0.509-3.114l-0.849,0.849l-0.849-0.849
		c-0.842,0.842-1.004,2.099-0.509,3.114H60.169c0.495-1.015,0.333-2.272-0.509-3.114l-0.849,0.849l-0.849-0.849
		c-0.842,0.842-1.004,2.099-0.509,3.114H39.245c0.495-1.015,0.333-2.272-0.509-3.114l-0.849,0.849l-0.849-0.849
		c-0.842,0.842-1.004,2.099-0.509,3.114h-1.097H18.199l-0.589-0.589V1.883c-3.986-2.511-7.971-2.511-11.957,0v17.934H2.593
		c-3.457,2.875-3.457,5.75,0,8.624h3.061v59.131H2.593c-3.457,2.875-3.457,5.75,0,8.624h3.061V170.6H4.12
		c-3.457,2.875-3.457,5.75,0,8.625h1.533v46.108v12.026H4.12c-3.457,2.875-3.457,5.75,0,8.624h1.533v3.201
		c3.986,2.511,7.971,2.511,11.957,0v-3.201h19.35h357.608h19.309v3.201c3.986,2.511,7.971,2.511,11.957,0v-3.201h1.573
		C430.864,243.108,430.864,240.233,427.408,237.359z M403.135,237.359l-8.219-8.219c0.421-0.795,0.421-1.746,0-2.541l7.876-7.876
		c0.398,0.21,0.832,0.328,1.27,0.328c0.439,0,0.873-0.117,1.271-0.328l8.545,8.545v1.203l-8.888,8.888H403.135z M382.21,237.359
		l-8.219-8.219c0.421-0.795,0.421-1.746,0-2.541l7.876-7.876c0.397,0.21,0.832,0.328,1.27,0.328c0.439,0,0.873-0.117,1.271-0.328
		l7.876,7.876c-0.421,0.795-0.421,1.746,0,2.541l-8.219,8.219H382.21z M361.286,237.359l-8.218-8.219
		c0.421-0.795,0.421-1.746,0-2.541l7.876-7.876c0.397,0.21,0.831,0.328,1.27,0.328c0.439,0,0.873-0.117,1.271-0.328l7.876,7.876
		c-0.421,0.795-0.421,1.746,0,2.541l-8.219,8.219H361.286z M340.362,237.359l-8.219-8.219c0.421-0.795,0.421-1.746,0-2.541
		l7.876-7.876c0.398,0.21,0.831,0.328,1.27,0.328c0.439,0,0.873-0.117,1.271-0.328l7.876,7.876c-0.421,0.795-0.421,1.746,0,2.541
		l-8.219,8.219H340.362z M319.438,237.359l-8.218-8.219c0.421-0.795,0.421-1.746,0-2.541l7.876-7.876
		c0.397,0.21,0.831,0.328,1.27,0.328c0.439,0,0.873-0.117,1.271-0.328l7.876,7.876c-0.421,0.795-0.421,1.746,0,2.541l-8.219,8.219
		H319.438z M298.513,237.359l-8.219-8.219c0.421-0.795,0.421-1.746,0-2.541l7.876-7.876c0.398,0.21,0.832,0.328,1.27,0.328
		c0.439,0,0.873-0.117,1.271-0.328l7.876,7.876c-0.421,0.795-0.421,1.746,0,2.541l-8.219,8.219H298.513z M277.589,237.359
		l-8.219-8.219c0.421-0.795,0.421-1.746,0-2.541l7.876-7.876c0.397,0.21,0.832,0.328,1.27,0.328c0.439,0,0.873-0.117,1.271-0.328
		l7.876,7.876c-0.421,0.795-0.421,1.746,0,2.541l-8.219,8.219H277.589z M256.665,237.359l-8.219-8.219
		c0.421-0.795,0.421-1.746,0-2.541l7.876-7.876c0.397,0.21,0.831,0.328,1.27,0.328c0.439,0,0.873-0.117,1.271-0.328l7.876,7.876
		c-0.421,0.795-0.421,1.746,0,2.541l-8.219,8.219H256.665z M235.74,237.359l-8.219-8.219c0.421-0.795,0.421-1.746,0-2.541
		l7.876-7.876c0.398,0.21,0.831,0.328,1.27,0.328c0.439,0,0.873-0.117,1.271-0.328l7.876,7.876c-0.421,0.795-0.421,1.746,0,2.541
		l-8.219,8.219H235.74z M214.816,237.359l-8.219-8.219c0.421-0.795,0.421-1.746,0-2.541l7.876-7.876
		c0.398,0.21,0.832,0.328,1.27,0.328c0.439,0,0.873-0.117,1.271-0.328l7.876,7.876c-0.421,0.795-0.421,1.746,0,2.541l-8.219,8.219
		H214.816z M193.892,237.359l-8.218-8.219c0.421-0.795,0.421-1.746,0-2.541l7.876-7.876c0.397,0.21,0.831,0.328,1.27,0.328
		c0.439,0,0.873-0.117,1.271-0.328l7.876,7.876c-0.421,0.795-0.421,1.746,0,2.541l-8.219,8.219H193.892z M172.968,237.359
		l-8.218-8.219c0.421-0.795,0.421-1.746,0-2.541l7.876-7.876c0.398,0.21,0.831,0.328,1.27,0.328c0.439,0,0.873-0.117,1.271-0.328
		l7.876,7.876c-0.421,0.795-0.421,1.746,0,2.541l-8.219,8.219H172.968z M152.043,237.359l-8.218-8.219
		c0.421-0.795,0.421-1.746,0-2.541l7.876-7.876c0.398,0.21,0.831,0.328,1.27,0.328c0.439,0,0.873-0.117,1.271-0.328l7.876,7.876
		c-0.421,0.795-0.421,1.746,0,2.541l-8.219,8.219H152.043z M131.119,237.359l-8.219-8.219c0.421-0.795,0.421-1.746,0-2.541
		l7.876-7.876c0.398,0.21,0.832,0.328,1.27,0.328c0.439,0,0.873-0.117,1.271-0.328l7.876,7.876c-0.421,0.795-0.421,1.746,0,2.541
		l-8.219,8.219H131.119z M110.195,237.359l-8.219-8.219c0.421-0.795,0.421-1.746,0-2.541l7.876-7.876
		c0.397,0.21,0.831,0.328,1.27,0.328c0.439,0,0.873-0.117,1.271-0.328l7.876,7.876c-0.421,0.795-0.421,1.746,0,2.541l-8.218,8.219
		H110.195z M89.27,237.359l-8.219-8.219c0.421-0.795,0.421-1.746,0-2.541l7.876-7.876c0.397,0.21,0.831,0.328,1.27,0.328
		c0.439,0,0.873-0.117,1.271-0.328l7.876,7.876c-0.421,0.795-0.421,1.746,0,2.541l-8.219,8.219H89.27z M68.346,237.359l-8.219-8.219
		c0.421-0.795,0.421-1.746,0-2.541l7.876-7.876c0.397,0.21,0.832,0.328,1.27,0.328c0.439,0,0.873-0.117,1.271-0.328l7.876,7.876
		c-0.421,0.795-0.421,1.746,0,2.541l-8.219,8.219H68.346z M47.422,237.359l-8.219-8.219c0.421-0.795,0.421-1.746,0-2.541
		l7.876-7.876c0.397,0.21,0.831,0.328,1.27,0.328c0.439,0,0.873-0.117,1.271-0.328l7.876,7.876c-0.421,0.795-0.421,1.746,0,2.541
		l-8.219,8.219H47.422z M26.498,237.359l-8.887-8.887v-1.203l8.545-8.545c0.397,0.21,0.831,0.328,1.27,0.328
		c0.439,0,0.873-0.117,1.271-0.328l7.876,7.876c-0.421,0.795-0.421,1.746,0,2.541l-8.219,8.219H26.498z M35.432,28.442h9.498
		l0.647,0.647l-7.69,7.69l-7.69-7.69l0.647-0.647H35.432z M65.854,28.442l0.647,0.647l-7.69,7.69l-7.69-7.69l0.647-0.647H65.854z
		 M86.779,28.442l0.647,0.647l-7.69,7.69l-7.69-7.69l0.647-0.647H86.779z M107.703,28.442l0.647,0.647l-7.69,7.69l-7.69-7.69
		l0.647-0.647H107.703z M128.627,28.442l0.647,0.647l-7.69,7.69l-7.69-7.69l0.647-0.647H128.627z M149.552,28.442l0.647,0.647
		l-7.69,7.69l-7.69-7.69l0.647-0.647H149.552z M170.476,28.442l0.647,0.647l-7.69,7.69l-7.69-7.69l0.647-0.647H170.476z
		 M191.4,28.442l0.647,0.647l-7.69,7.69l-7.69-7.69l0.647-0.647H191.4z M212.324,28.442l0.647,0.647l-7.69,7.69l-7.69-7.69
		l0.647-0.647H212.324z M233.249,28.442l0.647,0.647l-7.69,7.69l-7.69-7.69l0.647-0.647H233.249z M254.173,28.442l0.647,0.647
		l-7.69,7.69l-7.69-7.69l0.647-0.647H254.173z M275.097,28.442l0.647,0.647l-7.69,7.69l-7.69-7.69l0.647-0.647H275.097z
		 M296.022,28.442l0.647,0.647l-7.69,7.69l-7.69-7.69l0.647-0.647H296.022z M316.946,28.442l0.647,0.647l-7.69,7.69l-7.69-7.69
		l0.647-0.647H316.946z M337.87,28.442l0.647,0.647l-7.69,7.69l-7.69-7.69l0.647-0.647H337.87z M358.794,28.442l0.647,0.647
		l-7.69,7.69l-7.69-7.69l0.647-0.647H358.794z M379.719,28.442l0.647,0.647l-7.69,7.69l-7.69-7.69l0.647-0.647H379.719z
		 M393.041,28.442h7.602l0.647,0.647l-7.69,7.69l-7.69-7.69l0.647-0.647H393.041z M406.834,217.408l7.043-7.043v14.086
		L406.834,217.408z M402.792,216.091l-7.876-7.876c0.421-0.795,0.421-1.746,0-2.541l7.876-7.876c0.398,0.21,0.832,0.328,1.27,0.328
		c0.439,0,0.873-0.117,1.271-0.328l8.545,8.545v1.203l-8.545,8.545C404.538,215.67,403.587,215.67,402.792,216.091z
		 M384.408,216.091c-0.794-0.421-1.746-0.422-2.541,0l-7.876-7.876c0.421-0.795,0.421-1.746,0-2.541l7.876-7.876
		c0.397,0.21,0.832,0.328,1.27,0.328c0.439,0,0.873-0.117,1.271-0.328l7.876,7.876c-0.421,0.795-0.421,1.746,0,2.541
		L384.408,216.091z M372.676,225.097l-7.69-7.69l7.69-7.69l7.69,7.69L372.676,225.097z M360.943,216.091l-7.876-7.876
		c0.421-0.795,0.421-1.746,0-2.541l7.876-7.876c0.397,0.21,0.831,0.328,1.27,0.328c0.439,0,0.873-0.117,1.271-0.328l7.876,7.876
		c-0.421,0.795-0.421,1.746,0,2.541l-7.876,7.876C362.69,215.67,361.738,215.67,360.943,216.091z M351.752,225.097l-7.69-7.69
		l7.69-7.69l7.69,7.69L351.752,225.097z M340.019,216.091l-7.876-7.876c0.421-0.795,0.421-1.746,0-2.541l7.876-7.876
		c0.398,0.21,0.831,0.328,1.27,0.328c0.439,0,0.873-0.117,1.271-0.328l7.876,7.876c-0.421,0.795-0.421,1.746,0,2.541l-7.876,7.876
		C341.765,215.67,340.814,215.67,340.019,216.091z M330.827,225.097l-7.69-7.69l7.69-7.69l7.69,7.69L330.827,225.097z
		 M319.095,216.091l-7.876-7.876c0.421-0.795,0.421-1.746,0-2.541l7.876-7.876c0.397,0.21,0.831,0.328,1.27,0.328
		c0.439,0,0.873-0.117,1.271-0.328l7.876,7.876c-0.421,0.795-0.421,1.746,0,2.541l-7.876,7.876
		C320.841,215.67,319.89,215.67,319.095,216.091z M309.903,225.097l-7.69-7.69l7.69-7.69l7.69,7.69L309.903,225.097z
		 M298.171,216.091l-7.876-7.876c0.421-0.795,0.421-1.746,0-2.541l7.876-7.876c0.398,0.21,0.832,0.328,1.27,0.328
		c0.439,0,0.873-0.117,1.271-0.328l7.876,7.876c-0.421,0.795-0.421,1.746,0,2.541l-7.876,7.876
		C299.917,215.67,298.966,215.67,298.171,216.091z M288.979,225.097l-7.69-7.69l7.69-7.69l7.69,7.69L288.979,225.097z
		 M277.246,216.091l-7.876-7.876c0.421-0.795,0.421-1.746,0-2.541l7.876-7.876c0.397,0.21,0.832,0.328,1.27,0.328
		c0.439,0,0.873-0.117,1.271-0.328l7.876,7.876c-0.421,0.795-0.421,1.746,0,2.541l-7.876,7.876
		C278.993,215.67,278.041,215.67,277.246,216.091z M268.054,225.097l-7.69-7.69l7.69-7.69l7.69,7.69L268.054,225.097z
		 M256.322,216.091l-7.876-7.876c0.421-0.795,0.421-1.746,0-2.541l7.876-7.876c0.397,0.21,0.831,0.328,1.27,0.328
		c0.439,0,0.873-0.117,1.271-0.328l7.876,7.876c-0.421,0.795-0.421,1.746,0,2.541l-7.876,7.876
		C258.068,215.67,257.117,215.67,256.322,216.091z M247.13,225.097l-7.69-7.69l7.69-7.69l7.69,7.69L247.13,225.097z
		 M235.398,216.091l-7.876-7.876c0.421-0.795,0.421-1.746,0-2.541l7.876-7.876c0.398,0.21,0.831,0.328,1.27,0.328
		c0.439,0,0.873-0.117,1.271-0.328l7.876,7.876c-0.421,0.795-0.421,1.746,0,2.541l-7.876,7.876
		C237.144,215.67,236.193,215.67,235.398,216.091z M226.206,225.097l-7.69-7.69l7.69-7.69l7.69,7.69L226.206,225.097z
		 M214.473,216.091l-7.876-7.876c0.421-0.795,0.421-1.746,0-2.541l7.876-7.876c0.398,0.21,0.832,0.328,1.27,0.328
		c0.439,0,0.873-0.117,1.271-0.328l7.876,7.876c-0.421,0.795-0.421,1.746,0,2.541l-7.876,7.876
		C216.22,215.67,215.268,215.67,214.473,216.091z M205.282,225.097l-7.69-7.69l7.69-7.69l7.69,7.69L205.282,225.097z
		 M193.549,216.091l-7.876-7.876c0.421-0.795,0.421-1.746,0-2.541l7.876-7.876c0.397,0.21,0.831,0.328,1.27,0.328
		c0.439,0,0.873-0.117,1.271-0.328l7.876,7.876c-0.421,0.795-0.421,1.746,0,2.541l-7.876,7.876
		C195.295,215.67,194.344,215.67,193.549,216.091z M184.357,225.097l-7.69-7.69l7.69-7.69l7.69,7.69L184.357,225.097z
		 M172.625,216.091l-7.876-7.876c0.421-0.795,0.421-1.746,0-2.541l7.876-7.876c0.398,0.21,0.831,0.328,1.27,0.328
		c0.439,0,0.873-0.117,1.271-0.328l7.876,7.876c-0.421,0.795-0.421,1.746,0,2.541l-7.876,7.876
		C174.371,215.67,173.42,215.67,172.625,216.091z M163.433,225.097l-7.69-7.69l7.69-7.69l7.69,7.69L163.433,225.097z
		 M151.701,216.091l-7.876-7.876c0.421-0.795,0.421-1.746,0-2.541l7.876-7.876c0.398,0.21,0.831,0.328,1.27,0.328
		c0.439,0,0.873-0.117,1.271-0.328l7.876,7.876c-0.421,0.795-0.421,1.746,0,2.541l-7.876,7.876
		C153.447,215.67,152.496,215.67,151.701,216.091z M142.509,225.097l-7.69-7.69l7.69-7.69l7.69,7.69L142.509,225.097z
		 M130.776,216.091l-7.876-7.876c0.421-0.795,0.421-1.746,0-2.541l7.876-7.876c0.398,0.21,0.832,0.328,1.27,0.328
		c0.439,0,0.873-0.117,1.271-0.328l7.876,7.876c-0.421,0.795-0.421,1.746,0,2.541l-7.876,7.876
		C132.523,215.67,131.571,215.67,130.776,216.091z M121.584,225.097l-7.69-7.69l7.69-7.69l7.69,7.69L121.584,225.097z
		 M109.852,216.091l-7.876-7.876c0.421-0.795,0.421-1.746,0-2.541l7.876-7.876c0.397,0.21,0.831,0.328,1.27,0.328
		c0.439,0,0.873-0.117,1.271-0.328l7.876,7.876c-0.421,0.795-0.421,1.746,0,2.541l-7.876,7.876
		C111.598,215.67,110.647,215.67,109.852,216.091z M100.66,225.097l-7.69-7.69l7.69-7.69l7.69,7.69L100.66,225.097z M88.928,216.091
		l-7.876-7.876c0.421-0.795,0.421-1.746,0-2.541l7.876-7.876c0.397,0.21,0.831,0.328,1.27,0.328c0.439,0,0.873-0.117,1.271-0.328
		l7.876,7.876c-0.421,0.795-0.421,1.746,0,2.541l-7.876,7.876C90.674,215.67,89.723,215.67,88.928,216.091z M79.736,225.097
		l-7.69-7.69l7.69-7.69l7.69,7.69L79.736,225.097z M68.003,216.091l-7.876-7.876c0.421-0.795,0.421-1.746,0-2.541l7.876-7.876
		c0.397,0.21,0.832,0.328,1.27,0.328c0.439,0,0.873-0.117,1.271-0.328l7.876,7.876c-0.421,0.795-0.421,1.746,0,2.541l-7.876,7.876
		C69.75,215.67,68.798,215.67,68.003,216.091z M58.812,225.097l-7.69-7.69l7.69-7.69l7.69,7.69L58.812,225.097z M47.079,216.091
		l-7.876-7.876c0.421-0.795,0.421-1.746,0-2.541l7.876-7.876c0.397,0.21,0.831,0.328,1.27,0.328c0.439,0,0.873-0.117,1.271-0.328
		l7.876,7.876c-0.421,0.795-0.421,1.746,0,2.541l-7.876,7.876C48.825,215.67,47.874,215.67,47.079,216.091z M28.695,216.091
		c-0.794-0.421-1.746-0.422-2.541,0l-8.545-8.545v-1.203l8.545-8.545c0.397,0.21,0.831,0.328,1.27,0.328
		c0.439,0,0.873-0.117,1.271-0.328l7.876,7.876c-0.421,0.795-0.421,1.746,0,2.541L28.695,216.091z M17.61,189.44l7.043,7.043
		l-7.043,7.043V189.44z M17.61,210.365l7.043,7.043l-7.043,7.043V210.365z M30.197,196.483l7.69-7.69l7.69,7.69l-7.69,7.69
		L30.197,196.483z M26.155,153.319l-8.545-8.545v-1.203l8.545-8.545c0.397,0.21,0.831,0.328,1.27,0.328
		c0.439,0,0.873-0.118,1.271-0.328l7.876,7.876c-0.421,0.795-0.421,1.746,0,2.541l-7.876,7.876
		C27.901,152.898,26.95,152.897,26.155,153.319z M17.61,105.743l7.043,7.043l-7.043,7.043V105.743z M27.425,114.43
		c0.439,0,0.873-0.118,1.271-0.328l7.876,7.876c-0.421,0.795-0.421,1.746,0,2.541l-7.876,7.876c-0.794-0.421-1.746-0.422-2.541,0
		l-8.545-8.545v-1.203l8.545-8.545C26.552,114.313,26.986,114.43,27.425,114.43z M26.155,69.621l-8.545-8.545v-1.203l8.545-8.545
		c0.397,0.21,0.831,0.328,1.27,0.328c0.439,0,0.873-0.118,1.271-0.328l7.876,7.876c-0.421,0.795-0.421,1.746,0,2.541l-7.876,7.876
		C27.901,69.2,26.95,69.2,26.155,69.621z M17.61,42.97l7.043,7.043l-7.043,7.043V42.97z M17.61,63.895l7.043,7.043L17.61,77.98
		V63.895z M37.887,42.323l7.69,7.69l-7.69,7.69l-7.69-7.69L37.887,42.323z M47.079,30.405c0.397,0.21,0.831,0.328,1.27,0.328
		c0.439,0,0.873-0.118,1.271-0.328l7.876,7.876c-0.421,0.795-0.421,1.746,0,2.541l-7.876,7.876c-0.794-0.421-1.746-0.422-2.541,0
		l-7.876-7.876c0.421-0.795,0.421-1.746,0-2.541L47.079,30.405z M68.003,30.405c0.397,0.21,0.832,0.328,1.27,0.328
		c0.439,0,0.873-0.118,1.271-0.328l7.876,7.876c-0.421,0.795-0.421,1.746,0,2.541l-7.876,7.876c-0.794-0.421-1.746-0.422-2.541,0
		l-7.876-7.876c0.421-0.795,0.421-1.746,0-2.541L68.003,30.405z M88.928,30.405c0.397,0.21,0.831,0.328,1.27,0.328
		c0.439,0,0.873-0.118,1.271-0.328l7.876,7.876c-0.421,0.795-0.421,1.746,0,2.541l-7.876,7.876c-0.794-0.421-1.746-0.422-2.541,0
		l-7.876-7.876c0.421-0.795,0.421-1.746,0-2.541L88.928,30.405z M109.852,30.405c0.397,0.21,0.831,0.328,1.27,0.328
		c0.439,0,0.873-0.118,1.271-0.328l7.876,7.876c-0.421,0.795-0.421,1.746,0,2.541l-7.876,7.876c-0.794-0.421-1.746-0.422-2.541,0
		l-7.876-7.876c0.421-0.795,0.421-1.746,0-2.541L109.852,30.405z M130.776,30.405c0.398,0.21,0.832,0.328,1.27,0.328
		c0.439,0,0.873-0.118,1.271-0.328l7.876,7.876c-0.421,0.795-0.421,1.746,0,2.541l-7.876,7.876c-0.794-0.421-1.746-0.422-2.541,0
		l-7.876-7.876c0.421-0.795,0.421-1.746,0-2.541L130.776,30.405z M151.701,30.405c0.398,0.21,0.831,0.328,1.27,0.328
		c0.439,0,0.873-0.118,1.271-0.328l7.876,7.876c-0.421,0.795-0.421,1.746,0,2.541l-7.876,7.876c-0.794-0.421-1.746-0.422-2.541,0
		l-7.876-7.876c0.421-0.795,0.421-1.746,0-2.541L151.701,30.405z M172.625,30.405c0.398,0.21,0.831,0.328,1.27,0.328
		c0.439,0,0.873-0.118,1.271-0.328l7.876,7.876c-0.421,0.795-0.421,1.746,0,2.541l-7.876,7.876c-0.794-0.421-1.746-0.422-2.541,0
		l-7.876-7.876c0.421-0.795,0.421-1.746,0-2.541L172.625,30.405z M193.549,30.405c0.397,0.21,0.831,0.328,1.27,0.328
		c0.439,0,0.873-0.118,1.271-0.328l7.876,7.876c-0.421,0.795-0.421,1.746,0,2.541l-7.876,7.876c-0.794-0.421-1.746-0.422-2.541,0
		l-7.876-7.876c0.421-0.795,0.421-1.746,0-2.541L193.549,30.405z M214.473,30.405c0.398,0.21,0.832,0.328,1.27,0.328
		c0.439,0,0.873-0.118,1.271-0.328l7.876,7.876c-0.421,0.795-0.421,1.746,0,2.541l-7.876,7.876c-0.794-0.421-1.746-0.422-2.541,0
		l-7.876-7.876c0.421-0.795,0.421-1.746,0-2.541L214.473,30.405z M235.398,30.405c0.398,0.21,0.831,0.328,1.27,0.328
		c0.439,0,0.873-0.118,1.271-0.328l7.876,7.876c-0.421,0.795-0.421,1.746,0,2.541l-7.876,7.876c-0.794-0.421-1.746-0.422-2.541,0
		l-7.876-7.876c0.421-0.795,0.421-1.746,0-2.541L235.398,30.405z M256.322,30.405c0.397,0.21,0.831,0.328,1.27,0.328
		c0.439,0,0.873-0.118,1.271-0.328l7.876,7.876c-0.421,0.795-0.421,1.746,0,2.541l-7.876,7.876c-0.794-0.421-1.746-0.422-2.541,0
		l-7.876-7.876c0.421-0.795,0.421-1.746,0-2.541L256.322,30.405z M277.246,30.405c0.397,0.21,0.832,0.328,1.27,0.328
		c0.439,0,0.873-0.118,1.271-0.328l7.876,7.876c-0.421,0.795-0.421,1.746,0,2.541l-7.876,7.876c-0.794-0.421-1.746-0.422-2.541,0
		l-7.876-7.876c0.421-0.795,0.421-1.746,0-2.541L277.246,30.405z M298.171,30.405c0.398,0.21,0.832,0.328,1.27,0.328
		c0.439,0,0.873-0.118,1.271-0.328l7.876,7.876c-0.421,0.795-0.421,1.746,0,2.541l-7.876,7.876c-0.794-0.421-1.746-0.422-2.541,0
		l-7.876-7.876c0.421-0.795,0.421-1.746,0-2.541L298.171,30.405z M319.095,30.405c0.397,0.21,0.831,0.328,1.27,0.328
		c0.439,0,0.873-0.118,1.271-0.328l7.876,7.876c-0.421,0.795-0.421,1.746,0,2.541l-7.876,7.876c-0.794-0.421-1.746-0.422-2.541,0
		l-7.876-7.876c0.421-0.795,0.421-1.746,0-2.541L319.095,30.405z M340.019,30.405c0.398,0.21,0.831,0.328,1.27,0.328
		c0.439,0,0.873-0.118,1.271-0.328l7.876,7.876c-0.421,0.795-0.421,1.746,0,2.541l-7.876,7.876c-0.794-0.421-1.746-0.422-2.541,0
		l-7.876-7.876c0.421-0.795,0.421-1.746,0-2.541L340.019,30.405z M360.943,30.405c0.397,0.21,0.831,0.328,1.27,0.328
		c0.439,0,0.873-0.118,1.271-0.328l7.876,7.876c-0.421,0.795-0.421,1.746,0,2.541l-7.876,7.876c-0.794-0.421-1.746-0.422-2.541,0
		l-7.876-7.876c0.421-0.795,0.421-1.746,0-2.541L360.943,30.405z M381.868,30.405c0.397,0.21,0.832,0.328,1.27,0.328
		c0.439,0,0.873-0.118,1.271-0.328l7.876,7.876c-0.421,0.795-0.421,1.746,0,2.541l-7.876,7.876c-0.794-0.421-1.746-0.422-2.541,0
		l-7.876-7.876c0.421-0.795,0.421-1.746,0-2.541L381.868,30.405z M401.29,50.013l-7.69,7.69l-7.69-7.69l7.69-7.69L401.29,50.013z
		 M404.062,51.657c0.439,0,0.873-0.118,1.271-0.328l8.545,8.545v1.203l-8.545,8.545c-0.794-0.421-1.746-0.422-2.541,0l-7.876-7.876
		c0.421-0.795,0.421-1.746,0-2.541l7.876-7.876C403.189,51.54,403.623,51.657,404.062,51.657z M413.877,77.98l-7.043-7.043
		l7.043-7.043V77.98z M413.877,57.056l-7.043-7.043l7.043-7.043V57.056z M404.062,114.43c0.439,0,0.873-0.118,1.271-0.328
		l8.545,8.545v1.203l-8.545,8.545c-0.794-0.421-1.746-0.422-2.541,0l-7.876-7.876c0.421-0.795,0.421-1.746,0-2.541l7.876-7.876
		C403.189,114.313,403.623,114.43,404.062,114.43z M413.877,161.678l-7.043-7.043l7.043-7.043V161.678z M402.792,153.319
		l-7.876-7.876c0.421-0.795,0.421-1.746,0-2.541l7.876-7.876c0.398,0.21,0.832,0.328,1.27,0.328c0.439,0,0.873-0.118,1.271-0.328
		l8.545,8.545v1.203l-8.545,8.545C404.538,152.898,403.587,152.897,402.792,153.319z M393.6,183.249l-4.025-4.025h4.993h3.057
		L393.6,183.249z M384.408,195.167c-0.794-0.421-1.746-0.422-2.541,0l-7.876-7.876c0.421-0.795,0.421-1.746,0-2.541l5.527-5.527
		h7.238l5.527,5.527c-0.421,0.795-0.421,1.746,0,2.541L384.408,195.167z M372.676,204.173l-7.69-7.69l7.69-7.69l7.69,7.69
		L372.676,204.173z M360.943,195.167l-7.876-7.876c0.421-0.795,0.421-1.746,0-2.541l5.527-5.527h7.238l5.527,5.527
		c-0.421,0.795-0.421,1.746,0,2.541l-7.876,7.876C362.69,194.746,361.738,194.746,360.943,195.167z M351.752,204.173l-7.69-7.69
		l7.69-7.69l7.69,7.69L351.752,204.173z M340.019,195.167l-7.876-7.876c0.421-0.795,0.421-1.746,0-2.541l5.527-5.527h7.238
		l5.527,5.527c-0.421,0.795-0.421,1.746,0,2.541l-7.876,7.876C341.765,194.746,340.814,194.746,340.019,195.167z M330.827,204.173
		l-7.69-7.69l7.69-7.69l7.69,7.69L330.827,204.173z M319.095,195.167l-7.876-7.876c0.421-0.795,0.421-1.746,0-2.541l5.527-5.527
		h7.238l5.527,5.527c-0.421,0.795-0.421,1.746,0,2.541l-7.876,7.876C320.841,194.746,319.89,194.746,319.095,195.167z
		 M309.903,204.173l-7.69-7.69l7.69-7.69l7.69,7.69L309.903,204.173z M298.171,195.167l-7.876-7.876
		c0.421-0.795,0.421-1.746,0-2.541l5.527-5.527h7.238l5.527,5.527c-0.421,0.795-0.421,1.746,0,2.541l-7.876,7.876
		C299.917,194.746,298.966,194.746,298.171,195.167z M288.979,204.173l-7.69-7.69l7.69-7.69l7.69,7.69L288.979,204.173z
		 M277.246,195.167l-7.876-7.876c0.421-0.795,0.421-1.746,0-2.541l5.527-5.527h7.238l5.527,5.527c-0.421,0.795-0.421,1.746,0,2.541
		l-7.876,7.876C278.993,194.746,278.041,194.746,277.246,195.167z M268.054,204.173l-7.69-7.69l7.69-7.69l7.69,7.69L268.054,204.173
		z M256.322,195.167l-7.876-7.876c0.421-0.795,0.421-1.746,0-2.541l5.527-5.527h7.238l5.527,5.527c-0.421,0.795-0.421,1.746,0,2.541
		l-7.876,7.876C258.068,194.746,257.117,194.746,256.322,195.167z M247.13,204.173l-7.69-7.69l7.69-7.69l7.69,7.69L247.13,204.173z
		 M235.398,195.167l-7.876-7.876c0.421-0.795,0.421-1.746,0-2.541l5.527-5.527h7.238l5.527,5.527c-0.421,0.795-0.421,1.746,0,2.541
		l-7.876,7.876C237.144,194.746,236.193,194.746,235.398,195.167z M226.206,204.173l-7.69-7.69l7.69-7.69l7.69,7.69L226.206,204.173
		z M214.473,195.167l-7.876-7.876c0.421-0.795,0.421-1.746,0-2.541l5.527-5.527h7.238l5.527,5.527c-0.421,0.795-0.421,1.746,0,2.541
		l-7.876,7.876C216.22,194.746,215.268,194.746,214.473,195.167z M205.282,204.173l-7.69-7.69l7.69-7.69l7.69,7.69L205.282,204.173z
		 M193.549,195.167l-7.876-7.876c0.421-0.795,0.421-1.746,0-2.541l5.527-5.527h7.238l5.527,5.527c-0.421,0.795-0.421,1.746,0,2.541
		l-7.876,7.876C195.295,194.746,194.344,194.746,193.549,195.167z M184.357,204.173l-7.69-7.69l7.69-7.69l7.69,7.69L184.357,204.173
		z M172.625,195.167l-7.876-7.876c0.421-0.795,0.421-1.746,0-2.541l5.527-5.527h7.238l5.527,5.527c-0.421,0.795-0.421,1.746,0,2.541
		l-7.876,7.876C174.371,194.746,173.42,194.746,172.625,195.167z M163.433,204.173l-7.69-7.69l7.69-7.69l7.69,7.69L163.433,204.173z
		 M151.701,195.167l-7.876-7.876c0.421-0.795,0.421-1.746,0-2.541l5.527-5.527h7.238l5.527,5.527c-0.421,0.795-0.421,1.746,0,2.541
		l-7.876,7.876C153.447,194.746,152.496,194.746,151.701,195.167z M142.509,204.173l-7.69-7.69l7.69-7.69l7.69,7.69L142.509,204.173
		z M130.776,195.167l-7.876-7.876c0.421-0.795,0.421-1.746,0-2.541l5.527-5.527h7.238l5.527,5.527c-0.421,0.795-0.421,1.746,0,2.541
		l-7.876,7.876C132.523,194.746,131.571,194.746,130.776,195.167z M121.584,204.173l-7.69-7.69l7.69-7.69l7.69,7.69L121.584,204.173
		z M109.852,195.167l-7.876-7.876c0.421-0.795,0.421-1.746,0-2.541l5.527-5.527h7.238l5.527,5.527c-0.421,0.795-0.421,1.746,0,2.541
		l-7.876,7.876C111.598,194.746,110.647,194.746,109.852,195.167z M100.66,204.173l-7.69-7.69l7.69-7.69l7.69,7.69L100.66,204.173z
		 M88.928,195.167l-7.876-7.876c0.421-0.795,0.421-1.746,0-2.541l5.527-5.527h7.238l5.527,5.527c-0.421,0.795-0.421,1.746,0,2.541
		l-7.876,7.876C90.674,194.746,89.723,194.746,88.928,195.167z M79.736,204.173l-7.69-7.69l7.69-7.69l7.69,7.69L79.736,204.173z
		 M68.003,195.167l-7.876-7.876c0.421-0.795,0.421-1.746,0-2.541l5.527-5.527h7.239l5.527,5.527c-0.421,0.795-0.421,1.746,0,2.541
		l-7.876,7.876C69.75,194.746,68.798,194.746,68.003,195.167z M58.812,204.173l-7.69-7.69l7.69-7.69l7.69,7.69L58.812,204.173z
		 M47.079,195.167l-7.876-7.876c0.421-0.795,0.421-1.746,0-2.541l5.527-5.527h7.238l5.527,5.527c-0.421,0.795-0.421,1.746,0,2.541
		l-7.876,7.876C48.825,194.746,47.874,194.746,47.079,195.167z M39.203,163.826l7.876-7.876c0.397,0.21,0.831,0.328,1.27,0.328
		c0.439,0,0.873-0.118,1.271-0.328l7.876,7.876c-0.421,0.795-0.421,1.746,0,2.541l-4.232,4.232h-9.827l-4.233-4.232
		C39.625,165.572,39.625,164.621,39.203,163.826z M30.197,133.71l7.69-7.69l7.69,7.69l-7.69,7.69L30.197,133.71z M39.203,101.054
		l4.857-4.857h8.579l4.856,4.857c-0.421,0.795-0.421,1.746,0,2.541l-7.876,7.876c-0.794-0.421-1.746-0.422-2.541,0l-7.876-7.876
		C39.625,102.8,39.625,101.848,39.203,101.054z M39.203,80.129l7.876-7.876c0.397,0.21,0.831,0.328,1.27,0.328
		c0.439,0,0.873-0.118,1.271-0.328l7.876,7.876c-0.421,0.795-0.421,1.746,0,2.541l-4.903,4.903h-8.486l-4.903-4.903
		C39.625,81.875,39.625,80.924,39.203,80.129z M39.203,59.205l7.876-7.876c0.397,0.21,0.831,0.328,1.27,0.328
		c0.439,0,0.873-0.118,1.271-0.328l7.876,7.876c-0.421,0.795-0.421,1.746,0,2.541l-7.876,7.876c-0.794-0.421-1.746-0.422-2.541,0
		l-7.876-7.876C39.625,60.951,39.625,60,39.203,59.205z M68.003,51.329c0.397,0.21,0.832,0.328,1.27,0.328
		c0.439,0,0.873-0.118,1.271-0.328l7.876,7.876c-0.421,0.795-0.421,1.746,0,2.541l-7.876,7.876c-0.794-0.421-1.746-0.422-2.541,0
		l-7.876-7.876c0.421-0.795,0.421-1.746,0-2.541L68.003,51.329z M88.928,51.329c0.397,0.21,0.831,0.328,1.27,0.328
		c0.439,0,0.873-0.118,1.271-0.328l7.876,7.876c-0.421,0.795-0.421,1.746,0,2.541l-7.876,7.876c-0.794-0.421-1.746-0.422-2.541,0
		l-7.876-7.876c0.421-0.795,0.421-1.746,0-2.541L88.928,51.329z M109.852,51.329c0.397,0.21,0.831,0.328,1.27,0.328
		c0.439,0,0.873-0.118,1.271-0.328l7.876,7.876c-0.421,0.795-0.421,1.746,0,2.541l-7.876,7.876c-0.794-0.421-1.746-0.422-2.541,0
		l-7.876-7.876c0.421-0.795,0.421-1.746,0-2.541L109.852,51.329z M130.776,51.329c0.398,0.21,0.832,0.328,1.27,0.328
		c0.439,0,0.873-0.118,1.271-0.328l7.876,7.876c-0.421,0.795-0.421,1.746,0,2.541l-7.876,7.876c-0.794-0.421-1.746-0.422-2.541,0
		l-7.876-7.876c0.421-0.795,0.421-1.746,0-2.541L130.776,51.329z M151.701,51.329c0.398,0.21,0.831,0.328,1.27,0.328
		c0.439,0,0.873-0.118,1.271-0.328l7.876,7.876c-0.421,0.795-0.421,1.746,0,2.541l-7.876,7.876c-0.794-0.421-1.746-0.422-2.541,0
		l-7.876-7.876c0.421-0.795,0.421-1.746,0-2.541L151.701,51.329z M172.625,51.329c0.398,0.21,0.831,0.328,1.27,0.328
		c0.439,0,0.873-0.118,1.271-0.328l7.876,7.876c-0.421,0.795-0.421,1.746,0,2.541l-7.876,7.876c-0.794-0.421-1.746-0.422-2.541,0
		l-7.876-7.876c0.421-0.795,0.421-1.746,0-2.541L172.625,51.329z M193.549,51.329c0.397,0.21,0.831,0.328,1.27,0.328
		c0.439,0,0.873-0.118,1.271-0.328l7.876,7.876c-0.421,0.795-0.421,1.746,0,2.541l-7.876,7.876c-0.794-0.421-1.746-0.422-2.541,0
		l-7.876-7.876c0.421-0.795,0.421-1.746,0-2.541L193.549,51.329z M214.473,51.329c0.398,0.21,0.832,0.328,1.27,0.328
		c0.439,0,0.873-0.118,1.271-0.328l7.876,7.876c-0.421,0.795-0.421,1.746,0,2.541l-7.876,7.876c-0.794-0.421-1.746-0.422-2.541,0
		l-7.876-7.876c0.421-0.795,0.421-1.746,0-2.541L214.473,51.329z M235.398,51.329c0.398,0.21,0.831,0.328,1.27,0.328
		c0.439,0,0.873-0.118,1.271-0.328l7.876,7.876c-0.421,0.795-0.421,1.746,0,2.541l-7.876,7.876c-0.794-0.421-1.746-0.422-2.541,0
		l-7.876-7.876c0.421-0.795,0.421-1.746,0-2.541L235.398,51.329z M256.322,51.329c0.397,0.21,0.831,0.328,1.27,0.328
		c0.439,0,0.873-0.118,1.271-0.328l7.876,7.876c-0.421,0.795-0.421,1.746,0,2.541l-7.876,7.876c-0.794-0.421-1.746-0.422-2.541,0
		l-7.876-7.876c0.421-0.795,0.421-1.746,0-2.541L256.322,51.329z M277.246,51.329c0.397,0.21,0.832,0.328,1.27,0.328
		c0.439,0,0.873-0.118,1.271-0.328l7.876,7.876c-0.421,0.795-0.421,1.746,0,2.541l-7.876,7.876c-0.794-0.421-1.746-0.422-2.541,0
		l-7.876-7.876c0.421-0.795,0.421-1.746,0-2.541L277.246,51.329z M298.171,51.329c0.398,0.21,0.832,0.328,1.27,0.328
		c0.439,0,0.873-0.118,1.271-0.328l7.876,7.876c-0.421,0.795-0.421,1.746,0,2.541l-7.876,7.876c-0.794-0.421-1.746-0.422-2.541,0
		l-7.876-7.876c0.421-0.795,0.421-1.746,0-2.541L298.171,51.329z M319.095,51.329c0.397,0.21,0.831,0.328,1.27,0.328
		c0.439,0,0.873-0.118,1.271-0.328l7.876,7.876c-0.421,0.795-0.421,1.746,0,2.541l-7.876,7.876c-0.794-0.421-1.746-0.422-2.541,0
		l-7.876-7.876c0.421-0.795,0.421-1.746,0-2.541L319.095,51.329z M340.019,51.329c0.398,0.21,0.831,0.328,1.27,0.328
		c0.439,0,0.873-0.118,1.271-0.328l7.876,7.876c-0.421,0.795-0.421,1.746,0,2.541l-7.876,7.876c-0.794-0.421-1.746-0.422-2.541,0
		l-7.876-7.876c0.421-0.795,0.421-1.746,0-2.541L340.019,51.329z M360.943,51.329c0.397,0.21,0.831,0.328,1.27,0.328
		c0.439,0,0.873-0.118,1.271-0.328l7.876,7.876c-0.421,0.795-0.421,1.746,0,2.541l-7.876,7.876c-0.794-0.421-1.746-0.422-2.541,0
		l-7.876-7.876c0.421-0.795,0.421-1.746,0-2.541L360.943,51.329z M381.868,51.329c0.397,0.21,0.832,0.328,1.27,0.328
		c0.439,0,0.873-0.118,1.271-0.328l7.876,7.876c-0.421,0.795-0.421,1.746,0,2.541l-7.876,7.876c-0.794-0.421-1.746-0.422-2.541,0
		l-7.876-7.876c0.421-0.795,0.421-1.746,0-2.541L381.868,51.329z M392.284,82.67l-4.903,4.903h-8.486l-4.903-4.903
		c0.421-0.795,0.421-1.746,0-2.541l7.876-7.876c0.397,0.21,0.832,0.328,1.27,0.328c0.439,0,0.873-0.118,1.271-0.328l7.876,7.876
		C391.863,80.924,391.863,81.875,392.284,82.67z M392.284,103.594l-7.876,7.876c-0.794-0.421-1.746-0.422-2.541,0l-7.876-7.876
		c0.421-0.795,0.421-1.746,0-2.541l4.857-4.857h8.579l4.857,4.857C391.863,101.848,391.863,102.8,392.284,103.594z M401.29,133.71
		l-7.69,7.69l-7.69-7.69l7.69-7.69L401.29,133.71z M392.284,166.367l-4.233,4.232h-9.827l-4.232-4.232
		c0.421-0.795,0.421-1.746,0-2.541l7.876-7.876c0.397,0.21,0.832,0.328,1.27,0.328c0.439,0,0.873-0.118,1.271-0.328l7.876,7.876
		C391.863,164.621,391.863,165.572,392.284,166.367z M372.676,183.249l-4.025-4.025h8.05L372.676,183.249z M351.752,183.249
		l-4.025-4.025h8.05L351.752,183.249z M330.827,183.249l-4.025-4.025h8.05L330.827,183.249z M309.903,183.249l-4.025-4.025h8.05
		L309.903,183.249z M288.979,183.249l-4.025-4.025h8.05L288.979,183.249z M268.054,183.249l-4.025-4.025h8.05L268.054,183.249z
		 M247.13,183.249l-4.025-4.025h8.05L247.13,183.249z M226.206,183.249l-4.025-4.025h8.05L226.206,183.249z M205.282,183.249
		l-4.025-4.025h8.05L205.282,183.249z M184.357,183.249l-4.025-4.025h8.05L184.357,183.249z M163.433,183.249l-4.025-4.025h8.05
		L163.433,183.249z M142.509,183.249l-4.025-4.025h8.05L142.509,183.249z M121.584,183.249l-4.025-4.025h8.05L121.584,183.249z
		 M100.66,183.249l-4.025-4.025h8.05L100.66,183.249z M79.736,183.249l-4.025-4.025h8.05L79.736,183.249z M58.812,183.249
		l-4.025-4.025h8.05L58.812,183.249z M58.812,84.172l3.401,3.401h-6.802L58.812,84.172z M68.003,72.254
		c0.397,0.21,0.832,0.328,1.27,0.328c0.439,0,0.873-0.118,1.271-0.328l7.876,7.876c-0.421,0.795-0.421,1.746,0,2.541l-4.903,4.903
		H65.03l-4.903-4.903c0.421-0.795,0.421-1.746,0-2.541L68.003,72.254z M88.928,72.254c0.397,0.21,0.831,0.328,1.27,0.328
		c0.439,0,0.873-0.118,1.271-0.328l7.876,7.876c-0.421,0.795-0.421,1.746,0,2.541l-4.903,4.903h-8.486l-4.903-4.903
		c0.421-0.795,0.421-1.746,0-2.541L88.928,72.254z M109.852,72.254c0.397,0.21,0.831,0.328,1.27,0.328
		c0.439,0,0.873-0.118,1.271-0.328l7.876,7.876c-0.421,0.795-0.421,1.746,0,2.541l-4.903,4.903h-8.486l-4.903-4.903
		c0.421-0.795,0.421-1.746,0-2.541L109.852,72.254z M130.776,72.254c0.398,0.21,0.832,0.328,1.27,0.328
		c0.439,0,0.873-0.118,1.271-0.328l7.876,7.876c-0.421,0.795-0.421,1.746,0,2.541l-4.903,4.903h-8.486L122.9,82.67
		c0.421-0.795,0.421-1.746,0-2.541L130.776,72.254z M151.701,72.254c0.398,0.21,0.831,0.328,1.27,0.328
		c0.439,0,0.873-0.118,1.271-0.328l7.876,7.876c-0.421,0.795-0.421,1.746,0,2.541l-4.903,4.903h-8.486l-4.903-4.903
		c0.421-0.795,0.421-1.746,0-2.541L151.701,72.254z M172.625,72.254c0.398,0.21,0.831,0.328,1.27,0.328
		c0.439,0,0.873-0.118,1.271-0.328l7.876,7.876c-0.421,0.795-0.421,1.746,0,2.541l-4.903,4.903h-8.486l-4.903-4.903
		c0.421-0.795,0.421-1.746,0-2.541L172.625,72.254z M193.549,72.254c0.397,0.21,0.831,0.328,1.27,0.328
		c0.439,0,0.873-0.118,1.271-0.328l7.876,7.876c-0.421,0.795-0.421,1.746,0,2.541l-4.903,4.903h-8.486l-4.903-4.903
		c0.421-0.795,0.421-1.746,0-2.541L193.549,72.254z M214.473,72.254c0.398,0.21,0.832,0.328,1.27,0.328
		c0.439,0,0.873-0.118,1.271-0.328l7.876,7.876c-0.421,0.795-0.421,1.746,0,2.541l-4.903,4.903h-8.486l-4.903-4.903
		c0.421-0.795,0.421-1.746,0-2.541L214.473,72.254z M235.398,72.254c0.398,0.21,0.831,0.328,1.27,0.328
		c0.439,0,0.873-0.118,1.271-0.328l7.876,7.876c-0.421,0.795-0.421,1.746,0,2.541l-4.903,4.903h-8.486l-4.903-4.903
		c0.421-0.795,0.421-1.746,0-2.541L235.398,72.254z M256.322,72.254c0.397,0.21,0.831,0.328,1.27,0.328
		c0.439,0,0.873-0.118,1.271-0.328l7.876,7.876c-0.421,0.795-0.421,1.746,0,2.541l-4.903,4.903h-8.486l-4.903-4.903
		c0.421-0.795,0.421-1.746,0-2.541L256.322,72.254z M277.246,72.254c0.397,0.21,0.832,0.328,1.27,0.328
		c0.439,0,0.873-0.118,1.271-0.328l7.876,7.876c-0.421,0.795-0.421,1.746,0,2.541l-4.903,4.903h-8.486l-4.903-4.903
		c0.421-0.795,0.421-1.746,0-2.541L277.246,72.254z M298.171,72.254c0.398,0.21,0.832,0.328,1.27,0.328
		c0.439,0,0.873-0.118,1.271-0.328l7.876,7.876c-0.421,0.795-0.421,1.746,0,2.541l-4.903,4.903h-8.486l-4.903-4.903
		c0.421-0.795,0.421-1.746,0-2.541L298.171,72.254z M319.095,72.254c0.397,0.21,0.831,0.328,1.27,0.328
		c0.439,0,0.873-0.118,1.271-0.328l7.876,7.876c-0.421,0.795-0.421,1.746,0,2.541l-4.903,4.903h-8.486l-4.903-4.903
		c0.421-0.795,0.421-1.746,0-2.541L319.095,72.254z M340.019,72.254c0.398,0.21,0.831,0.328,1.27,0.328
		c0.439,0,0.873-0.118,1.271-0.328l7.876,7.876c-0.421,0.795-0.421,1.746,0,2.541l-4.903,4.903h-8.486l-4.903-4.903
		c0.421-0.795,0.421-1.746,0-2.541L340.019,72.254z M360.943,72.254c0.397,0.21,0.831,0.328,1.27,0.328
		c0.439,0,0.873-0.118,1.271-0.328l7.876,7.876c-0.421,0.795-0.421,1.746,0,2.541l-4.903,4.903h-8.486l-4.903-4.903
		c0.421-0.795,0.421-1.746,0-2.541L360.943,72.254z M376.077,87.573h-6.802l3.401-3.401L376.077,87.573z M357.3,170.6l-4.232-4.232
		c0.421-0.795,0.421-1.746,0-2.541l7.876-7.876c0.397,0.21,0.831,0.328,1.27,0.328c0.439,0,0.873-0.118,1.271-0.328l7.876,7.876
		c-0.421,0.795-0.421,1.746,0,2.541l-4.232,4.232H357.3z M336.376,170.6l-4.233-4.232c0.421-0.795,0.421-1.746,0-2.541l7.876-7.876
		c0.398,0.21,0.831,0.328,1.27,0.328c0.439,0,0.873-0.118,1.271-0.328l7.876,7.876c-0.421,0.795-0.421,1.746,0,2.541l-4.232,4.232
		H336.376z M315.452,170.6l-4.232-4.232c0.421-0.795,0.421-1.746,0-2.541l7.876-7.876c0.397,0.21,0.831,0.328,1.27,0.328
		c0.439,0,0.873-0.118,1.271-0.328l7.876,7.876c-0.421,0.795-0.421,1.746,0,2.541l-4.232,4.232H315.452z M294.527,170.6
		l-4.233-4.232c0.421-0.795,0.421-1.746,0-2.541l7.876-7.876c0.398,0.21,0.832,0.328,1.27,0.328c0.439,0,0.873-0.118,1.271-0.328
		l7.876,7.876c-0.421,0.795-0.421,1.746,0,2.541l-4.233,4.232H294.527z M273.603,170.6l-4.232-4.232
		c0.421-0.795,0.421-1.746,0-2.541l7.876-7.876c0.397,0.21,0.832,0.328,1.27,0.328c0.439,0,0.873-0.118,1.271-0.328l7.876,7.876
		c-0.421,0.795-0.421,1.746,0,2.541l-4.233,4.232H273.603z M252.679,170.6l-4.232-4.232c0.421-0.795,0.421-1.746,0-2.541
		l7.876-7.876c0.397,0.21,0.831,0.328,1.27,0.328c0.439,0,0.873-0.118,1.271-0.328l7.876,7.876c-0.421,0.795-0.421,1.746,0,2.541
		l-4.232,4.232H252.679z M231.754,170.6l-4.232-4.232c0.421-0.795,0.421-1.746,0-2.541l7.876-7.876
		c0.398,0.21,0.831,0.328,1.27,0.328c0.439,0,0.873-0.118,1.271-0.328l7.876,7.876c-0.421,0.795-0.421,1.746,0,2.541l-4.232,4.232
		H231.754z M210.83,170.6l-4.233-4.232c0.421-0.795,0.421-1.746,0-2.541l7.876-7.876c0.398,0.21,0.832,0.328,1.27,0.328
		c0.439,0,0.873-0.118,1.271-0.328l7.876,7.876c-0.421,0.795-0.421,1.746,0,2.541l-4.232,4.232H210.83z M189.906,170.6l-4.232-4.232
		c0.421-0.795,0.421-1.746,0-2.541l7.876-7.876c0.397,0.21,0.831,0.328,1.27,0.328c0.439,0,0.873-0.118,1.271-0.328l7.876,7.876
		c-0.421,0.795-0.421,1.746,0,2.541l-4.232,4.232H189.906z M168.982,170.6l-4.232-4.232c0.421-0.795,0.421-1.746,0-2.541
		l7.876-7.876c0.398,0.21,0.831,0.328,1.27,0.328c0.439,0,0.873-0.118,1.271-0.328l7.876,7.876c-0.421,0.795-0.421,1.746,0,2.541
		l-4.232,4.232H168.982z M148.057,170.6l-4.232-4.232c0.421-0.795,0.421-1.746,0-2.541l7.876-7.876
		c0.398,0.21,0.831,0.328,1.27,0.328c0.439,0,0.873-0.118,1.271-0.328l7.876,7.876c-0.421,0.795-0.421,1.746,0,2.541l-4.232,4.232
		H148.057z M127.133,170.6l-4.232-4.232c0.421-0.795,0.421-1.746,0-2.541l7.876-7.876c0.398,0.21,0.832,0.328,1.27,0.328
		c0.439,0,0.873-0.118,1.271-0.328l7.876,7.876c-0.421,0.795-0.421,1.746,0,2.541l-4.232,4.232H127.133z M106.209,170.6
		l-4.232-4.232c0.421-0.795,0.421-1.746,0-2.541l7.876-7.876c0.397,0.21,0.831,0.328,1.27,0.328c0.439,0,0.873-0.118,1.271-0.328
		l7.876,7.876c-0.421,0.795-0.421,1.746,0,2.541l-4.232,4.232H106.209z M85.284,170.6l-4.232-4.232c0.421-0.795,0.421-1.746,0-2.541
		l7.876-7.876c0.397,0.21,0.831,0.328,1.27,0.328c0.439,0,0.873-0.118,1.271-0.328l7.876,7.876c-0.421,0.795-0.421,1.746,0,2.541
		l-4.233,4.232H85.284z M64.36,170.6l-4.233-4.232c0.421-0.795,0.421-1.746,0-2.541l7.876-7.876c0.397,0.21,0.832,0.328,1.27,0.328
		c0.439,0,0.873-0.118,1.271-0.328l7.876,7.876c-0.421,0.795-0.421,1.746,0,2.541l-4.233,4.232H64.36z M60.128,142.902l7.876-7.876
		c0.397,0.21,0.832,0.328,1.27,0.328c0.439,0,0.873-0.118,1.271-0.328l7.876,7.876c-0.421,0.795-0.421,1.746,0,2.541l-7.876,7.876
		c-0.794-0.421-1.746-0.422-2.541,0l-7.876-7.876C60.549,144.648,60.549,143.697,60.128,142.902z M60.128,121.978l7.876-7.876
		c0.397,0.21,0.832,0.328,1.27,0.328c0.439,0,0.873-0.118,1.271-0.328l7.876,7.876c-0.421,0.795-0.421,1.746,0,2.541l-7.876,7.876
		c-0.794-0.421-1.746-0.422-2.541,0l-7.876-7.876C60.549,123.724,60.549,122.773,60.128,121.978z M60.128,101.054l4.857-4.857h8.579
		l4.856,4.857c-0.421,0.795-0.421,1.746,0,2.541l-7.876,7.876c-0.794-0.421-1.746-0.422-2.541,0l-7.876-7.876
		C60.549,102.8,60.549,101.848,60.128,101.054z M371.36,103.594l-7.876,7.876c-0.794-0.421-1.746-0.422-2.541,0l-7.876-7.876
		c0.421-0.795,0.421-1.746,0-2.541l4.856-4.857h8.579l4.856,4.857C370.938,101.848,370.938,102.8,371.36,103.594z M371.36,124.519
		l-7.876,7.876c-0.794-0.421-1.746-0.422-2.541,0l-7.876-7.876c0.421-0.795,0.421-1.746,0-2.541l7.876-7.876
		c0.397,0.21,0.831,0.328,1.27,0.328c0.439,0,0.873-0.118,1.271-0.328l7.876,7.876C370.938,122.773,370.938,123.724,371.36,124.519z
		 M371.36,145.443l-7.876,7.876c-0.794-0.421-1.746-0.422-2.541,0l-7.876-7.876c0.421-0.795,0.421-1.746,0-2.541l7.876-7.876
		c0.397,0.21,0.831,0.328,1.27,0.328c0.439,0,0.873-0.118,1.271-0.328l7.876,7.876C370.938,143.697,370.938,144.648,371.36,145.443z
		 M351.752,162.325l-7.69-7.69l7.69-7.69l7.69,7.69L351.752,162.325z M340.019,153.319l-7.876-7.876
		c0.421-0.795,0.421-1.746,0-2.541l7.876-7.876c0.398,0.21,0.831,0.328,1.27,0.328c0.439,0,0.873-0.118,1.271-0.328l7.876,7.876
		c-0.421,0.795-0.421,1.746,0,2.541l-7.876,7.876C341.765,152.898,340.814,152.897,340.019,153.319z M330.827,162.325l-7.69-7.69
		l7.69-7.69l7.69,7.69L330.827,162.325z M319.095,153.319l-7.876-7.876c0.421-0.795,0.421-1.746,0-2.541l7.876-7.876
		c0.397,0.21,0.831,0.328,1.27,0.328c0.439,0,0.873-0.118,1.271-0.328l7.876,7.876c-0.421,0.795-0.421,1.746,0,2.541l-7.876,7.876
		C320.841,152.898,319.89,152.897,319.095,153.319z M309.903,162.325l-7.69-7.69l7.69-7.69l7.69,7.69L309.903,162.325z
		 M298.171,153.319l-7.876-7.876c0.421-0.795,0.421-1.746,0-2.541l7.876-7.876c0.398,0.21,0.832,0.328,1.27,0.328
		c0.439,0,0.873-0.118,1.271-0.328l7.876,7.876c-0.421,0.795-0.421,1.746,0,2.541l-7.876,7.876
		C299.917,152.898,298.966,152.897,298.171,153.319z M288.979,162.325l-7.69-7.69l7.69-7.69l7.69,7.69L288.979,162.325z
		 M277.246,153.319l-7.876-7.876c0.421-0.795,0.421-1.746,0-2.541l7.876-7.876c0.397,0.21,0.832,0.328,1.27,0.328
		c0.439,0,0.873-0.118,1.271-0.328l7.876,7.876c-0.421,0.795-0.421,1.746,0,2.541l-7.876,7.876
		C278.993,152.898,278.041,152.897,277.246,153.319z M268.054,162.325l-7.69-7.69l7.69-7.69l7.69,7.69L268.054,162.325z
		 M256.322,153.319l-7.876-7.876c0.421-0.795,0.421-1.746,0-2.541l7.876-7.876c0.397,0.21,0.831,0.328,1.27,0.328
		c0.439,0,0.873-0.118,1.271-0.328l7.876,7.876c-0.421,0.795-0.421,1.746,0,2.541l-7.876,7.876
		C258.068,152.898,257.117,152.897,256.322,153.319z M247.13,162.325l-7.69-7.69l7.69-7.69l7.69,7.69L247.13,162.325z
		 M235.398,153.319l-7.876-7.876c0.421-0.795,0.421-1.746,0-2.541l7.876-7.876c0.398,0.21,0.831,0.328,1.27,0.328
		c0.439,0,0.873-0.118,1.271-0.328l7.876,7.876c-0.421,0.795-0.421,1.746,0,2.541l-7.876,7.876
		C237.144,152.898,236.193,152.897,235.398,153.319z M226.206,162.325l-7.69-7.69l7.69-7.69l7.69,7.69L226.206,162.325z
		 M214.473,153.319l-7.876-7.876c0.421-0.795,0.421-1.746,0-2.541l7.876-7.876c0.398,0.21,0.832,0.328,1.27,0.328
		c0.439,0,0.873-0.118,1.271-0.328l7.876,7.876c-0.421,0.795-0.421,1.746,0,2.541l-7.876,7.876
		C216.22,152.898,215.268,152.897,214.473,153.319z M205.282,162.325l-7.69-7.69l7.69-7.69l7.69,7.69L205.282,162.325z
		 M193.549,153.319l-7.876-7.876c0.421-0.795,0.421-1.746,0-2.541l7.876-7.876c0.397,0.21,0.831,0.328,1.27,0.328
		c0.439,0,0.873-0.118,1.271-0.328l7.876,7.876c-0.421,0.795-0.421,1.746,0,2.541l-7.876,7.876
		C195.295,152.898,194.344,152.897,193.549,153.319z M184.357,162.325l-7.69-7.69l7.69-7.69l7.69,7.69L184.357,162.325z
		 M172.625,153.319l-7.876-7.876c0.421-0.795,0.421-1.746,0-2.541l7.876-7.876c0.398,0.21,0.831,0.328,1.27,0.328
		c0.439,0,0.873-0.118,1.271-0.328l7.876,7.876c-0.421,0.795-0.421,1.746,0,2.541l-7.876,7.876
		C174.371,152.898,173.42,152.897,172.625,153.319z M163.433,162.325l-7.69-7.69l7.69-7.69l7.69,7.69L163.433,162.325z
		 M151.701,153.319l-7.876-7.876c0.421-0.795,0.421-1.746,0-2.541l7.876-7.876c0.398,0.21,0.831,0.328,1.27,0.328
		c0.439,0,0.873-0.118,1.271-0.328l7.876,7.876c-0.421,0.795-0.421,1.746,0,2.541l-7.876,7.876
		C153.447,152.898,152.496,152.897,151.701,153.319z M142.509,162.325l-7.69-7.69l7.69-7.69l7.69,7.69L142.509,162.325z
		 M130.776,153.319l-7.876-7.876c0.421-0.795,0.421-1.746,0-2.541l7.876-7.876c0.398,0.21,0.832,0.328,1.27,0.328
		c0.439,0,0.873-0.118,1.271-0.328l7.876,7.876c-0.421,0.795-0.421,1.746,0,2.541l-7.876,7.876
		C132.523,152.898,131.571,152.897,130.776,153.319z M121.584,162.325l-7.69-7.69l7.69-7.69l7.69,7.69L121.584,162.325z
		 M109.852,153.319l-7.876-7.876c0.421-0.795,0.421-1.746,0-2.541l7.876-7.876c0.397,0.21,0.831,0.328,1.27,0.328
		c0.439,0,0.873-0.118,1.271-0.328l7.876,7.876c-0.421,0.795-0.421,1.746,0,2.541l-7.876,7.876
		C111.598,152.898,110.647,152.897,109.852,153.319z M100.66,162.325l-7.69-7.69l7.69-7.69l7.69,7.69L100.66,162.325z
		 M88.928,153.319l-7.876-7.876c0.421-0.795,0.421-1.746,0-2.541l7.876-7.876c0.397,0.21,0.831,0.328,1.27,0.328
		c0.439,0,0.873-0.118,1.271-0.328l7.876,7.876c-0.421,0.795-0.421,1.746,0,2.541l-7.876,7.876
		C90.674,152.898,89.723,152.897,88.928,153.319z M79.736,162.325l-7.69-7.69l7.69-7.69l7.69,7.69L79.736,162.325z M79.736,105.096
		l7.69,7.69l-7.69,7.69l-7.69-7.69L79.736,105.096z M94.488,96.197l4.856,4.857c-0.421,0.795-0.421,1.746,0,2.541l-7.876,7.876
		c-0.794-0.421-1.746-0.422-2.541,0l-7.876-7.876c0.421-0.795,0.421-1.746,0-2.541l4.856-4.857H94.488z M115.412,96.197l4.856,4.857
		c-0.421,0.795-0.421,1.746,0,2.541l-7.876,7.876c-0.794-0.421-1.746-0.422-2.541,0l-7.876-7.876c0.421-0.795,0.421-1.746,0-2.541
		l4.856-4.857H115.412z M136.336,96.197l4.856,4.857c-0.421,0.795-0.421,1.746,0,2.541l-7.876,7.876
		c-0.794-0.421-1.746-0.422-2.541,0l-7.876-7.876c0.421-0.795,0.421-1.746,0-2.541l4.856-4.857H136.336z M157.26,96.197l4.856,4.857
		c-0.421,0.795-0.421,1.746,0,2.541l-7.876,7.876c-0.794-0.421-1.746-0.422-2.541,0l-7.876-7.876c0.421-0.795,0.421-1.746,0-2.541
		l4.856-4.857H157.26z M178.185,96.197l4.856,4.857c-0.421,0.795-0.421,1.746,0,2.541l-7.876,7.876
		c-0.794-0.421-1.746-0.422-2.541,0l-7.876-7.876c0.421-0.795,0.421-1.746,0-2.541l4.856-4.857H178.185z M199.109,96.197
		l4.856,4.857c-0.421,0.795-0.421,1.746,0,2.541l-7.876,7.876c-0.794-0.421-1.746-0.422-2.541,0l-7.876-7.876
		c0.421-0.795,0.421-1.746,0-2.541l4.856-4.857H199.109z M220.033,96.197l4.857,4.857c-0.421,0.795-0.421,1.746,0,2.541
		l-7.876,7.876c-0.794-0.421-1.746-0.422-2.541,0l-7.876-7.876c0.421-0.795,0.421-1.746,0-2.541l4.857-4.857H220.033z
		 M240.958,96.197l4.856,4.857c-0.421,0.795-0.421,1.746,0,2.541l-7.876,7.876c-0.794-0.421-1.746-0.422-2.541,0l-7.876-7.876
		c0.421-0.795,0.421-1.746,0-2.541l4.856-4.857H240.958z M261.882,96.197l4.856,4.857c-0.421,0.795-0.421,1.746,0,2.541
		l-7.876,7.876c-0.794-0.421-1.746-0.422-2.541,0l-7.876-7.876c0.421-0.795,0.421-1.746,0-2.541l4.856-4.857H261.882z
		 M282.806,96.197l4.856,4.857c-0.421,0.795-0.421,1.746,0,2.541l-7.876,7.876c-0.794-0.421-1.746-0.422-2.541,0l-7.876-7.876
		c0.421-0.795,0.421-1.746,0-2.541l4.857-4.857H282.806z M303.731,96.197l4.856,4.857c-0.421,0.795-0.421,1.746,0,2.541
		l-7.876,7.876c-0.794-0.421-1.746-0.422-2.541,0l-7.876-7.876c0.421-0.795,0.421-1.746,0-2.541l4.856-4.857H303.731z
		 M324.655,96.197l4.856,4.857c-0.421,0.795-0.421,1.746,0,2.541l-7.876,7.876c-0.794-0.421-1.746-0.422-2.541,0l-7.876-7.876
		c0.421-0.795,0.421-1.746,0-2.541l4.856-4.857H324.655z M345.579,96.197l4.857,4.857c-0.421,0.795-0.421,1.746,0,2.541
		l-7.876,7.876c-0.794-0.421-1.746-0.422-2.541,0l-7.876-7.876c0.421-0.795,0.421-1.746,0-2.541L337,96.197H345.579z
		 M359.442,112.786l-7.69,7.69l-7.69-7.69l7.69-7.69L359.442,112.786z M351.752,141.4l-7.69-7.69l7.69-7.69l7.69,7.69L351.752,141.4
		z M340.019,132.394l-7.876-7.876c0.421-0.795,0.421-1.746,0-2.541l7.876-7.876c0.398,0.21,0.831,0.328,1.27,0.328
		c0.439,0,0.873-0.118,1.271-0.328l7.876,7.876c-0.421,0.795-0.421,1.746,0,2.541l-7.876,7.876
		C341.765,131.973,340.814,131.973,340.019,132.394z M330.827,141.4l-7.69-7.69l7.69-7.69l7.69,7.69L330.827,141.4z
		 M319.095,132.394l-7.876-7.876c0.421-0.795,0.421-1.746,0-2.541l7.876-7.876c0.397,0.21,0.831,0.328,1.27,0.328
		c0.439,0,0.873-0.118,1.271-0.328l7.876,7.876c-0.421,0.795-0.421,1.746,0,2.541l-7.876,7.876
		C320.841,131.973,319.89,131.973,319.095,132.394z M309.903,141.4l-7.69-7.69l7.69-7.69l7.69,7.69L309.903,141.4z M298.171,132.394
		l-7.876-7.876c0.421-0.795,0.421-1.746,0-2.541l7.876-7.876c0.398,0.21,0.832,0.328,1.27,0.328c0.439,0,0.873-0.118,1.271-0.328
		l7.876,7.876c-0.421,0.795-0.421,1.746,0,2.541l-7.876,7.876C299.917,131.973,298.966,131.973,298.171,132.394z M288.979,141.4
		l-7.69-7.69l7.69-7.69l7.69,7.69L288.979,141.4z M277.246,132.394l-7.876-7.876c0.421-0.795,0.421-1.746,0-2.541l7.876-7.876
		c0.397,0.21,0.832,0.328,1.27,0.328c0.439,0,0.873-0.118,1.271-0.328l7.876,7.876c-0.421,0.795-0.421,1.746,0,2.541l-7.876,7.876
		C278.993,131.973,278.041,131.973,277.246,132.394z M268.054,141.4l-7.69-7.69l7.69-7.69l7.69,7.69L268.054,141.4z
		 M256.322,132.394l-7.876-7.876c0.421-0.795,0.421-1.746,0-2.541l7.876-7.876c0.397,0.21,0.831,0.328,1.27,0.328
		c0.439,0,0.873-0.118,1.271-0.328l7.876,7.876c-0.421,0.795-0.421,1.746,0,2.541l-7.876,7.876
		C258.068,131.973,257.117,131.973,256.322,132.394z M247.13,141.4l-7.69-7.69l7.69-7.69l7.69,7.69L247.13,141.4z M235.398,132.394
		l-7.876-7.876c0.421-0.795,0.421-1.746,0-2.541l7.876-7.876c0.398,0.21,0.831,0.328,1.27,0.328c0.439,0,0.873-0.118,1.271-0.328
		l7.876,7.876c-0.421,0.795-0.421,1.746,0,2.541l-7.876,7.876C237.144,131.973,236.193,131.973,235.398,132.394z M226.206,141.4
		l-7.69-7.69l7.69-7.69l7.69,7.69L226.206,141.4z M214.473,132.394l-7.876-7.876c0.421-0.795,0.421-1.746,0-2.541l7.876-7.876
		c0.398,0.21,0.832,0.328,1.27,0.328c0.439,0,0.873-0.118,1.271-0.328l7.876,7.876c-0.421,0.795-0.421,1.746,0,2.541l-7.876,7.876
		C216.22,131.973,215.268,131.973,214.473,132.394z M205.282,141.4l-7.69-7.69l7.69-7.69l7.69,7.69L205.282,141.4z M193.549,132.394
		l-7.876-7.876c0.421-0.795,0.421-1.746,0-2.541l7.876-7.876c0.397,0.21,0.831,0.328,1.27,0.328c0.439,0,0.873-0.118,1.271-0.328
		l7.876,7.876c-0.421,0.795-0.421,1.746,0,2.541l-7.876,7.876C195.295,131.973,194.344,131.973,193.549,132.394z M184.357,141.4
		l-7.69-7.69l7.69-7.69l7.69,7.69L184.357,141.4z M172.625,132.394l-7.876-7.876c0.421-0.795,0.421-1.746,0-2.541l7.876-7.876
		c0.398,0.21,0.831,0.328,1.27,0.328c0.439,0,0.873-0.118,1.271-0.328l7.876,7.876c-0.421,0.795-0.421,1.746,0,2.541l-7.876,7.876
		C174.371,131.973,173.42,131.973,172.625,132.394z M163.433,141.4l-7.69-7.69l7.69-7.69l7.69,7.69L163.433,141.4z M151.701,132.394
		l-7.876-7.876c0.421-0.795,0.421-1.746,0-2.541l7.876-7.876c0.398,0.21,0.831,0.328,1.27,0.328c0.439,0,0.873-0.118,1.271-0.328
		l7.876,7.876c-0.421,0.795-0.421,1.746,0,2.541l-7.876,7.876C153.447,131.973,152.496,131.973,151.701,132.394z M142.509,141.4
		l-7.69-7.69l7.69-7.69l7.69,7.69L142.509,141.4z M130.776,132.394l-7.876-7.876c0.421-0.795,0.421-1.746,0-2.541l7.876-7.876
		c0.398,0.21,0.832,0.328,1.27,0.328c0.439,0,0.873-0.118,1.271-0.328l7.876,7.876c-0.421,0.795-0.421,1.746,0,2.541l-7.876,7.876
		C132.523,131.973,131.571,131.973,130.776,132.394z M121.584,141.4l-7.69-7.69l7.69-7.69l7.69,7.69L121.584,141.4z
		 M109.852,132.394l-7.876-7.876c0.421-0.795,0.421-1.746,0-2.541l7.876-7.876c0.397,0.21,0.831,0.328,1.27,0.328
		c0.439,0,0.873-0.118,1.271-0.328l7.876,7.876c-0.421,0.795-0.421,1.746,0,2.541l-7.876,7.876
		C111.598,131.973,110.647,131.973,109.852,132.394z M100.66,141.4l-7.69-7.69l7.69-7.69l7.69,7.69L100.66,141.4z M88.928,132.394
		l-7.876-7.876c0.421-0.795,0.421-1.746,0-2.541l7.876-7.876c0.397,0.21,0.831,0.328,1.27,0.328c0.439,0,0.873-0.118,1.271-0.328
		l7.876,7.876c-0.421,0.795-0.421,1.746,0,2.541l-7.876,7.876C90.674,131.973,89.723,131.973,88.928,132.394z M338.517,112.786
		l-7.69,7.69l-7.69-7.69l7.69-7.69L338.517,112.786z M317.593,112.786l-7.69,7.69l-7.69-7.69l7.69-7.69L317.593,112.786z
		 M296.669,112.786l-7.69,7.69l-7.69-7.69l7.69-7.69L296.669,112.786z M275.744,112.786l-7.69,7.69l-7.69-7.69l7.69-7.69
		L275.744,112.786z M254.82,112.786l-7.69,7.69l-7.69-7.69l7.69-7.69L254.82,112.786z M233.896,112.786l-7.69,7.69l-7.69-7.69
		l7.69-7.69L233.896,112.786z M212.972,112.786l-7.69,7.69l-7.69-7.69l7.69-7.69L212.972,112.786z M192.047,112.786l-7.69,7.69
		l-7.69-7.69l7.69-7.69L192.047,112.786z M171.123,112.786l-7.69,7.69l-7.69-7.69l7.69-7.69L171.123,112.786z M150.199,112.786
		l-7.69,7.69l-7.69-7.69l7.69-7.69L150.199,112.786z M129.274,112.786l-7.69,7.69l-7.69-7.69l7.69-7.69L129.274,112.786z
		 M108.35,112.786l-7.69,7.69l-7.69-7.69l7.69-7.69L108.35,112.786z M79.736,126.02l7.69,7.69l-7.69,7.69l-7.69-7.69L79.736,126.02z
		 M351.752,99.552l-3.354-3.355h6.709L351.752,99.552z M330.827,99.552l-3.354-3.355h6.709L330.827,99.552z M309.903,99.552
		l-3.355-3.355h6.709L309.903,99.552z M288.979,99.552l-3.355-3.355h6.709L288.979,99.552z M268.054,99.552l-3.355-3.355h6.709
		L268.054,99.552z M247.13,99.552l-3.355-3.355h6.709L247.13,99.552z M226.206,99.552l-3.355-3.355h6.709L226.206,99.552z
		 M205.282,99.552l-3.355-3.355h6.709L205.282,99.552z M184.357,99.552l-3.355-3.355h6.709L184.357,99.552z M163.433,99.552
		l-3.355-3.355h6.709L163.433,99.552z M142.509,99.552l-3.355-3.355h6.709L142.509,99.552z M121.584,99.552l-3.355-3.355h6.709
		L121.584,99.552z M100.66,99.552l-3.355-3.355h6.709L100.66,99.552z M79.736,99.552l-3.355-3.355h6.709L79.736,99.552z
		 M79.736,167.869l2.731,2.731h-5.461L79.736,167.869z M100.66,167.869l2.731,2.731H97.93L100.66,167.869z M121.584,167.869
		l2.731,2.731h-5.461L121.584,167.869z M142.509,167.869l2.731,2.731h-5.461L142.509,167.869z M163.433,167.869l2.731,2.731h-5.461
		L163.433,167.869z M184.357,167.869l2.731,2.731h-5.461L184.357,167.869z M205.282,167.869l2.731,2.731h-5.461L205.282,167.869z
		 M226.206,167.869l2.731,2.731h-5.461L226.206,167.869z M247.13,167.869l2.731,2.731H244.4L247.13,167.869z M268.054,167.869
		l2.731,2.731h-5.461L268.054,167.869z M288.979,167.869l2.731,2.731h-5.461L288.979,167.869z M309.903,167.869l2.731,2.731h-5.461
		L309.903,167.869z M330.827,167.869l2.731,2.731h-5.461L330.827,167.869z M351.752,167.869l2.731,2.731h-5.461L351.752,167.869z
		 M372.676,167.869l2.731,2.731h-5.461L372.676,167.869z M372.676,162.325l-7.69-7.69l7.69-7.69l7.69,7.69L372.676,162.325z
		 M372.676,141.4l-7.69-7.69l7.69-7.69l7.69,7.69L372.676,141.4z M372.676,120.476l-7.69-7.69l7.69-7.69l7.69,7.69L372.676,120.476z
		 M372.676,99.552l-3.355-3.355h6.709L372.676,99.552z M355.153,87.573h-6.802l3.401-3.401L355.153,87.573z M334.228,87.573h-6.802
		l3.401-3.401L334.228,87.573z M313.304,87.573h-6.802l3.401-3.401L313.304,87.573z M292.38,87.573h-6.802l3.401-3.401
		L292.38,87.573z M271.455,87.573h-6.802l3.401-3.401L271.455,87.573z M250.531,87.573h-6.802l3.401-3.401L250.531,87.573z
		 M229.607,87.573h-6.802l3.401-3.401L229.607,87.573z M208.683,87.573h-6.802l3.401-3.401L208.683,87.573z M187.758,87.573h-6.802
		l3.401-3.401L187.758,87.573z M166.834,87.573h-6.802l3.401-3.401L166.834,87.573z M145.91,87.573h-6.802l3.401-3.401
		L145.91,87.573z M124.985,87.573h-6.802l3.401-3.401L124.985,87.573z M104.061,87.573h-6.802l3.401-3.401L104.061,87.573z
		 M83.137,87.573h-6.802l3.401-3.401L83.137,87.573z M62.166,96.197l-3.355,3.355l-3.355-3.355H62.166z M58.812,105.096l7.69,7.69
		l-7.69,7.69l-7.69-7.69L58.812,105.096z M58.812,126.02l7.69,7.69l-7.69,7.69l-7.69-7.69L58.812,126.02z M58.812,146.945l7.69,7.69
		l-7.69,7.69l-7.69-7.69L58.812,146.945z M58.812,167.869l2.731,2.731h-5.461L58.812,167.869z M384.408,153.319
		c-0.794-0.421-1.746-0.422-2.541,0l-7.876-7.876c0.421-0.795,0.421-1.746,0-2.541l7.876-7.876c0.397,0.21,0.832,0.328,1.27,0.328
		c0.439,0,0.873-0.118,1.271-0.328l7.876,7.876c-0.421,0.795-0.421,1.746,0,2.541L384.408,153.319z M392.284,124.519l-7.876,7.876
		c-0.794-0.421-1.746-0.422-2.541,0l-7.876-7.876c0.421-0.795,0.421-1.746,0-2.541l7.876-7.876c0.397,0.21,0.832,0.328,1.27,0.328
		c0.439,0,0.873-0.118,1.271-0.328l7.876,7.876C391.863,122.773,391.863,123.724,392.284,124.519z M380.366,70.937l-7.69,7.69
		l-7.69-7.69l7.69-7.69L380.366,70.937z M359.442,70.937l-7.69,7.69l-7.69-7.69l7.69-7.69L359.442,70.937z M338.517,70.937
		l-7.69,7.69l-7.69-7.69l7.69-7.69L338.517,70.937z M317.593,70.937l-7.69,7.69l-7.69-7.69l7.69-7.69L317.593,70.937z
		 M296.669,70.937l-7.69,7.69l-7.69-7.69l7.69-7.69L296.669,70.937z M275.744,70.937l-7.69,7.69l-7.69-7.69l7.69-7.69
		L275.744,70.937z M254.82,70.937l-7.69,7.69l-7.69-7.69l7.69-7.69L254.82,70.937z M233.896,70.937l-7.69,7.69l-7.69-7.69l7.69-7.69
		L233.896,70.937z M212.972,70.937l-7.69,7.69l-7.69-7.69l7.69-7.69L212.972,70.937z M192.047,70.937l-7.69,7.69l-7.69-7.69
		l7.69-7.69L192.047,70.937z M171.123,70.937l-7.69,7.69l-7.69-7.69l7.69-7.69L171.123,70.937z M150.199,70.937l-7.69,7.69
		l-7.69-7.69l7.69-7.69L150.199,70.937z M129.274,70.937l-7.69,7.69l-7.69-7.69l7.69-7.69L129.274,70.937z M108.35,70.937
		l-7.69,7.69l-7.69-7.69l7.69-7.69L108.35,70.937z M87.426,70.937l-7.69,7.69l-7.69-7.69l7.69-7.69L87.426,70.937z M66.501,70.937
		l-7.69,7.69l-7.69-7.69l7.69-7.69L66.501,70.937z M47.079,114.102c0.397,0.21,0.831,0.328,1.27,0.328
		c0.439,0,0.873-0.118,1.271-0.328l7.876,7.876c-0.421,0.795-0.421,1.746,0,2.541l-7.876,7.876c-0.794-0.421-1.746-0.422-2.541,0
		l-7.876-7.876c0.421-0.795,0.421-1.746,0-2.541L47.079,114.102z M39.203,142.902l7.876-7.876c0.397,0.21,0.831,0.328,1.27,0.328
		c0.439,0,0.873-0.118,1.271-0.328l7.876,7.876c-0.421,0.795-0.421,1.746,0,2.541l-7.876,7.876c-0.794-0.421-1.746-0.422-2.541,0
		l-7.876-7.876C39.625,144.648,39.625,143.697,39.203,142.902z M394.568,170.6h-3.699l2.731-2.731l2.731,2.731H394.568z
		 M393.6,162.325l-7.69-7.69l7.69-7.69l7.69,7.69L393.6,162.325z M413.877,140.753l-7.043-7.043l7.043-7.043V140.753z
		 M413.877,119.829l-7.043-7.043l7.043-7.043V119.829z M393.6,120.476l-7.69-7.69l7.69-7.69l7.69,7.69L393.6,120.476z M393.6,99.552
		l-3.355-3.355h2.795h3.914L393.6,99.552z M393.041,87.573h-2.841l3.401-3.401l3.401,3.401H393.041z M393.6,78.627l-7.69-7.69
		l7.69-7.69l7.69,7.69L393.6,78.627z M380.366,50.013l-7.69,7.69l-7.69-7.69l7.69-7.69L380.366,50.013z M359.442,50.013l-7.69,7.69
		l-7.69-7.69l7.69-7.69L359.442,50.013z M338.517,50.013l-7.69,7.69l-7.69-7.69l7.69-7.69L338.517,50.013z M317.593,50.013
		l-7.69,7.69l-7.69-7.69l7.69-7.69L317.593,50.013z M296.669,50.013l-7.69,7.69l-7.69-7.69l7.69-7.69L296.669,50.013z
		 M275.744,50.013l-7.69,7.69l-7.69-7.69l7.69-7.69L275.744,50.013z M254.82,50.013l-7.69,7.69l-7.69-7.69l7.69-7.69L254.82,50.013z
		 M233.896,50.013l-7.69,7.69l-7.69-7.69l7.69-7.69L233.896,50.013z M212.972,50.013l-7.69,7.69l-7.69-7.69l7.69-7.69
		L212.972,50.013z M192.047,50.013l-7.69,7.69l-7.69-7.69l7.69-7.69L192.047,50.013z M171.123,50.013l-7.69,7.69l-7.69-7.69
		l7.69-7.69L171.123,50.013z M150.199,50.013l-7.69,7.69l-7.69-7.69l7.69-7.69L150.199,50.013z M129.274,50.013l-7.69,7.69
		l-7.69-7.69l7.69-7.69L129.274,50.013z M108.35,50.013l-7.69,7.69l-7.69-7.69l7.69-7.69L108.35,50.013z M87.426,50.013l-7.69,7.69
		l-7.69-7.69l7.69-7.69L87.426,50.013z M66.501,50.013l-7.69,7.69l-7.69-7.69l7.69-7.69L66.501,50.013z M37.887,63.248l7.69,7.69
		l-7.69,7.69l-7.69-7.69L37.887,63.248z M37.887,84.172l3.401,3.401h-5.856h-0.946L37.887,84.172z M35.432,96.197h5.81l-3.355,3.355
		l-3.355-3.355H35.432z M37.887,105.096l7.69,7.69l-7.69,7.69l-7.69-7.69L37.887,105.096z M17.61,126.668l7.043,7.043l-7.043,7.043
		V126.668z M17.61,147.592l7.043,7.043l-7.043,7.043V147.592z M37.887,146.945l7.69,7.69l-7.69,7.69l-7.69-7.69L37.887,146.945z
		 M37.887,167.869l2.731,2.731H36.96h-1.803L37.887,167.869z M36.96,179.224h4.953l-4.025,4.025l-4.025-4.025H36.96z
		 M385.91,196.483l7.69-7.69l7.69,7.69l-7.69,7.69L385.91,196.483z M413.877,203.526l-7.043-7.043l7.043-7.043V203.526z
		 M413.877,186.622l-8.545,8.545c-0.794-0.421-1.746-0.422-2.541,0l-7.876-7.876c0.421-0.795,0.421-1.746,0-2.541l5.527-5.527h7.238
		l6.196,6.196V186.622z M399.149,170.6l-4.233-4.232c0.421-0.795,0.421-1.746,0-2.541l7.876-7.876
		c0.398,0.21,0.832,0.328,1.27,0.328c0.439,0,0.873-0.118,1.271-0.328l8.545,8.545v1.203l-4.901,4.901H399.149z M413.877,102.925
		l-8.545,8.545c-0.794-0.421-1.746-0.422-2.541,0l-7.876-7.876c0.421-0.795,0.421-1.746,0-2.541l4.857-4.857h8.579l5.525,5.525
		V102.925z M399.819,87.573l-4.903-4.903c0.421-0.795,0.421-1.746,0-2.541l7.876-7.876c0.398,0.21,0.832,0.328,1.27,0.328
		c0.439,0,0.873-0.118,1.271-0.328l8.545,8.545v1.203l-5.572,5.572H399.819z M413.877,40.152l-8.545,8.545
		c-0.794-0.421-1.746-0.422-2.541,0l-7.876-7.876c0.421-0.795,0.421-1.746,0-2.541l7.876-7.876c0.398,0.21,0.832,0.328,1.27,0.328
		c0.439,0,0.873-0.118,1.271-0.328l8.545,8.545V40.152z M26.155,30.405c0.397,0.21,0.831,0.328,1.27,0.328
		c0.439,0,0.873-0.118,1.271-0.328l7.876,7.876c-0.421,0.795-0.421,1.746,0,2.541l-7.876,7.876c-0.794-0.421-1.746-0.422-2.541,0
		l-8.545-8.545V38.95L26.155,30.405z M17.61,80.798l8.545-8.545c0.397,0.21,0.831,0.328,1.27,0.328c0.439,0,0.873-0.118,1.271-0.328
		l7.876,7.876c-0.421,0.795-0.421,1.746,0,2.541l-4.903,4.903h-8.486l-5.572-5.572V80.798z M31.715,96.197l4.856,4.857
		c-0.421,0.795-0.421,1.746,0,2.541l-7.876,7.876c-0.794-0.421-1.746-0.422-2.541,0l-8.545-8.545v-1.203l5.525-5.525H31.715z
		 M17.61,164.495l8.545-8.545c0.397,0.21,0.831,0.328,1.27,0.328c0.439,0,0.873-0.118,1.271-0.328l7.876,7.876
		c-0.421,0.795-0.421,1.746,0,2.541l-4.232,4.232h-9.827l-4.901-4.901V164.495z M31.044,179.224l5.527,5.527
		c-0.421,0.795-0.421,1.746,0,2.541l-7.876,7.876c-0.794-0.421-1.746-0.422-2.541,0l-8.545-8.545v-1.203l6.196-6.196H31.044z
		 M30.197,217.408l7.69-7.69l7.69,7.69l-7.69,7.69L30.197,217.408z M58.812,230.642l6.717,6.717H52.095L58.812,230.642z
		 M79.736,230.642l6.717,6.717H73.019L79.736,230.642z M100.66,230.642l6.717,6.717H93.943L100.66,230.642z M121.584,230.642
		l6.717,6.717h-13.433L121.584,230.642z M142.509,230.642l6.717,6.717h-13.433L142.509,230.642z M163.433,230.642l6.717,6.717
		h-13.433L163.433,230.642z M184.357,230.642l6.717,6.717h-13.433L184.357,230.642z M205.282,230.642l6.717,6.717h-13.433
		L205.282,230.642z M226.206,230.642l6.717,6.717h-13.433L226.206,230.642z M247.13,230.642l6.717,6.717h-13.433L247.13,230.642z
		 M268.054,230.642l6.717,6.717h-13.433L268.054,230.642z M288.979,230.642l6.717,6.717h-13.433L288.979,230.642z M309.903,230.642
		l6.717,6.717h-13.433L309.903,230.642z M330.827,230.642l6.717,6.717h-13.433L330.827,230.642z M351.752,230.642l6.717,6.717
		h-13.433L351.752,230.642z M372.676,230.642l6.717,6.717h-13.433L372.676,230.642z M385.91,217.408l7.69-7.69l7.69,7.69l-7.69,7.69
		L385.91,217.408z M413.877,182.602l-3.378-3.378h3.378V182.602z M411.794,170.6l2.083-2.083v2.083H411.794z M413.877,98.905
		l-2.708-2.708h2.708V98.905z M411.123,87.573l2.754-2.754v2.754H411.123z M413.877,36.132l-7.043-7.043l0.647-0.647h6.396V36.132z
		 M24.006,28.442l0.647,0.647l-7.043,7.043v-7.69H24.006z M17.61,84.819l2.754,2.754H17.61V84.819z M20.318,96.197l-2.707,2.707
		v-2.707H20.318z M17.61,168.516l2.083,2.083H17.61V168.516z M20.988,179.224l-3.378,3.378v-3.378H20.988z M17.61,231.289l6.07,6.07
		h-6.07V231.289z M31.171,237.359l6.717-6.717l6.717,6.717H36.96H31.171z M386.883,237.359l6.717-6.717l6.717,6.717h-5.749H386.883z
		 M407.808,237.359l6.07-6.07v6.07H407.808z"/>
</g>
<g id="Layer_1">
</g>
</svg>
