<?xml version="1.0" encoding="iso-8859-1"?>
<!-- Generator: Adobe Illustrator 24.3.0, SVG Export Plug-In . SVG Version: 6.00 Build 0)  -->
<svg version="1.1" xmlns="http://www.w3.org/2000/svg" xmlns:xlink="http://www.w3.org/1999/xlink" x="0px" y="0px"
	 viewBox="0 0 430 239.182" style="enable-background:new 0 0 430 239.182;" xml:space="preserve">
<g id="chain-link-fence-pattern-2">
	<path d="M426.888,190.67V68.724h2.163c1.266-3.14,1.266-6.281,0-9.421h-2.163V24.516V1.794c-3.797-2.392-7.594-2.392-11.391,0
		v22.722v5.863h-7.288V23.91c-1.898-2.169-3.797-2.169-5.695,0v2.856l-3.613,3.614h-9.742l-3.842-3.842
		c0.519-0.979,0.379-2.219-0.445-3.042l-0.809,0.809l-0.809-0.809c-0.824,0.824-0.964,2.063-0.445,3.042l-3.842,3.842h-9.743
		l-3.842-3.842c0.519-0.979,0.379-2.219-0.445-3.042l-0.809,0.809l-0.809-0.809c-0.824,0.824-0.964,2.063-0.445,3.042l-3.842,3.842
		h-9.743l-3.842-3.842c0.519-0.979,0.379-2.219-0.445-3.042l-0.809,0.809l-0.809-0.809c-0.824,0.824-0.964,2.063-0.445,3.042
		l-3.842,3.842h-9.743l-3.842-3.842c0.519-0.979,0.379-2.219-0.445-3.042l-0.809,0.809l-0.809-0.809
		c-0.824,0.824-0.964,2.063-0.445,3.042l-3.842,3.842h-9.743l-3.842-3.842c0.519-0.979,0.379-2.219-0.445-3.042l-0.809,0.809
		l-0.809-0.809c-0.824,0.824-0.964,2.063-0.445,3.042l-3.842,3.842h-9.742l-3.842-3.842c0.519-0.979,0.379-2.219-0.445-3.042
		l-0.809,0.809l-0.809-0.809c-0.824,0.824-0.964,2.063-0.445,3.042l-3.842,3.842h-9.743l-3.842-3.842
		c0.519-0.979,0.379-2.219-0.445-3.042l-0.809,0.809l-0.809-0.809c-0.824,0.824-0.964,2.063-0.445,3.042l-3.842,3.842h-9.743
		l-3.842-3.842c0.519-0.979,0.379-2.219-0.445-3.042l-0.809,0.809l-0.809-0.809c-0.824,0.824-0.964,2.063-0.445,3.042l-3.842,3.842
		h-9.742l-3.842-3.842c0.519-0.979,0.379-2.219-0.445-3.042l-0.809,0.809l-0.809-0.809c-0.824,0.824-0.964,2.063-0.445,3.042
		l-3.842,3.842h-9.743l-3.842-3.842c0.519-0.979,0.379-2.219-0.445-3.042l-0.809,0.809l-0.809-0.809
		c-0.824,0.824-0.964,2.063-0.445,3.042l-3.842,3.842h-9.743l-3.842-3.842c0.519-0.979,0.379-2.219-0.445-3.042l-0.809,0.809
		l-0.809-0.809c-0.824,0.824-0.964,2.063-0.445,3.042l-3.842,3.842h-9.743l-3.842-3.842c0.519-0.979,0.379-2.219-0.445-3.042
		l-0.809,0.809l-0.809-0.809c-0.824,0.824-0.964,2.063-0.445,3.042l-3.842,3.842h-9.743l-3.842-3.842
		c0.519-0.979,0.379-2.219-0.445-3.042l-0.809,0.809l-0.809-0.809c-0.824,0.824-0.964,2.063-0.445,3.042l-3.842,3.842h-9.742
		l-3.842-3.842c0.519-0.979,0.379-2.219-0.445-3.042l-0.809,0.809l-0.809-0.809c-0.824,0.824-0.964,2.063-0.445,3.042l-3.842,3.842
		h-9.743l-3.842-3.842c0.519-0.979,0.379-2.219-0.445-3.042l-0.809,0.809l-0.809-0.809c-0.824,0.824-0.964,2.063-0.445,3.042
		l-3.842,3.842h-9.743l-3.842-3.842c0.519-0.979,0.379-2.219-0.445-3.042l-0.809,0.809l-0.809-0.809
		c-0.824,0.824-0.964,2.063-0.445,3.042l-3.842,3.842h-9.743l-3.842-3.842c0.519-0.979,0.379-2.219-0.445-3.042l-0.809,0.809
		l-0.809-0.809c-0.824,0.824-0.964,2.063-0.445,3.042l-3.842,3.842h-9.743l-3.842-3.842c0.519-0.979,0.379-2.219-0.445-3.042
		l-0.809,0.809l-0.809-0.809c-0.824,0.824-0.964,2.063-0.445,3.042l-3.842,3.842H30.35l-2.864-2.864V23.91
		c-1.898-2.169-3.797-2.169-5.695,0v6.469h-7.288v-5.863V1.794c-3.797-2.392-7.594-2.392-11.391,0v22.722v34.787H0.949
		c-1.266,3.14-1.266,6.281,0,9.421h2.163V190.67H0.949c-1.266,3.14-1.266,6.281,0,9.421h2.163v14.575v22.722
		c3.797,2.392,7.594,2.392,11.391,0v-22.722v-14.575h7.288v16.859v20.605c1.898,2.169,3.797,2.169,5.695,0v-8.018l5.903,5.904
		c0.505,0.505,1.169,0.757,1.833,0.757c0.663,0,1.326-0.252,1.832-0.757l8.135-8.135l8.135,8.135
		c0.505,0.505,1.169,0.757,1.833,0.757c0.663,0,1.326-0.252,1.832-0.757l8.135-8.135l8.135,8.135
		c0.505,0.505,1.169,0.757,1.833,0.757c0.663,0,1.326-0.252,1.832-0.757l8.135-8.135l8.135,8.135
		c0.505,0.505,1.169,0.757,1.833,0.757c0.663,0,1.326-0.252,1.832-0.757l8.135-8.135l8.135,8.135
		c0.505,0.505,1.169,0.757,1.833,0.757c0.663,0,1.326-0.252,1.832-0.757l8.135-8.135l8.135,8.135
		c0.505,0.505,1.169,0.757,1.833,0.757c0.663,0,1.326-0.252,1.832-0.757l8.135-8.135l8.135,8.135
		c0.505,0.505,1.169,0.757,1.833,0.757c0.663,0,1.327-0.252,1.832-0.757l8.135-8.135l8.135,8.135
		c0.505,0.505,1.169,0.757,1.833,0.757c0.663,0,1.327-0.252,1.832-0.757l8.135-8.135l8.135,8.135
		c0.505,0.505,1.169,0.757,1.833,0.757c0.663,0,1.326-0.252,1.832-0.757l8.135-8.135l8.135,8.135
		c0.505,0.505,1.169,0.757,1.833,0.757c0.663,0,1.326-0.252,1.832-0.757l8.135-8.135l8.135,8.135
		c0.505,0.505,1.169,0.757,1.833,0.757c0.663,0,1.326-0.252,1.832-0.757l8.135-8.135l8.135,8.135
		c0.505,0.505,1.169,0.757,1.833,0.757c0.663,0,1.327-0.252,1.832-0.757l8.135-8.135l8.135,8.135
		c0.505,0.505,1.169,0.757,1.833,0.757c0.663,0,1.327-0.252,1.832-0.757l8.135-8.135l8.135,8.135
		c0.505,0.505,1.169,0.757,1.833,0.757c0.663,0,1.327-0.252,1.832-0.757l8.135-8.135l8.135,8.135
		c0.505,0.505,1.169,0.757,1.833,0.757c0.663,0,1.326-0.252,1.832-0.757l8.135-8.135l8.135,8.135
		c0.505,0.505,1.169,0.757,1.833,0.757c0.663,0,1.327-0.252,1.832-0.757l8.135-8.135l8.135,8.135
		c0.505,0.505,1.169,0.757,1.833,0.757c0.663,0,1.327-0.252,1.832-0.757l8.135-8.135l8.135,8.135
		c0.505,0.505,1.169,0.757,1.833,0.757c0.663,0,1.326-0.252,1.832-0.757l8.135-8.135l8.135,8.135
		c0.505,0.505,1.169,0.757,1.833,0.757c0.663,0,1.327-0.252,1.832-0.757l6.653-6.653v8.767c1.898,2.169,3.797,2.169,5.695,0v-20.605
		v-16.859h7.288v14.575v22.722c3.797,2.392,7.594,2.392,11.391,0v-22.722v-14.575h2.163c1.266-3.14,1.266-6.281,0-9.421H426.888z
		 M415.497,41.77v17.533h-7.288V44.515V41.77H415.497z M402.514,220.542l-5.844-5.844l5.844-5.844v8.095V220.542z M402.514,206.169
		l-7.274,7.274c-0.757-0.401-1.663-0.401-2.421,0l-7.503-7.503c0.401-0.757,0.401-1.663,0-2.42l7.503-7.503
		c0.379,0.201,0.792,0.312,1.211,0.312c0.418,0,0.831-0.112,1.21-0.312l7.275,7.275V206.169z M384.062,222.024l-7.326-7.326
		l7.326-7.326l7.326,7.326L384.062,222.024z M372.885,213.444l-7.503-7.503c0.401-0.757,0.401-1.663,0-2.42l7.503-7.503
		c0.379,0.201,0.792,0.312,1.211,0.312c0.418,0,0.831-0.112,1.21-0.312l7.503,7.503c-0.401,0.757-0.401,1.663,0,2.42l-7.503,7.503
		C374.549,213.042,373.643,213.043,372.885,213.444z M364.129,222.024l-7.326-7.326l7.326-7.326l7.326,7.326L364.129,222.024z
		 M352.952,213.444l-7.503-7.503c0.401-0.757,0.401-1.663,0-2.42l7.503-7.503c0.379,0.201,0.792,0.312,1.211,0.312
		c0.418,0,0.831-0.112,1.21-0.312l7.503,7.503c-0.401,0.757-0.401,1.663,0,2.42l-7.503,7.503
		C354.615,213.042,353.709,213.043,352.952,213.444z M344.195,222.024l-7.326-7.326l7.326-7.326l7.326,7.326L344.195,222.024z
		 M333.018,213.444l-7.503-7.503c0.401-0.757,0.401-1.663,0-2.42l7.503-7.503c0.379,0.201,0.792,0.312,1.211,0.312
		c0.418,0,0.831-0.112,1.21-0.312l7.503,7.503c-0.401,0.757-0.401,1.663,0,2.42l-7.503,7.503
		C334.681,213.042,333.775,213.043,333.018,213.444z M324.261,222.024l-7.326-7.326l7.326-7.326l7.326,7.326L324.261,222.024z
		 M313.084,213.444l-7.503-7.503c0.401-0.757,0.401-1.663,0-2.42l7.503-7.503c0.379,0.201,0.792,0.312,1.211,0.312
		c0.418,0,0.831-0.112,1.21-0.312l7.503,7.503c-0.401,0.757-0.401,1.663,0,2.42l-7.503,7.503
		C314.747,213.042,313.841,213.043,313.084,213.444z M304.327,222.024l-7.326-7.326l7.326-7.326l7.326,7.326L304.327,222.024z
		 M293.15,213.444l-7.503-7.503c0.401-0.757,0.401-1.663,0-2.42l7.503-7.503c0.379,0.201,0.792,0.312,1.211,0.312
		c0.418,0,0.831-0.112,1.21-0.312l7.503,7.503c-0.401,0.757-0.401,1.663,0,2.42l-7.503,7.503
		C294.813,213.042,293.907,213.043,293.15,213.444z M284.394,222.024l-7.326-7.326l7.326-7.326l7.326,7.326L284.394,222.024z
		 M273.217,213.444l-7.503-7.503c0.401-0.757,0.401-1.663,0-2.42l7.503-7.503c0.379,0.201,0.792,0.312,1.21,0.312
		c0.418,0,0.831-0.112,1.21-0.312l7.503,7.503c-0.401,0.757-0.401,1.663,0,2.42l-7.503,7.503
		C274.88,213.042,273.973,213.043,273.217,213.444z M264.46,222.024l-7.326-7.326l7.326-7.326l7.326,7.326L264.46,222.024z
		 M253.283,213.444l-7.503-7.503c0.401-0.757,0.401-1.663,0-2.42l7.503-7.503c0.378,0.201,0.792,0.312,1.21,0.312
		c0.418,0,0.831-0.112,1.21-0.312l7.503,7.503c-0.401,0.757-0.401,1.663,0,2.42l-7.503,7.503
		C254.946,213.042,254.04,213.043,253.283,213.444z M244.526,222.024l-7.326-7.326l7.326-7.326l7.326,7.326L244.526,222.024z
		 M233.349,213.444l-7.503-7.503c0.401-0.757,0.401-1.663,0-2.42l7.503-7.503c0.379,0.201,0.792,0.312,1.21,0.312
		c0.418,0,0.831-0.112,1.21-0.312l7.503,7.503c-0.401,0.757-0.401,1.663,0,2.42l-7.503,7.503
		C235.012,213.042,234.106,213.043,233.349,213.444z M224.592,222.024l-7.326-7.326l7.326-7.326l7.326,7.326L224.592,222.024z
		 M213.415,213.444l-7.503-7.503c0.401-0.757,0.401-1.663,0-2.42l7.503-7.503c0.379,0.201,0.792,0.312,1.211,0.312
		c0.418,0,0.831-0.112,1.21-0.312l7.503,7.503c-0.401,0.757-0.401,1.663,0,2.42l-7.503,7.503
		C215.078,213.042,214.172,213.043,213.415,213.444z M204.659,222.024l-7.326-7.326l7.326-7.326l7.326,7.326L204.659,222.024z
		 M193.482,213.444l-7.503-7.503c0.401-0.757,0.401-1.663,0-2.42l7.503-7.503c0.379,0.201,0.792,0.312,1.211,0.312
		c0.418,0,0.831-0.112,1.21-0.312l7.503,7.503c-0.401,0.757-0.401,1.663,0,2.42l-7.503,7.503
		C195.145,213.042,194.238,213.043,193.482,213.444z M184.725,222.024l-7.326-7.326l7.326-7.326l7.326,7.326L184.725,222.024z
		 M173.548,213.444l-7.503-7.503c0.401-0.757,0.401-1.663,0-2.42l7.503-7.503c0.379,0.201,0.792,0.312,1.21,0.312
		c0.418,0,0.831-0.112,1.21-0.312l7.503,7.503c-0.401,0.757-0.401,1.663,0,2.42l-7.503,7.503
		C175.211,213.042,174.305,213.043,173.548,213.444z M164.791,222.024l-7.326-7.326l7.326-7.326l7.326,7.326L164.791,222.024z
		 M153.614,213.444l-7.503-7.503c0.401-0.757,0.401-1.663,0-2.42l7.503-7.503c0.378,0.201,0.792,0.312,1.21,0.312
		c0.418,0,0.831-0.112,1.21-0.312l7.503,7.503c-0.401,0.757-0.401,1.663,0,2.42l-7.503,7.503
		C155.277,213.042,154.371,213.043,153.614,213.444z M144.857,222.024l-7.326-7.326l7.326-7.326l7.326,7.326L144.857,222.024z
		 M133.68,213.444l-7.503-7.503c0.401-0.757,0.401-1.663,0-2.42l7.503-7.503c0.379,0.201,0.792,0.312,1.211,0.312
		c0.418,0,0.831-0.112,1.21-0.312l7.503,7.503c-0.401,0.757-0.401,1.663,0,2.42l-7.503,7.503
		C135.343,213.042,134.437,213.043,133.68,213.444z M124.924,222.024l-7.326-7.326l7.326-7.326l7.326,7.326L124.924,222.024z
		 M113.746,213.444l-7.503-7.503c0.401-0.757,0.401-1.663,0-2.42l7.503-7.503c0.379,0.201,0.792,0.312,1.21,0.312
		c0.418,0,0.831-0.112,1.21-0.312l7.503,7.503c-0.401,0.757-0.401,1.663,0,2.42l-7.503,7.503
		C115.409,213.042,114.503,213.043,113.746,213.444z M104.99,222.024l-7.326-7.326l7.326-7.326l7.326,7.326L104.99,222.024z
		 M93.813,213.444l-7.503-7.503c0.401-0.757,0.401-1.663,0-2.42l7.503-7.503c0.379,0.201,0.792,0.312,1.21,0.312
		c0.418,0,0.831-0.112,1.21-0.312l7.503,7.503c-0.401,0.757-0.401,1.663,0,2.42l-7.503,7.503
		C95.476,213.042,94.569,213.043,93.813,213.444z M85.056,222.024l-7.326-7.326l7.326-7.326l7.326,7.326L85.056,222.024z
		 M73.879,213.444l-7.503-7.503c0.401-0.757,0.401-1.663,0-2.42l7.503-7.503c0.379,0.201,0.792,0.312,1.211,0.312
		c0.418,0,0.831-0.112,1.21-0.312l7.503,7.503c-0.401,0.757-0.401,1.663,0,2.42l-7.503,7.503
		C75.542,213.042,74.636,213.043,73.879,213.444z M65.122,222.024l-7.326-7.326l7.326-7.326l7.326,7.326L65.122,222.024z
		 M53.945,213.444l-7.503-7.503c0.401-0.757,0.401-1.663,0-2.42l7.503-7.503c0.379,0.201,0.792,0.312,1.21,0.312
		c0.418,0,0.831-0.112,1.21-0.312l7.503,7.503c-0.401,0.757-0.401,1.663,0,2.42l-7.503,7.503
		C55.608,213.042,54.702,213.043,53.945,213.444z M45.189,222.024l-7.326-7.326l7.326-7.326l7.326,7.326L45.189,222.024z
		 M34.011,213.444l-6.525-6.525v-4.375l6.526-6.526c0.379,0.201,0.792,0.312,1.21,0.312c0.418,0,0.831-0.112,1.21-0.312l7.503,7.503
		c-0.401,0.757-0.401,1.663,0,2.42l-7.503,7.503C35.674,213.042,34.768,213.043,34.011,213.444z M27.486,216.949v-7.346l5.095,5.095
		l-5.095,5.095V216.949z M402.514,66.633l-7.275,7.275c-0.757-0.401-1.664-0.401-2.42,0l-7.503-7.503
		c0.401-0.757,0.401-1.663,0-2.42l7.503-7.503c0.379,0.201,0.792,0.312,1.211,0.312c0.418,0,0.831-0.112,1.21-0.312l7.275,7.275
		V66.633z M392.819,173.577l-7.503-7.503c0.401-0.757,0.401-1.663,0-2.42l7.503-7.503c0.379,0.201,0.792,0.312,1.211,0.312
		c0.418,0,0.831-0.112,1.21-0.312l7.275,7.275v2.877l-7.275,7.275C394.482,173.175,393.576,173.175,392.819,173.577z
		 M384.062,202.09l-7.326-7.326l7.326-7.326l7.326,7.326L384.062,202.09z M372.885,193.51l-7.503-7.503
		c0.401-0.757,0.401-1.663,0-2.42l7.503-7.503c0.379,0.201,0.792,0.312,1.211,0.312c0.418,0,0.831-0.112,1.21-0.312l7.503,7.503
		c-0.401,0.757-0.401,1.663,0,2.42l-7.503,7.503C374.549,193.109,373.642,193.109,372.885,193.51z M364.129,202.09l-7.326-7.326
		l7.326-7.326l7.326,7.326L364.129,202.09z M352.952,193.51l-7.503-7.503c0.401-0.757,0.401-1.663,0-2.42l7.503-7.503
		c0.379,0.201,0.792,0.312,1.211,0.312c0.418,0,0.831-0.112,1.21-0.312l7.503,7.503c-0.401,0.757-0.401,1.663,0,2.42l-7.503,7.503
		C354.615,193.109,353.708,193.109,352.952,193.51z M344.195,202.09l-7.326-7.326l7.326-7.326l7.326,7.326L344.195,202.09z
		 M333.018,193.51l-7.503-7.503c0.401-0.757,0.401-1.663,0-2.42l7.503-7.503c0.379,0.201,0.792,0.312,1.211,0.312
		c0.418,0,0.831-0.112,1.21-0.312l7.503,7.503c-0.401,0.757-0.401,1.663,0,2.42l-7.503,7.503
		C334.681,193.109,333.774,193.109,333.018,193.51z M324.261,202.09l-7.326-7.326l7.326-7.326l7.326,7.326L324.261,202.09z
		 M313.084,193.51l-7.503-7.503c0.401-0.757,0.401-1.663,0-2.42l7.503-7.503c0.379,0.201,0.792,0.312,1.211,0.312
		c0.418,0,0.831-0.112,1.21-0.312l7.503,7.503c-0.401,0.757-0.401,1.663,0,2.42l-7.503,7.503
		C314.747,193.109,313.84,193.109,313.084,193.51z M304.327,202.09l-7.326-7.326l7.326-7.326l7.326,7.326L304.327,202.09z
		 M293.15,193.51l-7.503-7.503c0.401-0.757,0.401-1.663,0-2.42l7.503-7.503c0.379,0.201,0.792,0.312,1.211,0.312
		c0.418,0,0.831-0.112,1.21-0.312l7.503,7.503c-0.401,0.757-0.401,1.663,0,2.42l-7.503,7.503
		C294.813,193.109,293.907,193.109,293.15,193.51z M284.394,202.09l-7.326-7.326l7.326-7.326l7.326,7.326L284.394,202.09z
		 M273.216,193.51l-7.503-7.503c0.401-0.757,0.401-1.663,0-2.42l7.503-7.503c0.379,0.201,0.792,0.312,1.21,0.312
		c0.418,0,0.831-0.112,1.21-0.312l7.503,7.503c-0.401,0.757-0.401,1.663,0,2.42l-7.503,7.503
		C274.879,193.109,273.973,193.109,273.216,193.51z M264.46,202.09l-7.326-7.326l7.326-7.326l7.326,7.326L264.46,202.09z
		 M253.283,193.51l-7.503-7.503c0.401-0.757,0.401-1.663,0-2.42l7.503-7.503c0.378,0.201,0.792,0.312,1.21,0.312
		c0.418,0,0.831-0.112,1.21-0.312l7.503,7.503c-0.401,0.757-0.401,1.663,0,2.42l-7.503,7.503
		C254.946,193.109,254.039,193.109,253.283,193.51z M244.526,202.09l-7.326-7.326l7.326-7.326l7.326,7.326L244.526,202.09z
		 M233.349,193.51l-7.503-7.503c0.401-0.757,0.401-1.663,0-2.42l7.503-7.503c0.379,0.201,0.792,0.312,1.21,0.312
		c0.418,0,0.831-0.112,1.21-0.312l7.503,7.503c-0.401,0.757-0.401,1.663,0,2.42l-7.503,7.503
		C235.012,193.109,234.106,193.109,233.349,193.51z M224.592,202.09l-7.326-7.326l7.326-7.326l7.326,7.326L224.592,202.09z
		 M213.415,193.51l-7.503-7.503c0.401-0.757,0.401-1.663,0-2.42l7.503-7.503c0.379,0.201,0.792,0.312,1.211,0.312
		c0.418,0,0.831-0.112,1.21-0.312l7.503,7.503c-0.401,0.757-0.401,1.663,0,2.42l-7.503,7.503
		C215.078,193.109,214.172,193.109,213.415,193.51z M204.659,202.09l-7.326-7.326l7.326-7.326l7.326,7.326L204.659,202.09z
		 M193.481,193.51l-7.503-7.503c0.401-0.757,0.401-1.663,0-2.42l7.503-7.503c0.379,0.201,0.792,0.312,1.211,0.312
		c0.418,0,0.831-0.112,1.21-0.312l7.503,7.503c-0.401,0.757-0.401,1.663,0,2.42l-7.503,7.503
		C195.144,193.109,194.238,193.109,193.481,193.51z M184.725,202.09l-7.326-7.326l7.326-7.326l7.326,7.326L184.725,202.09z
		 M173.548,193.51l-7.503-7.503c0.401-0.757,0.401-1.663,0-2.42l7.503-7.503c0.379,0.201,0.792,0.312,1.21,0.312
		c0.418,0,0.831-0.112,1.21-0.312l7.503,7.503c-0.401,0.757-0.401,1.663,0,2.42l-7.503,7.503
		C175.211,193.109,174.304,193.109,173.548,193.51z M164.791,202.09l-7.326-7.326l7.326-7.326l7.326,7.326L164.791,202.09z
		 M153.614,193.51l-7.503-7.503c0.401-0.757,0.401-1.663,0-2.42l7.503-7.503c0.378,0.201,0.792,0.312,1.21,0.312
		c0.418,0,0.831-0.112,1.21-0.312l7.503,7.503c-0.401,0.757-0.401,1.663,0,2.42l-7.503,7.503
		C155.277,193.109,154.371,193.109,153.614,193.51z M144.857,202.09l-7.326-7.326l7.326-7.326l7.326,7.326L144.857,202.09z
		 M133.68,193.51l-7.503-7.503c0.401-0.757,0.401-1.663,0-2.42l7.503-7.503c0.379,0.201,0.792,0.312,1.211,0.312
		c0.418,0,0.831-0.112,1.21-0.312l7.503,7.503c-0.401,0.757-0.401,1.663,0,2.42l-7.503,7.503
		C135.343,193.109,134.437,193.109,133.68,193.51z M124.924,202.09l-7.326-7.326l7.326-7.326l7.326,7.326L124.924,202.09z
		 M113.746,193.51l-7.503-7.503c0.401-0.757,0.401-1.663,0-2.42l7.503-7.503c0.379,0.201,0.792,0.312,1.21,0.312
		c0.418,0,0.831-0.112,1.21-0.312l7.503,7.503c-0.401,0.757-0.401,1.663,0,2.42l-7.503,7.503
		C115.409,193.109,114.503,193.109,113.746,193.51z M104.99,202.09l-7.326-7.326l7.326-7.326l7.326,7.326L104.99,202.09z
		 M93.812,193.51l-7.503-7.503c0.401-0.757,0.401-1.663,0-2.42l7.503-7.503c0.379,0.201,0.792,0.312,1.21,0.312
		c0.418,0,0.831-0.112,1.21-0.312l7.503,7.503c-0.401,0.757-0.401,1.663,0,2.42l-7.503,7.503
		C95.475,193.109,94.569,193.109,93.812,193.51z M85.056,202.09l-7.326-7.326l7.326-7.326l7.326,7.326L85.056,202.09z
		 M73.879,193.51l-7.503-7.503c0.401-0.757,0.401-1.663,0-2.42l7.503-7.503c0.379,0.201,0.792,0.312,1.211,0.312
		c0.418,0,0.831-0.112,1.21-0.312l7.503,7.503c-0.401,0.757-0.401,1.663,0,2.42l-7.503,7.503
		C75.542,193.109,74.635,193.109,73.879,193.51z M65.122,202.09l-7.326-7.326l7.326-7.326l7.326,7.326L65.122,202.09z
		 M53.945,193.51l-7.503-7.503c0.401-0.757,0.401-1.663,0-2.42l7.503-7.503c0.379,0.201,0.792,0.312,1.21,0.312
		c0.418,0,0.831-0.112,1.21-0.312l7.503,7.503c-0.401,0.757-0.401,1.663,0,2.42l-7.503,7.503
		C55.608,193.109,54.702,193.109,53.945,193.51z M45.189,202.09l-7.326-7.326l7.326-7.326l7.326,7.326L45.189,202.09z
		 M34.011,193.51l-6.525-6.525v-4.375l6.526-6.525c0.379,0.201,0.792,0.312,1.21,0.312c0.418,0,0.831-0.112,1.21-0.312l7.503,7.503
		c-0.401,0.757-0.401,1.663,0,2.42l-7.503,7.503C35.674,193.109,34.768,193.109,34.011,193.51z M27.486,63.007l6.526-6.526
		c0.379,0.201,0.792,0.312,1.21,0.312c0.418,0,0.831-0.112,1.21-0.312l7.503,7.503c-0.401,0.757-0.401,1.663,0,2.42l-7.503,7.503
		c-0.757-0.401-1.664-0.401-2.42,0l-6.525-6.525V63.007z M27.486,44.515v-1.442l1.303-1.303h12.865l2.281,2.281
		c-0.401,0.757-0.401,1.663,0,2.42l-7.503,7.503c-0.757-0.402-1.664-0.402-2.42,0l-6.525-6.525V44.515z M49.953,41.77h11.635
		l2.281,2.281c-0.401,0.757-0.401,1.663,0,2.42l-7.503,7.503c-0.757-0.402-1.664-0.402-2.42,0l-7.503-7.503
		c0.401-0.757,0.401-1.663,0-2.42l2.281-2.281H49.953z M382.809,44.051c-0.401,0.757-0.401,1.663,0,2.42l-7.503,7.503
		c-0.757-0.401-1.663-0.401-2.42,0l-7.503-7.503c0.401-0.757,0.401-1.663,0-2.42l2.281-2.281h12.865L382.809,44.051z
		 M391.388,55.228l-7.326,7.326l-7.326-7.326l7.326-7.326L391.388,55.228z M394.03,76.728c0.418,0,0.831-0.112,1.21-0.312
		l7.275,7.275v2.877l-7.275,7.275c-0.757-0.401-1.664-0.401-2.42,0l-7.503-7.503c0.401-0.757,0.401-1.663,0-2.42l7.503-7.503
		C393.198,76.616,393.611,76.728,394.03,76.728z M402.514,160.74l-5.844-5.844l5.844-5.844V160.74z M392.819,153.643l-7.503-7.503
		c0.401-0.757,0.401-1.663,0-2.42l7.503-7.503c0.379,0.201,0.792,0.313,1.211,0.313c0.418,0,0.831-0.112,1.21-0.312l7.275,7.275
		v2.877l-7.275,7.274C394.482,153.241,393.576,153.241,392.819,153.643z M384.062,162.222l-7.326-7.326l7.326-7.326l7.326,7.326
		L384.062,162.222z M375.306,173.577c-0.757-0.401-1.663-0.401-2.42,0l-7.503-7.503c0.401-0.757,0.401-1.663,0-2.42l7.503-7.503
		c0.379,0.201,0.792,0.312,1.211,0.312c0.418,0,0.831-0.112,1.21-0.312l7.503,7.503c-0.401,0.757-0.401,1.663,0,2.42
		L375.306,173.577z M364.129,182.156l-7.326-7.326l7.326-7.326l7.326,7.326L364.129,182.156z M352.952,173.577l-7.503-7.503
		c0.401-0.757,0.401-1.663,0-2.42l7.503-7.503c0.379,0.201,0.792,0.312,1.211,0.312c0.418,0,0.831-0.112,1.21-0.312l7.503,7.503
		c-0.401,0.757-0.401,1.663,0,2.42l-7.503,7.503C354.615,173.175,353.708,173.175,352.952,173.577z M344.195,182.156l-7.326-7.326
		l7.326-7.326l7.326,7.326L344.195,182.156z M333.018,173.576l-7.503-7.503c0.401-0.757,0.401-1.663,0-2.42l7.503-7.503
		c0.379,0.201,0.792,0.312,1.211,0.312c0.418,0,0.831-0.112,1.21-0.312l7.503,7.503c-0.401,0.757-0.401,1.663,0,2.42l-7.503,7.503
		C334.681,173.175,333.774,173.175,333.018,173.576z M324.261,182.156l-7.326-7.326l7.326-7.326l7.326,7.326L324.261,182.156z
		 M313.084,173.576l-7.503-7.503c0.401-0.757,0.401-1.663,0-2.42l7.503-7.503c0.379,0.201,0.792,0.312,1.211,0.312
		c0.418,0,0.831-0.112,1.21-0.312l7.503,7.503c-0.401,0.757-0.401,1.663,0,2.42l-7.503,7.503
		C314.747,173.175,313.84,173.175,313.084,173.576z M304.327,182.156l-7.326-7.326l7.326-7.326l7.326,7.326L304.327,182.156z
		 M293.15,173.576l-7.503-7.503c0.401-0.757,0.401-1.663,0-2.42l7.503-7.503c0.379,0.201,0.792,0.312,1.211,0.312
		c0.418,0,0.831-0.112,1.21-0.312l7.503,7.503c-0.401,0.757-0.401,1.663,0,2.42l-7.503,7.503
		C294.813,173.175,293.907,173.175,293.15,173.576z M284.394,182.156l-7.326-7.326l7.326-7.326l7.326,7.326L284.394,182.156z
		 M273.216,173.576l-7.503-7.503c0.401-0.757,0.401-1.663,0-2.42l7.503-7.503c0.379,0.201,0.792,0.312,1.21,0.312
		c0.418,0,0.831-0.112,1.21-0.312l7.503,7.503c-0.401,0.757-0.401,1.663,0,2.42l-7.503,7.503
		C274.879,173.175,273.973,173.175,273.216,173.576z M264.46,182.156l-7.326-7.326l7.326-7.326l7.326,7.326L264.46,182.156z
		 M253.283,173.576l-7.503-7.503c0.401-0.757,0.401-1.663,0-2.42l7.503-7.503c0.378,0.201,0.792,0.312,1.21,0.312
		c0.418,0,0.831-0.112,1.21-0.312l7.503,7.503c-0.401,0.757-0.401,1.663,0,2.42l-7.503,7.503
		C254.946,173.175,254.039,173.175,253.283,173.576z M244.526,182.156l-7.326-7.326l7.326-7.326l7.326,7.326L244.526,182.156z
		 M233.349,173.576l-7.503-7.503c0.401-0.757,0.401-1.663,0-2.42l7.503-7.503c0.379,0.201,0.792,0.312,1.21,0.312
		c0.418,0,0.831-0.112,1.21-0.312l7.503,7.503c-0.401,0.757-0.401,1.663,0,2.42l-7.503,7.503
		C235.012,173.175,234.106,173.175,233.349,173.576z M224.592,182.156l-7.326-7.326l7.326-7.326l7.326,7.326L224.592,182.156z
		 M213.415,173.576l-7.503-7.503c0.401-0.757,0.401-1.663,0-2.42l7.503-7.503c0.379,0.201,0.792,0.312,1.211,0.312
		c0.418,0,0.831-0.112,1.21-0.312l7.503,7.503c-0.401,0.757-0.401,1.663,0,2.42l-7.503,7.503
		C215.078,173.175,214.172,173.175,213.415,173.576z M204.659,182.156l-7.326-7.326l7.326-7.326l7.326,7.326L204.659,182.156z
		 M193.481,173.576l-7.503-7.503c0.401-0.757,0.401-1.663,0-2.42l7.503-7.503c0.379,0.201,0.792,0.312,1.211,0.312
		c0.418,0,0.831-0.112,1.21-0.312l7.503,7.503c-0.401,0.757-0.401,1.663,0,2.42l-7.503,7.503
		C195.144,173.175,194.238,173.175,193.481,173.576z M184.725,182.156l-7.326-7.326l7.326-7.326l7.326,7.326L184.725,182.156z
		 M173.548,173.576l-7.503-7.503c0.401-0.757,0.401-1.663,0-2.42l7.503-7.503c0.379,0.201,0.792,0.312,1.21,0.312
		c0.418,0,0.831-0.112,1.21-0.312l7.503,7.503c-0.401,0.757-0.401,1.663,0,2.42l-7.503,7.503
		C175.211,173.175,174.304,173.175,173.548,173.576z M164.791,182.156l-7.326-7.326l7.326-7.326l7.326,7.326L164.791,182.156z
		 M153.614,173.576l-7.503-7.503c0.401-0.757,0.401-1.663,0-2.42l7.503-7.503c0.378,0.201,0.792,0.312,1.21,0.312
		c0.418,0,0.831-0.112,1.21-0.312l7.503,7.503c-0.401,0.757-0.401,1.663,0,2.42l-7.503,7.503
		C155.277,173.175,154.371,173.175,153.614,173.576z M144.857,182.156l-7.326-7.326l7.326-7.326l7.326,7.326L144.857,182.156z
		 M133.68,173.576l-7.503-7.503c0.401-0.757,0.401-1.663,0-2.42l7.503-7.503c0.379,0.201,0.792,0.312,1.211,0.312
		c0.418,0,0.831-0.112,1.21-0.312l7.503,7.503c-0.401,0.757-0.401,1.663,0,2.42l-7.503,7.503
		C135.343,173.175,134.437,173.175,133.68,173.576z M124.924,182.156l-7.326-7.326l7.326-7.326l7.326,7.326L124.924,182.156z
		 M113.746,173.576l-7.503-7.503c0.401-0.757,0.401-1.663,0-2.42l7.503-7.503c0.379,0.201,0.792,0.312,1.21,0.312
		c0.418,0,0.831-0.112,1.21-0.312l7.503,7.503c-0.401,0.757-0.401,1.663,0,2.42l-7.503,7.503
		C115.409,173.175,114.503,173.175,113.746,173.576z M104.99,182.156l-7.326-7.326l7.326-7.326l7.326,7.326L104.99,182.156z
		 M93.812,173.576l-7.503-7.503c0.401-0.757,0.401-1.663,0-2.42l7.503-7.503c0.379,0.201,0.792,0.312,1.21,0.312
		c0.418,0,0.831-0.112,1.21-0.312l7.503,7.503c-0.401,0.757-0.401,1.663,0,2.42l-7.503,7.503
		C95.475,173.175,94.569,173.175,93.812,173.576z M85.056,182.156l-7.326-7.326l7.326-7.326l7.326,7.326L85.056,182.156z
		 M73.879,173.576l-7.503-7.503c0.401-0.757,0.401-1.663,0-2.42l7.503-7.503c0.379,0.201,0.792,0.312,1.211,0.312
		c0.418,0,0.831-0.112,1.21-0.312l7.503,7.503c-0.401,0.757-0.401,1.663,0,2.42l-7.503,7.503
		C75.542,173.175,74.635,173.175,73.879,173.576z M65.122,182.156l-7.326-7.326l7.326-7.326l7.326,7.326L65.122,182.156z
		 M53.945,173.576l-7.503-7.503c0.401-0.757,0.401-1.663,0-2.42l7.503-7.503c0.379,0.201,0.792,0.312,1.21,0.312
		c0.418,0,0.831-0.112,1.21-0.312l7.503,7.503c-0.401,0.757-0.401,1.663,0,2.42l-7.503,7.503
		C55.608,173.175,54.702,173.175,53.945,173.576z M45.189,182.156l-7.326-7.326l7.326-7.326l7.326,7.326L45.189,182.156z
		 M34.011,173.576l-6.525-6.525v-4.375l6.526-6.526c0.379,0.201,0.792,0.312,1.21,0.312c0.418,0,0.831-0.112,1.21-0.312l7.503,7.503
		c-0.401,0.757-0.401,1.663,0,2.42l-7.503,7.503C35.674,173.175,34.768,173.175,34.011,173.576z M34.012,76.415
		c0.379,0.201,0.792,0.312,1.21,0.312c0.418,0,0.831-0.112,1.21-0.312l7.503,7.503c-0.401,0.757-0.401,1.663,0,2.42l-7.503,7.503
		c-0.757-0.401-1.664-0.401-2.42,0l-6.525-6.525v-4.375L34.012,76.415z M45.189,67.836l7.326,7.326l-7.326,7.326l-7.326-7.326
		L45.189,67.836z M53.945,56.481c0.379,0.201,0.792,0.312,1.21,0.312c0.418,0,0.831-0.112,1.21-0.312l7.503,7.503
		c-0.401,0.757-0.401,1.663,0,2.42l-7.503,7.503c-0.757-0.401-1.664-0.401-2.42,0l-7.503-7.503c0.401-0.757,0.401-1.663,0-2.42
		L53.945,56.481z M73.879,56.481c0.379,0.201,0.792,0.312,1.211,0.312c0.418,0,0.831-0.112,1.21-0.312l7.503,7.503
		c-0.401,0.757-0.401,1.663,0,2.42l-7.503,7.503c-0.757-0.401-1.664-0.401-2.42,0l-7.503-7.503c0.401-0.757,0.401-1.663,0-2.42
		L73.879,56.481z M93.813,56.481c0.379,0.201,0.792,0.312,1.21,0.312c0.418,0,0.831-0.112,1.21-0.312l7.503,7.503
		c-0.401,0.757-0.401,1.663,0,2.42l-7.503,7.503c-0.758-0.401-1.664-0.401-2.421,0l-7.503-7.503c0.401-0.757,0.401-1.663,0-2.42
		L93.813,56.481z M113.747,56.481c0.379,0.201,0.792,0.312,1.21,0.312c0.418,0,0.831-0.112,1.21-0.312l7.503,7.503
		c-0.401,0.757-0.401,1.663,0,2.42l-7.503,7.503c-0.757-0.401-1.664-0.401-2.421,0l-7.503-7.503c0.401-0.757,0.401-1.663,0-2.42
		L113.747,56.481z M133.68,56.481c0.379,0.201,0.792,0.312,1.211,0.312c0.418,0,0.831-0.112,1.21-0.312l7.503,7.503
		c-0.401,0.757-0.401,1.663,0,2.42l-7.503,7.503c-0.757-0.401-1.664-0.401-2.42,0l-7.503-7.503c0.401-0.757,0.401-1.663,0-2.42
		L133.68,56.481z M153.614,56.481c0.378,0.201,0.792,0.312,1.21,0.312c0.418,0,0.831-0.112,1.21-0.312l7.503,7.503
		c-0.401,0.757-0.401,1.663,0,2.42l-7.503,7.503c-0.757-0.401-1.664-0.401-2.42,0l-7.503-7.503c0.401-0.757,0.401-1.663,0-2.42
		L153.614,56.481z M173.548,56.481c0.379,0.201,0.792,0.312,1.21,0.312c0.418,0,0.831-0.112,1.21-0.312l7.503,7.503
		c-0.401,0.757-0.401,1.663,0,2.42l-7.503,7.503c-0.757-0.401-1.664-0.401-2.42,0l-7.503-7.503c0.401-0.757,0.401-1.663,0-2.42
		L173.548,56.481z M193.482,56.481c0.379,0.201,0.792,0.312,1.211,0.312c0.418,0,0.831-0.112,1.21-0.312l7.503,7.503
		c-0.401,0.757-0.401,1.663,0,2.42l-7.503,7.503c-0.758-0.401-1.664-0.401-2.421,0l-7.503-7.503c0.401-0.757,0.401-1.663,0-2.42
		L193.482,56.481z M213.415,56.481c0.379,0.201,0.792,0.312,1.211,0.312c0.418,0,0.831-0.112,1.21-0.312l7.503,7.503
		c-0.401,0.757-0.401,1.663,0,2.42l-7.503,7.503c-0.757-0.401-1.664-0.401-2.421,0l-7.503-7.503c0.401-0.757,0.401-1.663,0-2.42
		L213.415,56.481z M233.349,56.481c0.379,0.201,0.792,0.312,1.21,0.312c0.418,0,0.831-0.112,1.21-0.312l7.503,7.503
		c-0.401,0.757-0.401,1.663,0,2.42l-7.503,7.503c-0.757-0.401-1.664-0.401-2.42,0l-7.503-7.503c0.401-0.757,0.401-1.663,0-2.42
		L233.349,56.481z M253.283,56.481c0.378,0.201,0.792,0.312,1.21,0.312c0.418,0,0.831-0.112,1.21-0.312l7.503,7.503
		c-0.401,0.757-0.401,1.663,0,2.42l-7.503,7.503c-0.758-0.401-1.664-0.401-2.421,0l-7.503-7.503c0.401-0.757,0.401-1.663,0-2.42
		L253.283,56.481z M273.217,56.481c0.379,0.201,0.792,0.312,1.21,0.312c0.418,0,0.831-0.112,1.21-0.312l7.503,7.503
		c-0.401,0.757-0.401,1.663,0,2.42l-7.503,7.503c-0.757-0.401-1.664-0.401-2.42,0l-7.503-7.503c0.401-0.757,0.401-1.663,0-2.42
		L273.217,56.481z M293.15,56.481c0.379,0.201,0.792,0.312,1.211,0.312c0.418,0,0.831-0.112,1.21-0.312l7.503,7.503
		c-0.401,0.757-0.401,1.663,0,2.42l-7.503,7.503c-0.758-0.401-1.664-0.401-2.421,0l-7.503-7.503c0.401-0.757,0.401-1.663,0-2.42
		L293.15,56.481z M313.084,56.481c0.379,0.201,0.792,0.312,1.211,0.312c0.418,0,0.831-0.112,1.21-0.312l7.503,7.503
		c-0.401,0.757-0.401,1.663,0,2.42l-7.503,7.503c-0.758-0.401-1.664-0.401-2.421,0l-7.503-7.503c0.401-0.757,0.401-1.663,0-2.42
		L313.084,56.481z M333.018,56.481c0.379,0.201,0.792,0.312,1.211,0.312c0.418,0,0.831-0.112,1.21-0.312l7.503,7.503
		c-0.401,0.757-0.401,1.663,0,2.42l-7.503,7.503c-0.758-0.401-1.664-0.401-2.421,0l-7.503-7.503c0.401-0.757,0.401-1.663,0-2.42
		L333.018,56.481z M352.952,56.481c0.379,0.201,0.792,0.312,1.211,0.312c0.418,0,0.831-0.112,1.21-0.312l7.503,7.503
		c-0.401,0.757-0.401,1.663,0,2.42l-7.503,7.503c-0.757-0.401-1.664-0.401-2.42,0l-7.503-7.503c0.401-0.757,0.401-1.663,0-2.42
		L352.952,56.481z M372.885,56.481c0.379,0.201,0.792,0.312,1.211,0.312c0.418,0,0.831-0.112,1.21-0.312l7.503,7.503
		c-0.401,0.757-0.401,1.663,0,2.42l-7.503,7.503c-0.757-0.401-1.663-0.401-2.42,0l-7.503-7.503c0.401-0.757,0.401-1.663,0-2.42
		L372.885,56.481z M391.388,95.095l-7.326,7.326l-7.326-7.326l7.326-7.326L391.388,95.095z M394.03,96.661
		c0.418,0,0.831-0.112,1.21-0.312l7.275,7.275v2.877l-7.275,7.275c-0.757-0.401-1.664-0.401-2.42,0l-7.503-7.503
		c0.401-0.757,0.401-1.663,0-2.42l7.503-7.503C393.198,96.549,393.611,96.661,394.03,96.661z M402.514,126.434l-7.275,7.275
		c-0.757-0.401-1.664-0.401-2.42,0l-7.503-7.503c0.401-0.757,0.401-1.663,0-2.42l7.503-7.503c0.379,0.201,0.792,0.312,1.211,0.312
		c0.418,0,0.831-0.112,1.21-0.312l7.275,7.275V126.434z M384.062,142.289l-7.326-7.326l7.326-7.326l7.326,7.326L384.062,142.289z
		 M375.306,153.643c-0.757-0.401-1.663-0.401-2.42,0l-7.503-7.503c0.401-0.757,0.401-1.663,0-2.42l7.503-7.503
		c0.379,0.201,0.792,0.313,1.211,0.313c0.418,0,0.831-0.112,1.21-0.312l7.503,7.503c-0.401,0.757-0.401,1.663,0,2.42
		L375.306,153.643z M364.129,162.222l-7.326-7.326l7.326-7.326l7.326,7.326L364.129,162.222z M352.952,153.643l-7.503-7.503
		c0.401-0.757,0.401-1.663,0-2.42l7.503-7.503c0.379,0.201,0.792,0.313,1.211,0.313c0.418,0,0.831-0.112,1.21-0.312l7.503,7.503
		c-0.401,0.757-0.401,1.663,0,2.42l-7.503,7.503C354.615,153.241,353.708,153.241,352.952,153.643z M344.195,162.222l-7.326-7.326
		l7.326-7.326l7.326,7.326L344.195,162.222z M333.018,153.643l-7.503-7.503c0.401-0.757,0.401-1.663,0-2.42l7.503-7.503
		c0.379,0.201,0.792,0.313,1.211,0.313c0.418,0,0.831-0.112,1.21-0.312l7.503,7.503c-0.401,0.757-0.401,1.663,0,2.42l-7.503,7.503
		C334.681,153.241,333.774,153.241,333.018,153.643z M324.261,162.222l-7.326-7.326l7.326-7.326l7.326,7.326L324.261,162.222z
		 M313.084,153.643l-7.503-7.503c0.401-0.757,0.401-1.663,0-2.42l7.503-7.503c0.379,0.201,0.792,0.313,1.211,0.313
		c0.418,0,0.831-0.112,1.21-0.312l7.503,7.503c-0.401,0.757-0.401,1.663,0,2.42l-7.503,7.503
		C314.747,153.241,313.84,153.241,313.084,153.643z M304.327,162.222l-7.326-7.326l7.326-7.326l7.326,7.326L304.327,162.222z
		 M293.15,153.643l-7.503-7.503c0.401-0.757,0.401-1.663,0-2.42l7.503-7.503c0.379,0.201,0.792,0.313,1.211,0.313
		c0.418,0,0.831-0.112,1.21-0.312l7.503,7.503c-0.401,0.757-0.401,1.663,0,2.42l-7.503,7.503
		C294.813,153.241,293.907,153.241,293.15,153.643z M284.394,162.222l-7.326-7.326l7.326-7.326l7.326,7.326L284.394,162.222z
		 M273.216,153.643l-7.503-7.503c0.401-0.757,0.401-1.663,0-2.42l7.503-7.503c0.379,0.201,0.792,0.313,1.21,0.313
		c0.418,0,0.831-0.112,1.21-0.312l7.503,7.503c-0.401,0.757-0.401,1.663,0,2.42l-7.503,7.503
		C274.879,153.241,273.973,153.241,273.216,153.643z M264.46,162.222l-7.326-7.326l7.326-7.326l7.326,7.326L264.46,162.222z
		 M253.283,153.643l-7.503-7.503c0.401-0.757,0.401-1.663,0-2.42l7.503-7.503c0.378,0.201,0.792,0.313,1.21,0.313
		c0.418,0,0.831-0.112,1.21-0.312l7.503,7.503c-0.401,0.757-0.401,1.663,0,2.42l-7.503,7.503
		C254.946,153.241,254.039,153.241,253.283,153.643z M244.526,162.222l-7.326-7.326l7.326-7.326l7.326,7.326L244.526,162.222z
		 M233.349,153.643l-7.503-7.503c0.401-0.757,0.401-1.663,0-2.42l7.503-7.503c0.379,0.201,0.792,0.313,1.21,0.313
		c0.418,0,0.831-0.112,1.21-0.312l7.503,7.503c-0.401,0.757-0.401,1.663,0,2.42l-7.503,7.503
		C235.012,153.241,234.106,153.241,233.349,153.643z M224.592,162.222l-7.326-7.326l7.326-7.326l7.326,7.326L224.592,162.222z
		 M213.415,153.643l-7.503-7.503c0.401-0.757,0.401-1.663,0-2.42l7.503-7.503c0.379,0.201,0.792,0.313,1.211,0.313
		c0.418,0,0.831-0.112,1.21-0.312l7.503,7.503c-0.401,0.757-0.401,1.663,0,2.42l-7.503,7.503
		C215.078,153.241,214.172,153.241,213.415,153.643z M204.659,162.222l-7.326-7.326l7.326-7.326l7.326,7.326L204.659,162.222z
		 M193.481,153.643l-7.503-7.503c0.401-0.757,0.401-1.663,0-2.42l7.503-7.503c0.379,0.201,0.792,0.313,1.211,0.313
		c0.418,0,0.831-0.112,1.21-0.312l7.503,7.503c-0.401,0.757-0.401,1.663,0,2.42l-7.503,7.503
		C195.144,153.241,194.238,153.241,193.481,153.643z M184.725,162.222l-7.326-7.326l7.326-7.326l7.326,7.326L184.725,162.222z
		 M173.548,153.643l-7.503-7.503c0.401-0.757,0.401-1.663,0-2.42l7.503-7.503c0.379,0.201,0.792,0.313,1.21,0.313
		c0.418,0,0.831-0.112,1.21-0.312l7.503,7.503c-0.401,0.757-0.401,1.663,0,2.42l-7.503,7.503
		C175.211,153.241,174.304,153.241,173.548,153.643z M164.791,162.222l-7.326-7.326l7.326-7.326l7.326,7.326L164.791,162.222z
		 M153.614,153.643l-7.503-7.503c0.401-0.757,0.401-1.663,0-2.42l7.503-7.503c0.378,0.201,0.792,0.313,1.21,0.313
		c0.418,0,0.831-0.112,1.21-0.312l7.503,7.503c-0.401,0.757-0.401,1.663,0,2.42l-7.503,7.503
		C155.277,153.241,154.371,153.241,153.614,153.643z M144.857,162.222l-7.326-7.326l7.326-7.326l7.326,7.326L144.857,162.222z
		 M133.68,153.643l-7.503-7.503c0.401-0.757,0.401-1.663,0-2.42l7.503-7.503c0.379,0.201,0.792,0.313,1.211,0.313
		c0.418,0,0.831-0.112,1.21-0.312l7.503,7.503c-0.401,0.757-0.401,1.663,0,2.42l-7.503,7.503
		C135.343,153.241,134.437,153.241,133.68,153.643z M124.924,162.222l-7.326-7.326l7.326-7.326l7.326,7.326L124.924,162.222z
		 M113.746,153.643l-7.503-7.503c0.401-0.757,0.401-1.663,0-2.42l7.503-7.503c0.379,0.201,0.792,0.313,1.21,0.313
		c0.418,0,0.831-0.112,1.21-0.312l7.503,7.503c-0.401,0.757-0.401,1.663,0,2.42l-7.503,7.503
		C115.409,153.241,114.503,153.241,113.746,153.643z M104.99,162.222l-7.326-7.326l7.326-7.326l7.326,7.326L104.99,162.222z
		 M93.812,153.643l-7.503-7.503c0.401-0.757,0.401-1.663,0-2.42l7.503-7.503c0.379,0.201,0.792,0.313,1.21,0.313
		c0.418,0,0.831-0.112,1.21-0.312l7.503,7.503c-0.401,0.757-0.401,1.663,0,2.42l-7.503,7.503
		C95.475,153.241,94.569,153.241,93.812,153.643z M85.056,162.222l-7.326-7.326l7.326-7.326l7.326,7.326L85.056,162.222z
		 M73.879,153.643l-7.503-7.503c0.401-0.757,0.401-1.663,0-2.42l7.503-7.503c0.379,0.201,0.792,0.313,1.211,0.313
		c0.418,0,0.831-0.112,1.21-0.312l7.503,7.503c-0.401,0.757-0.401,1.663,0,2.42l-7.503,7.503
		C75.542,153.241,74.635,153.241,73.879,153.643z M65.122,162.222l-7.326-7.326l7.326-7.326l7.326,7.326L65.122,162.222z
		 M53.945,153.643l-7.503-7.503c0.401-0.757,0.401-1.663,0-2.42l7.503-7.503c0.379,0.201,0.792,0.313,1.21,0.313
		c0.418,0,0.831-0.112,1.21-0.312l7.503,7.503c-0.401,0.757-0.401,1.663,0,2.42l-7.503,7.503
		C55.608,153.241,54.702,153.241,53.945,153.643z M45.189,162.222l-7.326-7.326l7.326-7.326l7.326,7.326L45.189,162.222z
		 M34.011,153.643l-6.525-6.525v-4.375l6.526-6.526c0.379,0.201,0.792,0.313,1.21,0.313c0.418,0,0.831-0.112,1.21-0.312l7.503,7.503
		c-0.401,0.757-0.401,1.663,0,2.42l-7.503,7.503C35.674,153.241,34.768,153.241,34.011,153.643z M27.486,122.808l6.526-6.526
		c0.379,0.201,0.792,0.312,1.21,0.312c0.418,0,0.831-0.112,1.21-0.312l7.503,7.503c-0.401,0.757-0.401,1.663,0,2.42l-7.503,7.503
		c-0.757-0.402-1.664-0.402-2.42,0l-6.525-6.525V122.808z M27.486,102.874l6.526-6.526c0.379,0.201,0.792,0.312,1.21,0.312
		c0.418,0,0.831-0.112,1.21-0.312l7.503,7.503c-0.401,0.757-0.401,1.663,0,2.42l-7.503,7.503c-0.757-0.402-1.664-0.402-2.42,0
		l-6.525-6.525V102.874z M45.189,87.769l7.326,7.326l-7.326,7.326l-7.326-7.326L45.189,87.769z M53.945,76.415
		c0.379,0.201,0.792,0.312,1.21,0.312c0.418,0,0.831-0.112,1.21-0.312l7.503,7.503c-0.401,0.757-0.401,1.663,0,2.42l-7.503,7.503
		c-0.757-0.401-1.664-0.401-2.42,0l-7.503-7.503c0.401-0.757,0.401-1.663,0-2.42L53.945,76.415z M73.879,76.415
		c0.379,0.201,0.792,0.312,1.211,0.312c0.418,0,0.831-0.112,1.21-0.312l7.503,7.503c-0.401,0.757-0.401,1.663,0,2.42l-7.503,7.503
		c-0.757-0.401-1.664-0.401-2.42,0l-7.503-7.503c0.401-0.757,0.401-1.663,0-2.42L73.879,76.415z M93.813,76.415
		c0.379,0.201,0.792,0.312,1.21,0.312c0.418,0,0.831-0.112,1.21-0.312l7.503,7.503c-0.401,0.757-0.401,1.663,0,2.42l-7.503,7.503
		c-0.758-0.401-1.664-0.401-2.421,0l-7.503-7.503c0.401-0.757,0.401-1.663,0-2.42L93.813,76.415z M113.747,76.415
		c0.379,0.201,0.792,0.312,1.21,0.312c0.418,0,0.831-0.112,1.21-0.312l7.503,7.503c-0.401,0.757-0.401,1.663,0,2.42l-7.503,7.503
		c-0.757-0.401-1.664-0.401-2.421,0l-7.503-7.503c0.401-0.757,0.401-1.663,0-2.42L113.747,76.415z M133.68,76.415
		c0.379,0.201,0.792,0.312,1.211,0.312c0.418,0,0.831-0.112,1.21-0.312l7.503,7.503c-0.401,0.757-0.401,1.663,0,2.42l-7.503,7.503
		c-0.757-0.401-1.664-0.401-2.42,0l-7.503-7.503c0.401-0.757,0.401-1.663,0-2.42L133.68,76.415z M153.614,76.415
		c0.378,0.201,0.792,0.312,1.21,0.312c0.418,0,0.831-0.112,1.21-0.312l7.503,7.503c-0.401,0.757-0.401,1.663,0,2.42l-7.503,7.503
		c-0.757-0.401-1.664-0.401-2.42,0l-7.503-7.503c0.401-0.757,0.401-1.663,0-2.42L153.614,76.415z M173.548,76.415
		c0.379,0.201,0.792,0.312,1.21,0.312c0.418,0,0.831-0.112,1.21-0.312l7.503,7.503c-0.401,0.757-0.401,1.663,0,2.42l-7.503,7.503
		c-0.757-0.401-1.664-0.401-2.42,0l-7.503-7.503c0.401-0.757,0.401-1.663,0-2.42L173.548,76.415z M193.482,76.415
		c0.379,0.201,0.792,0.312,1.211,0.312c0.418,0,0.831-0.112,1.21-0.312l7.503,7.503c-0.401,0.757-0.401,1.663,0,2.42l-7.503,7.503
		c-0.758-0.401-1.664-0.401-2.421,0l-7.503-7.503c0.401-0.757,0.401-1.663,0-2.42L193.482,76.415z M213.415,76.415
		c0.379,0.201,0.792,0.312,1.211,0.312c0.418,0,0.831-0.112,1.21-0.312l7.503,7.503c-0.401,0.757-0.401,1.663,0,2.42l-7.503,7.503
		c-0.757-0.401-1.664-0.401-2.421,0l-7.503-7.503c0.401-0.757,0.401-1.663,0-2.42L213.415,76.415z M233.349,76.415
		c0.379,0.201,0.792,0.312,1.21,0.312c0.418,0,0.831-0.112,1.21-0.312l7.503,7.503c-0.401,0.757-0.401,1.663,0,2.42l-7.503,7.503
		c-0.757-0.401-1.664-0.401-2.42,0l-7.503-7.503c0.401-0.757,0.401-1.663,0-2.42L233.349,76.415z M253.283,76.415
		c0.378,0.201,0.792,0.312,1.21,0.312c0.418,0,0.831-0.112,1.21-0.312l7.503,7.503c-0.401,0.757-0.401,1.663,0,2.42l-7.503,7.503
		c-0.758-0.401-1.664-0.401-2.421,0l-7.503-7.503c0.401-0.757,0.401-1.663,0-2.42L253.283,76.415z M273.217,76.415
		c0.379,0.201,0.792,0.312,1.21,0.312c0.418,0,0.831-0.112,1.21-0.312l7.503,7.503c-0.401,0.757-0.401,1.663,0,2.42l-7.503,7.503
		c-0.757-0.401-1.664-0.401-2.42,0l-7.503-7.503c0.401-0.757,0.401-1.663,0-2.42L273.217,76.415z M293.15,76.415
		c0.379,0.201,0.792,0.312,1.211,0.312c0.418,0,0.831-0.112,1.21-0.312l7.503,7.503c-0.401,0.757-0.401,1.663,0,2.42l-7.503,7.503
		c-0.758-0.401-1.664-0.401-2.421,0l-7.503-7.503c0.401-0.757,0.401-1.663,0-2.42L293.15,76.415z M313.084,76.415
		c0.379,0.201,0.792,0.312,1.211,0.312c0.418,0,0.831-0.112,1.21-0.312l7.503,7.503c-0.401,0.757-0.401,1.663,0,2.42l-7.503,7.503
		c-0.758-0.401-1.664-0.401-2.421,0l-7.503-7.503c0.401-0.757,0.401-1.663,0-2.42L313.084,76.415z M333.018,76.415
		c0.379,0.201,0.792,0.312,1.211,0.312c0.418,0,0.831-0.112,1.21-0.312l7.503,7.503c-0.401,0.757-0.401,1.663,0,2.42l-7.503,7.503
		c-0.758-0.401-1.664-0.401-2.421,0l-7.503-7.503c0.401-0.757,0.401-1.663,0-2.42L333.018,76.415z M352.952,76.415
		c0.379,0.201,0.792,0.312,1.211,0.312c0.418,0,0.831-0.112,1.21-0.312l7.503,7.503c-0.401,0.757-0.401,1.663,0,2.42l-7.503,7.503
		c-0.757-0.401-1.664-0.401-2.42,0l-7.503-7.503c0.401-0.757,0.401-1.663,0-2.42L352.952,76.415z M371.455,95.095l-7.326,7.326
		l-7.326-7.326l7.326-7.326L371.455,95.095z M374.096,96.661c0.418,0,0.831-0.112,1.21-0.312l7.503,7.503
		c-0.401,0.757-0.401,1.663,0,2.42l-7.503,7.503c-0.757-0.401-1.663-0.401-2.42,0l-7.503-7.503c0.401-0.757,0.401-1.663,0-2.42
		l7.503-7.503C373.264,96.549,373.678,96.661,374.096,96.661z M391.388,115.029l-7.326,7.326l-7.326-7.326l7.326-7.326
		L391.388,115.029z M375.306,133.709c-0.757-0.401-1.663-0.401-2.42,0l-7.503-7.503c0.401-0.757,0.401-1.663,0-2.42l7.503-7.503
		c0.379,0.201,0.792,0.312,1.211,0.312c0.418,0,0.831-0.112,1.21-0.312l7.503,7.503c-0.401,0.757-0.401,1.663,0,2.42
		L375.306,133.709z M364.129,142.289l-7.326-7.326l7.326-7.326l7.326,7.326L364.129,142.289z M352.952,133.709l-7.503-7.503
		c0.401-0.757,0.401-1.663,0-2.42l7.503-7.503c0.379,0.201,0.792,0.312,1.211,0.312c0.418,0,0.831-0.112,1.21-0.312l7.503,7.503
		c-0.401,0.757-0.401,1.663,0,2.42l-7.503,7.503C354.615,133.308,353.708,133.308,352.952,133.709z M344.195,142.289l-7.326-7.326
		l7.326-7.326l7.326,7.326L344.195,142.289z M333.018,133.709l-7.503-7.503c0.401-0.757,0.401-1.663,0-2.42l7.503-7.503
		c0.379,0.201,0.792,0.312,1.211,0.312c0.418,0,0.831-0.112,1.21-0.312l7.503,7.503c-0.401,0.757-0.401,1.663,0,2.42l-7.503,7.503
		C334.681,133.308,333.774,133.308,333.018,133.709z M324.261,142.289l-7.326-7.326l7.326-7.326l7.326,7.326L324.261,142.289z
		 M313.084,133.709l-7.503-7.503c0.401-0.757,0.401-1.663,0-2.42l7.503-7.503c0.379,0.201,0.792,0.312,1.211,0.312
		c0.418,0,0.831-0.112,1.21-0.312l7.503,7.503c-0.401,0.757-0.401,1.663,0,2.42l-7.503,7.503
		C314.747,133.308,313.84,133.308,313.084,133.709z M304.327,142.289l-7.326-7.326l7.326-7.326l7.326,7.326L304.327,142.289z
		 M293.15,133.709l-7.503-7.503c0.401-0.757,0.401-1.663,0-2.42l7.503-7.503c0.379,0.201,0.792,0.312,1.211,0.312
		c0.418,0,0.831-0.112,1.21-0.312l7.503,7.503c-0.401,0.757-0.401,1.663,0,2.42l-7.503,7.503
		C294.813,133.308,293.907,133.308,293.15,133.709z M284.394,142.289l-7.326-7.326l7.326-7.326l7.326,7.326L284.394,142.289z
		 M273.216,133.709l-7.503-7.503c0.401-0.757,0.401-1.663,0-2.42l7.503-7.503c0.379,0.201,0.792,0.312,1.21,0.312
		c0.418,0,0.831-0.112,1.21-0.312l7.503,7.503c-0.401,0.757-0.401,1.663,0,2.42l-7.503,7.503
		C274.879,133.308,273.973,133.308,273.216,133.709z M264.46,142.289l-7.326-7.326l7.326-7.326l7.326,7.326L264.46,142.289z
		 M253.283,133.709l-7.503-7.503c0.401-0.757,0.401-1.663,0-2.42l7.503-7.503c0.378,0.201,0.792,0.312,1.21,0.312
		c0.418,0,0.831-0.112,1.21-0.312l7.503,7.503c-0.401,0.757-0.401,1.663,0,2.42l-7.503,7.503
		C254.946,133.308,254.039,133.308,253.283,133.709z M244.526,142.289l-7.326-7.326l7.326-7.326l7.326,7.326L244.526,142.289z
		 M233.349,133.709l-7.503-7.503c0.401-0.757,0.401-1.663,0-2.42l7.503-7.503c0.379,0.201,0.792,0.312,1.21,0.312
		c0.418,0,0.831-0.112,1.21-0.312l7.503,7.503c-0.401,0.757-0.401,1.663,0,2.42l-7.503,7.503
		C235.012,133.308,234.106,133.308,233.349,133.709z M224.592,142.289l-7.326-7.326l7.326-7.326l7.326,7.326L224.592,142.289z
		 M213.415,133.709l-7.503-7.503c0.401-0.757,0.401-1.663,0-2.42l7.503-7.503c0.379,0.201,0.792,0.312,1.211,0.312
		c0.418,0,0.831-0.112,1.21-0.312l7.503,7.503c-0.401,0.757-0.401,1.663,0,2.42l-7.503,7.503
		C215.078,133.308,214.172,133.308,213.415,133.709z M204.659,142.289l-7.326-7.326l7.326-7.326l7.326,7.326L204.659,142.289z
		 M193.481,133.709l-7.503-7.503c0.401-0.757,0.401-1.663,0-2.42l7.503-7.503c0.379,0.201,0.792,0.312,1.211,0.312
		c0.418,0,0.831-0.112,1.21-0.312l7.503,7.503c-0.401,0.757-0.401,1.663,0,2.42l-7.503,7.503
		C195.144,133.308,194.238,133.308,193.481,133.709z M184.725,142.289l-7.326-7.326l7.326-7.326l7.326,7.326L184.725,142.289z
		 M173.548,133.709l-7.503-7.503c0.401-0.757,0.401-1.663,0-2.42l7.503-7.503c0.379,0.201,0.792,0.312,1.21,0.312
		c0.418,0,0.831-0.112,1.21-0.312l7.503,7.503c-0.401,0.757-0.401,1.663,0,2.42l-7.503,7.503
		C175.211,133.308,174.304,133.308,173.548,133.709z M164.791,142.289l-7.326-7.326l7.326-7.326l7.326,7.326L164.791,142.289z
		 M153.614,133.709l-7.503-7.503c0.401-0.757,0.401-1.663,0-2.42l7.503-7.503c0.378,0.201,0.792,0.312,1.21,0.312
		c0.418,0,0.831-0.112,1.21-0.312l7.503,7.503c-0.401,0.757-0.401,1.663,0,2.42l-7.503,7.503
		C155.277,133.308,154.371,133.308,153.614,133.709z M144.857,142.289l-7.326-7.326l7.326-7.326l7.326,7.326L144.857,142.289z
		 M133.68,133.709l-7.503-7.503c0.401-0.757,0.401-1.663,0-2.42l7.503-7.503c0.379,0.201,0.792,0.312,1.211,0.312
		c0.418,0,0.831-0.112,1.21-0.312l7.503,7.503c-0.401,0.757-0.401,1.663,0,2.42l-7.503,7.503
		C135.343,133.308,134.437,133.308,133.68,133.709z M124.924,142.289l-7.326-7.326l7.326-7.326l7.326,7.326L124.924,142.289z
		 M113.746,133.709l-7.503-7.503c0.401-0.757,0.401-1.663,0-2.42l7.503-7.503c0.379,0.201,0.792,0.312,1.21,0.312
		c0.418,0,0.831-0.112,1.21-0.312l7.503,7.503c-0.401,0.757-0.401,1.663,0,2.42l-7.503,7.503
		C115.409,133.308,114.503,133.308,113.746,133.709z M104.99,142.289l-7.326-7.326l7.326-7.326l7.326,7.326L104.99,142.289z
		 M93.812,133.709l-7.503-7.503c0.401-0.757,0.401-1.663,0-2.42l7.503-7.503c0.379,0.201,0.792,0.312,1.21,0.312
		c0.418,0,0.831-0.112,1.21-0.312l7.503,7.503c-0.401,0.757-0.401,1.663,0,2.42l-7.503,7.503
		C95.475,133.308,94.569,133.308,93.812,133.709z M85.056,142.289l-7.326-7.326l7.326-7.326l7.326,7.326L85.056,142.289z
		 M73.879,133.709l-7.503-7.503c0.401-0.757,0.401-1.663,0-2.42l7.503-7.503c0.379,0.201,0.792,0.312,1.211,0.312
		c0.418,0,0.831-0.112,1.21-0.312l7.503,7.503c-0.401,0.757-0.401,1.663,0,2.42l-7.503,7.503
		C75.542,133.308,74.635,133.308,73.879,133.709z M65.122,142.289l-7.326-7.326l7.326-7.326l7.326,7.326L65.122,142.289z
		 M53.945,133.709l-7.503-7.503c0.401-0.757,0.401-1.663,0-2.42l7.503-7.503c0.379,0.201,0.792,0.312,1.21,0.312
		c0.418,0,0.831-0.112,1.21-0.312l7.503,7.503c-0.401,0.757-0.401,1.663,0,2.42l-7.503,7.503
		C55.608,133.308,54.702,133.308,53.945,133.709z M45.189,142.289l-7.326-7.326l7.326-7.326l7.326,7.326L45.189,142.289z
		 M45.189,107.703l7.326,7.326l-7.326,7.326l-7.326-7.326L45.189,107.703z M53.945,96.349c0.379,0.201,0.792,0.312,1.21,0.312
		c0.418,0,0.831-0.112,1.21-0.312l7.503,7.503c-0.401,0.757-0.401,1.663,0,2.42l-7.503,7.503c-0.757-0.402-1.664-0.402-2.42,0
		l-7.503-7.503c0.401-0.757,0.401-1.663,0-2.42L53.945,96.349z M73.879,96.349c0.379,0.201,0.792,0.312,1.211,0.312
		c0.418,0,0.831-0.112,1.21-0.312l7.503,7.503c-0.401,0.757-0.401,1.663,0,2.42l-7.503,7.503c-0.757-0.402-1.664-0.402-2.42,0
		l-7.503-7.503c0.401-0.757,0.401-1.663,0-2.42L73.879,96.349z M93.813,96.349c0.379,0.201,0.792,0.312,1.21,0.312
		c0.418,0,0.831-0.112,1.21-0.312l7.503,7.503c-0.401,0.757-0.401,1.663,0,2.42l-7.503,7.503c-0.758-0.402-1.664-0.402-2.421,0
		l-7.503-7.503c0.401-0.757,0.401-1.663,0-2.42L93.813,96.349z M113.747,96.349c0.379,0.201,0.792,0.312,1.21,0.312
		c0.418,0,0.831-0.112,1.21-0.312l7.503,7.503c-0.401,0.757-0.401,1.663,0,2.42l-7.503,7.503c-0.757-0.402-1.664-0.402-2.421,0
		l-7.503-7.503c0.401-0.757,0.401-1.663,0-2.42L113.747,96.349z M133.68,96.349c0.379,0.201,0.792,0.312,1.211,0.312
		c0.418,0,0.831-0.112,1.21-0.312l7.503,7.503c-0.401,0.757-0.401,1.663,0,2.42l-7.503,7.503c-0.757-0.402-1.664-0.402-2.42,0
		l-7.503-7.503c0.401-0.757,0.401-1.663,0-2.42L133.68,96.349z M153.614,96.349c0.378,0.201,0.792,0.312,1.21,0.312
		c0.418,0,0.831-0.112,1.21-0.312l7.503,7.503c-0.401,0.757-0.401,1.663,0,2.42l-7.503,7.503c-0.757-0.402-1.664-0.402-2.42,0
		l-7.503-7.503c0.401-0.757,0.401-1.663,0-2.42L153.614,96.349z M173.548,96.349c0.379,0.201,0.792,0.312,1.21,0.312
		c0.418,0,0.831-0.112,1.21-0.312l7.503,7.503c-0.401,0.757-0.401,1.663,0,2.42l-7.503,7.503c-0.757-0.402-1.664-0.402-2.42,0
		l-7.503-7.503c0.401-0.757,0.401-1.663,0-2.42L173.548,96.349z M193.482,96.349c0.379,0.201,0.792,0.312,1.211,0.312
		c0.418,0,0.831-0.112,1.21-0.312l7.503,7.503c-0.401,0.757-0.401,1.663,0,2.42l-7.503,7.503c-0.758-0.402-1.664-0.402-2.421,0
		l-7.503-7.503c0.401-0.757,0.401-1.663,0-2.42L193.482,96.349z M213.415,96.349c0.379,0.201,0.792,0.312,1.211,0.312
		c0.418,0,0.831-0.112,1.21-0.312l7.503,7.503c-0.401,0.757-0.401,1.663,0,2.42l-7.503,7.503c-0.757-0.402-1.664-0.402-2.421,0
		l-7.503-7.503c0.401-0.757,0.401-1.663,0-2.42L213.415,96.349z M233.349,96.349c0.379,0.201,0.792,0.312,1.21,0.312
		c0.418,0,0.831-0.112,1.21-0.312l7.503,7.503c-0.401,0.757-0.401,1.663,0,2.42l-7.503,7.503c-0.757-0.402-1.664-0.402-2.42,0
		l-7.503-7.503c0.401-0.757,0.401-1.663,0-2.42L233.349,96.349z M253.283,96.349c0.378,0.201,0.792,0.312,1.21,0.312
		c0.418,0,0.831-0.112,1.21-0.312l7.503,7.503c-0.401,0.757-0.401,1.663,0,2.42l-7.503,7.503c-0.758-0.402-1.664-0.402-2.421,0
		l-7.503-7.503c0.401-0.757,0.401-1.663,0-2.42L253.283,96.349z M273.217,96.349c0.379,0.201,0.792,0.312,1.21,0.312
		c0.418,0,0.831-0.112,1.21-0.312l7.503,7.503c-0.401,0.757-0.401,1.663,0,2.42l-7.503,7.503c-0.757-0.402-1.664-0.402-2.42,0
		l-7.503-7.503c0.401-0.757,0.401-1.663,0-2.42L273.217,96.349z M293.15,96.349c0.379,0.201,0.792,0.312,1.211,0.312
		c0.418,0,0.831-0.112,1.21-0.312l7.503,7.503c-0.401,0.757-0.401,1.663,0,2.42l-7.503,7.503c-0.758-0.402-1.664-0.402-2.421,0
		l-7.503-7.503c0.401-0.757,0.401-1.663,0-2.42L293.15,96.349z M313.084,96.349c0.379,0.201,0.792,0.312,1.211,0.312
		c0.418,0,0.831-0.112,1.21-0.312l7.503,7.503c-0.401,0.757-0.401,1.663,0,2.42l-7.503,7.503c-0.758-0.402-1.664-0.402-2.421,0
		l-7.503-7.503c0.401-0.757,0.401-1.663,0-2.42L313.084,96.349z M333.018,96.349c0.379,0.201,0.792,0.312,1.211,0.312
		c0.418,0,0.831-0.112,1.21-0.312l7.503,7.503c-0.401,0.757-0.401,1.663,0,2.42l-7.503,7.503c-0.758-0.402-1.664-0.402-2.421,0
		l-7.503-7.503c0.401-0.757,0.401-1.663,0-2.42L333.018,96.349z M352.952,96.349c0.379,0.201,0.792,0.312,1.211,0.312
		c0.418,0,0.831-0.112,1.21-0.312l7.503,7.503c-0.401,0.757-0.401,1.663,0,2.42l-7.503,7.503c-0.757-0.401-1.664-0.401-2.42,0
		l-7.503-7.503c0.401-0.757,0.401-1.663,0-2.42L352.952,96.349z M371.455,115.029l-7.326,7.326l-7.326-7.326l7.326-7.326
		L371.455,115.029z M351.521,115.029l-7.326,7.326l-7.326-7.326l7.326-7.326L351.521,115.029z M331.587,115.029l-7.326,7.326
		l-7.326-7.326l7.326-7.326L331.587,115.029z M311.653,115.029l-7.326,7.326l-7.326-7.326l7.326-7.326L311.653,115.029z
		 M291.72,115.029l-7.326,7.326l-7.326-7.326l7.326-7.326L291.72,115.029z M271.786,115.029l-7.326,7.326l-7.326-7.326l7.326-7.326
		L271.786,115.029z M251.852,115.029l-7.326,7.326l-7.326-7.326l7.326-7.326L251.852,115.029z M231.918,115.029l-7.326,7.326
		l-7.326-7.326l7.326-7.326L231.918,115.029z M211.984,115.029l-7.326,7.326l-7.326-7.326l7.326-7.326L211.984,115.029z
		 M192.051,115.029l-7.326,7.326l-7.326-7.326l7.326-7.326L192.051,115.029z M172.117,115.029l-7.326,7.326l-7.326-7.326
		l7.326-7.326L172.117,115.029z M152.183,115.029l-7.326,7.326l-7.326-7.326l7.326-7.326L152.183,115.029z M132.249,115.029
		l-7.326,7.326l-7.326-7.326l7.326-7.326L132.249,115.029z M112.316,115.029l-7.326,7.326l-7.326-7.326l7.326-7.326L112.316,115.029
		z M92.382,115.029l-7.326,7.326l-7.326-7.326l7.326-7.326L92.382,115.029z M72.448,115.029l-7.326,7.326l-7.326-7.326l7.326-7.326
		L72.448,115.029z M351.521,95.095l-7.326,7.326l-7.326-7.326l7.326-7.326L351.521,95.095z M331.587,95.095l-7.326,7.326
		l-7.326-7.326l7.326-7.326L331.587,95.095z M311.653,95.095l-7.326,7.326l-7.326-7.326l7.326-7.326L311.653,95.095z M291.72,95.095
		l-7.326,7.326l-7.326-7.326l7.326-7.326L291.72,95.095z M271.786,95.095l-7.326,7.326l-7.326-7.326l7.326-7.326L271.786,95.095z
		 M251.852,95.095l-7.326,7.326l-7.326-7.326l7.326-7.326L251.852,95.095z M231.918,95.095l-7.326,7.326l-7.326-7.326l7.326-7.326
		L231.918,95.095z M211.984,95.095l-7.326,7.326l-7.326-7.326l7.326-7.326L211.984,95.095z M192.051,95.095l-7.326,7.326
		l-7.326-7.326l7.326-7.326L192.051,95.095z M172.117,95.095l-7.326,7.326l-7.326-7.326l7.326-7.326L172.117,95.095z
		 M152.183,95.095l-7.326,7.326l-7.326-7.326l7.326-7.326L152.183,95.095z M132.249,95.095l-7.326,7.326l-7.326-7.326l7.326-7.326
		L132.249,95.095z M112.316,95.095l-7.326,7.326l-7.326-7.326l7.326-7.326L112.316,95.095z M92.382,95.095l-7.326,7.326
		l-7.326-7.326l7.326-7.326L92.382,95.095z M72.448,95.095l-7.326,7.326l-7.326-7.326l7.326-7.326L72.448,95.095z M382.809,86.339
		l-7.503,7.503c-0.757-0.401-1.663-0.401-2.42,0l-7.503-7.503c0.401-0.757,0.401-1.663,0-2.42l7.503-7.503
		c0.379,0.201,0.792,0.312,1.211,0.312c0.418,0,0.831-0.112,1.21-0.312l7.503,7.503C382.407,84.675,382.407,85.581,382.809,86.339z
		 M371.455,75.161l-7.326,7.326l-7.326-7.326l7.326-7.326L371.455,75.161z M351.521,75.161l-7.326,7.326l-7.326-7.326l7.326-7.326
		L351.521,75.161z M331.587,75.161l-7.326,7.326l-7.326-7.326l7.326-7.326L331.587,75.161z M311.653,75.161l-7.326,7.326
		l-7.326-7.326l7.326-7.326L311.653,75.161z M291.72,75.161l-7.326,7.326l-7.326-7.326l7.326-7.326L291.72,75.161z M271.786,75.161
		l-7.326,7.326l-7.326-7.326l7.326-7.326L271.786,75.161z M251.852,75.161l-7.326,7.326l-7.326-7.326l7.326-7.326L251.852,75.161z
		 M231.918,75.161l-7.326,7.326l-7.326-7.326l7.326-7.326L231.918,75.161z M211.984,75.161l-7.326,7.326l-7.326-7.326l7.326-7.326
		L211.984,75.161z M192.051,75.161l-7.326,7.326l-7.326-7.326l7.326-7.326L192.051,75.161z M172.117,75.161l-7.326,7.326
		l-7.326-7.326l7.326-7.326L172.117,75.161z M152.183,75.161l-7.326,7.326l-7.326-7.326l7.326-7.326L152.183,75.161z
		 M132.249,75.161l-7.326,7.326l-7.326-7.326l7.326-7.326L132.249,75.161z M112.316,75.161l-7.326,7.326l-7.326-7.326l7.326-7.326
		L112.316,75.161z M92.382,75.161l-7.326,7.326l-7.326-7.326l7.326-7.326L92.382,75.161z M72.448,75.161l-7.326,7.326l-7.326-7.326
		l7.326-7.326L72.448,75.161z M27.486,90.001l5.095,5.095l-5.095,5.095V90.001z M27.486,109.934l5.095,5.095l-5.095,5.095V109.934z
		 M27.486,129.868l5.095,5.095l-5.095,5.095V129.868z M27.486,149.802l5.095,5.095l-5.095,5.095V149.802z M27.486,169.736
		l5.095,5.095l-5.095,5.095V169.736z M402.514,140.807l-5.844-5.844l5.844-5.844V140.807z M402.514,120.873l-5.844-5.844
		l5.844-5.844V120.873z M402.514,100.939l-5.844-5.844l5.844-5.844V100.939z M384.062,82.487l-7.326-7.326l7.326-7.326l7.326,7.326
		L384.062,82.487z M371.455,55.228l-7.326,7.326l-7.326-7.326l7.326-7.326L371.455,55.228z M362.875,46.471l-7.503,7.503
		c-0.757-0.401-1.664-0.401-2.42,0l-7.503-7.503c0.401-0.757,0.401-1.663,0-2.42l2.281-2.281h12.865l2.281,2.281
		C362.474,44.808,362.474,45.714,362.875,46.471z M351.521,55.228l-7.326,7.326l-7.326-7.326l7.326-7.326L351.521,55.228z
		 M342.941,46.471l-7.503,7.503c-0.758-0.402-1.664-0.402-2.421,0l-7.503-7.503c0.401-0.757,0.401-1.663,0-2.42l2.281-2.281h12.865
		l2.281,2.281C342.54,44.808,342.54,45.714,342.941,46.471z M331.587,55.228l-7.326,7.326l-7.326-7.326l7.326-7.326L331.587,55.228z
		 M323.007,46.471l-7.503,7.503c-0.758-0.402-1.664-0.402-2.421,0l-7.503-7.503c0.401-0.757,0.401-1.663,0-2.42l2.281-2.281h12.865
		l2.281,2.281C322.606,44.808,322.606,45.714,323.007,46.471z M311.653,55.228l-7.326,7.326l-7.326-7.326l7.326-7.326
		L311.653,55.228z M303.074,46.471l-7.503,7.503c-0.758-0.402-1.664-0.402-2.421,0l-7.503-7.503c0.401-0.757,0.401-1.663,0-2.42
		l2.281-2.281h12.865l2.281,2.281C302.672,44.808,302.672,45.714,303.074,46.471z M291.72,55.228l-7.326,7.326l-7.326-7.326
		l7.326-7.326L291.72,55.228z M283.14,46.471l-7.503,7.503c-0.757-0.402-1.664-0.402-2.42,0l-7.503-7.503
		c0.401-0.757,0.401-1.663,0-2.42l2.281-2.281h12.865l2.281,2.281C282.738,44.808,282.738,45.714,283.14,46.471z M271.786,55.228
		l-7.326,7.326l-7.326-7.326l7.326-7.326L271.786,55.228z M263.206,46.471l-7.503,7.503c-0.758-0.402-1.664-0.402-2.421,0
		l-7.503-7.503c0.401-0.757,0.401-1.663,0-2.42l2.281-2.281h12.865l2.281,2.281C262.805,44.808,262.805,45.714,263.206,46.471z
		 M251.852,55.228l-7.326,7.326l-7.326-7.326l7.326-7.326L251.852,55.228z M243.272,46.471l-7.503,7.503
		c-0.757-0.402-1.664-0.402-2.42,0l-7.503-7.503c0.401-0.757,0.401-1.663,0-2.42l2.281-2.281h12.865l2.281,2.281
		C242.871,44.808,242.871,45.714,243.272,46.471z M231.918,55.228l-7.326,7.326l-7.326-7.326l7.326-7.326L231.918,55.228z
		 M223.339,46.471l-7.503,7.503c-0.757-0.402-1.664-0.402-2.421,0l-7.503-7.503c0.401-0.757,0.401-1.663,0-2.42l2.281-2.281h12.865
		l2.281,2.281C222.937,44.808,222.937,45.714,223.339,46.471z M211.984,55.228l-7.326,7.326l-7.326-7.326l7.326-7.326
		L211.984,55.228z M203.405,46.471l-7.503,7.503c-0.758-0.402-1.664-0.402-2.421,0l-7.503-7.503c0.401-0.757,0.401-1.663,0-2.42
		l2.281-2.281h12.865l2.281,2.281C203.003,44.808,203.003,45.714,203.405,46.471z M192.051,55.228l-7.326,7.326l-7.326-7.326
		l7.326-7.326L192.051,55.228z M183.471,46.471l-7.503,7.503c-0.757-0.402-1.664-0.402-2.42,0l-7.503-7.503
		c0.401-0.757,0.401-1.663,0-2.42l2.281-2.281h12.865l2.281,2.281C183.07,44.808,183.07,45.714,183.471,46.471z M172.117,55.228
		l-7.326,7.326l-7.326-7.326l7.326-7.326L172.117,55.228z M163.537,46.471l-7.503,7.503c-0.757-0.402-1.664-0.402-2.42,0
		l-7.503-7.503c0.401-0.757,0.401-1.663,0-2.42l2.281-2.281h12.865l2.281,2.281C163.136,44.808,163.136,45.714,163.537,46.471z
		 M152.183,55.228l-7.326,7.326l-7.326-7.326l7.326-7.326L152.183,55.228z M143.604,46.471l-7.503,7.503
		c-0.757-0.402-1.664-0.402-2.42,0l-7.503-7.503c0.401-0.757,0.401-1.663,0-2.42l2.281-2.281h12.865l2.281,2.281
		C143.202,44.808,143.202,45.714,143.604,46.471z M132.249,55.228l-7.326,7.326l-7.326-7.326l7.326-7.326L132.249,55.228z
		 M123.67,46.471l-7.503,7.503c-0.757-0.402-1.664-0.402-2.421,0l-7.503-7.503c0.401-0.757,0.401-1.663,0-2.42l2.281-2.281h12.865
		l2.281,2.281C123.268,44.808,123.268,45.714,123.67,46.471z M112.316,55.228l-7.326,7.326l-7.326-7.326l7.326-7.326L112.316,55.228
		z M103.736,46.471l-7.503,7.503c-0.758-0.402-1.664-0.402-2.421,0l-7.503-7.503c0.401-0.757,0.401-1.663,0-2.42l2.281-2.281h12.865
		l2.281,2.281C103.335,44.808,103.335,45.714,103.736,46.471z M92.382,55.228l-7.326,7.326l-7.326-7.326l7.326-7.326L92.382,55.228z
		 M83.802,46.471l-7.503,7.503c-0.757-0.402-1.664-0.402-2.42,0l-7.503-7.503c0.401-0.757,0.401-1.663,0-2.42l2.281-2.281h12.865
		l2.281,2.281C83.401,44.808,83.401,45.714,83.802,46.471z M72.448,55.228l-7.326,7.326l-7.326-7.326l7.326-7.326L72.448,55.228z
		 M52.514,55.228l-7.326,7.326l-7.326-7.326l7.326-7.326L52.514,55.228z M32.581,75.161l-5.095,5.095V70.067L32.581,75.161z
		 M384.062,182.156l-7.326-7.326l7.326-7.326l7.326,7.326L384.062,182.156z M402.514,168.986v11.688l-5.844-5.844L402.514,168.986z
		 M396.67,75.161l5.844-5.844v11.688L396.67,75.161z M395.24,53.974c-0.757-0.401-1.664-0.401-2.42,0l-7.503-7.503
		c0.401-0.757,0.401-1.663,0-2.42l2.281-2.281h12.865l2.052,2.053v0.693v2.184L395.24,53.974z M384.062,42.62l-0.85-0.85h1.7
		L384.062,42.62z M364.129,42.62l-0.85-0.85h1.7L364.129,42.62z M344.195,42.62l-0.85-0.85h1.7L344.195,42.62z M324.261,42.62
		l-0.85-0.85h1.7L324.261,42.62z M304.327,42.62l-0.85-0.85h1.7L304.327,42.62z M284.394,42.62l-0.85-0.85h1.7L284.394,42.62z
		 M264.46,42.62l-0.85-0.85h1.7L264.46,42.62z M244.526,42.62l-0.85-0.85h1.7L244.526,42.62z M224.592,42.62l-0.85-0.85h1.7
		L224.592,42.62z M204.659,42.62l-0.85-0.85h1.7L204.659,42.62z M184.725,42.62l-0.85-0.85h1.7L184.725,42.62z M164.791,42.62
		l-0.85-0.85h1.7L164.791,42.62z M144.857,42.62l-0.85-0.85h1.7L144.857,42.62z M124.924,42.62l-0.85-0.85h1.7L124.924,42.62z
		 M104.99,42.62l-0.85-0.85h1.7L104.99,42.62z M85.056,42.62l-0.85-0.85h1.7L85.056,42.62z M65.122,42.62l-0.85-0.85h1.7
		L65.122,42.62z M45.189,42.62l-0.85-0.85h1.7L45.189,42.62z M27.486,50.133l5.095,5.095l-5.095,5.095v-1.019V50.133z
		 M27.486,189.669l5.095,5.095l-5.095,5.095v-9.189V189.669z M395.24,193.51c-0.757-0.401-1.664-0.401-2.42,0l-7.503-7.503
		c0.401-0.757,0.401-1.663,0-2.42l7.503-7.503c0.379,0.201,0.792,0.312,1.211,0.312c0.418,0,0.831-0.112,1.21-0.312l7.275,7.275
		v2.877L395.24,193.51z M402.514,61.072l-5.844-5.844l5.844-5.844v9.919V61.072z M402.514,29.45v0.929h-0.929L402.514,29.45z
		 M381.651,30.379l2.411-2.411l2.411,2.411H381.651z M364.129,27.968l2.411,2.411h-4.822L364.129,27.968z M344.195,27.968
		l2.411,2.411h-4.822L344.195,27.968z M324.261,27.968l2.411,2.411h-4.822L324.261,27.968z M304.327,27.968l2.411,2.411h-4.822
		L304.327,27.968z M284.394,27.968l2.411,2.411h-4.822L284.394,27.968z M264.46,27.968l2.411,2.411h-4.822L264.46,27.968z
		 M244.526,27.968l2.411,2.411h-4.822L244.526,27.968z M224.592,27.968l2.411,2.411h-4.822L224.592,27.968z M204.659,27.968
		l2.411,2.411h-4.822L204.659,27.968z M184.725,27.968l2.411,2.411h-4.822L184.725,27.968z M164.791,27.968l2.411,2.411h-4.822
		L164.791,27.968z M144.857,27.968l2.411,2.411h-4.822L144.857,27.968z M124.924,27.968l2.411,2.411h-4.822L124.924,27.968z
		 M104.99,27.968l2.411,2.411h-4.822L104.99,27.968z M85.056,27.968l2.411,2.411h-4.822L85.056,27.968z M65.122,27.968l2.411,2.411
		h-4.822L65.122,27.968z M45.189,27.968l2.411,2.411h-4.822L45.189,27.968z M27.486,30.199l0.18,0.18h-0.18V30.199z M14.503,41.77
		h7.288v2.745v14.788h-7.288V41.77z M14.503,190.67V68.724h7.288V190.67H14.503z M35.712,234.098c-0.27,0.271-0.708,0.272-0.98,0
		l-7.246-7.246v-4.375l6.526-6.526c0.379,0.201,0.792,0.312,1.21,0.312c0.418,0,0.831-0.112,1.21-0.312l7.503,7.503
		c-0.401,0.757-0.401,1.663,0,2.42L35.712,234.098z M55.645,234.098c-0.27,0.271-0.708,0.272-0.98,0l-8.223-8.223
		c0.401-0.757,0.401-1.663,0-2.42l7.503-7.503c0.379,0.201,0.792,0.312,1.21,0.312c0.418,0,0.831-0.112,1.21-0.312l7.503,7.503
		c-0.401,0.757-0.401,1.663,0,2.42L55.645,234.098z M75.579,234.098c-0.27,0.271-0.708,0.272-0.98,0l-8.223-8.223
		c0.401-0.757,0.401-1.663,0-2.42l7.503-7.503c0.379,0.201,0.792,0.312,1.211,0.312c0.418,0,0.831-0.112,1.21-0.312l7.503,7.503
		c-0.401,0.757-0.401,1.663,0,2.42L75.579,234.098z M95.513,234.098c-0.269,0.271-0.707,0.272-0.98,0l-8.223-8.223
		c0.401-0.757,0.401-1.663,0-2.42l7.503-7.503c0.379,0.201,0.792,0.312,1.21,0.312c0.418,0,0.831-0.112,1.21-0.312l7.503,7.503
		c-0.401,0.757-0.401,1.663,0,2.42L95.513,234.098z M115.447,234.098c-0.269,0.271-0.707,0.272-0.98,0l-8.223-8.223
		c0.401-0.757,0.401-1.663,0-2.42l7.503-7.503c0.379,0.201,0.792,0.312,1.21,0.312c0.418,0,0.831-0.112,1.21-0.312l7.503,7.503
		c-0.401,0.757-0.401,1.663,0,2.42L115.447,234.098z M135.38,234.098c-0.27,0.271-0.708,0.272-0.98,0l-8.223-8.223
		c0.401-0.757,0.401-1.663,0-2.42l7.503-7.503c0.379,0.201,0.792,0.312,1.211,0.312c0.418,0,0.831-0.112,1.21-0.312l7.503,7.503
		c-0.401,0.757-0.401,1.663,0,2.42L135.38,234.098z M155.314,234.098c-0.27,0.271-0.708,0.272-0.98,0l-8.223-8.223
		c0.401-0.757,0.401-1.663,0-2.42l7.503-7.503c0.378,0.201,0.792,0.312,1.21,0.312c0.418,0,0.831-0.112,1.21-0.312l7.503,7.503
		c-0.401,0.757-0.401,1.663,0,2.42L155.314,234.098z M175.248,234.098c-0.27,0.271-0.708,0.272-0.98,0l-8.223-8.223
		c0.401-0.757,0.401-1.663,0-2.42l7.503-7.503c0.379,0.201,0.792,0.312,1.21,0.312c0.418,0,0.831-0.112,1.21-0.312l7.503,7.503
		c-0.401,0.757-0.401,1.663,0,2.42L175.248,234.098z M195.182,234.098c-0.27,0.271-0.708,0.272-0.98,0l-8.223-8.223
		c0.401-0.757,0.401-1.663,0-2.42l7.503-7.503c0.379,0.201,0.792,0.312,1.211,0.312c0.418,0,0.831-0.112,1.21-0.312l7.503,7.503
		c-0.401,0.757-0.401,1.663,0,2.42L195.182,234.098z M215.115,234.098c-0.269,0.271-0.707,0.272-0.98,0l-8.223-8.223
		c0.401-0.757,0.401-1.663,0-2.42l7.503-7.503c0.379,0.201,0.792,0.312,1.211,0.312c0.418,0,0.831-0.112,1.21-0.312l7.503,7.503
		c-0.401,0.757-0.401,1.663,0,2.42L215.115,234.098z M235.049,234.098c-0.269,0.271-0.707,0.272-0.98,0l-8.223-8.223
		c0.401-0.757,0.401-1.663,0-2.42l7.503-7.503c0.379,0.201,0.792,0.312,1.21,0.312c0.418,0,0.831-0.112,1.21-0.312l7.503,7.503
		c-0.401,0.757-0.401,1.663,0,2.42L235.049,234.098z M254.983,234.098c-0.269,0.271-0.707,0.272-0.98,0l-8.223-8.223
		c0.401-0.757,0.401-1.663,0-2.42l7.503-7.503c0.378,0.201,0.792,0.312,1.21,0.312c0.418,0,0.831-0.112,1.21-0.312l7.503,7.503
		c-0.401,0.757-0.401,1.663,0,2.42L254.983,234.098z M274.917,234.098c-0.27,0.271-0.708,0.272-0.98,0l-8.223-8.223
		c0.401-0.757,0.401-1.663,0-2.42l7.503-7.503c0.379,0.201,0.792,0.312,1.21,0.312c0.418,0,0.831-0.112,1.21-0.312l7.503,7.503
		c-0.401,0.757-0.401,1.663,0,2.42L274.917,234.098z M294.85,234.098c-0.27,0.271-0.708,0.272-0.98,0l-8.223-8.223
		c0.401-0.757,0.401-1.663,0-2.42l7.503-7.503c0.379,0.201,0.792,0.312,1.211,0.312c0.418,0,0.831-0.112,1.21-0.312l7.503,7.503
		c-0.401,0.757-0.401,1.663,0,2.42L294.85,234.098z M314.784,234.098c-0.27,0.271-0.708,0.272-0.98,0l-8.223-8.223
		c0.401-0.757,0.401-1.663,0-2.42l7.503-7.503c0.379,0.201,0.792,0.312,1.211,0.312c0.418,0,0.831-0.112,1.21-0.312l7.503,7.503
		c-0.401,0.757-0.401,1.663,0,2.42L314.784,234.098z M334.718,234.098c-0.27,0.271-0.708,0.272-0.98,0l-8.223-8.223
		c0.401-0.757,0.401-1.663,0-2.42l7.503-7.503c0.379,0.201,0.792,0.312,1.211,0.312c0.418,0,0.831-0.112,1.21-0.312l7.503,7.503
		c-0.401,0.757-0.401,1.663,0,2.42L334.718,234.098z M354.652,234.098c-0.269,0.271-0.707,0.272-0.98,0l-8.223-8.223
		c0.401-0.757,0.401-1.663,0-2.42l7.503-7.503c0.379,0.201,0.792,0.312,1.211,0.312c0.418,0,0.831-0.112,1.21-0.312l7.503,7.503
		c-0.401,0.757-0.401,1.663,0,2.42L354.652,234.098z M374.585,234.098c-0.269,0.271-0.707,0.272-0.98,0l-8.223-8.223
		c0.401-0.757,0.401-1.663,0-2.42l7.503-7.503c0.379,0.201,0.792,0.312,1.211,0.312c0.418,0,0.831-0.112,1.21-0.312l7.503,7.503
		c-0.401,0.757-0.401,1.663,0,2.42L374.585,234.098z M394.519,234.098c-0.269,0.271-0.707,0.272-0.98,0l-8.223-8.223
		c0.401-0.757,0.401-1.663,0-2.42l7.503-7.503c0.379,0.201,0.792,0.312,1.211,0.312c0.418,0,0.831-0.112,1.21-0.312l7.275,7.275
		v2.877L394.519,234.098z M402.514,200.608l-5.844-5.844l5.844-5.844v1.75v9.421V200.608z M408.209,190.67V68.724h7.288V190.67
		H408.209z"/>
</g>
<g id="Layer_1">
</g>
</svg>
